<?xml version="1.0" encoding="UTF-8"?><svg xmlns="http://www.w3.org/2000/svg" viewBox="0 0 24 24"><g id="a"/><g id="b"/><g id="c"/><g id="d"/><g id="e"/><g id="f"/><g id="g"><g><path d="M17,2.25H7c-2.07,0-3.75,1.68-3.75,3.75v1c0,.41,.34,.75,.75,.75h3.43c-1.74,1.27-2.93,3.24-3.14,5.5h6.96V7.75h1.5v5.5h6.96c-.22-2.26-1.41-4.23-3.14-5.5h3.43c.41,0,.75-.34,.75-.75v-1c0-2.07-1.68-3.75-3.75-3.75Z"/><path d="M12.75,21.71c3.68-.35,6.61-3.29,6.96-6.96h-6.96v6.96Z"/><path d="M11.25,21.71v-6.96H4.29c.35,3.68,3.29,6.61,6.96,6.96Z"/></g></g><g id="h"/><g id="i"/><g id="j"/><g id="k"/><g id="l"/><g id="m"/><g id="n"/><g id="o"/><g id="p"/><g id="q"/><g id="r"/><g id="s"/><g id="t"/><g id="u"/></svg>