<?xml version="1.0" encoding="UTF-8"?><svg xmlns="http://www.w3.org/2000/svg" viewBox="0 0 24 24"><g id="a"/><g id="b"><g><rect x="8.75" y="14.75" width="6.5" height="1.5" rx=".25" ry=".25"/><path d="M20.97,11.18c-.3-.57-.89-.93-1.55-.93H4.58c-.66,0-1.25,.36-1.55,.93-.46,.88-.72,1.82-.78,2.77-.2,3.25,2,5.54,2.96,6.37,.32,.27,.72,.42,1.14,.42h11.28c.42,0,.83-.15,1.15-.43,.96-.83,3.16-3.12,2.96-6.37-.06-.96-.32-1.89-.78-2.77Zm-4.22,4.82c0,.96-.79,1.75-1.75,1.75h-6c-.96,0-1.75-.79-1.75-1.75v-1c0-.96,.79-1.75,1.75-1.75h6c.96,0,1.75,.79,1.75,1.75v1Z"/><path d="M19.42,8.75c.1,0,.21,.01,.31,.02-.11-.86-.84-1.52-1.73-1.52H6c-.89,0-1.61,.67-1.73,1.52,.1,0,.2-.02,.31-.02h14.84Z"/><path d="M18,5.75c.25,0,.5,.04,.73,.09h0c-.19-.86-.59-1.66-1.16-2.33-.25-.29-.69-.35-1.01-.12-.55,.4-1.16,.7-1.79,.89-1.66,.52-3.16,.19-4.48-.1-1.37-.3-2.66-.59-3.74,.22-.44,.33-.77,.79-.99,1.39,.14-.02,.29-.04,.43-.04h12Z"/></g></g><g id="c"/><g id="d"/><g id="e"/><g id="f"/><g id="g"/><g id="h"/><g id="i"/><g id="j"/><g id="k"/><g id="l"/><g id="m"/><g id="n"/><g id="o"/><g id="p"/><g id="q"/><g id="r"/><g id="s"/><g id="t"/><g id="u"/></svg>