<?xml version="1.0" encoding="UTF-8"?><svg xmlns="http://www.w3.org/2000/svg" viewBox="0 0 24 24"><g id="a"/><g id="b"/><g id="c"/><g id="d"/><g id="e"/><g id="f"/><g id="g"/><g id="h"/><g id="i"/><g id="j"/><g id="k"><g><path d="M10.07,9.52c-.29-.29-.77-.29-1.06,0L3.35,15.17c-1.46,1.46-1.46,3.84,0,5.3,.71,.71,1.65,1.1,2.65,1.1s1.94-.39,2.65-1.1l5.66-5.66c.14-.14,.22-.33,.22-.53s-.08-.39-.22-.53l-4.24-4.24Zm-.71,6.01l-2.12,2.12c-.15,.15-.34,.22-.53,.22s-.38-.07-.53-.22c-.29-.29-.29-.77,0-1.06l2.12-2.12c.29-.29,.77-.29,1.06,0s.29,.77,0,1.06Z"/><path d="M18.55,5.28c-2.36-2.36-5.19-2.91-6.66-3.02-.87-.05-1.67,.54-1.84,1.4l-.83,4.17c.11-.02,.21-.03,.32-.03,.6,0,1.17,.23,1.59,.66l4.24,4.24c.43,.42,.66,.99,.66,1.59,0,.11-.02,.22-.03,.32l4.17-.83c.86-.17,1.47-.97,1.4-1.86-.26-3.61-2.38-5.99-3.02-6.64Z"/></g></g><g id="l"/><g id="m"/><g id="n"/><g id="o"/><g id="p"/><g id="q"/><g id="r"/><g id="s"/><g id="t"/><g id="u"/></svg>