<?xml version="1.0" encoding="UTF-8"?><svg xmlns="http://www.w3.org/2000/svg" viewBox="0 0 24 24"><g id="a"/><g id="b"/><g id="c"><g><path d="M12,14.75h-1c-.14,0-.25,.11-.25,.25v6.75h1.5v-6.75c0-.14-.11-.25-.25-.25Z"/><path d="M17.06,15.78c-.23-.43-.39-.74-.37-1.3,.01-.47,.14-.75,.34-1.17,.22-.47,.49-1.05,.64-2.02,.06-.41,.09-.82,.09-1.23,0-1-.79-1.81-1.75-1.81H7c-.96,0-1.75,.81-1.75,1.81,0,.41,.03,.83,.09,1.24,.15,.97,.42,1.55,.64,2.02,.2,.42,.33,.7,.34,1.17,.02,.56-.15,.87-.37,1.3-.24,.45-.54,1.01-.61,1.89-.06,.72,.05,1.47,.32,2.22,.42,1.13,1.41,1.86,2.54,1.86h1.05v-6.75c0-.96,.79-1.75,1.75-1.75h1c.96,0,1.75,.79,1.75,1.75v6.75h1.05c1.13,0,2.13-.73,2.54-1.86,.28-.75,.38-1.5,.32-2.22-.07-.88-.37-1.44-.61-1.89Z"/><path d="M16,6.75c.11,0,.21,.02,.31,.03l-.09-.3c-.16-.57-.57-.99-1.07-1.15-.3-1.74-1.82-3.08-3.65-3.08s-3.35,1.33-3.65,3.08c-.5,.16-.91,.58-1.07,1.15l-.09,.3c.1-.01,.2-.03,.31-.03H16Z"/></g></g><g id="d"/><g id="e"/><g id="f"/><g id="g"/><g id="h"/><g id="i"/><g id="j"/><g id="k"/><g id="l"/><g id="m"/><g id="n"/><g id="o"/><g id="p"/><g id="q"/><g id="r"/><g id="s"/><g id="t"/><g id="u"/></svg>