<?xml version="1.0" encoding="UTF-8"?><svg xmlns="http://www.w3.org/2000/svg" viewBox="0 0 24 24"><g id="a"/><g id="b"/><g id="c"/><g id="d"/><g id="e"/><g id="f"/><g id="g"/><g id="h"/><g id="i"/><g id="j"/><g id="k"/><g id="l"/><g id="m"/><g id="n"/><g id="o"/><g id="p"><g><path d="M10.75,15.49c0,.96,.78,1.74,1.74,1.74s1.74-.78,1.74-1.74-.78-1.74-1.74-1.74-1.74,.78-1.74,1.74Z"/><path d="M22.49,12.14c-.39-.14-.82,.06-.96,.45-.07,.2-.48,1.19-1.54,1.55-.1,.03-.19,.09-.26,.16-.66-.37-1.31-.69-1.94-.94,.72-.53,1.36-1.19,1.84-1.95,.22-.35,.12-.81-.23-1.04-.35-.22-.81-.12-1.04,.23-.45,.71-1.06,1.32-1.77,1.77-.23,.15-.49,.27-.74,.38-1.22-.31-2.32-.44-3.18-.48,1.7,.1,3.05,1.5,3.05,3.22s-1.45,3.24-3.24,3.24-3.24-1.45-3.24-3.24,1.4-3.17,3.13-3.23c-.13,0-.27-.01-.38-.01-4.57,0-7.88,1.97-9.45,3.15-.21,.16-.33,.42-.29,.69,.03,.27,.2,.49,.45,.6,.66,.28,1.3,.6,1.92,.96,1.3,.75,1.99,1.36,2.59,1.9,.43,.39,.84,.75,1.39,1.09,1.26,.77,2.71,1.09,4.15,1.09,1.66,0,3.29-.42,4.58-1.06,2.31-1.15,3.63-2.99,4.33-4.33,.17-.33,.08-.73-.21-.95-.09-.07-.18-.12-.26-.18,1.17-.7,1.65-1.85,1.75-2.11,.14-.39-.06-.82-.45-.96Z"/><path d="M3,10.77c.1,0,.19-.02,.28-.06,2.2-.9,4.5-1.56,6.84-1.95,3.55-.6,7.16-.6,10.75,0,.31,.05,.62-.09,.77-.36,.16-.27,.13-.61-.07-.85-1.21-1.48-2.66-2.57-4.3-3.22-2.9-1.16-5.58-.61-8.43-.04-2.11,.43-4.18,1.12-6.17,2.06-.26,.12-.43,.39-.43,.68v3c0,.25,.12,.48,.33,.62,.13,.08,.27,.13,.42,.13Z"/></g></g><g id="q"/><g id="r"/><g id="s"/><g id="t"/><g id="u"/></svg>