<?xml version="1.0" encoding="UTF-8"?><svg xmlns="http://www.w3.org/2000/svg" viewBox="0 0 24 24"><g id="a"/><g id="b"/><g id="c"/><g id="d"/><g id="e"/><g id="f"><path d="M21.53,8.71c-.25-.25-.63-.27-.91-.1-.58-1.11-1.31-2.13-2.21-3.02-.89-.89-1.91-1.63-3.02-2.21,.18-.29,.15-.66-.1-.91-.29-.29-.77-.29-1.06,0l-.62,.62-1.87,1.87-.62,.62c-.81,.81-1.25,1.88-1.25,3.03s.44,2.22,1.25,3.03l.09,.09-.85,.85-1.22-.24c-.53-.11-1.09,.06-1.47,.45l-.38,.38-.74-.74c-.97-.96-2.54-.97-3.56,.05-.47,.47-.73,1.09-.73,1.75s.26,1.29,.73,1.75l.66,.66h0c.31,.31,.73,.47,1.14,.47s.83-.16,1.14-.47l1.88-1.89,.91-.91s.08-.05,.12-.04l1.13,.23,.23,1.13s0,.09-.04,.12l-.91,.91-1.89,1.88c-.63,.63-.63,1.65,0,2.28l.66,.66c.48,.48,1.1,.72,1.73,.72s1.31-.25,1.82-.77c.97-.97,.97-2.54,0-3.5l-.74-.74,.38-.38c.39-.39,.55-.94,.45-1.48l-.24-1.22,.85-.85,.09,.09c.81,.81,1.88,1.25,3.03,1.25s2.22-.45,3.03-1.25l.62-.62h0l1.87-1.87h0l.62-.62c.29-.29,.29-.77,0-1.06Zm-8.11,3.12l-1.25-1.25c-.52-.53-.81-1.22-.81-1.97s.29-1.44,.81-1.97l.25-.25c1.14,.53,2.17,1.23,3.06,2.12,.88,.88,1.6,1.93,2.12,3.06l-.25,.25c-1.05,1.05-2.88,1.05-3.93,0Z"/></g><g id="g"/><g id="h"/><g id="i"/><g id="j"/><g id="k"/><g id="l"/><g id="m"/><g id="n"/><g id="o"/><g id="p"/><g id="q"/><g id="r"/><g id="s"/><g id="t"/><g id="u"/></svg>