<?xml version="1.0" encoding="UTF-8"?><svg xmlns="http://www.w3.org/2000/svg" viewBox="0 0 24 24"><g id="a"/><g id="b"/><g id="c"/><g id="d"/><g id="e"/><g id="f"/><g id="g"/><g id="h"/><g id="i"/><g id="j"/><g id="k"/><g id="l"/><g id="m"><g><path d="M21.58,7.53c-1.21-1.48-2.66-2.57-4.3-3.22-2.9-1.15-5.58-.61-8.43-.04-2.11,.43-4.18,1.12-6.17,2.06-.26,.12-.43,.39-.43,.68v3c0,.25,.12,.48,.33,.62,.13,.08,.27,.13,.42,.13,.1,0,.19-.02,.28-.06,2.21-.9,4.51-1.56,6.84-1.95,3.55-.6,7.17-.6,10.75,0,.31,.05,.62-.09,.77-.36,.16-.27,.13-.61-.07-.85Z"/><path d="M19.51,13.44c-2.91,2.54-6.22,2.81-7.51,2.81-3.87,0-6.54-1.97-7.51-2.81-.31-.27-.78-.24-1.06,.07-.27,.31-.24,.79,.07,1.06,.33,.29,.85,.69,1.51,1.11-.17,.35-.38,.62-.56,.81-.29,.3-.27,.77,.03,1.06,.15,.14,.33,.21,.52,.21,.2,0,.4-.08,.54-.23,.32-.33,.57-.71,.78-1.11,.21,.1,.44,.2,.67,.3-.16,.33-.36,.59-.54,.77-.29,.3-.27,.77,.03,1.06,.15,.14,.33,.21,.52,.21,.2,0,.4-.08,.54-.23,.28-.29,.62-.73,.87-1.3,.23,.07,.46,.14,.71,.2-.17,.47-.44,.83-.67,1.07-.29,.3-.27,.77,.03,1.06,.14,.14,.33,.21,.52,.21,.2,0,.4-.08,.54-.23,.38-.39,.82-1.02,1.06-1.85,.21,.02,.43,.03,.64,.04v1.3c0,.41,.34,.75,.75,.75s.75-.34,.75-.75v-1.28c.2-.01,.41-.03,.64-.06,.24,.83,.69,1.46,1.06,1.85,.15,.15,.34,.23,.54,.23,.19,0,.37-.07,.52-.21,.3-.29,.31-.76,.03-1.06-.23-.24-.5-.6-.67-1.07,.23-.05,.47-.11,.72-.18,.25,.56,.59,1,.87,1.29,.15,.15,.34,.23,.54,.23,.19,0,.37-.07,.52-.21,.3-.29,.31-.76,.03-1.06-.17-.18-.37-.44-.53-.76,.22-.09,.45-.19,.67-.3,.2,.39,.46,.77,.77,1.1,.15,.15,.34,.23,.54,.23,.19,0,.37-.07,.52-.21,.3-.29,.31-.76,.03-1.06-.17-.18-.38-.46-.55-.8,.5-.32,1.01-.69,1.5-1.12,.31-.27,.34-.75,.07-1.06-.27-.31-.75-.34-1.06-.07Z"/></g></g><g id="n"/><g id="o"/><g id="p"/><g id="q"/><g id="r"/><g id="s"/><g id="t"/><g id="u"/></svg>