<?xml version="1.0" encoding="UTF-8"?><svg xmlns="http://www.w3.org/2000/svg" viewBox="0 0 24 24"><g id="a"/><g id="b"/><g id="c"/><g id="d"/><g id="e"/><g id="f"/><g id="g"/><g id="h"/><g id="i"/><g id="j"/><g id="k"/><g id="l"/><g id="m"/><g id="n"/><g id="o"/><g id="p"/><g id="q"/><g id="r"/><g id="s"><g><path d="M4.82,3.87c-1.01,.95-1.57,2.24-1.57,3.63s.56,2.68,1.57,3.63c.93,.88,2.13,1.35,3.4,1.35,.11,0,.21,0,.32-.01l7.71-.48V3.01l-7.71-.48c-1.39-.09-2.71,.39-3.72,1.34Zm3.93,4.13c0,.41-.34,.75-.75,.75s-.75-.34-.75-.75v-1c0-.41,.34-.75,.75-.75s.75,.34,.75,.75v1Z"/><path d="M19.11,3.19l-1.36-.08V11.89l1.36-.08c.92-.06,1.64-.82,1.64-1.75V4.94c0-.92-.72-1.69-1.64-1.75Z"/><path d="M8.22,13.98c-.33,0-.65-.03-.97-.08v2.1c0,1.04,.59,1.94,1.45,2.41-.4,.6-.66,1.27-.38,1.9,.17,.39,.48,.59,.71,.73,.18,.12,.25,.17,.29,.26,.12,.29,.4,.46,.69,.46,.1,0,.2-.02,.29-.06,.38-.16,.56-.6,.4-.98-.22-.52-.6-.76-.85-.93-.05-.03-.11-.07-.13-.06,.02-.08,.13-.4,.67-1.01,1.34-.18,2.38-1.32,2.38-2.71v-2.29l-4.12,.26c-.14,0-.28,.01-.42,.01Z"/></g></g><g id="t"/><g id="u"/></svg>