<?xml version="1.0" encoding="UTF-8"?><svg xmlns="http://www.w3.org/2000/svg" viewBox="0 0 24 24"><g id="a"/><g id="b"/><g id="c"/><g id="d"/><g id="e"/><g id="f"/><g id="g"/><g id="h"/><g id="i"/><g id="j"/><g id="k"/><g id="l"/><g id="m"/><g id="n"/><g id="o"/><g id="p"/><g id="q"/><g id="r"/><g id="s"/><g id="t"/><g id="u"><g><path d="M14,11.25h-4c-.96,0-1.75,.79-1.75,1.75v1.25h7.5v-1.25c0-.96-.79-1.75-1.75-1.75Z"/><path d="M8.25,20c0,.96,.79,1.75,1.75,1.75h4c.96,0,1.75-.79,1.75-1.75v-4.25h-7.5v4.25Z"/><path d="M14,9.75c.26,0,.51,.04,.75,.1v-3.81c0-1.05-.38-2.04-1.08-2.79l-.41-.45c-.67-.71-1.85-.71-2.51,0l-.41,.44c-.7,.75-1.08,1.74-1.08,2.79v3.81c.24-.06,.49-.1,.75-.1h4Z"/></g></g></svg>