<?xml version="1.0" encoding="UTF-8"?><svg xmlns="http://www.w3.org/2000/svg" viewBox="0 0 24 24"><g id="a"/><g id="b"/><g id="c"/><g id="d"/><g id="e"/><g id="f"/><g id="g"/><g id="h"/><g id="i"/><g id="j"/><g id="k"/><g id="l"/><g id="m"/><g id="n"/><g id="o"/><g id="p"/><g id="q"><g><path d="M21.58,10.53c-.63-.77-1.34-1.48-2.11-2.11-1.51-1.24-2.81-2.3-4.53-2.17-.97,.08-1.93,.55-2.76,1.37-.11,.1-.26,.1-.37,0-.83-.82-1.78-1.29-2.76-1.37-1.72-.13-3.02,.93-4.53,2.17-.77,.63-1.48,1.34-2.11,2.11-.2,.24-.22,.59-.06,.86,.16,.27,.48,.41,.79,.35,1.65-.32,3.23-.32,4.7,0,.71,.15,1.2,.33,1.67,.51,.71,.26,1.39,.51,2.49,.51s1.77-.25,2.49-.51c.47-.17,.96-.35,1.67-.51,1.47-.31,3.05-.31,4.7,0,.31,.06,.62-.08,.79-.35,.16-.27,.14-.61-.06-.86Z"/><path d="M16.47,13.2c-.6,.13-1.02,.28-1.46,.45-.77,.28-1.64,.6-3.01,.6s-2.24-.32-3-.6c-.45-.16-.87-.32-1.47-.45-.63-.13-1.29-.2-1.96-.2-.57,0-1.15,.06-1.75,.15,.54,.54,1.13,1.03,1.76,1.47,.85,.58,3.11,2.13,6.42,2.13s5.57-1.55,6.42-2.13c.63-.43,1.22-.92,1.76-1.47-.6-.09-1.19-.15-1.75-.15-.67,0-1.33,.07-1.96,.2Z"/></g></g><g id="r"/><g id="s"/><g id="t"/><g id="u"/></svg>