<?xml version="1.0" encoding="UTF-8"?><svg xmlns="http://www.w3.org/2000/svg" viewBox="0 0 24 24"><g id="a"/><g id="b"/><g id="c"/><g id="d"/><g id="e"/><g id="f"/><g id="g"/><g id="h"/><g id="i"><path d="M14,7.75c.41,0,.75-.34,.75-.75s-.34-.75-.75-.75h-1.25v-.5h1.25c.41,0,.75-.34,.75-.75s-.34-.75-.75-.75h-1.25v-.5h.25c.41,0,.75-.34,.75-.75s-.34-.75-.75-.75h-2c-.41,0-.75,.34-.75,.75s.34,.75,.75,.75h.25v.5h-1.25c-.41,0-.75,.34-.75,.75s.34,.75,.75,.75h1.25v.5h-1.25c-.41,0-.75,.34-.75,.75s.34,.75,.75,.75h1.25v.5h-1.25c-.41,0-.75,.34-.75,.75s.34,.75,.75,.75h1.25v.5h-.25c-.41,0-.75,.34-.75,.75s.34,.75,.75,.75h.25v1.5h-1.25c-.41,0-.75,.34-.75,.75v5c0,1.52,1.23,2.75,2.75,2.75s2.75-1.23,2.75-2.75v-5c0-.41-.34-.75-.75-.75h-1.25v-1.5h.25c.41,0,.75-.34,.75-.75s-.34-.75-.75-.75h-.25v-.5h1.25c.41,0,.75-.34,.75-.75s-.34-.75-.75-.75h-1.25v-.5h1.25Z"/></g><g id="j"/><g id="k"/><g id="l"/><g id="m"/><g id="n"/><g id="o"/><g id="p"/><g id="q"/><g id="r"/><g id="s"/><g id="t"/><g id="u"/></svg>