<?xml version="1.0" encoding="UTF-8"?><svg xmlns="http://www.w3.org/2000/svg" viewBox="0 0 24 24"><g id="a"/><g id="b"/><g id="c"/><g id="d"/><g id="e"/><g id="f"/><g id="g"/><g id="h"/><g id="i"/><g id="j"/><g id="k"/><g id="l"/><g id="m"/><g id="n"/><g id="o"/><g id="p"/><g id="q"/><g id="r"/><g id="s"/><g id="t"><g><path d="M16.5,10.75h-1c-.41,0-.75,.34-.75,.75s.34,.75,.75,.75h1c.41,0,.75-.34,.75-.75s-.34-.75-.75-.75Z"/><path d="M12.5,15.75h-1c-.41,0-.75,.34-.75,.75s.34,.75,.75,.75h1c.41,0,.75-.34,.75-.75s-.34-.75-.75-.75Z"/><path d="M8.5,10.75h-1c-.41,0-.75,.34-.75,.75s.34,.75,.75,.75h1c.41,0,.75-.34,.75-.75s-.34-.75-.75-.75Z"/><path d="M19.4,5.66l-1.87,1.87c-.15,.15-.34,.22-.53,.22s-.38-.07-.53-.22c-.29-.29-.29-.77,0-1.06l1.87-1.87c-1.71-1.46-3.92-2.35-6.34-2.35s-4.63,.89-6.34,2.35l1.87,1.87c.29,.29,.29,.77,0,1.06-.15,.15-.34,.22-.53,.22s-.38-.07-.53-.22l-1.87-1.87c-1.46,1.71-2.35,3.92-2.35,6.34s.88,4.6,2.32,6.3l.92-.85,.98-.98c.29-.29,.77-.29,1.06,0s.29,.77,0,1.06l-1,1-.9,.84c1.71,1.48,3.93,2.38,6.37,2.38s4.65-.9,6.36-2.38l-1.89-1.84c-.29-.29-.29-.77,0-1.06s.77-.29,1.06,0l1,1,.89,.84c1.45-1.7,2.33-3.91,2.33-6.31s-.89-4.63-2.35-6.34ZM7.5,13.75c-1.24,0-2.25-1.01-2.25-2.25s1.01-2.25,2.25-2.25h1c1.24,0,2.25,1.01,2.25,2.25s-1.01,2.25-2.25,2.25h-1Zm5,5h-1c-1.24,0-2.25-1.01-2.25-2.25s1.01-2.25,2.25-2.25h1c1.24,0,2.25,1.01,2.25,2.25s-1.01,2.25-2.25,2.25Zm4-5h-1c-1.24,0-2.25-1.01-2.25-2.25s1.01-2.25,2.25-2.25h1c1.24,0,2.25,1.01,2.25,2.25s-1.01,2.25-2.25,2.25Z"/></g></g><g id="u"/></svg>