<?xml version="1.0" encoding="UTF-8"?><svg xmlns="http://www.w3.org/2000/svg" viewBox="0 0 24 24"><g id="a"/><g id="b"/><g id="c"/><g id="d"/><g id="e"><g><path d="M18.86,16.25h-2.96c-.49,0-.95,.17-1.3,.48l-.47,.41c-.08,.07-.19,.11-.31,.11h-3.63c-.12,0-.24-.04-.31-.11l-.47-.41c-.35-.31-.81-.48-1.3-.48h-2.96c-1.04,0-1.89,.79-1.89,1.75v1c0,1.52,1.36,2.75,3.04,2.75h11.43c1.67,0,3.04-1.23,3.04-2.75v-1c0-.96-.85-1.75-1.89-1.75Z"/><path d="M10.39,15.6l.17,.15h2.88l.17-.15c.63-.55,1.44-.85,2.29-.85h2.85V6c0-2.07-1.68-3.75-3.75-3.75h-6c-2.07,0-3.75,1.68-3.75,3.75V14.75h2.85c.85,0,1.66,.3,2.29,.85Zm3.14-8.13c.29,.29,.29,.77,0,1.06l-2,2c-.15,.15-.34,.22-.53,.22s-.38-.07-.53-.22c-.29-.29-.29-.77,0-1.06l2-2c.29-.29,.77-.29,1.06,0Zm-5.06,0l1-1c.29-.29,.77-.29,1.06,0s.29,.77,0,1.06l-1,1c-.15,.15-.34,.22-.53,.22s-.38-.07-.53-.22c-.29-.29-.29-.77,0-1.06Z"/></g></g><g id="f"/><g id="g"/><g id="h"/><g id="i"/><g id="j"/><g id="k"/><g id="l"/><g id="m"/><g id="n"/><g id="o"/><g id="p"/><g id="q"/><g id="r"/><g id="s"/><g id="t"/><g id="u"/></svg>