<?xml version="1.0" encoding="UTF-8"?><svg xmlns="http://www.w3.org/2000/svg" viewBox="0 0 24 24"><g id="a"/><g id="b"/><g id="c"/><g id="d"/><g id="e"/><g id="f"/><g id="g"/><g id="h"/><g id="i"/><g id="j"><g><path d="M17.83,11.15c-.52-.57-1.26-.9-2.04-.9h-7.58c-.78,0-1.52,.33-2.04,.9-.52,.58-.77,1.35-.7,2.12l.6,6c.14,1.41,1.32,2.48,2.74,2.48h6.38c1.42,0,2.59-1.06,2.74-2.48l.6-6c.08-.77-.18-1.54-.7-2.12Zm-3.08,5.85c0,.96-.79,1.75-1.75,1.75h-2c-.96,0-1.75-.79-1.75-1.75v-2c0-.96,.79-1.75,1.75-1.75h2c.96,0,1.75,.79,1.75,1.75v2Z"/><rect x="10.75" y="14.75" width="2.5" height="2.5" rx=".25" ry=".25"/><path d="M14.85,3.78c-.11-.87-.86-1.53-1.74-1.53h-2.23c-.88,0-1.63,.66-1.74,1.53l-.62,4.97h6.95l-.62-4.97Z"/></g></g><g id="k"/><g id="l"/><g id="m"/><g id="n"/><g id="o"/><g id="p"/><g id="q"/><g id="r"/><g id="s"/><g id="t"/><g id="u"/></svg>