<?xml version="1.0" encoding="UTF-8"?><svg xmlns="http://www.w3.org/2000/svg" viewBox="0 0 24 24"><g id="a"/><g id="b"/><g id="c"/><g id="d"/><g id="e"/><g id="f"/><g id="g"/><g id="h"/><g id="i"/><g id="j"/><g id="k"/><g id="l"><g><path d="M12,10.75c1.52,0,2.75-1.23,2.75-2.75V4c0-.96-.79-1.75-1.75-1.75h-2c-.96,0-1.75,.79-1.75,1.75v4c0,1.52,1.23,2.75,2.75,2.75Z"/><path d="M16.25,7.91v.09c0,2.34-1.91,4.25-4.25,4.25s-4.25-1.91-4.25-4.25v-.09c-.32,.64-.5,1.36-.5,2.09v11c0,.41,.34,.75,.75,.75h8c.41,0,.75-.34,.75-.75V10c0-.74-.18-1.45-.5-2.09Zm-3.25,10.84h-2c-.41,0-.75-.34-.75-.75s.34-.75,.75-.75h2c.41,0,.75,.34,.75,.75s-.34,.75-.75,.75Zm0-3h-2c-.41,0-.75-.34-.75-.75s.34-.75,.75-.75h2c.41,0,.75,.34,.75,.75s-.34,.75-.75,.75Z"/></g></g><g id="m"/><g id="n"/><g id="o"/><g id="p"/><g id="q"/><g id="r"/><g id="s"/><g id="t"/><g id="u"/></svg>