<?xml version="1.0" encoding="UTF-8"?><svg xmlns="http://www.w3.org/2000/svg" viewBox="0 0 24 24"><g id="a"/><g id="b"/><g id="c"/><g id="d"/><g id="e"/><g id="f"/><g id="g"/><g id="h"><g><rect x="8.75" y="12.75" width="5.5" height="4.5" rx=".25" ry=".25"/><path d="M16,8.25h-2.25v-1.5h1.25c.41,0,.75-.34,.75-.75v-2c0-.96-.79-1.75-1.75-1.75h-5c-.96,0-1.75,.79-1.75,1.75v2c0,.41,.34,.75,.75,.75h1.25v1.5h-2.25c-1.52,0-2.75,1.23-2.75,2.75v8c0,1.52,1.23,2.75,2.75,2.75h9c1.52,0,2.75-1.23,2.75-2.75V11c0-1.52-1.23-2.75-2.75-2.75Zm-5.25-1.5h1.5v1.5h-1.5v-1.5Zm5,10.25c0,.96-.79,1.75-1.75,1.75h-5c-.96,0-1.75-.79-1.75-1.75v-4c0-.96,.79-1.75,1.75-1.75h5c.96,0,1.75,.79,1.75,1.75v4Z"/></g></g><g id="i"/><g id="j"/><g id="k"/><g id="l"/><g id="m"/><g id="n"/><g id="o"/><g id="p"/><g id="q"/><g id="r"/><g id="s"/><g id="t"/><g id="u"/></svg>