<?xml version="1.0" encoding="UTF-8"?><svg xmlns="http://www.w3.org/2000/svg" viewBox="0 0 24 24"><g id="a"/><g id="b"/><g id="c"/><g id="d"><g><path d="M12,7.99c-.14,.14-.28,.3-.4,.46-.67,.91-.84,1.9-.85,2.57,0,.66,.57,1.23,1.25,1.23s1.25-.56,1.25-1.25c-.02-.65-.18-1.65-.85-2.55-.12-.16-.25-.32-.4-.46Z"/><path d="M16.04,2.25H7.96c-1.52,0-2.75,1.23-2.75,2.74,0,.66,.02,1.35,.05,2.04,.16,3.26,.69,6.53,1.59,9.71,.33,1.18,1.42,2,2.65,2h5.02c1.23,0,2.32-.82,2.65-2,.9-3.18,1.43-6.45,1.59-9.71,.03-.7,.05-1.38,.05-2.04,0-1.51-1.24-2.74-2.76-2.74Zm-4.04,11.5c-1.52,0-2.75-1.23-2.75-2.75,.02-.91,.24-2.23,1.15-3.45,.32-.43,.71-.82,1.15-1.15,.27-.2,.63-.2,.9,0,.44,.33,.83,.72,1.15,1.15,.91,1.22,1.13,2.54,1.15,3.43,0,1.53-1.23,2.77-2.75,2.77Z"/><path d="M9.49,20.25c-.81,0-1.58-.25-2.24-.66v.91c0,.69,.56,1.25,1.25,1.25h7c.69,0,1.25-.56,1.25-1.25v-.91c-.66,.41-1.43,.66-2.24,.66h-5.02Z"/></g></g><g id="e"/><g id="f"/><g id="g"/><g id="h"/><g id="i"/><g id="j"/><g id="k"/><g id="l"/><g id="m"/><g id="n"/><g id="o"/><g id="p"/><g id="q"/><g id="r"/><g id="s"/><g id="t"/><g id="u"/></svg>