<?xml version="1.0" encoding="utf-8"?>
<!-- Generator: Adobe Illustrator 25.4.1, SVG Export Plug-In . SVG Version: 6.00 Build 0)  -->
<svg version="1.1" id="Layer_1" xmlns="http://www.w3.org/2000/svg" xmlns:xlink="http://www.w3.org/1999/xlink" x="0px" y="0px"
	 viewBox="0 0 64 64" style="enable-background:new 0 0 64 64;" xml:space="preserve">
<style type="text/css">
	.st0{fill:none;stroke:#231F20;stroke-width:2;stroke-linecap:round;stroke-linejoin:round;stroke-miterlimit:10;}
</style>
<g>
	<path class="st0" d="M38.52,49.17c6.58,0.99,11.14-3.06,12.21,3.16c1.02,5.91-8.66,5.7-8.66,5.7H19.19c0,0-7.53,0.34-6.77-6.58
		c0.99-9,7.95-4.26,13.38-5"/>
	<path class="st0" d="M17.57,45.84c0,0-3.27-8.44,6.03-7.83c0,0,2.37,0.17,4.24-0.71"/>
	<path class="st0" d="M41.27,40.83c3.23-1.2,2.89-6.14,1.87-8.41c-3.97-8.85-11.97-9.45-11.97-9.45s3.09,4.93-5.31,8.14
		C19.65,33.47,23.25,38,23.25,38"/>
	<path class="st0" d="M37.55,40.91c0,0,2.7,0.66,5.44-0.71c5.47-2.73,8.21,7.38,2.75,8.66"/>
	<path class="st0" d="M18.28,26.66c0,2.79-2.26,5.04-5.04,5.04c-2.79,0-5.04-2.26-5.04-5.04c0-2.79,2.26-5.04,5.04-5.04
		C16.02,21.62,18.28,23.88,18.28,26.66z"/>
	<path class="st0" d="M35.73,11.87c0,3.66-2.97,6.63-6.63,6.63s-6.63-2.97-6.63-6.63s2.97-6.63,6.63-6.63S35.73,8.2,35.73,11.87z"/>
	<circle class="st0" cx="49.72" cy="22.25" r="4.03"/>
	<path class="st0" d="M11.07,43.88c0,0-2.87,1.58-2.87,6.17"/>
	<path class="st0" d="M55.58,51.93c0,0,1.2,4.29-1.82,6.83"/>
</g>
</svg>
