<?xml version="1.0" encoding="utf-8"?>
<!-- Generator: Adobe Illustrator 25.4.1, SVG Export Plug-In . SVG Version: 6.00 Build 0)  -->
<svg version="1.1" id="Layer_1" xmlns="http://www.w3.org/2000/svg" xmlns:xlink="http://www.w3.org/1999/xlink" x="0px" y="0px"
	 viewBox="0 0 64 64" style="enable-background:new 0 0 64 64;" xml:space="preserve">
<style type="text/css">
	.st0{fill:none;stroke:#231F20;stroke-width:2;stroke-linecap:round;stroke-linejoin:round;stroke-miterlimit:10;}
</style>
<g>
	<path class="st0" d="M47.36,54.71c-2.51,3.12-6.35,5.1-10.64,5.1h-6.1c-4.4,0-8.34-2.09-10.84-5.35"/>
	<path class="st0" d="M16.77,41.67l-0.45-10.39c0-5.44,4.41-9.85,9.85-9.85h14.99c5.44,0,9.85,4.41,9.85,9.85l-0.47,10.77"/>
	<path class="st0" d="M22.77,22.04c0,0-11.14-3.76,0.49-18.93c0,0-1.74,7.2,11.25,7.65c14.76,0.51,12.15,12.34,12.15,12.34"/>
	<path class="st0" d="M18.34,17.46c0,0-6.55,1.45-6.26,10.39c0.29,8.93,4.52,9.78,4.52,9.78"/>
	<path class="st0" d="M47.08,19.11c0,0,8.12-1.22,8.12,10.92c0,5.61-4.49,8.36-4.49,8.36"/>
	<path class="st0" d="M33.03,46.52c0,0-3.98-6.15-10.03-1.88c-6.04,4.27-12.99,0.6-12.99,0.6s5.41,9.51,14.53,4.72
		C31.14,46.49,33.03,46.52,33.03,46.52z"/>
	<path class="st0" d="M33.67,46.52c0,0,3.98-6.15,10.03-1.88c6.04,4.27,12.99,0.6,12.99,0.6s-5.41,9.51-14.53,4.72
		C35.55,46.49,33.67,46.52,33.67,46.52z"/>
	<path class="st0" d="M19.8,8.46c0,0-2.5,4.77,3.47,6.68c5.97,1.91,14.04,1.02,13.7,6.28"/>
</g>
</svg>
