<?xml version="1.0" encoding="utf-8"?>
<!-- Generator: Adobe Illustrator 25.4.1, SVG Export Plug-In . SVG Version: 6.00 Build 0)  -->
<svg version="1.1" id="Layer_1" xmlns="http://www.w3.org/2000/svg" xmlns:xlink="http://www.w3.org/1999/xlink" x="0px" y="0px"
	 viewBox="0 0 64 64" style="enable-background:new 0 0 64 64;" xml:space="preserve">
<style type="text/css">
	.st0{fill:none;stroke:#231F20;stroke-width:2;stroke-linecap:round;stroke-linejoin:round;stroke-miterlimit:10;}
</style>
<g>
	<path class="st0" d="M7.28,22.48V55c0,2.32,1.75,4.21,3.9,4.21h41.51c2.16,0,3.9-1.88,3.9-4.21V22.48"/>
	<rect x="11.79" y="28.11" class="st0" width="20.14" height="25.23"/>
	<line class="st0" x1="23.57" y1="33.56" x2="18.17" y2="39.31"/>
	<line class="st0" x1="24.38" y1="38.73" x2="21.68" y2="41.61"/>
	<rect x="37.05" y="34.48" class="st0" width="14.35" height="24.73"/>
	<path class="st0" d="M15.99,18.31c0,2.87-2.38,5.19-5.31,5.19c-2.94,0-5.31-2.32-5.31-5.19H15.99z"/>
	<path class="st0" d="M26.62,18.31c0,2.87-2.38,5.19-5.31,5.19c-2.94,0-5.31-2.32-5.31-5.19H26.62z"/>
	<path class="st0" d="M37.25,18.31c0,2.87-2.38,5.19-5.31,5.19c-2.94,0-5.31-2.32-5.31-5.19H37.25z"/>
	<path class="st0" d="M47.88,18.31c0,2.87-2.38,5.19-5.31,5.19c-2.94,0-5.31-2.32-5.31-5.19H47.88z"/>
	<path class="st0" d="M58.51,18.31c0,2.87-2.38,5.19-5.31,5.19c-2.94,0-5.31-2.32-5.31-5.19H58.51z"/>
	<polyline class="st0" points="5.36,18.31 11.5,8.76 52.8,8.76 58.51,18.31 	"/>
	<line class="st0" x1="4.11" y1="31.36" x2="4.11" y2="48.98"/>
	<line class="st0" x1="59.89" y1="28.11" x2="59.89" y2="48"/>
	<line class="st0" x1="19.9" y1="8.76" x2="15.88" y2="18.31"/>
	<line class="st0" x1="26.39" y1="18.31" x2="28.78" y2="8.76"/>
	<path class="st0" d="M34.95,8.76c0.14,0,2.3,9.56,2.3,9.56"/>
	<line class="st0" x1="43.46" y1="8.76" x2="47.88" y2="18.31"/>
	<line class="st0" x1="12.87" y1="4.79" x2="38.25" y2="4.79"/>
	<line class="st0" x1="42.57" y1="4.79" x2="49.36" y2="4.79"/>
</g>
</svg>
