<?xml version="1.0" encoding="utf-8"?>
<!-- Generator: Adobe Illustrator 25.4.1, SVG Export Plug-In . SVG Version: 6.00 Build 0)  -->
<svg version="1.1" id="Layer_1" xmlns="http://www.w3.org/2000/svg" xmlns:xlink="http://www.w3.org/1999/xlink" x="0px" y="0px"
	 viewBox="0 0 64 64" style="enable-background:new 0 0 64 64;" xml:space="preserve">
<style type="text/css">
	.st0{fill:none;stroke:#231F20;stroke-width:2;stroke-linecap:round;stroke-linejoin:round;stroke-miterlimit:10;}
</style>
<g>
	<path class="st0" d="M40.67,26.19c-2.66,3.53-3.73,21.01-2.05,26.01c0.62,1.87-0.79,3.79-2.77,3.79H21.61
		c-1.98,0-3.38-1.92-2.77-3.79c1.67-5,0.59-22.48-2.05-26.01c-3.61-4.82-0.95-12.97-0.95-12.97h25.77
		C41.62,13.21,44.28,21.37,40.67,26.19z"/>
	<path class="st0" d="M29.71,13.21l6.19-8.08c0.87-1.13,2.41-1.5,3.7-0.89l15.98,7.61l-2.15,3.26L40.32,9.17
		c-0.75-0.34-1.64-0.12-2.15,0.53l-2.74,3.51"/>
	<path class="st0" d="M19.94,16.96c0,0-1.11,3.07,1.23,7.07"/>
	<line class="st0" x1="19.68" y1="60.05" x2="33.16" y2="60.05"/>
	<path class="st0" d="M19.28,13.21c0,0-1.26-2.82,1.61-3.48c0,0,0.25-3.08,3.68-2.97c0,0,5.19-4.16,9.73,0.47"/>
	<path class="st0" d="M43.23,30.53c0,0-1.81,4.32-1.59,13.58"/>
	<line class="st0" x1="36.73" y1="60.05" x2="38.49" y2="60.05"/>
</g>
</svg>
