<?xml version="1.0" encoding="utf-8"?>
<!-- Generator: Adobe Illustrator 25.4.1, SVG Export Plug-In . SVG Version: 6.00 Build 0)  -->
<svg version="1.1" id="Layer_1" xmlns="http://www.w3.org/2000/svg" xmlns:xlink="http://www.w3.org/1999/xlink" x="0px" y="0px"
	 viewBox="0 0 64 64" style="enable-background:new 0 0 64 64;" xml:space="preserve">
<style type="text/css">
	.st0{fill:none;stroke:#231F20;stroke-width:2;stroke-linecap:round;stroke-linejoin:round;stroke-miterlimit:10;}
</style>
<g>
	<path class="st0" d="M53.17,39.88c0,7.01-3.57,13.17-8.99,16.78H21.86c-5.42-3.61-8.99-9.77-8.99-16.78
		c0-11.13,9.02-20.15,20.15-20.15S53.17,28.75,53.17,39.88z"/>
	<polyline class="st0" points="21.86,56.66 21.86,60.02 43.92,60.02 43.92,56.66 	"/>
	<polyline class="st0" points="26.29,20.88 26.29,16.45 39.33,16.45 39.33,20.77 	"/>
	<path class="st0" d="M33.1,9.64h-0.59c-1.47,0-2.67,1.19-2.67,2.67v4.15h5.92V12.3C35.77,10.83,34.58,9.64,33.1,9.64z"/>
	<path class="st0" d="M18.98,9.64c0,0,0.08,7.09-4.17,14.18c0,0,7.83-4.5,8.69-12.02"/>
	<path class="st0" d="M39.33,16.45c0,0,4.21-6.59,7.83-9.91c0,0-2.71-1.3-5.35,0.95C28.18,1.52,13.64,4.99,13.64,4.99v3.64
		c9.2,0.33,15.41,7.83,15.41,7.83"/>
	<polyline class="st0" points="45.12,8.66 45.12,14.95 40.33,14.95 	"/>
	<polyline class="st0" points="13.64,4.99 10.83,4.99 10.83,8.66 13.64,8.66 	"/>
	<path class="st0" d="M24.56,27.07c0,0-5.76,2.77-6.47,11.43"/>
</g>
</svg>
