<?xml version="1.0" encoding="utf-8"?>
<!-- Generator: Adobe Illustrator 25.4.1, SVG Export Plug-In . SVG Version: 6.00 Build 0)  -->
<svg version="1.1" id="Layer_1" xmlns="http://www.w3.org/2000/svg" xmlns:xlink="http://www.w3.org/1999/xlink" x="0px" y="0px"
	 viewBox="0 0 64 64" style="enable-background:new 0 0 64 64;" xml:space="preserve">
<style type="text/css">
	.st0{fill:none;stroke:#231F20;stroke-width:2;stroke-linecap:round;stroke-linejoin:round;stroke-miterlimit:10;}
</style>
<g>
	<path class="st0" d="M31.81,30.15c0,0-1.23-6.94-10.71-4.55c-10.44,2.63-15.26,3.45-17.73,0.62c0,0,3.31,12.87,17.65,12.87
		C34.32,39.08,31.81,30.15,31.81,30.15z"/>
	<path class="st0" d="M3.37,26.22c0,0,4.83,10.62,18.19,7.24c11.48-2.9,8.87,2.63,8.87,2.63"/>
	<path class="st0" d="M3.37,26.22c0,0,5.24,6.24,18.19,3c6.26-1.57,10.02-0.66,10.44,2.08"/>
	<path class="st0" d="M32.19,30.15c0,0,1.23-6.94,10.71-4.55c10.44,2.63,15.26,3.45,17.73,0.62c0,0-3.31,12.87-17.65,12.87
		C29.68,39.08,32.19,30.15,32.19,30.15z"/>
	<path class="st0" d="M60.63,26.22c0,0-4.83,10.62-18.19,7.24c-11.48-2.9-8.87,2.63-8.87,2.63"/>
	<path class="st0" d="M60.63,26.22c0,0-5.24,6.24-18.19,3C36.18,27.66,32.42,28.57,32,31.3"/>
	<path class="st0" d="M17.69,21.68c0,0,8.43-3.33,11.86-0.49"/>
	<path class="st0" d="M34.92,42.55c0,0,4.6,2.45,10.27,0.88"/>
</g>
</svg>
