<?xml version="1.0" encoding="utf-8"?>
<!-- Generator: Adobe Illustrator 25.4.1, SVG Export Plug-In . SVG Version: 6.00 Build 0)  -->
<svg version="1.1" id="Layer_1" xmlns="http://www.w3.org/2000/svg" xmlns:xlink="http://www.w3.org/1999/xlink" x="0px" y="0px"
	 viewBox="0 0 64 64" style="enable-background:new 0 0 64 64;" xml:space="preserve">
<style type="text/css">
	.st0{fill:none;stroke:#231F20;stroke-width:2;stroke-linecap:round;stroke-linejoin:round;stroke-miterlimit:10;}
</style>
<g>
	<path class="st0" d="M53.56,33.35h2.49c1.59,0,2.19-2.07,0.86-2.93L32.86,14.93c-0.52-0.34-1.2-0.34-1.72,0L7.1,30.42
		c-1.33,0.86-0.72,2.93,0.86,2.93h2.59"/>
	<path class="st0" d="M32.86,14.93c0,0-2.54-1.26-3.65-5.19c-1.5-5.32,6.61-7.1,6.14-0.87"/>
	<path class="st0" d="M48.36,59.09H15.85c-1.54,0-2.79-1.25-2.79-2.79V33.52c0-1.54,1.25-2.79,2.79-2.79h32.51
		c1.54,0,2.79,1.25,2.79,2.79V56.3C51.15,57.84,49.9,59.09,48.36,59.09z"/>
	<line class="st0" x1="13.06" y1="40.57" x2="51.15" y2="40.57"/>
	<line class="st0" x1="13.06" y1="43.92" x2="51.15" y2="43.92"/>
</g>
</svg>
