<?xml version="1.0" encoding="utf-8"?>
<!-- Generator: Adobe Illustrator 25.4.1, SVG Export Plug-In . SVG Version: 6.00 Build 0)  -->
<svg version="1.1" id="Layer_1" xmlns="http://www.w3.org/2000/svg" xmlns:xlink="http://www.w3.org/1999/xlink" x="0px" y="0px"
	 viewBox="0 0 64 64" style="enable-background:new 0 0 64 64;" xml:space="preserve">
<style type="text/css">
	.st0{fill:none;stroke:#231F20;stroke-width:2;stroke-linecap:round;stroke-linejoin:round;stroke-miterlimit:10;}
</style>
<g>
	<path class="st0" d="M35.82,35.68c0,2.22-1.8,4.02-4.02,4.02s-4.02-1.8-4.02-4.02c0-2.22,1.8-4.02,4.02-4.02
		S35.82,33.46,35.82,35.68z"/>
	<path class="st0" d="M25.19,54c0-3.71-3.01-6.73-6.73-6.73c-3.71,0-6.73,3.01-6.73,6.73c0,3.71,3.01,6.73,6.73,6.73
		C22.18,60.72,25.19,57.71,25.19,54z"/>
	<line class="st0" x1="20.14" y1="47.49" x2="28.27" y2="37.6"/>
	<line class="st0" x1="30.56" y1="39.5" x2="23.47" y2="49.51"/>
	<path class="st0" d="M31.1,31.72L12.78,3.79c0,0-2.24,3.38-1.13,8.54c0.49,2.28,1.61,4.39,3.1,6.19l13.2,15.96"/>
	<path class="st0" d="M38.41,54c0-3.71,3.01-6.73,6.73-6.73c3.71,0,6.73,3.01,6.73,6.73c0,3.71-3.01,6.73-6.73,6.73
		C41.42,60.72,38.41,57.71,38.41,54z"/>
	<line class="st0" x1="43.46" y1="47.49" x2="35.33" y2="37.6"/>
	<line class="st0" x1="33.04" y1="39.5" x2="40.13" y2="49.51"/>
	<path class="st0" d="M10.51,47.65c0,0-2.61,2.47-2.09,6.51"/>
	<path class="st0" d="M54.52,49.51c0,0,2.02,2.83,0.59,7.1"/>
	<path class="st0" d="M52.4,3.28l2.56,2.15c0.8,0.68,0.92,1.87,0.27,2.69l-19.9,25.63"/>
	<line class="st0" x1="50.08" y1="6.16" x2="54.1" y2="9.55"/>
	<line class="st0" x1="47.77" y1="9.05" x2="51.8" y2="12.45"/>
	<line class="st0" x1="45.45" y1="11.94" x2="49.5" y2="15.35"/>
	<line class="st0" x1="43.21" y1="14.73" x2="47.28" y2="18.16"/>
	<line class="st0" x1="40.89" y1="17.61" x2="44.98" y2="21.06"/>
	<line class="st0" x1="38.58" y1="20.49" x2="42.69" y2="23.96"/>
	<line class="st0" x1="36.34" y1="23.28" x2="40.47" y2="26.76"/>
	<line class="st0" x1="34" y1="26.5" x2="38.18" y2="30.08"/>
</g>
</svg>
