<?xml version="1.0" encoding="utf-8"?>
<!-- Generator: Adobe Illustrator 25.4.1, SVG Export Plug-In . SVG Version: 6.00 Build 0)  -->
<svg version="1.1" id="Layer_1" xmlns="http://www.w3.org/2000/svg" xmlns:xlink="http://www.w3.org/1999/xlink" x="0px" y="0px"
	 viewBox="0 0 64 64" style="enable-background:new 0 0 64 64;" xml:space="preserve">
<style type="text/css">
	.st0{fill:none;stroke:#231F20;stroke-width:2;stroke-linecap:round;stroke-linejoin:round;stroke-miterlimit:10;}
</style>
<g>
	<circle class="st0" cx="31.81" cy="35.42" r="4.02"/>
	<path class="st0" d="M32.5,31.46L50.82,3.53c0,0,2.24,3.38,1.13,8.54c-0.49,2.28-1.61,4.39-3.1,6.19l-13.2,15.96"/>
	<circle class="st0" cx="18.47" cy="53.74" r="6.73"/>
	<line class="st0" x1="20.15" y1="47.23" x2="28.28" y2="37.34"/>
	<line class="st0" x1="30.57" y1="39.24" x2="23.48" y2="49.26"/>
	<path class="st0" d="M31.11,31.46L12.79,3.53c0,0-2.24,3.38-1.13,8.54c0.49,2.28,1.61,4.39,3.1,6.19l13.2,15.96"/>
	<circle class="st0" cx="45.15" cy="53.74" r="6.73"/>
	<line class="st0" x1="43.47" y1="47.23" x2="35.34" y2="37.34"/>
	<line class="st0" x1="33.05" y1="39.24" x2="40.14" y2="49.26"/>
	<path class="st0" d="M10.52,47.39c0,0-2.61,2.47-2.09,6.51"/>
	<path class="st0" d="M54.53,49.26c0,0,2.02,2.83,0.59,7.1"/>
</g>
</svg>
