<?xml version="1.0" encoding="utf-8"?>
<!-- Generator: Adobe Illustrator 25.4.1, SVG Export Plug-In . SVG Version: 6.00 Build 0)  -->
<svg version="1.1" id="Layer_1" xmlns="http://www.w3.org/2000/svg" xmlns:xlink="http://www.w3.org/1999/xlink" x="0px" y="0px"
	 viewBox="0 0 64 64" style="enable-background:new 0 0 64 64;" xml:space="preserve">
<style type="text/css">
	.st0{fill:none;stroke:#231F20;stroke-width:2;stroke-linecap:round;stroke-linejoin:round;stroke-miterlimit:10;}
</style>
<g>
	<path class="st0" d="M16,15.38c0,0,5.89,22.81,21.92,36.96c0,0,3.03,3.1,0,6.67c-3.91,4.6-26.24-16.88-31.17-43.41
		c0,0-1.85-6.2,3.15-7.5C13.56,7.15,14.51,9.13,16,15.38z"/>
	<path class="st0" d="M37.13,51.62l4.55-13.6l-0.77-1.61c-0.79-1.67-0.89-3.58-0.26-5.32l9.13-25.44c0.35-0.97,1.4-1.5,2.39-1.21
		l1.73,0.52c1.05,0.31,1.63,1.43,1.29,2.48L39.27,55.51"/>
	<line class="st0" x1="10.44" y1="11.71" x2="10.44" y2="13.2"/>
	<line class="st0" x1="57.58" y1="14.72" x2="49.76" y2="39.21"/>
	<line class="st0" x1="48.79" y1="43.16" x2="47.93" y2="46.36"/>
	<path class="st0" d="M6.42,32.74c0,0,3.22,9.26,9.44,16.41"/>
</g>
</svg>
