<?xml version="1.0" encoding="utf-8"?>
<!-- Generator: Adobe Illustrator 25.4.1, SVG Export Plug-In . SVG Version: 6.00 Build 0)  -->
<svg version="1.1" id="Layer_1" xmlns="http://www.w3.org/2000/svg" xmlns:xlink="http://www.w3.org/1999/xlink" x="0px" y="0px"
	 viewBox="0 0 64 64" style="enable-background:new 0 0 64 64;" xml:space="preserve">
<style type="text/css">
	.st0{fill:none;stroke:#231F20;stroke-width:2;stroke-linecap:round;stroke-linejoin:round;stroke-miterlimit:10;}
</style>
<g>
	<path class="st0" d="M47.8,17.02l-14.42,8.49l-3.25-5.52c-2.26-3.83-0.98-8.77,2.86-11.03l0.53-0.31
		c3.83-2.26,8.77-0.98,11.03,2.86L47.8,17.02z"/>
	<line class="st0" x1="31.95" y1="23.07" x2="40.3" y2="18.16"/>
	<polyline class="st0" points="35.19,7.77 32.74,5.03 29.09,7.54 31.34,10.06 	"/>
	<polyline class="st0" points="21.38,26.47 21.38,13.5 29.09,7.54 	"/>
	<polyline class="st0" points="32.14,5.44 29.8,2.82 17.93,12.23 17.93,25.44 	"/>
	<path class="st0" d="M15.08,25.55c0,0,9.23-1.88,9.96,7.59v6.23c0,2.39,1.96,4.3,4.35,4.24c4.91-0.12,12.63,0.28,15.92,3.72
		l-1.53,3.26c0,0-6.2-4-18.18-2.87c-2.31,0.22-4.21-1.53-4.21-3.85V33.7c0,0,0.71-5.17-6.33-4.7L15.08,25.55z"/>
	<path class="st0" d="M25.23,47.76c0,0,0.83,4.14,6.2,4.49c5.49,0.36,7.93-0.73,8.28-3.36"/>
	<polyline class="st0" points="30.91,52.2 30.91,57.78 33.57,57.78 33.57,52.32 	"/>
	<rect x="22.95" y="57.78" class="st0" width="18.89" height="3.39"/>
	<path class="st0" d="M16.46,42.49c0,0-1.38,6.09,2.84,7.55"/>
	<line class="st0" x1="48.95" y1="21.82" x2="44.38" y2="24.77"/>
	<path class="st0" d="M18.48,29.34v7.95c0,0.74,0.26,1.45,0.72,2.02l2.17,2.64"/>
</g>
</svg>
