<?xml version="1.0" encoding="utf-8"?>
<!-- Generator: Adobe Illustrator 25.4.1, SVG Export Plug-In . SVG Version: 6.00 Build 0)  -->
<svg version="1.1" id="Layer_1" xmlns="http://www.w3.org/2000/svg" xmlns:xlink="http://www.w3.org/1999/xlink" x="0px" y="0px"
	 viewBox="0 0 64 64" style="enable-background:new 0 0 64 64;" xml:space="preserve">
<style type="text/css">
	.st0{fill:none;stroke:#231F20;stroke-width:2;stroke-linecap:round;stroke-linejoin:round;stroke-miterlimit:10;}
</style>
<g>
	<path class="st0" d="M45.57,58.71h-24.7V26.35c0-3.63,2.95-6.58,6.58-6.58h11.53c3.63,0,6.58,2.95,6.58,6.58V58.71z"/>
	<polyline class="st0" points="27.29,19.77 27.29,15.98 38.46,15.98 38.46,19.77 	"/>
	<path class="st0" d="M32.88,10.14L32.88,10.14c-1.4,0-2.54,1.14-2.54,2.54v3.3h5.07v-3.3C35.41,11.27,34.28,10.14,32.88,10.14z"/>
	<path class="st0" d="M21.03,10.14c0,0,0.07,6.08-3.58,12.15c0,0,6.71-3.86,7.45-10.3"/>
	<path class="st0" d="M38.46,15.98c0,0,3.61-5.65,6.71-8.49c0,0-2.32-1.12-4.58,0.81C28.91,3.18,16.45,6.16,16.45,6.16v3.12
		c7.88,0.28,13.2,6.71,13.2,6.71"/>
	<polyline class="st0" points="43.42,9.3 43.42,14.69 39.32,14.69 	"/>
	<polyline class="st0" points="16.45,6.16 14.04,6.16 14.04,9.3 16.45,9.3 	"/>
	<path class="st0" d="M20.87,40.29c0,0,3.04,3.86,9.47-1.05c6.42-4.91,15.23-4.91,15.23,0.57"/>
	<path class="st0" d="M29.18,44.69c0,0,4.35-0.59,5.97-2.45"/>
	<line class="st0" x1="16.01" y1="56.44" x2="16.01" y2="39.24"/>
	<line class="st0" x1="16.01" y1="29.44" x2="16.01" y2="33.45"/>
	<line class="st0" x1="49.96" y1="29.44" x2="49.96" y2="46.65"/>
	<line class="st0" x1="49.96" y1="56.44" x2="49.96" y2="52.43"/>
</g>
</svg>
