<?xml version="1.0" encoding="utf-8"?>
<!-- Generator: Adobe Illustrator 25.4.1, SVG Export Plug-In . SVG Version: 6.00 Build 0)  -->
<svg version="1.1" id="Layer_1" xmlns="http://www.w3.org/2000/svg" xmlns:xlink="http://www.w3.org/1999/xlink" x="0px" y="0px"
	 viewBox="0 0 64 64" style="enable-background:new 0 0 64 64;" xml:space="preserve">
<style type="text/css">
	.st0{fill:none;stroke:#231F20;stroke-width:2;stroke-linecap:round;stroke-linejoin:round;stroke-miterlimit:10;}
</style>
<g>
	<path class="st0" d="M49.68,30.56L12.4,34.39c-4.54,0.47-8.48-3.09-8.48-7.66v-1.6c0-4.42,3.71-7.93,8.12-7.68l37.64,2.07V30.56z"
		/>
	<path class="st0" d="M12.4,34.39L8.7,46.33c-0.62,2,0.88,4.03,2.97,4.03l0,0c1.29,0,2.45-0.8,2.91-2.01l5.61-14.76"/>
	<circle class="st0" cx="13.18" cy="25.93" r="4.36"/>
	<path class="st0" d="M53.19,21.21c0,0,1.12-1.52,2.74-0.51c1.62,1.01,3.6-0.35,3.6-0.35"/>
	<path class="st0" d="M53.33,25.7c0,0,1.12-1.52,2.74-0.51c1.62,1.01,3.6-0.35,3.6-0.35"/>
	<path class="st0" d="M53.74,29.91c0,0,1.12-1.52,2.74-0.51c1.62,1.01,3.6-0.35,3.6-0.35"/>
	<line class="st0" x1="30.27" y1="36.92" x2="48.76" y2="34.43"/>
	<line class="st0" x1="16.17" y1="13.64" x2="22.52" y2="14.13"/>
	<line class="st0" x1="28.32" y1="14.62" x2="44.36" y2="16.09"/>
</g>
</svg>
