<?xml version="1.0" encoding="utf-8"?>
<!-- Generator: Adobe Illustrator 25.4.1, SVG Export Plug-In . SVG Version: 6.00 Build 0)  -->
<svg version="1.1" id="Layer_1" xmlns="http://www.w3.org/2000/svg" xmlns:xlink="http://www.w3.org/1999/xlink" x="0px" y="0px"
	 viewBox="0 0 64 64" style="enable-background:new 0 0 64 64;" xml:space="preserve">
<style type="text/css">
	.st0{fill:none;stroke:#231F20;stroke-width:2;stroke-linecap:round;stroke-linejoin:round;stroke-miterlimit:10;}
</style>
<g>
	<g>
		<path class="st0" d="M37.01,42.09H26.99c-1.2,0-2.18-0.98-2.18-2.18V6.37c0-1.2,0.98-2.18,2.18-2.18h10.01
			c1.2,0,2.18,0.98,2.18,2.18v33.54C39.19,41.12,38.21,42.09,37.01,42.09z"/>
		<line class="st0" x1="24.81" y1="6.19" x2="20.42" y2="6.19"/>
		<line class="st0" x1="24.81" y1="11.92" x2="20.42" y2="11.92"/>
		<line class="st0" x1="24.81" y1="17.65" x2="20.42" y2="17.65"/>
		<line class="st0" x1="24.81" y1="23.38" x2="20.42" y2="23.38"/>
		<line class="st0" x1="24.81" y1="29.11" x2="20.42" y2="29.11"/>
		<line class="st0" x1="24.81" y1="34.84" x2="20.42" y2="34.84"/>
		<line class="st0" x1="24.81" y1="40.57" x2="20.42" y2="40.57"/>
		<line class="st0" x1="43.58" y1="6.19" x2="39.19" y2="6.19"/>
		<line class="st0" x1="43.58" y1="11.92" x2="39.19" y2="11.92"/>
		<line class="st0" x1="43.58" y1="17.65" x2="39.19" y2="17.65"/>
		<line class="st0" x1="43.58" y1="23.38" x2="39.19" y2="23.38"/>
		<line class="st0" x1="43.58" y1="29.11" x2="39.19" y2="29.11"/>
		<line class="st0" x1="43.58" y1="34.84" x2="39.19" y2="34.84"/>
		<line class="st0" x1="43.58" y1="40.57" x2="39.19" y2="40.57"/>
	</g>
	<path class="st0" d="M34.46,45.69h-4.92v12.35c0,0.98,0.79,1.77,1.77,1.77h1.37c0.98,0,1.77-0.79,1.77-1.77V45.69z"/>
	<rect x="28.4" y="42.09" class="st0" width="7.19" height="3.75"/>
	<line class="st0" x1="32" y1="8.16" x2="32" y2="9.36"/>
	<line class="st0" x1="32" y1="14.15" x2="32" y2="15.35"/>
	<line class="st0" x1="32" y1="20.75" x2="32" y2="21.94"/>
	<line class="st0" x1="32" y1="26.74" x2="32" y2="27.94"/>
	<line class="st0" x1="32" y1="32.78" x2="32" y2="33.98"/>
	<line class="st0" x1="32" y1="38.4" x2="32" y2="39.6"/>
</g>
</svg>
