<?xml version="1.0" encoding="utf-8"?>
<!-- Generator: Adobe Illustrator 25.4.1, SVG Export Plug-In . SVG Version: 6.00 Build 0)  -->
<svg version="1.1" id="Layer_1" xmlns="http://www.w3.org/2000/svg" xmlns:xlink="http://www.w3.org/1999/xlink" x="0px" y="0px"
	 viewBox="0 0 64 64" style="enable-background:new 0 0 64 64;" xml:space="preserve">
<style type="text/css">
	.st0{fill:none;stroke:#231F20;stroke-width:2;stroke-linecap:round;stroke-linejoin:round;stroke-miterlimit:10;}
</style>
<g>
	<path class="st0" d="M15.89,32.98L15.89,32.98c1.49,0,2.7,1.21,2.7,2.7v7.23h24.13v-7.23c0-1.49,1.21-2.7,2.7-2.7h0.1
		c1.49,0,2.7,1.21,2.7,2.7v9.6c0,1.72-1.4,3.12-3.12,3.12H16.31c-1.72,0-3.12-1.4-3.12-3.12v-9.6
		C13.19,34.19,14.4,32.98,15.89,32.98z"/>
	<path class="st0" d="M41.13,48.41H20.26v2.08c0,1.63,1.32,2.96,2.96,2.96h14.95c1.63,0,2.96-1.32,2.96-2.96V48.41z"/>
	<line class="st0" x1="16.35" y1="60.57" x2="45.04" y2="60.57"/>
	<path class="st0" d="M35.94,60.57H25.46v-3.59c0-1.95,1.58-3.53,3.53-3.53h3.42c1.95,0,3.53,1.58,3.53,3.53V60.57z"/>
	<path class="st0" d="M16.16,32.98V19.32c0-3.93,3.19-7.12,7.12-7.12h14.84c3.93,0,7.12,3.19,7.12,7.12v13.67"/>
	<path class="st0" d="M38.52,8.87H21.79c-0.76,0-1.37-0.61-1.37-1.37V4.8c0-0.76,0.61-1.37,1.37-1.37h16.73
		c0.76,0,1.37,0.61,1.37,1.37v2.7C39.89,8.26,39.28,8.87,38.52,8.87z"/>
	<path class="st0" d="M13.81,12.2c0,0-2.33,3.03-2.18,7.24"/>
	<path class="st0" d="M52.37,36.47c0,0,0,5.53,0,5.97"/>
</g>
</svg>
