<?xml version="1.0" encoding="utf-8"?>
<!-- Generator: Adobe Illustrator 25.4.1, SVG Export Plug-In . SVG Version: 6.00 Build 0)  -->
<svg version="1.1" id="Layer_1" xmlns="http://www.w3.org/2000/svg" xmlns:xlink="http://www.w3.org/1999/xlink" x="0px" y="0px"
	 viewBox="0 0 64 64" style="enable-background:new 0 0 64 64;" xml:space="preserve">
<style type="text/css">
	.st0{fill:none;stroke:#231F20;stroke-width:2;stroke-linecap:round;stroke-linejoin:round;stroke-miterlimit:10;}
</style>
<g>
	<path class="st0" d="M43.62,14.84c0.74,1.81,0.91,3.82,0.38,5.7c-1.62,5.68-5.81,11.62-3.33,19.46c2.98,9.38-0.68,15.73-0.68,15.73
		H24.6c0,0-3.64-6.35-0.68-15.73c2.49-7.83-1.72-13.78-3.33-19.46c-0.53-1.88-0.36-3.89,0.38-5.69l1.33-3.26h19.98L43.62,14.84z"/>
	<line class="st0" x1="26.18" y1="59.43" x2="38.42" y2="59.43"/>
	<polyline class="st0" points="22.31,11.59 22.31,7.23 42.27,7.23 42.27,11.59 	"/>
	<line class="st0" x1="22.31" y1="7.23" x2="22.31" y2="4.57"/>
	<line class="st0" x1="26.32" y1="7.23" x2="26.32" y2="4.57"/>
	<line class="st0" x1="30.29" y1="7.23" x2="30.29" y2="4.57"/>
	<line class="st0" x1="34.31" y1="7.23" x2="34.31" y2="4.57"/>
	<line class="st0" x1="38.26" y1="7.23" x2="38.26" y2="4.57"/>
	<line class="st0" x1="42.27" y1="7.23" x2="42.27" y2="4.57"/>
	<path class="st0" d="M19.06,40.25c0,0-2.25,2.79-1.14,9.36"/>
	<path class="st0" d="M45.72,43.22c0,0,1.32,3.33,0.24,9"/>
	<path class="st0" d="M26.61,11.59v7.66c0,2.35,1.91,4.26,4.26,4.26h2.85c2.35,0,4.26-1.91,4.26-4.26v-7.66"/>
	<line class="st0" x1="32.3" y1="38.37" x2="32.3" y2="45.69"/>
</g>
</svg>
