<?xml version="1.0" encoding="utf-8"?>
<!-- Generator: Adobe Illustrator 25.4.1, SVG Export Plug-In . SVG Version: 6.00 Build 0)  -->
<svg version="1.1" id="Layer_1" xmlns="http://www.w3.org/2000/svg" xmlns:xlink="http://www.w3.org/1999/xlink" x="0px" y="0px"
	 viewBox="0 0 64 64" style="enable-background:new 0 0 64 64;" xml:space="preserve">
<style type="text/css">
	.st0{fill:none;stroke:#231F20;stroke-width:2;stroke-linecap:round;stroke-linejoin:round;stroke-miterlimit:10;}
</style>
<g>
	<path class="st0" d="M50.82,44.42H13.18c-2.33,0-4.22-1.89-4.22-4.22v-6.05h46.08v6.05C55.04,42.53,53.15,44.42,50.82,44.42z"/>
	<path class="st0" d="M37.05,49.7H26.95v7.33c0,1.48,1.2,2.68,2.68,2.68h4.73c1.48,0,2.68-1.2,2.68-2.68V49.7z"/>
	<path class="st0" d="M40.42,49.7H23.58c-2.08,0-3.76-1.68-3.76-3.76v-1.52h24.37v1.52C44.18,48.02,42.5,49.7,40.42,49.7z"/>
	<rect x="8.96" y="30.86" class="st0" width="46.08" height="3.29"/>
	<line class="st0" x1="8.96" y1="30.86" x2="8.96" y2="4.28"/>
	<line class="st0" x1="13.15" y1="30.86" x2="13.15" y2="4.28"/>
	<line class="st0" x1="17.34" y1="30.86" x2="17.34" y2="4.28"/>
	<line class="st0" x1="21.53" y1="30.86" x2="21.53" y2="4.28"/>
	<line class="st0" x1="25.72" y1="30.86" x2="25.72" y2="4.28"/>
	<line class="st0" x1="29.91" y1="30.86" x2="29.91" y2="4.28"/>
	<line class="st0" x1="34.09" y1="30.86" x2="34.09" y2="4.28"/>
	<line class="st0" x1="38.28" y1="30.86" x2="38.28" y2="4.28"/>
	<line class="st0" x1="42.47" y1="30.86" x2="42.47" y2="4.28"/>
	<line class="st0" x1="46.66" y1="30.86" x2="46.66" y2="4.28"/>
	<line class="st0" x1="50.85" y1="30.86" x2="50.85" y2="4.28"/>
	<line class="st0" x1="55.04" y1="30.86" x2="55.04" y2="4.28"/>
	<line class="st0" x1="15.56" y1="39.28" x2="19.12" y2="39.28"/>
</g>
</svg>
