<?xml version="1.0" encoding="utf-8"?>
<!-- Generator: Adobe Illustrator 25.4.1, SVG Export Plug-In . SVG Version: 6.00 Build 0)  -->
<svg version="1.1" id="Layer_1" xmlns="http://www.w3.org/2000/svg" xmlns:xlink="http://www.w3.org/1999/xlink" x="0px" y="0px"
	 viewBox="0 0 64 64" style="enable-background:new 0 0 64 64;" xml:space="preserve">
<style type="text/css">
	.st0{fill:none;stroke:#231F20;stroke-width:2;stroke-linecap:round;stroke-linejoin:round;stroke-miterlimit:10;}
</style>
<g>
	<path class="st0" d="M3.73,59.07h24.98c12.22-0.29,20.65-8.68,22.96-12.36c2.22-3.52,0.01-5.18-1.27-4.84
		c-1.83,0.48-2.7,3.3-9.03,5.86c-10.99,4.44-22.71,3.03-15.94-0.32c1.75-0.87,3.11-1.27,3.27-2.45c0.38-2.85-3.38-2.61-3.38-2.61
		c-8.85,1.2-11.41,6.77-11.41,6.77L3.73,48.8V59.07z"/>
	<path class="st0" d="M60.27,4.93l-24.98,0C23.08,5.23,14.65,13.62,12.33,17.3c-2.22,3.52-0.01,5.18,1.27,4.84
		c1.83-0.48,2.7-3.3,9.03-5.86c10.99-4.44,22.71-3.03,15.94,0.32c-1.75,0.87-3.11,1.27-3.27,2.45c-0.38,2.85,3.38,2.61,3.38,2.61
		c8.85-1.2,11.41-6.77,11.41-6.77l10.18,0.31V4.93z"/>
	<path class="st0" d="M17.14,45.5c0,0-5.79-5.14,1.12-9.14c7.95-4.61,11.32-9.87,7.01-14.15c0,0,22.55,3.54,13.65,14.76"/>
	<path class="st0" d="M40.47,34.42c0,0,5.48-2.47,7.3,4.2c1.53,5.61-3.37,7.65-3.37,7.65"/>
	<path class="st0" d="M15.46,38.89c0,0,1.47-2.48,6.63-1.68c3.85,0.59,5.04-0.5,5.04-0.5"/>
	<path class="st0" d="M20.58,27.16c0,1.27-1.03,2.29-2.29,2.29c-1.27,0-2.29-1.03-2.29-2.29s1.03-2.29,2.29-2.29
		C19.55,24.87,20.58,25.89,20.58,27.16z"/>
	<path class="st0" d="M49.89,26.46c0,1.96-1.59,3.55-3.55,3.55c-1.96,0-3.55-1.59-3.55-3.55s1.59-3.55,3.55-3.55
		C48.3,22.91,49.89,24.5,49.89,26.46z"/>
</g>
</svg>
