<?xml version="1.0" encoding="utf-8"?>
<!-- Generator: Adobe Illustrator 25.4.1, SVG Export Plug-In . SVG Version: 6.00 Build 0)  -->
<svg version="1.1" id="Layer_1" xmlns="http://www.w3.org/2000/svg" xmlns:xlink="http://www.w3.org/1999/xlink" x="0px" y="0px"
	 viewBox="0 0 64 64" style="enable-background:new 0 0 64 64;" xml:space="preserve">
<style type="text/css">
	.st0{fill:none;stroke:#231F20;stroke-width:2;stroke-linecap:round;stroke-linejoin:round;stroke-miterlimit:10;}
</style>
<g>
	<path class="st0" d="M32.71,59.98h-1.74c-8.42,0-15.25-6.83-15.25-15.25v-13.3c0-5.67,4.59-10.26,10.26-10.26h5.7h6.02
		c5.67,0,10.26,4.59,10.26,10.26v13.3C47.97,53.15,41.14,59.98,32.71,59.98z"/>
	<path class="st0" d="M15.95,28.4c0,0-9.56-7.71-1.67-15.6c7.89-7.89,29.28,2.93,37.93-5.86c0,0,3.73,9.85-6.94,16.96"/>
	<line class="st0" x1="12.9" y1="33.65" x2="12.9" y2="39.32"/>
	<line class="st0" x1="50.76" y1="33.65" x2="50.76" y2="39.32"/>
	<path class="st0" d="M11.16,18.93c0,0,0.46-8.99,9.74-5.59c9.28,3.4,25.94,6.17,31.31-6.4"/>
	<path class="st0" d="M21.85,9.83c0,0,12.92-1.81,15.84-5.81c0,0,0.77,5.62-2.15,6.39"/>
	<path class="st0" d="M22.46,34.77c2.03-1.97,4.05,0,4.05,0"/>
	<line class="st0" x1="28.54" y1="49.74" x2="35.46" y2="49.74"/>
	<path class="st0" d="M36.85,34.77c2.03-1.97,4.05,0,4.05,0"/>
</g>
</svg>
