<?xml version="1.0" encoding="utf-8"?>
<!-- Generator: Adobe Illustrator 25.4.1, SVG Export Plug-In . SVG Version: 6.00 Build 0)  -->
<svg version="1.1" id="Layer_1" xmlns="http://www.w3.org/2000/svg" xmlns:xlink="http://www.w3.org/1999/xlink" x="0px" y="0px"
	 viewBox="0 0 64 64" style="enable-background:new 0 0 64 64;" xml:space="preserve">
<style type="text/css">
	.st0{fill:none;stroke:#231F20;stroke-width:2;stroke-linecap:round;stroke-linejoin:round;stroke-miterlimit:10;}
</style>
<g>
	<rect x="24.98" y="14.45" class="st0" width="14.5" height="35.11"/>
	<path class="st0" d="M39.48,14.45c0,0-5.8,4.1-14.5,6.4"/>
	<path class="st0" d="M39.48,18.71c0,0-5.8,4.1-14.5,6.4"/>
	<path class="st0" d="M39.48,25.41c0,0-5.8,4.1-14.5,6.4"/>
	<path class="st0" d="M39.48,29.67c0,0-5.8,4.1-14.5,6.4"/>
	<path class="st0" d="M39.48,37.48c0,0-5.8,4.1-14.5,6.4"/>
	<path class="st0" d="M39.48,41.74c0,0-5.8,4.1-14.5,6.4"/>
	<path class="st0" d="M40.04,14.45H24.32c-1.02,0-1.84-0.82-1.84-1.84v-0.82c0-1.02,0.82-1.84,1.84-1.84h15.72
		c1.02,0,1.84,0.82,1.84,1.84v0.82C41.88,13.62,41.06,14.45,40.04,14.45z"/>
	<path class="st0" d="M35.23,3.65h-5.99c-2.35,0-4.26,1.91-4.26,4.26v2h14.5v-2C39.48,5.55,37.58,3.65,35.23,3.65z"/>
	<path class="st0" d="M24.32,49.55h15.72c1.02,0,1.84,0.82,1.84,1.84v0.82c0,1.02-0.82,1.84-1.84,1.84H24.32
		c-1.02,0-1.84-0.82-1.84-1.84V51.4C22.48,50.38,23.31,49.55,24.32,49.55z"/>
	<path class="st0" d="M29.14,60.35h5.99c2.35,0,4.26-1.91,4.26-4.26v-2h-14.5v2C24.88,58.45,26.79,60.35,29.14,60.35z"/>
	<line class="st0" x1="18.51" y1="17.65" x2="18.51" y2="40.68"/>
	<line class="st0" x1="18.51" y1="47.68" x2="18.51" y2="44.94"/>
	<line class="st0" x1="45.49" y1="47.68" x2="45.49" y2="24.65"/>
	<line class="st0" x1="45.49" y1="17.65" x2="45.49" y2="20.39"/>
</g>
</svg>
