<?xml version="1.0" encoding="utf-8"?>
<!-- Generator: Adobe Illustrator 25.4.1, SVG Export Plug-In . SVG Version: 6.00 Build 0)  -->
<svg version="1.1" id="Layer_1" xmlns="http://www.w3.org/2000/svg" xmlns:xlink="http://www.w3.org/1999/xlink" x="0px" y="0px"
	 viewBox="0 0 64 64" style="enable-background:new 0 0 64 64;" xml:space="preserve">
<style type="text/css">
	.st0{fill:none;stroke:#231F20;stroke-width:2;stroke-linecap:round;stroke-linejoin:round;stroke-miterlimit:10;}
</style>
<g>
	<path class="st0" d="M28.26,55.92h17.83c-0.81,2.57-3.22,4.44-6.06,4.44H27.42c-4.94,0-8.95-4.01-8.95-8.95V12.6
		c0-4.94,4.01-8.95,8.95-8.95h12.62c3,0,5.53,2.09,6.17,4.89H28.26V55.92z"/>
	<line class="st0" x1="28.26" y1="12.83" x2="46.21" y2="12.83"/>
	<line class="st0" x1="28.26" y1="17.07" x2="46.21" y2="17.07"/>
	<line class="st0" x1="28.26" y1="21.32" x2="46.21" y2="21.32"/>
	<line class="st0" x1="28.26" y1="25.57" x2="46.21" y2="25.57"/>
	<line class="st0" x1="28.26" y1="29.82" x2="46.21" y2="29.82"/>
	<line class="st0" x1="28.26" y1="34.07" x2="46.21" y2="34.07"/>
	<line class="st0" x1="28.26" y1="38.31" x2="46.21" y2="38.31"/>
	<line class="st0" x1="28.26" y1="42.56" x2="46.21" y2="42.56"/>
	<line class="st0" x1="28.26" y1="46.81" x2="46.21" y2="46.81"/>
	<line class="st0" x1="28.26" y1="51.06" x2="46.21" y2="51.06"/>
	<line class="st0" x1="14.53" y1="15.5" x2="14.53" y2="38.31"/>
	<line class="st0" x1="14.53" y1="42.56" x2="14.53" y2="47.73"/>
</g>
</svg>
