<?xml version="1.0" encoding="utf-8"?>
<!-- Generator: Adobe Illustrator 25.4.1, SVG Export Plug-In . SVG Version: 6.00 Build 0)  -->
<svg version="1.1" id="Layer_1" xmlns="http://www.w3.org/2000/svg" xmlns:xlink="http://www.w3.org/1999/xlink" x="0px" y="0px"
	 viewBox="0 0 64 64" style="enable-background:new 0 0 64 64;" xml:space="preserve">
<style type="text/css">
	.st0{fill:none;stroke:#231F20;stroke-width:2;stroke-linecap:round;stroke-linejoin:round;stroke-miterlimit:10;}
</style>
<g>
	<path class="st0" d="M36.66,21.08H4.21c-0.97,0-1.75-0.49-1.4-1.4l1.55-3.89c0.34-0.86,0.63-1.4,1.4-1.4h30.9
		c0.78,0,1.4,0.63,1.4,1.4v3.89C38.06,20.45,37.43,21.08,36.66,21.08z"/>
	<path class="st0" d="M10.08,14.38l3.55-3.46c0.77-0.76,1.81-1.18,2.9-1.18h16.75c1.15,0,2.08,0.93,2.08,2.08v2.56"/>
	<line class="st0" x1="7.27" y1="29.34" x2="7.27" y2="32.08"/>
	<line class="st0" x1="11.31" y1="33.59" x2="11.31" y2="36.33"/>
	<line class="st0" x1="15.48" y1="29.05" x2="15.48" y2="31.79"/>
	<line class="st0" x1="20.02" y1="33.66" x2="20.02" y2="36.4"/>
	<line class="st0" x1="24.13" y1="28.77" x2="24.13" y2="31.5"/>
	<line class="st0" x1="28.23" y1="33.52" x2="28.23" y2="36.26"/>
	<line class="st0" x1="32.84" y1="29.05" x2="32.84" y2="31.79"/>
	<line class="st0" x1="17.1" y1="40.51" x2="17.1" y2="43.24"/>
	<line class="st0" x1="24.56" y1="39.86" x2="24.56" y2="42.59"/>
	<polygon class="st0" points="47.06,19.76 38.04,20.05 38.06,15.78 47.06,16.3 	"/>
	<path class="st0" d="M47.06,19.76c0,0,10.19,0,9.76,15.46c-0.41,14.83-13.72,15.02-20.6,14.7v4.13c0,0,25.89,3.87,25.03-20.65
		c0,0,0.01-17.14-14.19-17.09"/>
	<line class="st0" x1="6.41" y1="24.89" x2="34.46" y2="24.89"/>
</g>
</svg>
