<?xml version="1.0" encoding="utf-8"?>
<!-- Generator: Adobe Illustrator 25.4.1, SVG Export Plug-In . SVG Version: 6.00 Build 0)  -->
<svg version="1.1" id="Layer_1" xmlns="http://www.w3.org/2000/svg" xmlns:xlink="http://www.w3.org/1999/xlink" x="0px" y="0px"
	 viewBox="0 0 64 64" style="enable-background:new 0 0 64 64;" xml:space="preserve">
<style type="text/css">
	.st0{fill:none;stroke:#231F20;stroke-width:2;stroke-linecap:round;stroke-linejoin:round;stroke-miterlimit:10;}
</style>
<g>
	<path class="st0" d="M16.3,59.52c0,0-2.7-10.02,15.66-10.02c17.62,0,15.88,10.02,15.88,10.02"/>
	<path class="st0" d="M31.97,49.5c0,0-2.95,0.71-2.84,10.02"/>
	<polyline class="st0" points="33.57,49.5 33.57,36.23 30.54,36.23 30.54,49.5 	"/>
	<path class="st0" d="M17.9,36.23h21.49V32H17.9c-1.17,0-2.12,0.95-2.12,2.12l0,0C15.79,35.29,16.73,36.23,17.9,36.23z"/>
	<path class="st0" d="M39.39,36.23V32c0,0-1.24-18.77,6.67-23.99c0,0,0.99-3.53-1.55-3.53c-2.54,0-5.01,0.71-5.19,5.65
		c0,0-5.64,4.09-4.13,21.88"/>
	<line class="st0" x1="26.58" y1="32" x2="25.6" y2="26.85"/>
	<line class="st0" x1="15.79" y1="26.85" x2="28.07" y2="26.85"/>
	<line class="st0" x1="30.54" y1="42.27" x2="25.6" y2="36.23"/>
	<line class="st0" x1="14.25" y1="59.52" x2="17.96" y2="59.52"/>
	<line class="st0" x1="27.27" y1="59.52" x2="30.97" y2="59.52"/>
	<line class="st0" x1="46.04" y1="59.52" x2="49.75" y2="59.52"/>
	<path class="st0" d="M44.05,36.23c0,0-1.01-7.83,0.37-15.67"/>
</g>
</svg>
