<?xml version="1.0" encoding="utf-8"?>
<!-- Generator: Adobe Illustrator 25.4.1, SVG Export Plug-In . SVG Version: 6.00 Build 0)  -->
<svg version="1.1" id="Layer_1" xmlns="http://www.w3.org/2000/svg" xmlns:xlink="http://www.w3.org/1999/xlink" x="0px" y="0px"
	 viewBox="0 0 64 64" style="enable-background:new 0 0 64 64;" xml:space="preserve">
<style type="text/css">
	.st0{fill:none;stroke:#231F20;stroke-width:2;stroke-linecap:round;stroke-linejoin:round;stroke-miterlimit:10;}
</style>
<g>
	<line class="st0" x1="13.62" y1="12.83" x2="50.38" y2="12.83"/>
	<line class="st0" x1="50.38" y1="16.72" x2="13.62" y2="16.72"/>
	<line class="st0" x1="13.62" y1="9.03" x2="50.38" y2="9.03"/>
	<rect x="9.25" y="9.03" class="st0" width="4.37" height="11.33"/>
	<rect x="50.38" y="9.03" class="st0" width="4.37" height="11.33"/>
	<line class="st0" x1="13.62" y1="20.36" x2="50.38" y2="20.36"/>
	<rect x="27.84" y="25.06" class="st0" width="8.31" height="29.07"/>
	<path class="st0" d="M35.21,58.74h-6.42c-0.52,0-0.95-0.42-0.95-0.95v-3.67h8.31v3.67C36.16,58.32,35.73,58.74,35.21,58.74z"/>
	<path class="st0" d="M40.54,25.06H23.46c-0.94,0-1.7-0.76-1.7-1.7v-2.99h20.48v2.99C42.24,24.3,41.48,25.06,40.54,25.06z"/>
	<line class="st0" x1="11.44" y1="5.26" x2="52.56" y2="5.26"/>
</g>
</svg>
