<?xml version="1.0" encoding="utf-8"?>
<!-- Generator: Adobe Illustrator 25.4.1, SVG Export Plug-In . SVG Version: 6.00 Build 0)  -->
<svg version="1.1" id="Layer_1" xmlns="http://www.w3.org/2000/svg" xmlns:xlink="http://www.w3.org/1999/xlink" x="0px" y="0px"
	 viewBox="0 0 64 64" style="enable-background:new 0 0 64 64;" xml:space="preserve">
<style type="text/css">
	.st0{fill:none;stroke:#231F20;stroke-width:2;stroke-linecap:round;stroke-linejoin:round;stroke-miterlimit:10;}
</style>
<g>
	<polygon class="st0" points="58.81,20.97 58.81,43.03 54.94,41.75 54.94,45.8 9.05,45.8 9.05,42.17 5.19,43.03 5.19,20.97 
		9.05,22.25 9.05,18.2 54.94,18.2 54.94,21.83 	"/>
	<path class="st0" d="M34.93,32.64c0,1.62-1.31,2.94-2.94,2.94c-1.62,0-2.94-1.31-2.94-2.94c0-1.62,1.31-2.94,2.94-2.94
		C33.62,29.71,34.93,31.02,34.93,32.64z"/>
	<line class="st0" x1="17.48" y1="29.75" x2="17.48" y2="35.54"/>
	<line class="st0" x1="49.3" y1="32.64" x2="14.7" y2="32.64"/>
	<line class="st0" x1="46" y1="35.54" x2="46" y2="29.75"/>
	<line class="st0" x1="14.7" y1="50.45" x2="36.67" y2="50.45"/>
	<line class="st0" x1="42.54" y1="50.45" x2="47.5" y2="50.45"/>
	<line class="st0" x1="47.5" y1="13.55" x2="25.52" y2="13.55"/>
	<line class="st0" x1="19.66" y1="13.55" x2="14.7" y2="13.55"/>
</g>
</svg>
