<?xml version="1.0" encoding="UTF-8"?><svg xmlns="http://www.w3.org/2000/svg" viewBox="0 0 24 24"><g id="a"/><g id="b"/><g id="c"/><g id="d"/><g id="e"/><g id="f"/><g id="g"><path d="M17,2.25H7c-2.07,0-3.75,1.68-3.75,3.75v1c0,.41,.34,.75,.75,.75h3.44c-1.93,1.41-3.19,3.68-3.19,6.25,0,4.27,3.48,7.75,7.75,7.75s7.75-3.48,7.75-7.75c0-2.57-1.26-4.84-3.19-6.25h3.44c.41,0,.75-.34,.75-.75v-1c0-2.07-1.68-3.75-3.75-3.75Zm-5.75,5.55v5.45H5.8c.34-2.85,2.6-5.11,5.45-5.45Zm-5.45,6.95h5.45v5.45c-2.85-.34-5.11-2.6-5.45-5.45Zm6.95,5.45v-5.45h5.45c-.34,2.85-2.6,5.11-5.45,5.45Zm5.45-6.95h-5.45V7.8c2.85,.34,5.11,2.6,5.45,5.45Zm1.05-7H4.75v-.25c0-1.24,1.01-2.25,2.25-2.25h10c1.24,0,2.25,1.01,2.25,2.25v.25Z"/></g><g id="h"/><g id="i"/><g id="j"/><g id="k"/><g id="l"/><g id="m"/><g id="n"/><g id="o"/><g id="p"/><g id="q"/><g id="r"/><g id="s"/><g id="t"/><g id="u"/></svg>