<?xml version="1.0" encoding="UTF-8"?><svg xmlns="http://www.w3.org/2000/svg" viewBox="0 0 24 24"><g id="a"/><g id="b"><g><path d="M20.97,11.18c-.25-.47-.7-.79-1.22-.89v-1.29c0-.66-.37-1.23-.92-1.53,.05-.55,.02-1.1-.1-1.63-.19-.85-.59-1.66-1.16-2.33-.25-.29-.69-.35-1.01-.12-.55,.4-1.16,.7-1.79,.89-1.66,.52-3.16,.19-4.48-.1-1.37-.3-2.66-.59-3.74,.22-.77,.58-1.19,1.6-1.27,3.01-.61,.27-1.03,.88-1.03,1.59v1.29c-.52,.1-.97,.41-1.22,.88-.46,.88-.72,1.82-.78,2.77-.2,3.25,2,5.54,2.96,6.37,.32,.27,.72,.42,1.14,.42h11.28c.42,0,.83-.15,1.15-.43,.96-.83,3.16-3.12,2.96-6.37-.06-.96-.32-1.89-.78-2.77Zm-15.22-2.18c0-.14,.11-.25,.25-.25h12c.14,0,.25,.11,.25,.25v1.25H5.75v-1.25Zm1.7-3.4c.51-.38,1.29-.23,2.52,.05,1.43,.32,3.21,.71,5.26,.07,.55-.17,1.08-.41,1.58-.7,.18,.31,.36,.69,.46,1.15,.09,.4,.1,.77,.08,1.09H6.78c.06-.66,.24-1.33,.67-1.65Zm10.36,13.59s-.1,.06-.17,.06H6.36c-.06,0-.12-.02-.16-.06-.79-.69-2.61-2.56-2.45-5.15,.05-.75,.25-1.48,.62-2.18,.04-.07,.12-.12,.22-.12h14.84c.1,0,.18,.05,.22,.12,.36,.7,.57,1.43,.62,2.18,.16,2.58-1.66,4.46-2.45,5.14Z"/><path d="M15,13.25h-6c-.96,0-1.75,.79-1.75,1.75v1c0,.96,.79,1.75,1.75,1.75h6c.96,0,1.75-.79,1.75-1.75v-1c0-.96-.79-1.75-1.75-1.75Zm.25,2.75c0,.14-.11,.25-.25,.25h-6c-.14,0-.25-.11-.25-.25v-1c0-.14,.11-.25,.25-.25h6c.14,0,.25,.11,.25,.25v1Z"/></g></g><g id="c"/><g id="d"/><g id="e"/><g id="f"/><g id="g"/><g id="h"/><g id="i"/><g id="j"/><g id="k"/><g id="l"/><g id="m"/><g id="n"/><g id="o"/><g id="p"/><g id="q"/><g id="r"/><g id="s"/><g id="t"/><g id="u"/></svg>