<?xml version="1.0" encoding="UTF-8"?><svg xmlns="http://www.w3.org/2000/svg" viewBox="0 0 24 24"><g id="a"/><g id="b"/><g id="c"/><g id="d"/><g id="e"/><g id="f"/><g id="g"/><g id="h"/><g id="i"/><g id="j"/><g id="k"><g><path d="M18.55,5.28c-2.36-2.36-5.19-2.91-6.66-3.02-.87-.05-1.67,.54-1.84,1.4l-1.2,6.02L3.35,15.17c-1.46,1.46-1.46,3.84,0,5.3,.71,.71,1.65,1.1,2.65,1.1s1.94-.39,2.65-1.1l5.5-5.5,6.02-1.2c.86-.17,1.47-.97,1.4-1.86-.26-3.61-2.38-5.99-3.02-6.64ZM7.59,19.42c-.85,.85-2.33,.85-3.18,0-.88-.88-.88-2.3,0-3.18l5.13-5.13,3.18,3.18-5.13,5.13Zm12.29-7.11l-5.85,1.17-3.67-3.67,1.17-5.85c.02-.13,.12-.22,.25-.2,1.27,.1,3.7,.57,5.72,2.58,.55,.55,2.37,2.59,2.59,5.68,0,.14-.08,.26-.2,.29Z"/><path d="M8.3,14.47l-2.12,2.12c-.29,.29-.29,.77,0,1.06,.15,.15,.34,.22,.53,.22s.38-.07,.53-.22l2.12-2.12c.29-.29,.29-.77,0-1.06s-.77-.29-1.06,0Z"/></g></g><g id="l"/><g id="m"/><g id="n"/><g id="o"/><g id="p"/><g id="q"/><g id="r"/><g id="s"/><g id="t"/><g id="u"/></svg>