<?xml version="1.0" encoding="UTF-8"?><svg xmlns="http://www.w3.org/2000/svg" viewBox="0 0 24 24"><g id="a"/><g id="b"/><g id="c"/><g id="d"/><g id="e"/><g id="f"/><g id="g"/><g id="h"/><g id="i"/><g id="j"/><g id="k"/><g id="l"/><g id="m"/><g id="n"><path d="M12.5,14.75h1.53c1.5,0,2.72-1.22,2.72-2.78s-1.22-2.72-2.72-2.72h-1.53c-.41,0-.75-.34-.75-.75s.34-.75,.75-.75h1.53c1.5,0,2.72-1.22,2.72-2.78s-1.22-2.72-2.72-2.72h-4.03c-2.07,0-3.75,1.68-3.75,3.75v11.97c0,1.01,.39,1.95,1.11,2.66,.71,.7,1.64,1.09,2.64,1.09h.03l4.02-.03c1.49-.01,2.7-1.23,2.7-2.72s-1.22-2.72-2.72-2.72h-1.53c-.41,0-.75-.34-.75-.75s.34-.75,.75-.75Zm0,3h1.53c.67,0,1.22,.55,1.22,1.22s-.54,1.22-1.21,1.22l-4.02,.03c-.6,0-1.17-.23-1.6-.65-.43-.43-.67-.99-.67-1.6V6c0-1.24,1.01-2.25,2.25-2.25h4.03c.67,0,1.22,.55,1.22,1.28,0,.67-.55,1.22-1.22,1.22h-1.53c-1.24,0-2.25,1.01-2.25,2.25s1.01,2.25,2.25,2.25h1.53c.67,0,1.22,.55,1.22,1.28,0,.67-.55,1.22-1.22,1.22h-1.53c-1.24,0-2.25,1.01-2.25,2.25s1.01,2.25,2.25,2.25Z"/></g><g id="o"/><g id="p"/><g id="q"/><g id="r"/><g id="s"/><g id="t"/><g id="u"/></svg>