<?xml version="1.0" encoding="UTF-8"?><svg xmlns="http://www.w3.org/2000/svg" viewBox="0 0 24 24"><g id="a"/><g id="b"/><g id="c"><path d="M17.06,15.78c-.23-.43-.39-.74-.37-1.3,.01-.47,.14-.75,.34-1.17,.22-.47,.49-1.05,.64-2.02,.06-.41,.09-.82,.09-1.23,0-.71-.4-1.31-.97-1.61l-.56-1.97c-.16-.57-.57-.99-1.07-1.15-.3-1.74-1.82-3.08-3.65-3.08s-3.35,1.33-3.65,3.08c-.5,.16-.91,.58-1.07,1.15l-.56,1.97c-.57,.3-.97,.9-.97,1.61,0,.41,.03,.83,.09,1.24,.15,.97,.42,1.55,.64,2.02,.2,.42,.33,.7,.34,1.17,.02,.56-.15,.87-.37,1.3-.24,.45-.54,1.01-.61,1.89-.06,.72,.05,1.47,.32,2.22,.42,1.13,1.41,1.86,2.54,1.86h6.6c1.13,0,2.13-.73,2.54-1.86,.28-.75,.38-1.5,.32-2.22-.07-.88-.37-1.44-.61-1.89ZM8.22,6.89c.03-.1,.08-.13,.08-.14h6.39s.06,.04,.09,.14l.38,1.36H7.84l.38-1.36Zm3.28-3.14c.97,0,1.79,.63,2.08,1.5h-4.17c.3-.87,1.11-1.5,2.08-1.5Zm-.75,16.5v-5.25c0-.14,.11-.25,.25-.25h1c.14,0,.25,.11,.25,.25v5.25h-1.5Zm5.43-9.18c-.11,.75-.32,1.19-.51,1.61-.23,.48-.46,.98-.48,1.76-.03,.95,.28,1.53,.55,2.04,.21,.4,.39,.74,.44,1.31,.04,.51-.04,1.04-.24,1.58-.2,.53-.64,.88-1.13,.88h-1.05v-5.25c0-.96-.79-1.75-1.75-1.75h-1c-.96,0-1.75,.79-1.75,1.75v5.25h-1.05c-.49,0-.94-.34-1.13-.88-.2-.54-.28-1.08-.24-1.58,.05-.57,.23-.92,.44-1.31,.27-.51,.58-1.09,.55-2.04-.02-.78-.26-1.28-.48-1.76-.2-.42-.4-.85-.51-1.6-.05-.33-.07-.67-.07-1.01,0-.19,.13-.32,.25-.32H16c.12,0,.25,.13,.25,.32,0,.33-.02,.67-.07,1Z"/></g><g id="d"/><g id="e"/><g id="f"/><g id="g"/><g id="h"/><g id="i"/><g id="j"/><g id="k"/><g id="l"/><g id="m"/><g id="n"/><g id="o"/><g id="p"/><g id="q"/><g id="r"/><g id="s"/><g id="t"/><g id="u"/></svg>