<?xml version="1.0" encoding="UTF-8"?><svg xmlns="http://www.w3.org/2000/svg" viewBox="0 0 24 24"><g id="a"/><g id="b"/><g id="c"/><g id="d"/><g id="e"/><g id="f"/><g id="g"/><g id="h"/><g id="i"/><g id="j"/><g id="k"/><g id="l"/><g id="m"/><g id="n"/><g id="o"/><g id="p"><g><path d="M22.49,12.14c-.39-.14-.82,.06-.96,.45-.07,.2-.48,1.19-1.54,1.55-.1,.03-.19,.09-.26,.16-.66-.37-1.31-.68-1.95-.93,.73-.53,1.37-1.2,1.86-1.96,.22-.35,.12-.81-.23-1.04-.35-.22-.81-.12-1.04,.23-.45,.71-1.06,1.32-1.77,1.77-.23,.15-.48,.27-.73,.38-1.22-.31-2.32-.44-3.19-.48-.06,0-.12-.02-.19-.02-.04,0-.07,0-.11,.01-.13,0-.27-.01-.38-.01-4.57,0-7.88,1.97-9.45,3.15-.21,.16-.33,.42-.29,.69,.03,.27,.2,.49,.45,.6,.66,.28,1.3,.6,1.92,.96,1.3,.75,1.99,1.36,2.59,1.9,.43,.39,.84,.75,1.39,1.09,1.26,.77,2.71,1.09,4.15,1.09,1.66,0,3.29-.42,4.58-1.06,2.31-1.15,3.63-2.99,4.33-4.33,.17-.33,.08-.73-.21-.95-.09-.07-.18-.11-.27-.18,1.17-.7,1.66-1.85,1.75-2.12,.14-.39-.06-.82-.45-.96Zm-8.26,3.35c0,.96-.78,1.74-1.74,1.74s-1.74-.78-1.74-1.74,.73-1.68,1.64-1.73c.09,0,.18,0,.28,0,.88,.09,1.57,.82,1.57,1.72Zm2.44,3.84c-2.39,1.18-5.38,1.2-7.27,.03-.44-.27-.78-.58-1.18-.93-.62-.56-1.4-1.25-2.84-2.08-.28-.16-.57-.32-.86-.47,1.22-.75,2.97-1.57,5.15-1.94-.25,.46-.41,.98-.41,1.55,0,1.79,1.45,3.24,3.24,3.24s3.24-1.45,3.24-3.24c0-.47-.1-.91-.28-1.31,1.4,.35,2.99,.97,4.57,2.04-.65,1.05-1.7,2.29-3.35,3.11Z"/><path d="M3,10.77c.1,0,.19-.02,.28-.06,2.2-.9,4.5-1.56,6.84-1.95,3.55-.6,7.16-.6,10.75,0,.31,.05,.62-.09,.77-.36,.16-.27,.13-.61-.07-.85-1.21-1.48-2.66-2.57-4.3-3.22-2.9-1.16-5.58-.61-8.43-.04-2.11,.43-4.18,1.12-6.17,2.06-.26,.12-.43,.39-.43,.68v3c0,.25,.12,.48,.33,.62,.13,.08,.27,.13,.42,.13Zm.75-3.27c1.75-.79,3.56-1.37,5.4-1.74,2.73-.55,5.09-1.03,7.57-.04,.78,.31,1.5,.73,2.18,1.27-3.02-.31-6.05-.21-9.02,.3-2.08,.35-4.14,.9-6.13,1.64v-1.42Z"/></g></g><g id="q"/><g id="r"/><g id="s"/><g id="t"/><g id="u"/></svg>