<?xml version="1.0" encoding="UTF-8"?><svg xmlns="http://www.w3.org/2000/svg" viewBox="0 0 24 24"><g id="a"/><g id="b"/><g id="c"/><g id="d"/><g id="e"/><g id="f"/><g id="g"/><g id="h"/><g id="i"/><g id="j"/><g id="k"/><g id="l"/><g id="m"/><g id="n"/><g id="o"/><g id="p"/><g id="q"/><g id="r"/><g id="s"><g><path d="M19.11,3.19l-10.57-.66c-1.39-.09-2.71,.39-3.72,1.34s-1.57,2.24-1.57,3.63,.56,2.68,1.57,3.63c.69,.65,1.53,1.07,2.43,1.25v3.62c0,1.04,.59,1.94,1.45,2.41-.4,.6-.66,1.27-.38,1.9,.17,.39,.48,.59,.71,.73,.18,.12,.25,.17,.29,.26,.12,.29,.4,.46,.69,.46,.1,0,.2-.02,.29-.06,.38-.16,.56-.6,.4-.98-.22-.52-.6-.76-.85-.93-.05-.03-.11-.07-.13-.06,.02-.08,.13-.4,.67-1.01,1.34-.18,2.38-1.32,2.38-2.71v-3.8l6.36-.4c.92-.06,1.64-.82,1.64-1.75V4.94c0-.92-.72-1.69-1.64-1.75ZM4.75,7.5c0-.97,.39-1.87,1.1-2.53,.65-.61,1.49-.94,2.37-.94,.07,0,.15,0,.22,0l7.81,.49v5.97l-7.81,.49c-.97,.06-1.89-.27-2.6-.94-.71-.66-1.1-1.56-1.1-2.53Zm6.5,8.5c0,.69-.56,1.25-1.25,1.25s-1.25-.56-1.25-1.25v-3.55l2.5-.16v3.7Zm8-5.94c0,.13-.1,.24-.23,.25l-1.27,.08V4.61l1.27,.08c.13,0,.23,.12,.23,.25v5.12Z"/><path d="M8.75,8v-1c0-.41-.34-.75-.75-.75s-.75,.34-.75,.75v1c0,.41,.34,.75,.75,.75s.75-.34,.75-.75Z"/></g></g><g id="t"/><g id="u"/></svg>