<?xml version="1.0" encoding="UTF-8"?><svg xmlns="http://www.w3.org/2000/svg" viewBox="0 0 24 24"><g id="a"/><g id="b"/><g id="c"/><g id="d"/><g id="e"/><g id="f"/><g id="g"/><g id="h"/><g id="i"/><g id="j"/><g id="k"/><g id="l"/><g id="m"/><g id="n"/><g id="o"/><g id="p"/><g id="q"><path d="M21.73,11.16s0-.03,0-.04c.01-.07,.01-.14,0-.22,0-.03-.01-.05-.02-.08-.01-.06-.04-.11-.07-.17-.01-.03-.03-.05-.05-.08-.01-.01-.02-.03-.03-.05-.63-.77-1.34-1.48-2.11-2.11-1.51-1.24-2.81-2.3-4.53-2.17-.97,.08-1.93,.55-2.76,1.37-.11,.1-.26,.1-.37,0-.83-.82-1.78-1.29-2.76-1.37-1.72-.13-3.02,.93-4.53,2.17-.77,.63-1.48,1.34-2.11,2.11-.01,.01-.02,.03-.03,.05-.02,.02-.03,.05-.05,.08-.03,.05-.05,.11-.07,.17,0,.03-.01,.05-.02,.08,0,.07,0,.14,0,.22,0,.02,0,.03,0,.04,.02,.08,.04,.15,.09,.23,0,0,.01,.01,.02,.02,0,0,0,.01,0,.02,.87,1.26,1.95,2.34,3.19,3.19,.85,.58,3.11,2.13,6.42,2.13s5.57-1.55,6.42-2.13c1.25-.86,2.32-1.93,3.19-3.19,0,0,0-.01,0-.02,0,0,.01-.01,.02-.02,.04-.07,.07-.15,.09-.23Zm-16.26-1.58c1.37-1.11,2.35-1.91,3.47-1.83,.63,.05,1.24,.37,1.82,.94,.69,.68,1.78,.68,2.47,0,.58-.58,1.2-.89,1.82-.94,1.13-.08,2.1,.72,3.47,1.83,.17,.14,.34,.28,.5,.43-1.1-.05-2.16,.04-3.18,.25-.81,.17-1.38,.38-1.87,.56-.66,.24-1.14,.42-1.97,.42s-1.31-.18-1.97-.42c-.5-.18-1.06-.39-1.87-.56-.83-.18-1.7-.27-2.59-.27-.2,0-.4,0-.6,.01,.16-.15,.33-.29,.5-.43Zm12.1,3.8c-.75,.51-2.73,1.87-5.58,1.87s-4.83-1.36-5.58-1.87c-.75-.52-1.43-1.13-2.03-1.82,1.2-.12,2.36-.06,3.45,.18,.71,.15,1.2,.33,1.67,.51,.71,.26,1.39,.51,2.49,.51s1.77-.25,2.49-.51c.47-.17,.96-.35,1.67-.51,1.09-.23,2.25-.29,3.45-.18-.6,.69-1.28,1.31-2.03,1.82Z"/></g><g id="r"/><g id="s"/><g id="t"/><g id="u"/></svg>