<?xml version="1.0" encoding="UTF-8"?><svg xmlns="http://www.w3.org/2000/svg" viewBox="0 0 24 24"><g id="a"/><g id="b"/><g id="c"/><g id="d"/><g id="e"/><g id="f"/><g id="g"/><g id="h"/><g id="i"/><g id="j"/><g id="k"/><g id="l"/><g id="m"/><g id="n"/><g id="o"/><g id="p"/><g id="q"/><g id="r"/><g id="s"/><g id="t"/><g id="u"><path d="M14.75,11.43V6.04c0-1.05-.38-2.04-1.08-2.79l-.41-.45c-.67-.71-1.85-.71-2.51,0l-.41,.44c-.7,.75-1.08,1.74-1.08,2.79v5.39c-.59,.28-1,.88-1,1.57v7c0,.96,.79,1.75,1.75,1.75h4c.96,0,1.75-.79,1.75-1.75v-7c0-.7-.41-1.29-1-1.57Zm-5,1.57c0-.14,.11-.25,.25-.25h4c.14,0,.25,.11,.25,.25v1.25h-4.5v-1.25Zm1.68-8.73l.41-.44c.12-.13,.2-.12,.32,0l.41,.45c.43,.46,.68,1.11,.68,1.77v5.21h-2.5V6.04c0-.66,.25-1.31,.68-1.77Zm2.57,15.98h-4c-.14,0-.25-.11-.25-.25v-4.25h4.5v4.25c0,.14-.11,.25-.25,.25Z"/></g></svg>