<?xml version="1.0" encoding="UTF-8"?><svg xmlns="http://www.w3.org/2000/svg" viewBox="0 0 24 24"><g id="a"/><g id="b"/><g id="c"/><g id="d"/><g id="e"/><g id="f"/><g id="g"/><g id="h"/><g id="i"/><g id="j"/><g id="k"/><g id="l"/><g id="m"/><g id="n"/><g id="o"/><g id="p"/><g id="q"/><g id="r"/><g id="s"/><g id="t"><g><path d="M12,2.25C6.62,2.25,2.25,6.62,2.25,12s4.37,9.75,9.75,9.75,9.75-4.37,9.75-9.75S17.38,2.25,12,2.25Zm6.34,15.03l-.81-.81c-.29-.29-.77-.29-1.06,0s-.29,.77,0,1.06l.81,.81c-1.43,1.19-3.27,1.91-5.28,1.91s-3.84-.72-5.28-1.91l.81-.81c.29-.29,.29-.77,0-1.06s-.77-.29-1.06,0l-.81,.81c-1.19-1.43-1.91-3.27-1.91-5.28s.72-3.84,1.91-5.28l.81,.81c.15,.15,.34,.22,.53,.22s.38-.07,.53-.22c.29-.29,.29-.77,0-1.06l-.81-.81c1.43-1.19,3.27-1.91,5.28-1.91s3.84,.72,5.28,1.91l-.81,.81c-.29,.29-.29,.77,0,1.06,.15,.15,.34,.22,.53,.22s.38-.07,.53-.22l.81-.81c1.19,1.43,1.91,3.27,1.91,5.28s-.72,3.84-1.91,5.28Z"/><path d="M10.75,11.5c0-1.24-1.01-2.25-2.25-2.25h-1c-1.24,0-2.25,1.01-2.25,2.25s1.01,2.25,2.25,2.25h1c1.24,0,2.25-1.01,2.25-2.25Zm-2.25,.75h-1c-.41,0-.75-.34-.75-.75s.34-.75,.75-.75h1c.41,0,.75,.34,.75,.75s-.34,.75-.75,.75Z"/><path d="M16.5,9.25h-1c-1.24,0-2.25,1.01-2.25,2.25s1.01,2.25,2.25,2.25h1c1.24,0,2.25-1.01,2.25-2.25s-1.01-2.25-2.25-2.25Zm0,3h-1c-.41,0-.75-.34-.75-.75s.34-.75,.75-.75h1c.41,0,.75,.34,.75,.75s-.34,.75-.75,.75Z"/><path d="M12.5,14.25h-1c-1.24,0-2.25,1.01-2.25,2.25s1.01,2.25,2.25,2.25h1c1.24,0,2.25-1.01,2.25-2.25s-1.01-2.25-2.25-2.25Zm0,3h-1c-.41,0-.75-.34-.75-.75s.34-.75,.75-.75h1c.41,0,.75,.34,.75,.75s-.34,.75-.75,.75Z"/></g></g><g id="u"/></svg>