<?xml version="1.0" encoding="UTF-8"?><svg xmlns="http://www.w3.org/2000/svg" viewBox="0 0 24 24"><g id="a"/><g id="b"/><g id="c"/><g id="d"/><g id="e"><g><path d="M18.86,16.25h-.11V6c0-2.07-1.68-3.75-3.75-3.75h-6c-2.07,0-3.75,1.68-3.75,3.75v10.25h-.11c-1.04,0-1.89,.79-1.89,1.75v1c0,1.52,1.36,2.75,3.04,2.75h11.43c1.67,0,3.04-1.23,3.04-2.75v-1c0-.96-.85-1.75-1.89-1.75ZM6.75,6c0-1.24,1.01-2.25,2.25-2.25h6c1.24,0,2.25,1.01,2.25,2.25v10.25h-1.35c-.49,0-.95,.17-1.3,.48l-.47,.41c-.08,.07-.19,.11-.31,.11h-3.63c-.12,0-.24-.04-.31-.11l-.47-.41c-.35-.31-.81-.48-1.3-.48h-1.35V6Zm12.5,13c0,.69-.69,1.25-1.54,1.25H6.29c-.85,0-1.54-.56-1.54-1.25v-1c0-.12,.17-.25,.39-.25h2.96c.12,0,.24,.04,.31,.11l.47,.41c.35,.31,.81,.48,1.3,.48h3.63c.49,0,.95-.17,1.3-.48l.47-.41c.08-.07,.19-.11,.31-.11h2.96c.23,0,.39,.13,.39,.25v1Z"/><path d="M9,8.75c.19,0,.38-.07,.53-.22l1-1c.29-.29,.29-.77,0-1.06s-.77-.29-1.06,0l-1,1c-.29,.29-.29,.77,0,1.06,.15,.15,.34,.22,.53,.22Z"/><path d="M10.47,10.53c.15,.15,.34,.22,.53,.22s.38-.07,.53-.22l2-2c.29-.29,.29-.77,0-1.06s-.77-.29-1.06,0l-2,2c-.29,.29-.29,.77,0,1.06Z"/></g></g><g id="f"/><g id="g"/><g id="h"/><g id="i"/><g id="j"/><g id="k"/><g id="l"/><g id="m"/><g id="n"/><g id="o"/><g id="p"/><g id="q"/><g id="r"/><g id="s"/><g id="t"/><g id="u"/></svg>