<?xml version="1.0" encoding="UTF-8"?><svg xmlns="http://www.w3.org/2000/svg" viewBox="0 0 24 24"><g id="a"/><g id="b"/><g id="c"/><g id="d"/><g id="e"/><g id="f"/><g id="g"/><g id="h"/><g id="i"/><g id="j"/><g id="k"/><g id="l"><g><path d="M14.75,6.14v-2.14c0-.96-.79-1.75-1.75-1.75h-2c-.96,0-1.75,.79-1.75,1.75v2.14c-1.24,.89-2,2.32-2,3.86v11c0,.41,.34,.75,.75,.75h8c.41,0,.75-.34,.75-.75V10c0-1.54-.76-2.98-2-3.86Zm-4-2.14c0-.14,.11-.25,.25-.25h2c.14,0,.25,.11,.25,.25v4c0,.69-.56,1.25-1.25,1.25s-1.25-.56-1.25-1.25V4Zm4.5,16.25h-6.5V10c0-.63,.19-1.24,.52-1.76,.13,1.4,1.29,2.51,2.73,2.51s2.6-1.11,2.73-2.51c.33,.52,.52,1.12,.52,1.76v10.25Z"/><path d="M13,14.25h-2c-.41,0-.75,.34-.75,.75s.34,.75,.75,.75h2c.41,0,.75-.34,.75-.75s-.34-.75-.75-.75Z"/><path d="M13,17.25h-2c-.41,0-.75,.34-.75,.75s.34,.75,.75,.75h2c.41,0,.75-.34,.75-.75s-.34-.75-.75-.75Z"/></g></g><g id="m"/><g id="n"/><g id="o"/><g id="p"/><g id="q"/><g id="r"/><g id="s"/><g id="t"/><g id="u"/></svg>