<?xml version="1.0" encoding="UTF-8"?><svg xmlns="http://www.w3.org/2000/svg" viewBox="0 0 24 24"><g id="a"/><g id="b"/><g id="c"/><g id="d"/><g id="e"/><g id="f"/><g id="g"/><g id="h"/><g id="i"/><g id="j"><g><path d="M17.83,11.15c-.52-.57-1.26-.9-2.04-.9h-.13l-.81-6.47c-.11-.87-.86-1.53-1.74-1.53h-2.23c-.88,0-1.63,.66-1.74,1.53l-.81,6.47h-.13c-.78,0-1.52,.33-2.04,.9-.52,.58-.77,1.35-.7,2.12l.6,6c.14,1.41,1.32,2.48,2.74,2.48h6.38c1.42,0,2.59-1.06,2.74-2.48l.6-6c.08-.77-.18-1.54-.7-2.12ZM10.63,3.97c.02-.13,.12-.22,.25-.22h2.23c.13,0,.23,.09,.25,.22l.79,6.28h-4.3l.79-6.28Zm5.8,15.16c-.06,.64-.6,1.13-1.24,1.13h-6.38c-.65,0-1.18-.48-1.24-1.13l-.6-6c-.04-.36,.08-.7,.32-.96,.24-.26,.57-.41,.93-.41h7.58c.36,0,.69,.15,.93,.41,.24,.27,.35,.61,.32,.96l-.6,6Z"/><path d="M13,13.25h-2c-.96,0-1.75,.79-1.75,1.75v2c0,.96,.79,1.75,1.75,1.75h2c.96,0,1.75-.79,1.75-1.75v-2c0-.96-.79-1.75-1.75-1.75Zm.25,3.75c0,.14-.11,.25-.25,.25h-2c-.14,0-.25-.11-.25-.25v-2c0-.14,.11-.25,.25-.25h2c.14,0,.25,.11,.25,.25v2Z"/></g></g><g id="k"/><g id="l"/><g id="m"/><g id="n"/><g id="o"/><g id="p"/><g id="q"/><g id="r"/><g id="s"/><g id="t"/><g id="u"/></svg>