<?xml version="1.0" encoding="UTF-8"?><svg xmlns="http://www.w3.org/2000/svg" viewBox="0 0 24 24"><g id="a"/><g id="b"/><g id="c"/><g id="d"/><g id="e"/><g id="f"/><g id="g"/><g id="h"/><g id="i"/><g id="j"/><g id="k"/><g id="l"/><g id="m"/><g id="n"/><g id="o"><path d="M16.75,4.37v-.06c0-.48-.28-.92-.7-1.13-1.25-.61-2.65-.93-4.05-.93-1.76,0-3.17,.51-4.04,.93-.44,.21-.71,.64-.71,1.13v.06c-1.15,.33-2,1.38-2,2.63,0,.86,.41,1.68,1.1,2.2l2.8,2.1c.06,.05,.1,.12,.1,.2v7.5c0,1.52,1.23,2.75,2.75,2.75s2.75-1.23,2.75-2.75v-7.5c0-.08,.04-.15,.1-.2l2.8-2.1c.69-.52,1.1-1.34,1.1-2.2,0-1.25-.85-2.3-2-2.63Zm-8,.1c.74-.34,1.87-.71,3.25-.71,.79,0,1.98,.13,3.25,.71v1.07c-.74,.34-1.87,.71-3.25,.71-.79,0-1.98-.13-3.25-.71v-1.07Zm4.5,14.54c0,.69-.56,1.25-1.25,1.25s-1.25-.56-1.25-1.25v-5.25h2.5v5.25Zm3.5-11l-2.8,2.1c-.44,.33-.7,.85-.7,1.4v.75h-2.5v-.75c0-.55-.26-1.07-.7-1.4l-2.8-2.1c-.31-.24-.5-.61-.5-1,0-.42,.22-.78,.54-1,.09,.35,.33,.66,.66,.82,1.25,.61,2.65,.93,4.05,.93,1.76,0,3.17-.51,4.04-.93,.34-.17,.58-.47,.67-.82,.32,.23,.54,.58,.54,1,0,.39-.19,.77-.5,1Z"/></g><g id="p"/><g id="q"/><g id="r"/><g id="s"/><g id="t"/><g id="u"/></svg>