<?xml version="1.0" encoding="UTF-8"?><svg xmlns="http://www.w3.org/2000/svg" viewBox="0 0 24 24"><g id="a"/><g id="b"/><g id="c"/><g id="d"/><g id="e"/><g id="f"/><g id="g"/><g id="h"/><g id="i"/><g id="j"/><g id="k"/><g id="l"/><g id="m"/><g id="n"/><g id="o"/><g id="p"/><g id="q"/><g id="r"><g><path d="M15,4.25h-.75v-1.25c0-.41-.34-.75-.75-.75s-.75,.34-.75,.75v1.25h-1.5v-1.25c0-.41-.34-.75-.75-.75s-.75,.34-.75,.75v1.25h-.75c-.96,0-1.75,.79-1.75,1.75v11c0,2.62,2.13,4.75,4.75,4.75s4.75-2.13,4.75-4.75V6c0-.96-.79-1.75-1.75-1.75Zm-6.25,1.75c0-.14,.11-.25,.25-.25h6c.14,0,.25,.11,.25,.25v2.25h-6.5v-2.25Zm6.5,11c0,1.79-1.46,3.25-3.25,3.25s-3.25-1.46-3.25-3.25v-7.25h6.5v7.25Z"/><path d="M11,16.75h2c.41,0,.75-.34,.75-.75s-.34-.75-.75-.75h-2c-.41,0-.75,.34-.75,.75s.34,.75,.75,.75Z"/></g></g><g id="s"/><g id="t"/><g id="u"/></svg>