<?xml version="1.0" encoding="UTF-8"?><svg xmlns="http://www.w3.org/2000/svg" viewBox="0 0 24 24"><g id="a"/><g id="b"/><g id="c"/><g id="d"><g><path d="M16.04,2.25H7.96c-1.52,0-2.75,1.23-2.75,2.74,0,.66,.02,1.35,.05,2.04,.16,3.26,.69,6.53,1.59,9.71,.14,.48,.4,.9,.75,1.23-.21,.29-.34,.64-.34,1.02v1.5c0,.69,.56,1.25,1.25,1.25h7c.69,0,1.25-.56,1.25-1.25v-1.5c0-.38-.13-.74-.34-1.02,.35-.33,.61-.75,.75-1.23,.9-3.18,1.43-6.45,1.59-9.71,.03-.7,.05-1.38,.05-2.04,0-1.51-1.24-2.74-2.76-2.74Zm-1.04,16.5c.14,0,.25,.11,.25,.25v1.25h-6.5v-1.25c0-.14,.11-.25,.25-.25h6Zm2.25-11.79c-.15,3.15-.67,6.3-1.53,9.38-.15,.54-.65,.91-1.21,.91h-5.02c-.56,0-1.05-.37-1.21-.91-.87-3.07-1.38-6.23-1.53-9.38-.03-.67-.05-1.33-.05-1.97,0-.68,.56-1.24,1.25-1.24h8.08c.69,0,1.25,.56,1.26,1.24,0,.64-.02,1.3-.05,1.97Z"/><path d="M12.45,6.4c-.27-.2-.63-.2-.9,0-.44,.33-.83,.72-1.15,1.15-.91,1.22-1.13,2.54-1.15,3.45,0,1.52,1.23,2.75,2.75,2.75s2.75-1.23,2.75-2.77c-.02-.89-.24-2.21-1.15-3.43-.32-.43-.71-.82-1.15-1.15Zm-.45,5.85c-.68,0-1.25-.57-1.25-1.23,.02-.67,.18-1.66,.85-2.57,.12-.16,.25-.32,.4-.46,.14,.14,.28,.3,.4,.46,.67,.91,.84,1.9,.85,2.55,0,.69-.56,1.25-1.25,1.25Z"/></g></g><g id="e"/><g id="f"/><g id="g"/><g id="h"/><g id="i"/><g id="j"/><g id="k"/><g id="l"/><g id="m"/><g id="n"/><g id="o"/><g id="p"/><g id="q"/><g id="r"/><g id="s"/><g id="t"/><g id="u"/></svg>