<svg height="512pt" viewBox="0 0 512 512" width="512pt" xmlns="http://www.w3.org/2000/svg"><path d="m437.019531 74.980469c-48.351562-48.351563-112.640625-74.980469-181.019531-74.980469s-132.667969 26.628906-181.019531 74.980469c-48.351563 48.351562-74.980469 112.640625-74.980469 181.019531s26.628906 132.667969 74.980469 181.019531c48.351562 48.351563 112.640625 74.980469 181.019531 74.980469s132.667969-26.628906 181.019531-74.980469c48.351563-48.351562 74.980469-112.640625 74.980469-181.019531s-26.628906-132.667969-74.980469-181.019531zm44.457031 196.242187c-3.410156 51.011719-23.816406 97.441406-55.601562 133.664063l-19.574219-19.578125-21.214843 21.210937 19.5625 19.566407c-36.238282 31.710937-82.660157 52.046874-133.648438 55.402343v-27.710937h-30v27.710937c-50.988281-3.355469-97.410156-23.691406-133.652344-55.402343l19.5625-19.566407-21.210937-21.210937-19.578125 19.578125c-31.78125-36.222657-52.1875-82.652344-55.597656-133.664063h27.917968v-30h-27.945312c3.3125-51.078125 23.660156-97.582031 55.417968-133.871094l19.785157 19.785157 21.214843-21.214844-19.800781-19.800781c36.273438-31.828125 82.785157-52.246094 133.886719-55.609375v28.152343h30v-28.152343c51.101562 3.363281 97.613281 23.78125 133.886719 55.613281l-19.800781 19.796875 21.214843 21.214844 19.785157-19.785157c31.757812 36.289063 52.105468 82.792969 55.417968 133.871094h-27.949218v30zm0 0"/><path d="m256 86c-93.738281 0-170 76.261719-170 170s76.261719 170 170 170 170-76.261719 170-170-76.261719-170-170-170zm140 170c0 3.746094-.152344 7.460938-.441406 11.132812l-72.265625-.660156-23.691407 40.984375 38.335938 61.988281c-6.84375 4.957032-14.148438 9.3125-21.839844 12.984376l-35.535156-62.910157-47.339844-.035156-34.558594 64.230469c-7.773437-3.503906-15.167968-7.703125-22.113281-12.507813l36.707031-62.1875-23.625-41.019531-72.917968 2.167969c-.472656-4.660157-.714844-9.386719-.714844-14.167969 0-3.78125.15625-7.527344.453125-11.238281l72.261719.71875 23.722656-40.96875-38.289062-62.019531c6.789062-4.910157 14.035156-9.230469 21.660156-12.875l35.582031 62.882812h47.339844l34.507812-64.253906c7.777344 3.496094 15.175781 7.6875 22.125 12.488281l-36.664062 62.214844 23.660156 41 72.917969-2.222657c.476562 4.695313.722656 9.457032.722656 14.273438zm-56.621094-42.582031-5.949218-10.3125 25.003906-42.429688c13.542968 14.542969 24.035156 31.964844 30.445312 51.234375zm-55.152344-94.558594-23.4375 43.640625h-11.902343l-24.300781-42.945312c10.101562-2.324219 20.617187-3.554688 31.414062-3.554688 9.664062 0 19.105469.984375 28.226562 2.859375zm-132.714843 44.074219 25.972656 42.074218-5.964844 10.300782-49.335937-.488282c5.992187-19.433593 16.113281-37.066406 29.328125-51.886718zm-28.421875 137.058594 49.5-1.472657 5.941406 10.316407-25.035156 42.410156c-13.53125-14.554688-24.011719-31.980469-30.40625-51.253906zm104.582031 93.125 23.46875-43.621094 11.90625.011718 24.265625 42.960938c-10.070312 2.308594-20.550781 3.53125-31.3125 3.53125-9.703125 0-19.175781-.992188-28.328125-2.882812zm132.886719-44.128907-26.003906-42.050781 5.957031-10.308594 49.335937.453125c-5.980468 19.4375-16.085937 37.078125-29.289062 51.90625zm0 0"/><path d="m256 209c-25.914062 0-47 21.085938-47 47s21.085938 47 47 47 47-21.085938 47-47-21.085938-47-47-47zm0 64c-9.375 0-17-7.625-17-17s7.625-17 17-17 17 7.625 17 17-7.625 17-17 17zm0 0"/></svg>