<svg height="512pt" viewBox="0 0 512 512" width="512pt" xmlns="http://www.w3.org/2000/svg"><path d="m437.019531 74.980469c-48.351562-48.351563-112.640625-74.980469-181.019531-74.980469s-132.667969 26.628906-181.019531 74.980469c-48.351563 48.351562-74.980469 112.640625-74.980469 181.019531s26.628906 132.667969 74.980469 181.019531c48.351562 48.351563 112.640625 74.980469 181.019531 74.980469s132.667969-26.628906 181.019531-74.980469c48.351563-48.351562 74.980469-112.640625 74.980469-181.019531s-26.628906-132.667969-74.980469-181.019531zm-181.019531 407.019531c-124.617188 0-226-101.382812-226-226s101.382812-226 226-226 226 101.382812 226 226-101.382812 226-226 226zm0 0"/><path d="m256 70.652344c-102.199219 0-185.347656 83.148437-185.347656 185.347656s83.148437 185.347656 185.347656 185.347656 185.347656-83.148437 185.347656-185.347656-83.148437-185.347656-185.347656-185.347656zm43.574219 249.988281h-87.144531c-3.988282-7.25-8.539063-14.253906-13.644532-20.960937-24.25-31.839844-58.359375-53.457032-97.070312-61.804688 1.832031-15.671875 6-30.640625 12.152344-44.542969h284.265624c6.152344 13.902344 10.324219 28.871094 12.152344 44.542969-38.710937 8.347656-72.820312 29.964844-97.070312 61.804688-5.105469 6.707031-9.65625 13.710937-13.640625 20.960937zm-43.574219-219.988281c50.957031 0 96.261719 24.664062 124.605469 62.679687h-249.210938c28.34375-38.015625 73.648438-62.679687 124.605469-62.679687zm-154.835938 167.921875c29.328126 7.667969 55.101563 24.785156 73.753907 49.28125 18.636719 24.472656 28.289062 53.835937 27.90625 84.113281-55.785157-20.382812-96.710938-71.890625-101.660157-133.394531zm131.40625 141.007812c1.128907-20.144531-1.375-40.046875-7.320312-58.941406h61.5c-5.945312 18.894531-8.449219 38.796875-7.320312 58.941406-7.644532 1.160157-15.464844 1.765625-23.429688 1.765625s-15.785156-.605468-23.429688-1.765625zm76.605469-7.609375c-.382812-30.28125 9.265625-59.644531 27.90625-84.113281 18.65625-24.496094 44.429688-41.617187 73.753907-49.285156-4.949219 61.503906-45.875 113.011719-101.660157 133.398437zm0 0"/><path d="m256 210c-25.363281 0-46 20.636719-46 46s20.636719 46 46 46 46-20.636719 46-46-20.636719-46-46-46zm0 62c-8.820312 0-16-7.179688-16-16s7.179688-16 16-16 16 7.179688 16 16-7.179688 16-16 16zm0 0"/></svg>