<svg height="512pt" viewBox="0 -22 512 512" width="512pt" xmlns="http://www.w3.org/2000/svg"><path d="m512 163.480469v-94h-25.683594v-69.480469h-103.421875v69.480469h-47.996093l.382812-54.941407-157.996094-1.101562-.390625 56.042969h-47.789062v-69.480469h-103.421875v69.480469h-25.683594v94h18v211.183593h-18v94h512v-94h-20v-211.183593zm-30 275.183593h-452v-34h452zm-434-64v-210.5h414v210.5zm-18-275.183593h452v34h-452zm382.894531-69.480469h43.421875v39.480469h-43.421875zm-205.820312 13.648438 98 .679687-.175781 25.152344h-98.003907zm-151.390625-13.648438h43.421875v39.480469h-43.421875zm0 0"/><path d="m302.628906 254.414062h105.796875v30h-105.796875zm0 0"/><path d="m171.476562 216.519531h-30v37.894531h-37.898437v30h37.898437v37.898438h30v-37.898438h37.894532v-30h-37.894532zm0 0"/></svg>