<svg height="512pt" viewBox="0 0 512 512" width="512pt" xmlns="http://www.w3.org/2000/svg"><path d="m437.019531 74.980469c-48.351562-48.351563-112.640625-74.980469-181.019531-74.980469s-132.667969 26.628906-181.019531 74.980469c-48.351563 48.351562-74.980469 112.640625-74.980469 181.019531s26.628906 132.667969 74.980469 181.019531c48.351562 48.351563 112.640625 74.980469 181.019531 74.980469s132.667969-26.628906 181.019531-74.980469c48.351563-48.351562 74.980469-112.640625 74.980469-181.019531s-26.628906-132.667969-74.980469-181.019531zm-181.019531 407.019531c-124.617188 0-226-101.382812-226-226s101.382812-226 226-226 226 101.382812 226 226-101.382812 226-226 226zm0 0"/><path d="m256 59.71875c-108.230469 0-196.28125 88.050781-196.28125 196.28125s88.050781 196.28125 196.28125 196.28125 196.28125-88.050781 196.28125-196.28125-88.050781-196.28125-196.28125-196.28125zm0 362.5625c-86.632812 0-157.988281-66.597656-165.597656-151.28125h35.265625v-30h-35.265625c3.109375-34.601562 16.859375-66.183594 37.949218-91.4375l24.882813 24.882812 21.214844-21.210937-24.882813-24.882813c25.25-21.089843 56.832032-34.839843 91.433594-37.949218v35.261718h30v-35.261718c34.601562 3.109375 66.183594 16.859375 91.433594 37.949218l-24.882813 24.882813 21.214844 21.210937 24.882813-24.882812c21.089843 25.253906 34.839843 56.835938 37.949218 91.4375h-35.265625v30h35.265625c-7.609375 84.683594-78.964844 151.28125-165.597656 151.28125zm0 0"/><path d="m271 214.8125v-48.8125h-30v48.8125c-16.804688 6.136719-28.832031 22.285156-28.832031 41.1875s12.027343 35.050781 28.832031 41.1875v20.476562h30v-20.476562c16.804688-6.136719 28.832031-22.285156 28.832031-41.1875s-12.027343-35.050781-28.832031-41.1875zm-15 55.019531c-7.628906 0-13.832031-6.203125-13.832031-13.832031s6.203125-13.832031 13.832031-13.832031 13.832031 6.203125 13.832031 13.832031-6.203125 13.832031-13.832031 13.832031zm0 0"/><path d="m215.667969 348.667969h80.664062v30h-80.664062zm0 0"/></svg>