<svg height="512pt" viewBox="0 0 512 512" width="512pt" xmlns="http://www.w3.org/2000/svg"><path d="m425.390625 301.65625-47.492187-124.257812h-244.085938l-47.492188 124.257812c-18.394531 8.753906-31.140624 27.523438-31.140624 49.214844v103.070312h26.933593v9.160156c0 26.960938 21.9375 48.898438 48.902344 48.898438 26.960937 0 48.898437-21.9375 48.898437-48.898438v-9.160156h151.886719v9.160156c0 26.960938 21.933594 48.898438 48.898438 48.898438 26.964843 0 48.898437-21.9375 48.898437-48.898438v-9.160156h26.9375v-103.070312c-.003906-21.691406-12.75-40.460938-31.144531-49.214844zm-270.941406-94.273438h202.8125l34.019531 89.011719h-43.0625l-67.84375-56.0625-19.097656 23.113281 39.875 32.949219h-54.964844l-67.84375-56.0625-19.097656 23.113281 39.871094 32.949219h-78.683594zm-4.519531 255.71875c0 10.429688-8.484376 18.914063-18.917969 18.914063-10.429688 0-18.914063-8.484375-18.914063-18.914063v-9.160156h37.832032zm74.546874-39.144531v-29.511719h62.757813v29.511719zm92.742188 0v-59.496093h-122.726562v59.496093h-109.332032v-73.085937c0-13.507813 10.988282-24.492188 24.496094-24.492188h292.402344c13.503906 0 24.492187 10.988282 24.492187 24.492188v73.085937zm82.394531 39.144531c0 10.429688-8.484375 18.914063-18.914062 18.914063-10.433594 0-18.917969-8.484375-18.917969-18.914063v-9.160156h37.832031zm0 0"/><path d="m0 0h511.710938v29.984375h-511.710938zm0 0"/><path d="m21.453125 49.691406h29.980469v49.972656h-29.980469zm0 0"/><path d="m76.089844 49.691406h29.980468v75.902344h-29.980468zm0 0"/><path d="m76.089844 149.613281h29.980468v32.589844h-29.980468zm0 0"/><path d="m21.453125 120.761719h29.980469v30.820312h-29.980469zm0 0"/><path d="m130.058594 49.691406h29.980468v49.972656h-29.980468zm0 0"/><path d="m130.058594 120.761719h29.980468v30.820312h-29.980468zm0 0"/><path d="m185.09375 49.691406h29.984375v90.730469h-29.984375zm0 0"/><path d="m240.128906 49.691406h29.984375v49.972656h-29.984375zm0 0"/><path d="m240.128906 120.761719h29.984375v30.820312h-29.984375zm0 0"/><path d="m295.167969 49.691406h29.980469v71.066406h-29.980469zm0 0"/><path d="m350.203125 48.914062h29.984375v87.257813h-29.984375zm0 0"/><path d="m405.242188 49.691406h29.980468v49.972656h-29.980468zm0 0"/><path d="m405.242188 120.761719h29.980468v30.820312h-29.980468zm0 0"/><path d="m460.277344 49.691406h29.984375v71.066406h-29.984375zm0 0"/><path d="m460.277344 140.421875h29.984375v35.675781h-29.984375zm0 0"/><path d="m159.410156 376.539062c0 11.453126-9.285156 20.738282-20.738281 20.738282s-20.738281-9.285156-20.738281-20.738282c0-11.453124 9.285156-20.738281 20.738281-20.738281s20.738281 9.285157 20.738281 20.738281zm0 0"/><path d="m388.265625 376.539062c0 11.453126-9.285156 20.738282-20.738281 20.738282s-20.738282-9.285156-20.738282-20.738282c0-11.453124 9.285157-20.738281 20.738282-20.738281s20.738281 9.285157 20.738281 20.738281zm0 0"/></svg>