<svg height="512pt" viewBox="-76 0 512 512" width="512pt" xmlns="http://www.w3.org/2000/svg"><path d="m203.964844 78.980469v-78.980469h-155.367188v83.425781l-48.597656 100.652344v327.921875h360.121094v-332.679688zm-125.367188-48.980469h95.367188v42.097656h-95.367188zm251.523438 452h-300.121094v-291.058594l42.894531-88.84375h111.550781l145.675782 93.605469zm0 0"/><path d="m63.496094 450h233.128906v-218h-233.128906zm30-188h173.128906v158h-173.128906zm0 0"/><path d="m178.015625 278.644531-11.378906 13.25c-8.164063 9.503907-34.792969 42.15625-34.792969 63.285157 0 25.457031 20.710938 46.171874 46.171875 46.171874 25.457031 0 46.171875-20.710937 46.171875-46.171874 0-21.128907-26.628906-53.78125-34.792969-63.285157zm0 92.707031c-8.917969 0-16.171875-7.253906-16.171875-16.164062.09375-4.5 6.976562-16.636719 16.175781-29.308594 9.195313 12.65625 16.070313 24.785156 16.167969 29.308594-.003906 8.910156-7.257812 16.164062-16.171875 16.164062zm0 0"/><path d="m104.847656 169h133v30h-133zm0 0"/></svg>