<svg height="512pt" viewBox="0 0 512 512" width="512pt" xmlns="http://www.w3.org/2000/svg"><path d="m158.5 199.25c0 11.460938-9.289062 20.75-20.75 20.75s-20.75-9.289062-20.75-20.75 9.289062-20.75 20.75-20.75 20.75 9.289062 20.75 20.75zm0 0"/><path d="m387.484375 199.25c0 11.460938-9.289063 20.75-20.75 20.75s-20.75-9.289062-20.75-20.75 9.289063-20.75 20.75-20.75 20.75 9.289062 20.75 20.75zm0 0"/><path d="m425.027344 304.789062c2.453125-5.824218 3.8125-12.222656 3.8125-18.929687v-9.164063h26.949218v-103.128906c0-21.703125-12.753906-40.480468-31.160156-49.242187l-47.515625-124.324219h-244.226562l-47.515625 124.324219c-18.40625 8.761719-31.160156 27.539062-31.160156 49.242187v103.128906h26.949218v9.164063c0 6.707031 1.359375 13.105469 3.8125 18.929687h-84.972656v92.351563h94.148438l127.464843 64.09375-100.953125 50.765625h66.777344l67.5625-33.976562 67.5625 33.976562h66.773438l-100.949219-50.765625 127.464843-64.09375h96.148438v-92.351563zm-271.488282-274.789062h202.921876l34.042968 89.0625h-271.003906zm-69.328124 216.695312v-73.128906c0-13.511718 10.992187-24.503906 24.503906-24.503906h292.566406c13.515625 0 24.507812 10.992188 24.507812 24.503906v73.128906h-109.390624v-62.445312h-122.796876v62.445312zm314.628906 30v9.164063c0 10.4375-8.492188 18.929687-18.929688 18.929687-10.433594 0-18.925781-8.492187-18.925781-18.929687v-9.164063zm-67.855469 0v9.164063c0 6.707031 1.359375 13.105469 3.8125 18.929687h-159.59375c2.453125-5.824218 3.8125-12.222656 3.8125-18.929687v-9.164063zm-107.382813-30v-32.445312h62.796876v32.445312zm-74.585937 30v9.164063c0 10.4375-8.492187 18.929687-18.925781 18.929687-10.4375 0-18.929688-8.492187-18.929688-18.929687v-9.164063zm105.984375 167.75-94.074219-47.308593h188.148438zm227-77.308593h-452v-32.351563h452zm0 0"/></svg>