<svg height="512pt" viewBox="0 0 512 512" width="512pt" xmlns="http://www.w3.org/2000/svg"><path d="m256 57.347656c-109.535156 0-198.652344 89.117188-198.652344 198.652344s89.117188 198.652344 198.652344 198.652344 198.652344-89.117188 198.652344-198.652344-89.117188-198.652344-198.652344-198.652344zm100.789062 333.792969c-9.519531 7.117187-19.816406 13.25-30.734374 18.257813l-42.570313-75.367188-52.8125-.039062-41.375 76.894531c-11.03125-4.769531-21.457031-10.675781-31.125-17.582031l43.976563-74.5-26.359376-45.765626-87.292968 2.597657c-.75-6.445313-1.148438-12.996094-1.148438-19.636719 0-5.433594.269532-10.808594.773438-16.113281l86.566406.859375 26.464844-45.707032-45.839844-74.253906c9.457031-7.0625 19.683594-13.148437 30.519531-18.128906l42.628907 75.332031h52.8125l41.316406-76.925781c11.03125 4.761719 21.464844 10.660156 31.136718 17.5625l-43.921874 74.53125 26.394531 45.746094 87.289062-2.660156c.757813 6.484374 1.164063 13.074218 1.164063 19.761718 0 5.390625-.265625 10.722656-.761719 15.984375l-86.570313-.792969-26.429687 45.726563zm60.421876-184.722656-63.992188 1.949219-8.6875-15.050782 32.3125-54.832031c18.394531 18.914063 32.40625 42.105469 40.367188 67.933594zm-123.585938-114.832031-30.292969 56.402343h-17.378906l-31.394531-55.480469c13.261718-3.363281 27.144531-5.160156 41.441406-5.160156 12.929688 0 25.523438 1.46875 37.625 4.238282zm-161 49.558593 33.578125 54.390625-8.710937 15.039063-63.75-.632813c7.398437-26.03125 20.917968-49.511718 38.882812-68.796875zm-37.871094 164.316407 63.992188-1.902344 8.675781 15.058594-32.351563 54.808593c-18.382812-18.925781-32.375-42.128906-40.316406-67.964843zm123.496094 114.929687 30.339844-56.386719 17.378906.015625 31.351562 55.503907c-13.226562 3.34375-27.070312 5.128906-41.320312 5.128906-12.972656 0-25.609375-1.476563-37.75-4.261719zm161.210938-49.628906-33.617188-54.363281 8.695312-15.046876 63.75.585938c-7.378906 26.039062-20.878906 49.527344-38.828124 68.824219zm0 0"/><path d="m437.019531 74.980469c-48.351562-48.351563-112.640625-74.980469-181.019531-74.980469s-132.667969 26.628906-181.019531 74.980469c-48.351563 48.351562-74.980469 112.640625-74.980469 181.019531s26.628906 132.667969 74.980469 181.019531c48.351562 48.351563 112.640625 74.980469 181.019531 74.980469s132.667969-26.628906 181.019531-74.980469c48.351563-48.351562 74.980469-112.640625 74.980469-181.019531s-26.628906-132.667969-74.980469-181.019531zm-181.019531 407.019531c-124.617188 0-226-101.382812-226-226s101.382812-226 226-226 226 101.382812 226 226-101.382812 226-226 226zm0 0"/><path d="m256 203.085938c-29.179688 0-52.914062 23.738281-52.914062 52.914062s23.734374 52.914062 52.914062 52.914062 52.914062-23.738281 52.914062-52.914062-23.734374-52.914062-52.914062-52.914062zm0 75.828124c-12.636719 0-22.914062-10.277343-22.914062-22.914062s10.277343-22.914062 22.914062-22.914062 22.914062 10.277343 22.914062 22.914062-10.277343 22.914062-22.914062 22.914062zm0 0"/></svg>