<svg height="512pt" viewBox="0 0 512 512" width="512pt" xmlns="http://www.w3.org/2000/svg"><path d="m512 207h-73.964844v-30.925781c14.96875-7.125 25.34375-22.394531 25.34375-40.050781 0-11.238282-4.214844-21.507813-11.132812-29.332032 6.921875-7.824218 11.132812-18.09375 11.132812-29.332031 0-24.449219-19.886718-44.335937-44.332031-44.335937h-57.332031c-24.445313 0-44.335938 19.890624-44.335938 44.335937 0 11.238281 4.214844 21.507813 11.132813 29.332031-6.917969 7.824219-11.132813 18.09375-11.132813 29.332032 0 18.683593 11.625 34.691406 28.011719 41.207031v29.769531h-58.390625v-26.070312h-55.382812v-102.429688c0-43.285156-35.214844-78.5-78.5-78.5h-74.617188c-43.285156 0-78.5 35.214844-78.5 78.5v355c0 43.285156 35.214844 78.5 78.5 78.5h74.617188c43.285156 0 78.5-35.214844 78.5-78.5v-102.429688h55.382812v-26.070312h225zm-164.621094-70.976562c0-7.902344 6.429688-14.332032 14.332032-14.332032h57.335937c7.902344 0 14.332031 6.429688 14.332031 14.332032 0 7.902343-6.429687 14.332031-14.332031 14.332031h-57.335937c-7.902344 0-14.332032-6.429688-14.332032-14.332031zm14.332032-73h57.335937c7.902344 0 14.332031 6.429687 14.332031 14.332031 0 7.902343-6.429687 14.332031-14.332031 14.332031h-57.335937c-7.902344 0-14.332032-6.429688-14.332032-14.332031 0-7.902344 6.429688-14.332031 14.332032-14.332031zm13.679687 117.332031h32.644531v26.644531h-32.644531zm-173.773437 205.929687-37.679688 16.136719v-44.449219l37.679688-16.136718zm-133.9375-259.789062v44.449218l-37.679688-16.136718v-44.449219zm0 77.082031v44.453125l-37.679688-16.136719v-44.449219zm0 77.085937v44.453126l-37.679688-16.136719v-44.449219zm-37.679688 60.949219 37.679688 16.136719v44.449219l-37.679688-16.132813zm67.679688-311.613281h36.257812v452h-36.257812zm103.9375 202.117188-37.679688 16.136718v-44.453125l37.679688-16.136719zm0-77.085938-37.679688 16.132812v-44.449218l37.679688-16.132813zm0 154.171875-37.679688 16.132813v-44.449219l37.679688-16.136719zm-.011719-231.25-37.667969 16.128906v-62.851562c21.378906 4.890625 37.414062 23.941406 37.667969 46.722656zm-133.925781-46.722656v62.628906l-37.660157-16.125c.355469-22.683594 16.351563-41.625 37.660157-46.503906zm-37.679688 402.269531v-14.800781l37.679688 16.136719v45.933593c-21.546876-4.933593-37.679688-24.246093-37.679688-47.269531zm133.9375 47.269531v-45.714843l37.679688-16.132813v14.578125c0 23.023438-16.128907 42.335938-37.679688 47.269531zm67.679688-269.839843h25.382812v90.140624h-25.382812zm250.382812 64.070312h-195v-38h195zm0 0"/></svg>