<svg height="512pt" viewBox="-109 0 512 512" width="512pt" xmlns="http://www.w3.org/2000/svg"><path d="m213.230469 247.769531 3.917969 9.019531h76.890624v-256.789062h-294.039062v256.789062h76.890625l3.917969-9.019531c4.761718-10.929687 11.851562-19.460937 21.210937-25.53125v153.683594c-18.5 13.769531-30.5 35.796875-30.5 60.578125 0 41.628906 33.871094 75.5 75.5 75.5 41.628907 0 75.5-33.871094 75.5-75.5 0-24.78125-12-46.808594-30.5-60.578125v-153.683594c9.359375 6.070313 16.449219 14.601563 21.210938 25.53125zm50.808593-130.4375h-234.039062v-28.664062h234.039062zm0-87.332031v28.667969h-234.039062v-28.667969zm-171.769531 163.140625c-14.691406 7.789063-26.257812 19.078125-34.480469 33.648437h-27.789062v-79.453124h234.039062v79.453124h-27.789062c-8.21875-14.570312-19.78125-25.859374-34.480469-33.648437-15.28125-8.101563-33.699219-12.210937-54.75-12.210937s-39.46875 4.109374-54.75 12.210937zm54.75 288.859375c-25.089843 0-45.5-20.410156-45.5-45.5 0-16.890625 9.242188-31.648438 22.941407-39.5 6.648437-3.820312 14.359374-6 22.558593-6s15.910157 2.179688 22.558594 6c13.703125 7.851562 22.941406 22.609375 22.941406 39.5 0 25.089844-20.410156 45.5-45.5 45.5zm15-119.5c-4.847656-.980469-9.871093-1.5-15-1.5-5.128906 0-10.148437.519531-15 1.5v-150.628906c4.71875-.632813 9.71875-.941406 15-.941406s10.28125.308593 15 .941406zm0 0"/><path d="m165.191406 436.5c0 10.035156-8.136718 18.171875-18.171875 18.171875-10.035156 0-18.167969-8.136719-18.167969-18.171875s8.132813-18.171875 18.167969-18.171875c10.035157 0 18.171875 8.136719 18.171875 18.171875zm0 0"/></svg>