<svg height="512pt" viewBox="-55 0 511 512" width="512pt" xmlns="http://www.w3.org/2000/svg"><path d="m402.078125 173.566406c0-21.703125-12.753906-40.480468-31.15625-49.242187l-47.519531-124.324219h-244.222656l-47.519532 124.324219c-18.40625 8.761719-31.160156 27.539062-31.160156 49.242187v103.128906h26.949219v9.164063c0 26.980469 21.949219 48.929687 48.929687 48.929687 26.976563 0 48.925782-21.949218 48.925782-48.929687v-9.164063h31.933593v205.304688h-26.613281v30h143.332031v-30h-26.613281v-205.304688h29.933594v9.164063c0 26.980469 21.949218 48.929687 48.925781 48.929687 26.980469 0 48.929687-21.949218 48.929687-48.929687v-9.164063h26.949219v-103.128906zm-302.25-143.566406h202.925781l34.039063 89.0625h-39.574219l-71.175781-58.816406-19.109375 23.128906 43.1875 35.6875h-54.996094l-71.175781-58.816406-19.105469 23.128906 43.1875 35.6875h-82.242188zm-4.523437 255.859375c0 10.4375-8.488282 18.929687-18.925782 18.929687s-18.929687-8.492187-18.929687-18.929687v-9.164063h37.855469zm137.382812-39.164063h-62.796875v-32.445312h62.796875zm-15.347656 235.304688h-30.101563v-205.304688h30.101563zm45.347656-235.304688v-62.445312h-122.792969v62.445312h-109.394531v-73.128906c0-13.511718 10.992188-24.503906 24.507812-24.503906h292.566407c13.511719 0 24.503906 10.992188 24.503906 24.503906v73.128906zm82.441406 39.164063c0 10.4375-8.488281 18.929687-18.925781 18.929687s-18.929687-8.492187-18.929687-18.929687v-9.164063h37.855468zm0 0"/><path d="m104.789062 199.25c0 11.460938-9.289062 20.75-20.75 20.75-11.457031 0-20.75-9.289062-20.75-20.75s9.292969-20.75 20.75-20.75c11.460938 0 20.75 9.289062 20.75 20.75zm0 0"/><path d="m333.773438 199.25c0 11.460938-9.289063 20.75-20.75 20.75-11.457032 0-20.75-9.289062-20.75-20.75s9.292968-20.75 20.75-20.75c11.460937 0 20.75 9.289062 20.75 20.75zm0 0"/></svg>