<svg height="512pt" viewBox="0 -76 512.001 512" width="512pt" xmlns="http://www.w3.org/2000/svg"><path d="m309.539062 56.585938h-206.441406c-26.621094 0-48.277344 21.660156-48.277344 48.28125v82.894531c0 26.621093 21.65625 48.28125 48.277344 48.28125h194.671875l60.046875-60.046875v-71.128906c0-26.621094-21.65625-48.28125-48.277344-48.28125zm18.277344 106.980468-42.472656 42.476563h-182.246094c-10.078125 0-18.277344-8.203125-18.277344-18.28125v-82.894531c0-10.078126 8.199219-18.28125 18.277344-18.28125h206.441406c10.078126 0 18.277344 8.203124 18.277344 18.28125zm0 0"/><path d="m427.570312 330.621094-30.863281-30.851563 21.917969-21.917969 21.773438 21.773438h71.601562v-30h-59.171875l-12.988281-12.988281 17.671875-17.675781-44.910157-44.910157.011719-1.011719v.011719c.015625-.332031.023438-.664062.023438-1v-91.476562c0-55.457031-45.117188-100.574219-100.574219-100.574219h-211.488281c-55.457031.00390625-100.574219 45.121094-100.574219 100.578125v91.476563c0 55.457031 45.117188 100.574218 100.574219 100.574218h211.488281c.320312 0 .640625-.007812 1.039062-.023437l.289063-.003907 45.242187 45.242188 16.863282-16.859375 39.652344 39.636719 96.851562.007812v-30zm-33.652343-112.828125 21.167969 21.171875-56.453126 56.449218-21.167968-21.167968zm-293.34375 44.835937c-38.914063 0-70.574219-31.660156-70.574219-70.574218v-91.480469c0-38.914063 31.660156-70.574219 70.574219-70.574219h211.488281c38.914062 0 70.574219 31.660156 70.574219 70.574219v86.074219l-75.980469 75.976562h-206.082031zm0 0"/></svg>