<svg height="512pt" viewBox="0 -54 512 511" width="512pt" xmlns="http://www.w3.org/2000/svg"><path d="m89.144531 57.488281c-27.601562 18.253907-49.359375 39.644531-64.667969 63.578125-16.242187 25.394532-24.476562 52.480469-24.476562 80.511719s8.234375 55.117187 24.476562 80.511719c15.308594 23.933594 37.066407 45.320312 64.667969 63.574218 55.574219 36.75 129.175781 56.988282 207.25 56.988282h14.992188v-402.152344h-14.992188c-78.070312 0-151.675781 20.238281-207.25 56.988281zm-59.164062 144.089844c0-44.511719 26.882812-86.800781 75.699219-119.082031 28.539062-18.871094 62.464843-32.960938 99.542968-41.6875v321.535156c-37.078125-8.726562-71.003906-22.816406-99.542968-41.6875-48.816407-32.28125-75.699219-74.570312-75.699219-119.078125zm251.425781 170.828125c-15.707031-.558594-31.148438-2.007812-46.203125-4.289062v-333.082032c15.054687-2.28125 30.496094-3.730468 46.203125-4.289062zm0 0"/><path d="m512 104.292969-146.179688-45.636719-8.933593 28.621094 155.113281 48.421875zm0 0"/><path d="m512 180.21875-146.179688-45.632812-8.933593 28.617187 155.113281 48.425781zm0 0"/><path d="m512 256.148438-146.179688-45.632813-8.933593 28.617187 155.113281 48.421876zm0 0"/><path d="m512 332.078125-146.179688-45.636719-8.933593 28.621094 155.113281 48.421875zm0 0"/></svg>