<svg height="512pt" viewBox="-115 0 512 512" width="512pt" xmlns="http://www.w3.org/2000/svg"><path d="m222.121094 170.332031c0-35.839843-29.15625-65-65-65h-25.085938v-18.160156h29.085938v-28.585937h24.414062v-30h-24.414062v-28.585938h-87.171875v87.171875h28.085937v18.160156h-25.089844c-35.839843 0-65 29.160157-65 65v7.386719h-11.945312v334.28125h234.070312v-334.28125h-11.949218zm-118.171875-140.332031h27.171875v27.171875h-27.171875zm-62.003907 140.332031c0-19.296875 15.703126-35 35-35h80.175782c19.300781 0 35 15.703125 35 35v7.386719h-150.175782zm-11.945312 311.667969v-274.28125h174.070312v54.28125h-91.035156v163.816406h91.035156v56.183594zm174.070312-190v103.816406h-61.035156v-103.816406zm0 0"/><path d="m206.484375 28.835938h29.5v29.5h-29.5zm0 0"/><path d="m251.984375 28.835938h29.5v29.5h-29.5zm0 0"/></svg>