<svg height="512pt" viewBox="0 0 512 512" width="512pt" xmlns="http://www.w3.org/2000/svg"><path d="m512 210.5h-79v-35.953125h-61.191406v-96.046875c0-43.285156-35.214844-78.5-78.5-78.5h-74.617188c-43.285156 0-78.5 35.214844-78.5 78.5v96.046875h-61.191406v35.953125h-79v91h79v35.953125h61.191406v96.046875c0 43.285156 35.214844 78.5 78.5 78.5h74.617188c43.285156 0 78.5-35.214844 78.5-78.5v-96.046875h61.191406v-35.953125h79zm-170.191406 175.566406-37.679688 16.132813v-44.449219l37.679688-16.136719zm-171.617188-44.453125 37.679688 16.136719v44.449219l-37.679688-16.132813zm37.679688-215.117187v44.449218l-37.679688-16.136718v-44.449219zm0 198.617187-37.679688-16.132812v-44.449219l37.679688 16.132812zm0-121.535156v44.453125l-37.679688-16.136719v-44.449219zm30-173.578125h36.257812v452h-36.257812zm103.9375 124.808594-37.679688 16.136718v-44.449218l37.679688-16.136719zm0 154.171875-37.679688 16.136719v-44.453126l37.679688-16.132812zm0-77.085938-37.679688 16.136719v-44.453125l37.679688-16.132813zm-.019532-154.160156-37.660156 16.125v-62.628906c21.308594 4.878906 37.308594 23.820312 37.660156 46.503906zm-133.917968-46.503906v62.628906l-37.660156-16.125c.355468-22.683594 16.351562-41.625 37.660156-46.503906zm-177.871094 240.269531v-31h49v31zm79 35.953125v-102.90625h31.191406v102.90625zm61.191406 126.046875v-14.800781l37.679688 16.136719v45.933593c-21.550782-4.933593-37.679688-24.246093-37.679688-47.269531zm133.9375 47.269531v-45.933593l37.679688-16.136719v14.800781c0 23.023438-16.128906 42.335938-37.679688 47.269531zm98.871094-173.316406h-31.191406v-102.90625h31.191406zm79-35.953125h-49v-31h49zm0 0"/></svg>