<svg height="512pt" viewBox="-67 0 512 512" width="512pt" xmlns="http://www.w3.org/2000/svg"><path d="m378 189c0-104.214844-84.785156-189-189-189s-189 84.785156-189 189c0 74.984375 43.894531 139.90625 107.332031 170.429688v78.570312h21.167969v74h30v-74h61v74h30v-74h21.167969v-78.570312c63.4375-30.523438 107.332031-95.445313 107.332031-170.429688zm-137.332031 219h-103.335938v-37.179688c16.429688 4.675782 33.761719 7.179688 51.667969 7.179688s35.238281-2.503906 51.667969-7.179688zm-51.667969-60c-87.671875 0-159-71.328125-159-159s71.328125-159 159-159 159 71.328125 159 159-71.328125 159-159 159zm0 0"/><path d="m189 59.003906c-67.269531 0-121.996094 54.726563-121.996094 121.996094h30c0-50.726562 41.269532-91.996094 91.996094-91.996094s91.996094 41.269532 91.996094 91.996094h30c0-67.269531-54.726563-121.996094-121.996094-121.996094zm0 0"/><path d="m204 223.550781v-78.628906h-30v78.628906c-17.742188 6.214844-30.507812 23.117188-30.507812 42.957031 0 25.09375 20.414062 45.507813 45.507812 45.507813s45.507812-20.417969 45.507812-45.507813c0-19.839843-12.765624-36.742187-30.507812-42.957031zm-15 58.464844c-8.550781 0-15.507812-6.957031-15.507812-15.507813 0-8.550781 6.957031-15.507812 15.507812-15.507812s15.507812 6.957031 15.507812 15.507812c0 8.550782-6.957031 15.507813-15.507812 15.507813zm0 0"/></svg>