<svg height="512pt" viewBox="0 -35 512 512" width="512pt" xmlns="http://www.w3.org/2000/svg"><path d="m180.667969 118.5v-25.5h20.832031v-93h-161.667969v93h20.832031v25.5h-60.664062v323h512v-323zm-150.667969 142.492188c17.886719 8.546874 39.5 8.230468 57.113281-1.007813l20.996094-11.015625c9.78125-5.128906 21.886719-5.070312 31.601563.152344l19.644531 10.5625c18.355469 9.875 41.230469 9.988281 59.703125.296875l20.996094-11.011719c9.777343-5.128906 21.890624-5.070312 31.601562.152344l19.644531 10.566406c18.355469 9.871094 41.234375 9.984375 59.703125.292969l20.996094-11.011719c9.777344-5.128906 21.890625-5.070312 31.601562.152344l19.644532 10.5625c9.273437 4.988281 19.703125 7.488281 30.132812 7.484375 9.867188 0 19.726563-2.253907 28.621094-6.726563v29.972656l-12.984375 6.8125c-9.769531 5.121094-21.859375 5.0625-31.558594-.152343l-19.644531-10.566407c-18.367188-9.875-41.265625-9.992187-59.746094-.296874l-20.996094 11.015624c-9.769531 5.121094-21.859374 5.0625-31.558593-.152343l-19.648438-10.5625c-18.367187-9.878907-41.257812-9.996094-59.746093-.296875l-20.996094 11.011718c-9.765625 5.125-21.855469 5.0625-31.554688-.152343l-19.644531-10.5625c-18.371094-9.878907-41.265625-9.996094-59.75-.296875l-20.996094 11.011718c-9.765625 5.125-21.859375 5.066407-31.558593-.152343l-11.617188-6.25zm0 63.808593c17.882812 8.550781 39.5 8.230469 57.113281-1.007812l20.996094-11.015625c9.78125-5.128906 21.886719-5.070313 31.601563.152344l19.644531 10.566406c18.355469 9.871094 41.230469 9.984375 59.703125.296875l20.996094-11.015625c9.78125-5.128906 21.886718-5.070313 31.601562.152344l19.644531 10.5625c18.355469 9.875 41.230469 9.988281 59.703125.296874l20.996094-11.011718c9.777344-5.128906 21.890625-5.070313 31.601562.152344l19.644532 10.566406c9.277344 4.988281 19.703125 7.484375 30.136718 7.484375 9.863282 0 19.722657-2.257813 28.617188-6.726563v29.96875l-12.984375 6.8125c-9.769531 5.125-21.859375 5.066406-31.558594-.148437l-19.644531-10.566407c-18.367188-9.878906-41.265625-9.996093-59.746094-.296874l-20.996094 11.011718c-9.769531 5.125-21.859374 5.066406-31.558593-.148437l-19.644531-10.566407c-18.371094-9.878906-41.261719-9.992187-59.75-.296874l-20.996094 11.011718c-9.765625 5.125-21.855469 5.066406-31.554688-.148437l-19.644531-10.566407c-18.371094-9.878906-41.265625-9.992187-59.746094-.296874l-20.996093 11.015624c-9.769532 5.121094-21.859376 5.066407-31.558594-.152343l-11.621094-6.25zm39.832031-294.800781h101.667969v33h-101.667969zm20.835938 63h60v25.5h-60zm-30 55.5h421.332031v78.105469l-12.984375 6.808593c-9.769531 5.125-21.859375 5.066407-31.558594-.148437l-19.644531-10.566406c-18.371094-9.878907-41.265625-9.992188-59.75-.296875l-20.996094 11.011718c-9.769531 5.125-21.859375 5.066407-31.554687-.148437l-19.648438-10.566406c-18.367187-9.878907-41.261719-9.992188-59.746093-.296875l-20.996094 11.015625c-9.765625 5.121093-21.859375 5.0625-31.558594-.152344l-19.640625-10.566406c-18.371094-9.878907-41.265625-9.992188-59.75-.296875l-20.996094 11.015625c-9.765625 5.121093-21.859375 5.0625-31.558593-.152344l-11.617188-6.25v-78.515625zm-30.667969 263v-22.886719c17.882812 8.546875 39.5 8.230469 57.113281-1.011719l20.996094-11.011718c9.78125-5.128906 21.886719-5.074219 31.601563.152344l19.644531 10.5625c18.355469 9.871093 41.230469 9.988281 59.703125.296874l20.996094-11.011718c9.78125-5.128906 21.886718-5.074219 31.601562.152344l19.644531 10.5625c18.355469 9.875 41.230469 9.988281 59.703125.296874l20.996094-11.011718c9.78125-5.128906 21.890625-5.074219 31.601562.152344l19.644532 10.5625c9.277344 4.988281 19.703125 7.484374 30.136718 7.484374 9.863282 0 19.722657-2.253906 28.617188-6.726562v23.4375zm0 0"/></svg>