<svg height="512pt" viewBox="0 0 512 512" width="512pt" xmlns="http://www.w3.org/2000/svg"><path d="m382.710938 315.90625-59.90625-59.90625 59.90625-59.90625 56.316406-12.621094 72.96875-72.96875-110.5-110.503906-72.96875 72.96875-12.621094 56.316406-59.90625 59.90625-59.90625-59.90625-12.621094-56.316406-72.96875-72.96875-110.503906 110.503906 72.96875 72.96875 56.316406 12.621094 59.90625 59.90625-59.90625 59.90625-56.3125 12.621094-72.972656 72.96875 110.503906 110.503906 72.96875-72.96875 12.621094-56.316406 59.90625-59.90625 59.90625 59.90625 12.621094 56.316406 72.96875 72.96875 110.503906-110.503906-72.96875-72.96875zm-29.363282 96.699219-7.308594-32.601563 33.964844-33.964844 32.601563 7.308594zm0-313.210938 59.257813 59.257813-32.601563 7.308594-33.964844-33.964844zm116.230469 11.109375-31.351563 31.351563-68.082031-68.082031 31.351563-31.351563zm-310.925781-11.109375 7.308594 32.601563-33.964844 33.964844-32.601563-7.308594zm-48.148438-56.972656 31.351563 31.351563-68.082031 68.082031-31.351563-31.351563zm-11.109375 310.921875 32.601563-7.304688 33.964844 33.964844-7.308594 32.601563zm-56.972656 48.152344 31.351563-31.351563 68.082031 68.082031-31.351563 31.351563zm139.960937-47.492188-24.386718-24.386718 73.617187-73.617188-73.617187-73.617188 24.386718-24.386718 73.617188 73.617187 73.621094-73.617187 24.382812 24.386718-73.617187 73.617188 73.617187 73.617188-24.382812 24.386718-73.621094-73.617187zm219.113282 115.574219-31.351563-31.351563 68.082031-68.082031 31.351563 31.351563zm0 0"/></svg>