<svg height="512pt" viewBox="0 -46 512 512" width="512pt" xmlns="http://www.w3.org/2000/svg"><path d="m512 17.089844h-57v-17.089844h-30v17.089844h-223.800781c-110.9375 0-201.199219 90.261718-201.199219 201.210937 0 110.9375 90.261719 201.199219 201.199219 201.199219 110.949219 0 201.199219-90.261719 201.199219-201.199219 0-25.429687-4.738282-49.78125-13.386719-72.199219h35.988281v16.898438h30v-16.898438h57zm-30 99.011718h-27v-69.011718h27zm-109.601562 102.199219c0 94.398438-76.796876 171.199219-171.199219 171.199219-94.398438 0-171.199219-76.800781-171.199219-171.199219 0-94.410156 76.800781-171.210937 171.199219-171.210937h166.800781v69.011718h-166.800781c-56.347657 0-102.1875 45.847657-102.1875 102.199219 0 56.339844 45.839843 102.1875 102.1875 102.1875 56.351562 0 102.191406-45.847656 102.191406-102.1875 0-28.160156-11.449219-53.691406-29.929687-72.199219h82.960937c10.25 21.949219 15.976563 46.417969 15.976563 72.199219zm-100.578126 15c-5.890624 27.789063-27.832031 49.71875-55.621093 55.621094v-32.433594h-30v32.433594c-27.789063-5.902344-49.71875-27.832031-55.621094-55.621094h32.433594v-30h-32.433594c5.902344-27.800781 27.832031-49.730469 55.621094-55.628906v32.4375h30v-32.4375c27.789062 5.898437 49.730469 27.828125 55.621093 55.628906h-32.429687v30zm126.179688-186.210937h27v69.011718h-27zm0 0"/><path d="m201.199219 202.75c-8.578125 0-15.550781 6.960938-15.550781 15.550781 0 8.578125 6.972656 15.539063 15.550781 15.539063 8.589843 0 15.550781-6.960938 15.550781-15.539063 0-8.589843-6.960938-15.550781-15.550781-15.550781zm0 0"/></svg>