<svg height="512pt" viewBox="-48 0 512 512" width="512pt" xmlns="http://www.w3.org/2000/svg"><path d="m300.832031 55.667969h-228.664062v125.332031h228.667969v-125.332031zm-30 95.332031h-168.664062v-65.332031h168.667969v65.332031zm0 0"/><path d="m355.242188 81.039062v-81.039062h-337.484376v419h-17.757812v93h373v-93h-17.757812v-41.617188c4.730468 1.6875 9.824218 2.617188 15.128906 2.617188 24.882812 0 45.128906-20.246094 45.128906-45.128906v-226.15625zm30.257812 46.910157v37.050781h-30.257812v-50.949219zm-60.257812-97.949219v178h-277.484376v-178zm17.757812 452h-313v-33h313zm-295.242188-63v-181h277.484376v181zm322.613282-69c-8.34375 0-15.128906-6.785156-15.128906-15.128906v-139.871094h30.257812v139.871094c0 8.34375-6.785156 15.128906-15.128906 15.128906zm0 0"/></svg>