<svg height="512pt" viewBox="-74 0 512 512" width="512pt" xmlns="http://www.w3.org/2000/svg"><path d="m299 177.328125h26c21.5 0 39-17.488281 39-39v-99.328125c0-21.5-17.5-39-39-39h-26c-21.5 0-39 17.5-39 39v34.671875h-26.5v-30.5h-103v30.5h-26.5v-34.671875c0-21.5-17.5-39-39-39h-26c-21.5 0-39 17.5-39 39v99.328125c0 21.511719 17.5 39 39 39h26c21.5 0 39-17.488281 39-39v-34.65625h26.5v30.5h36.5v45.328125h-41v153h41v43.5h-36.5v32.328125h-26.5v-34.65625c0-21.511719-17.5-39-39-39h-26c-21.5 0-39 17.488281-39 39v99.328125c0 21.5 17.5 39 39 39h26c21.5 0 39-17.5 39-39v-34.671875h26.5v28.671875h103v-28.671875h26.5v34.671875c0 21.5 17.5 39 39 39h26c21.5 0 39-17.5 39-39v-99.328125c0-21.511719-17.5-39-39-39h-26c-21.5 0-39 17.488281-39 39v34.65625h-26.5v-32.328125h-36.5v-43.5h41v-153h-41v-45.328125h36.5v-30.5h26.5v34.65625c0 21.511719 17.5 39 39 39zm-225-39c0 4.972656-4.039062 9-9 9h-26c-4.960938 0-9-4.027344-9-9v-99.328125c0-4.960938 4.039062-9 9-9h26c4.960938 0 9 4.039062 9 9zm0 334.671875c0 4.960938-4.039062 9-9 9h-26c-4.960938 0-9-4.039062-9-9v-99.328125c0-4.972656 4.039062-9 9-9h26c4.960938 0 9 4.027344 9 9zm216-99.328125c0-4.972656 4.039062-9 9-9h26c4.960938 0 9 4.027344 9 9v99.328125c0 4.960938-4.039062 9-9 9h-26c-4.960938 0-9-4.039062-9-9zm-86.5 63.328125h-43v-31h43zm4.5-134.5h-52v-93h52zm-4.5-198.328125h-43v-31h43zm86.5-65.171875c0-4.960938 4.039062-9 9-9h26c4.960938 0 9 4.039062 9 9v99.328125c0 4.972656-4.039062 9-9 9h-26c-4.960938 0-9-4.027344-9-9zm0 0"/></svg>