<svg height="512pt" viewBox="0 0 512 512" width="512pt" xmlns="http://www.w3.org/2000/svg"><path d="m512 100.675781-39.734375-39.734375 30.667969-30.671875-21.203125-21.207031-30.671875 30.671875-39.734375-39.734375-208.664063 208.664062-29.296875-29.300781-74.648437 74.644531 20.882812 20.882813-119.597656 119.601563 117.507812 117.507812 119.601563-119.597656 20.882813 20.882812 74.644531-74.644531-29.300781-29.300781zm-42.414062 0-30.535157 30.535157-58.261719-58.261719 30.535157-30.535157zm-245.714844 129.195313 135.710937-135.714844 58.261719 58.261719-135.714844 135.714843zm-121.851563 105.015625 75.09375 75.097656-18.78125 18.78125-75.09375-75.097656zm-59.605469 59.605469 19.617188-19.617188 75.09375 75.097656-19.617188 19.613282zm173.488282-23.300782-17.582032 17.582032-75.09375-75.09375 17.582032-17.582032zm74.320312-32.554687-32.230468 32.234375-116.863282-116.863282 32.234375-32.230468zm0 0"/></svg>