<svg height="512pt" viewBox="-24 0 512 512" width="512pt" xmlns="http://www.w3.org/2000/svg"><path d="m426.730469 106.367188 38.082031-38.078126-68.289062-68.289062-106.367188 106.367188 23.59375 23.59375-31.960938 31.960937-44.636718-44.636719-232.914063 232.910156 44.640625 44.640626-48.878906 48.875 68.289062 68.289062 48.875-48.878906 44.664063 44.664062 232.914063-232.910156-44.664063-44.664062 100.246094-100.25zm-358.441407 363.429687-26.085937-26.085937 23.601563-23.601563 26.085937 26.085937zm119.355469-260.800781 115.386719 115.386718-90.679688 90.679688-115.390624-115.386719zm-141.203125 141.199218 29.417969-29.417968 115.390625 115.386718-29.421875 29.421876zm306.097656-75.320312-28.40625 28.40625-115.386718-115.386719 28.402344-28.40625zm55.582032-144.914062-79.148438 79.148437-26.082031-26.085937 53.0625-53.0625-23.59375-23.59375 64.164063-64.164063 26.085937 26.085937-38.082031 38.082032zm0 0"/></svg>