<svg height="512pt" viewBox="0 -28 512 512" width="512pt" xmlns="http://www.w3.org/2000/svg"><path d="m512 150.816406v-94h-29.5v-27.484375h-30v27.484375h-40.5v-56.816406h-225.796875v56.816406h-126.703125v-27.484375h-30v27.484375h-29.5v94h18v211.183594h-18v94h512v-94h-20v-211.183594zm-145.5 211.183594v-210.5h33.667969v210.5zm-221-210.5v210.5h-33.667969v-210.5zm30 0h33.667969v210.5h-33.667969zm63.667969 0h33.664062v210.5h-33.664062zm63.664062 0h33.667969v210.5h-33.667969zm-272.832031-64.683594h452v34h-452zm186.203125-56.816406h165.796875v26.816406h-165.796875zm-168.203125 121.5h33.832031v210.5h-33.832031zm434 274.5h-452v-34h452zm-51.832031-64v-210.5h31.832031v210.5zm0 0"/></svg>