<svg height="512pt" viewBox="0 0 512 512" width="512pt" xmlns="http://www.w3.org/2000/svg"><path d="m450.0625 185.964844 61.9375-61.941406-31.09375-31.089844c5.109375-2.269532 9.894531-5.480469 14.078125-9.660156 18.265625-18.269532 18.265625-47.992188 0-66.257813-8.851563-8.847656-20.617187-13.71875-33.128906-13.71875-12.515625 0-24.277344 4.871094-33.128907 13.71875-4.179687 4.183594-7.394531 8.96875-9.660156 14.078125l-31.09375-31.09375-61.9375 61.9375 17.777344 17.777344-15.203125 15.203125-12.25-20.992188-25.96875 15.148438 16.234375 27.828125-21.730469 21.730468-12.25-20.996093-25.96875 15.152343 16.234375 27.824219-21.730468 21.730469-12.246094-20.992188-25.96875 15.148438 16.230468 27.828125-21.726562 21.726563-12.25-20.992188-25.96875 15.148438 16.234375 27.828124-21.730469 21.730469-12.246094-20.996093-25.96875 15.152343 16.230469 27.828125-38.335937 38.335938-17.773438-17.773438-61.941406 61.9375 26.546875 26.546875c-8.828125 2.675781-16.917969 7.5-23.625 14.207031-10.730469 10.730469-16.640625 24.996094-16.640625 40.175782 0 15.175781 5.910156 29.445312 16.640625 40.175781s25 16.640625 40.175781 16.640625c15.175782 0 29.441406-5.910156 40.171875-16.640625 6.710938-6.707031 11.53125-14.796875 14.207031-23.625l26.546876 26.546875 61.941406-61.941406-17.777344-17.773438 15.058594-15.058594 12.246094 20.992188 25.96875-15.148438-16.230469-27.828124 21.726562-21.730469 12.25 20.996093 25.96875-15.148437-16.234375-27.828125 21.730469-21.730469 12.25 20.992188 25.96875-15.148438-16.234375-27.828125 21.730469-21.730468 12.246093 20.996093 25.96875-15.152343-16.230468-27.828126 21.726562-21.726562 12.25 20.992188 25.96875-15.148438-16.234375-27.828125 38.484375-38.484375zm-.074219-147.6875c3.167969-3.171875 7.382813-4.917969 11.867188-4.917969s8.695312 1.746094 11.867187 4.917969c6.542969 6.542968 6.542969 17.191406 0 23.734375-6.542968 6.546875-17.191406 6.546875-23.734375 0-6.546875-6.542969-6.546875-17.191407 0-23.734375zm-366.421875 416.90625c0 7.144531-2.78125 13.863281-7.835937 18.914062-5.050781 5.054688-11.769531 7.835938-18.914063 7.835938-7.144531 0-13.863281-2.78125-18.914062-7.835938-5.054688-5.050781-7.835938-11.769531-7.835938-18.914062 0-7.144532 2.78125-13.863282 7.835938-18.914063 5.050781-5.054687 11.769531-7.835937 18.914062-7.835937 7.144532 0 13.859375 2.78125 18.910156 7.828125l.011719.011719c5.046875 5.050781 7.828125 11.765624 7.828125 18.910156zm54.175782.578125-81.503907-81.507813 19.417969-19.417968 81.507812 81.503906zm250.230468-413.242188 81.507813 81.503907-19.417969 19.421874-81.507812-81.507812zm-227.324218 354.785157-45.953126-45.953126 32.742188-32.742187 33.863281 58.042969zm42.632812-42.632813-33.859375-58.046875 21.730469-21.730469 33.859375 58.046875zm43.714844-43.714844-33.863282-58.042969 21.730469-21.730468 33.863281 58.046875zm43.710937-43.710937-33.859375-58.046875 21.730469-21.730469 33.859375 58.046875zm43.714844-43.714844-33.863281-58.046875 21.730468-21.726563 33.863282 58.042969zm76.601563-76.601562-32.890626 32.890624-33.859374-58.046874 20.796874-20.800782zm0 0"/></svg>