<svg height="512pt" viewBox="0 0 512 512" width="512pt" xmlns="http://www.w3.org/2000/svg"><path d="m127.75 312.722656c-39.441406 0-71.527344 32.085938-71.527344 71.527344s32.085938 71.527344 71.527344 71.527344 71.527344-32.085938 71.527344-71.527344-32.085938-71.527344-71.527344-71.527344zm0 113.113282c-22.929688 0-41.585938-18.65625-41.585938-41.585938 0-22.933594 18.65625-41.585938 41.585938-41.585938 22.933594 0 41.585938 18.652344 41.585938 41.585938 0 22.929688-18.652344 41.585938-41.585938 41.585938zm0 0"/><path d="m297.4375 164.125c29.246094 0 53.039062-23.792969 53.039062-53.039062 0-29.246094-23.792968-53.039063-53.039062-53.039063s-53.039062 23.792969-53.039062 53.039063c0 29.246093 23.792968 53.039062 53.039062 53.039062zm0-76.136719c12.734375 0 23.097656 10.363281 23.097656 23.097657 0 12.738281-10.363281 23.097656-23.097656 23.097656-12.738281 0-23.097656-10.359375-23.097656-23.097656 0-12.734376 10.359375-23.097657 23.097656-23.097657zm0 0"/><path d="m511 354.808594c0-10.804688-2.796875-20.964844-7.695312-29.804688l-99.703126-246.644531c-14.003906-45.328125-56.296874-78.359375-106.164062-78.359375-38.425781 0-72.351562 19.613281-92.304688 49.347656l-.035156-.023437-181.484375 261.007812c-.082031.113281-.15625.226563-.238281.339844l-2.523438 3.628906.039063.027344c-13.199219 20.101563-20.890625 44.128906-20.890625 69.921875 0 70.441406 57.308594 127.75 127.75 127.75 13.707031 0 26.914062-2.179688 39.304688-6.195312l.089843.292968 299.148438-91.980468c.769531-.222657 1.535156-.457032 2.289062-.703126l.421875-.132812-.003906-.011719c24.386719-8.242187 42-31.328125 42-58.460937zm-102.925781 45.886718-173.34375 53.296876c13.125-20.066407 20.769531-44.027344 20.769531-69.742188 0-70.441406-57.308594-127.75-127.75-127.75-11.519531 0-22.683594 1.539062-33.308594 4.414062l93.0625-133.839843c7.773438 53.703125 54.105469 95.097656 109.933594 95.097656 46.980469 0 87.246094-29.320313 103.453125-70.621094l57.492187 142.21875c-2.96875-.4375-6.003906-.675781-9.09375-.675781-34.027343 0-61.714843 27.683594-61.714843 61.714844.003906 18.199218 7.925781 34.578125 20.5 45.886718zm-110.636719-370.753906c44.742188 0 81.144531 36.402344 81.144531 81.144532 0 44.742187-36.402343 81.144531-81.144531 81.144531s-81.144531-36.402344-81.144531-81.144531c0-44.742188 36.402343-81.144532 81.144531-81.144532zm-267.496094 354.308594c0-20.085938 6.089844-38.773438 16.511719-54.324219l1.875-2.691406c17.769531-24.6875 46.75-40.792969 79.421875-40.792969 53.933594 0 97.808594 43.875 97.808594 97.808594 0 53.929688-43.875 97.808594-97.808594 97.808594-53.929688 0-97.808594-43.878906-97.808594-97.808594zm429.675782.59375-2.117188.652344c-2.621094.703125-5.371094 1.082031-8.210938 1.082031-17.519531 0-31.769531-14.253906-31.769531-31.773437 0-17.515626 14.25-31.769532 31.769531-31.769532 17.519532 0 31.769532 14.253906 31.769532 31.773438 0 13.902344-8.980469 25.738281-21.441406 30.035156zm0 0"/></svg>