<svg height="512pt" viewBox="0 -75 512 512" width="512pt" xmlns="http://www.w3.org/2000/svg"><path d="m482 205.667969v25.269531h-33.730469v-18.445312l-38.097656-47.222657h-27.496094v-51.871093h-87.921875v-25.398438h42.578125v-88h-187.332031v88h42.578125v25.398438h-59.835937v42.378906h-74.929688v61.539062h-27.8125v-34.125h-30v98.25h30v-34.125h27.8125v72.324219h86.214844l37.65625 41.570313h266.585937v-24.3125h33.730469v24.101562h30v-155.332031zm-129.324219-62.269531v51.871093h43.152344l22.441406 27.816407v108.125h-195.691406v-187.8125zm-172.675781-85.398438v-28h127.332031v28zm42.578125 30h42.175781v25.398438h-42.175781zm-134.765625 97.777344h44.929688v103.863281h-44.929688zm74.929688 109.835937v-152.214843h29.835937v185.15625zm285.527343 11.285157v-45.960938h33.730469v45.960938zm0 0"/></svg>