<svg height="512pt" viewBox="0 0 512 512" width="512pt" xmlns="http://www.w3.org/2000/svg"><path d="m370.351562 0c-35.613281 0-68.863281 15.878906-91.230468 43.578125l-88.570313 109.652344-.003906.003906-112.160156-112.699219h-78.386719v30h43.332031v121.53125c0 .003906 0 .003906-.003906.003906-26.308594 16.070313-43.328125 44.949219-43.328125 77.5v160.890626h96.140625c11.6875 46.777343 54.070313 81.539062 104.417969 81.539062 50.351562 0 92.730468-34.761719 104.410156-81.539062h207.03125v-30h-203.910156c-2.058594-57.53125-49.5-103.691407-107.53125-103.691407-58.027344 0-105.480469 46.160157-107.539063 103.691407h-63.019531v-73.691407h71.5v-85.769531h-64.429688c8.609376-16.25 24.417969-28.210938 43.691407-31.449219l119.039062-20.039062 102.660157-127.082031c16.648437-20.609376 41.390624-32.429688 67.890624-32.429688h141.648438v-30zm-169.792968 326.769531c41.480468 0 75.460937 32.710938 77.511718 73.691407.070313 1.300781.101563 2.609374.101563 3.917968 0 9.152344-1.59375 17.929688-4.523437 26.082032-10.726563 30.007812-39.4375 51.539062-73.089844 51.539062-33.648438 0-62.367188-21.53125-73.109375-51.539062-2.917969-8.152344-4.507813-16.929688-4.507813-26.082032 0-1.308594.027344-2.617187.097656-3.917968 2.050782-40.980469 36.03125-73.691407 77.519532-73.691407zm-129.058594-55.769531v25.769531h-41.5v-25.769531zm4.28125-91.03125c-.820312.140625-1.640625.292969-2.449219.449219v-102.433594l87.28125 87.703125-.003906.003906zm0 0"/><path d="m200.558594 451.738281c16.480468 0 31.03125-8.46875 39.519531-21.277343 4.953125-7.480469 7.84375-16.449219 7.84375-26.082032 0-1.320312-.050781-2.628906-.160156-3.917968-2-24.28125-22.410157-43.441407-47.203125-43.441407-24.796875 0-45.199219 19.160157-47.199219 43.441407-.109375 1.289062-.160156 2.597656-.160156 3.917968 0 9.632813 2.890625 18.601563 7.839843 26.082032 8.480469 12.808593 23.03125 21.277343 39.519532 21.277343zm0-64.71875c8.222656 0 15.132812 5.75 16.910156 13.441407.292969 1.257812.453125 2.570312.453125 3.917968 0 9.582032-7.792969 17.359375-17.363281 17.359375-9.578125 0-17.359375-7.777343-17.359375-17.359375 0-1.347656.152343-2.660156.449219-3.917968 1.78125-7.691407 8.679687-13.441407 16.910156-13.441407zm0 0"/><path d="m335.730469 93.070312-89.792969 113.214844h266.0625v-30h-203.976562l51.214843-64.570312c6.535157-8.246094 16.320313-12.972656 26.839844-12.972656h125.921875v-30h-125.921875c-19.734375 0-38.085937 8.867187-50.347656 24.328124zm0 0"/><path d="m441.132812 229.523438h55.867188v30h-55.867188zm0 0"/></svg>