<svg height="512pt" viewBox="0 -63 512 512" width="512pt" xmlns="http://www.w3.org/2000/svg"><path d="m433.0625 0h-21.476562c-43.53125 0-78.9375 35.40625-78.9375 78.9375v99.386719h-31.394532v-29.925781h-90.007812v29.925781h-31.894532v-99.386719c0-43.53125-35.40625-78.9375-78.9375-78.9375h-21.476562c-43.523438 0-78.9375 35.40625-78.9375 78.9375v228.945312c0 43.53125 35.414062 78.933594 78.9375 78.933594h21.476562c43.53125 0 78.9375-35.40625 78.9375-78.933594v-99.390624h31.894532v29.925781h90.007812v-29.925781h31.394532v99.390624c0 43.53125 35.40625 78.933594 78.9375 78.933594h21.476562c43.53125 0 78.9375-35.40625 78.9375-78.933594v-228.945312c0-43.53125-35.40625-78.9375-78.9375-78.9375zm-283.878906 268.140625-44.421875 19.019531v-36.234375l44.421875-19.023437zm-74.585938-154.984375v36.238281l-44.429687-19.027343v-36.234376zm0 69.054688v36.234374l-44.429687-19.023437v-36.238281zm-44.429687 50.027343 44.429687 19.023438v36.238281l-44.429687-19.027344zm119.015625-33.148437-44.421875 19.019531v-36.238281l44.421875-19.019532zm0-69.054688-44.421875 19.023438v-36.238282l44.421875-19.019531zm-2.945313-67.792968s0 .003906 0 0l-41.476562 17.761718v-49.644531c19.136719 1.699219 35.132812 14.488281 41.476562 31.882813zm-71.644531-31.882813h.003906v49.980469l-41.585937-17.804688c6.277343-17.539062 22.34375-30.46875 41.582031-32.175781zm-44.425781 277.523437v-6.59375l44.429687 19.023438v36.148438c-.003906 0-.003906 0-.003906 0-24.859375-2.203126-44.425781-23.160157-44.425781-48.578126zm74.59375 48.578126v-36.484376l44.421875-19.019531v6.925781c0 25.417969-19.554688 46.375-44.421875 48.578126zm166.328125-148.210938h-29.675782v-29.683594h29.675782zm210.742187 59.886719-44.425781 19.023437v-36.234375l44.425781-19.023437zm-74.59375-154.980469v36.238281l-44.421875-19.023437v-36.234375zm30.167969 68.714844 44.429688-19.019532v36.234376l-44.429688 19.023437zm-30.167969 36.574218-44.421875-19.023437v-36.234375l44.421875 19.023438zm-44.421875 13.792969 44.421875 19.023438v36.238281l-44.421875-19.023438zm119.015625-102.203125-44.425781 19.023438v-36.238282l44.425781-19.023437zm-2.945312-67.792968-41.480469 17.761718v-49.644531c19.136719 1.699219 35.125 14.488281 41.480469 31.882813zm-71.648438-31.882813v49.980469l-41.578125-17.804688c6.277344-17.535156 22.332032-30.46875 41.578125-32.175781zm-44.421875 277.523437v-6.589843l44.421875 19.023437v36.144532c-24.867187-2.203126-44.421875-23.160157-44.421875-48.578126zm74.589844 48.578126v-36.484376l44.429688-19.023437v6.929687c-.003907 25.417969-19.570313 46.375-44.429688 48.578126zm0 0"/></svg>