<svg height="512pt" viewBox="-17 0 511 512" width="512pt" xmlns="http://www.w3.org/2000/svg"><path d="m478.136719 121.460938h-222.445313v330.984374h96.183594v10.839844c0 10.277344-8.359375 18.636719-18.632812 18.636719h-138.75c-10.273438 0-18.632813-8.359375-18.632813-18.636719v-10.839844h2.898437c26.726563 0 48.472657-21.746093 48.472657-48.46875v-107.53125c0-26.726562-21.746094-48.46875-48.472657-48.46875h-8.925781v-200.6875l-55.96875-47.289062-55.964843 47.289062v34.105469l16.789062 15.304688-16.789062 15.304687v17.75l16.789062 15.304688-16.789062 15.304687v87.613281h-8.929688c-26.726562 0-48.46875 21.742188-48.46875 48.46875v107.53125c0 26.722657 21.742188 48.46875 48.46875 48.46875h96.8125v10.839844c0 26.863282 21.851562 48.714844 48.710938 48.714844h138.75c26.859374 0 48.710937-21.851562 48.710937-48.714844v-10.839844h96.183594zm-390.160157 52.1875 31.363282-28.589844-26.527344-24.179688 26.527344-24.179687-31.363282-28.585938v-6.859375l25.886719-21.875 25.886719 21.875v186.722656h-51.773438zm-57.394531 230.328124v-107.53125c0-10.140624 8.25-18.390624 18.390625-18.390624h129.785156c10.140626 0 18.390626 8.25 18.390626 18.390624v107.53125c0 10.136719-8.25 18.386719-18.390626 18.386719h-129.785156c-10.144531 0-18.390625-8.246093-18.390625-18.386719zm417.476563-252.4375v120.375h-27.316406v-92.800781h-108.289063v92.800781h-26.679687v-120.375zm-57.394532 120.371094h-48.128906v-62.714844h48.128906zm-48.128906 30.082032h48.128906v61.613281h-48.128906zm-56.761718 120.371093v-120.371093h26.679687v91.691406h108.289063v-91.691406h27.3125v120.371093zm0 0"/><path d="m67.050781 353.40625h93.628907v30.078125h-93.628907zm0 0"/></svg>