<svg height="512pt" viewBox="-2 0 512 512" width="512pt" xmlns="http://www.w3.org/2000/svg"><path d="m243 219.691406c-27.191406 0-49.308594 22.117188-49.308594 49.308594s22.117188 49.308594 49.308594 49.308594 49.308594-22.117188 49.308594-49.308594-22.117188-49.308594-49.308594-49.308594zm0 68.617188c-10.648438 0-19.308594-8.660156-19.308594-19.308594s8.660156-19.308594 19.308594-19.308594 19.308594 8.660156 19.308594 19.308594-8.660156 19.308594-19.308594 19.308594zm0 0"/><path d="m507.859375 106.671875c0-58.820313-47.847656-106.671875-106.667969-106.671875-32.78125 0-62.160156 14.871094-81.730468 38.21875-24.339844-8.039062-50.082032-12.21875-76.460938-12.21875-64.910156 0-125.929688 25.28125-171.828125 71.171875-45.890625 45.898437-71.171875 106.917969-71.171875 171.828125s25.28125 125.929688 71.171875 171.828125c45.898437 45.890625 106.917969 71.171875 171.828125 71.171875s125.929688-25.28125 171.828125-71.171875c45.890625-45.898437 71.171875-106.917969 71.171875-171.828125 0-28.539062-4.890625-56.328125-14.269531-82.398438 22.140625-19.550781 36.128906-48.140624 36.128906-79.929687zm-200.867187 299.296875-38.289063-67.78125-49.476563-.039062-37.222656 69.179687c-9.046875-3.988281-17.625-8.859375-25.632812-14.476563-.003906-.003906-.003906-.003906-.003906-.003906l39.554687-67.007812-24.699219-42.871094-78.535156 2.335938c-.578125-5.359376-.878906-10.796876-.878906-16.304688 0-4.429688.191406-8.8125.570312-13.140625l77.855469.769531 24.792969-42.816406-41.242188-66.808594s.003906-.003906.003906-.003906c7.828126-5.75 16.238282-10.757812 25.117188-14.917969l38.335938 67.75h49.480468l32.765625-61.007812v.003906c3.53125 11.152344 8.839844 21.511719 15.628907 30.742187l-25.078126 42.550782 24.730469 42.859375 78.53125-2.390625c.589844 5.390625.886719 10.871094.886719 16.410156 0 4.390625-.1875 8.738281-.558594 13.027344l-77.859375-.710938-24.757812 42.835938 41.292969 66.773437c-.003907 0-.003907.003907-.003907.003907-7.890625 5.800781-16.359375 10.847656-25.308593 15.039062zm-28.765626 10.070312c-11.300781 2.722657-23.097656 4.152344-35.226562 4.152344-10.980469 0-21.691406-1.179687-32.011719-3.410156 0 0 0 0-.003906-.003906l26.160156-48.613282 14.042969.007813zm-147.105468-248.640624 28.957031 46.90625-7.039063 12.152343-54.976562-.542969c6.550781-22.007812 17.988281-41.933593 33.058594-58.515624zm2.167968 205.53125c-15.421874-16.273438-27.28125-35.960938-34.277343-57.800782l55.171875-1.640625 7.007812 12.167969zm253.671876-150.167969-55.179688 1.6875-7.011719-12.167969 12.121094-20.570312c13.28125 10.070312 28.96875 17.097656 46.050781 20.050781 1.480469 3.597656 2.820313 7.269531 4.019532 11zm-179.300782-100.78125c11.339844-2.730469 23.167969-4.171875 35.339844-4.171875 10.941406 0 21.609375 1.171875 31.898438 3.390625h.003906l-26.121094 48.632812h-14.042969zm147.300782 248.53125s-.003907 0-.007813.003906l-28.988281-46.882813 7.023437-12.160156 54.980469.503906v.003907c-6.539062 22.007812-17.957031 41.941406-33.007812 58.53125zm79.507812-194.78125c-9.667969 4.667969-20.457031 7.378906-31.847656 7.578125-.480469.019531-.949219.019531-1.429688.019531-16.992187 0-32.710937-5.558594-45.441406-14.957031-1.191406-.882813-2.359375-1.792969-3.488281-2.742188-4.28125-3.550781-8.160157-7.550781-11.582031-11.9375-3.210938-4.132812-6.007813-8.601562-8.339844-13.339844-2.839844-5.78125-4.980469-11.972656-6.289063-18.453124h18.640625v-30h-18.730468c1.140624-5.839844 2.949218-11.429688 5.328124-16.71875 1.730469-3.808594 3.761719-7.460938 6.0625-10.910157l13.277344 13.28125 10.609375-10.601562 6.5625-6.558594 4.050781-4.050781-13.332031-13.328125c8.242188-5.542969 17.601563-9.53125 27.671875-11.53125v18.917969h30v-18.917969c10.078125 2 19.4375 5.980469 27.679688 11.53125l-13.332032 13.328125 10.609376 10.609375 10.613281 10.601562 13.277343-13.28125c5.492188 8.230469 9.421876 17.582031 11.390626 27.628907h-18.730469v30h18.640625c-2.699219 13.3125-8.851563 25.390624-17.488282 35.242187-6.761718 7.71875-15.050781 14.070313-24.382812 18.589844zm21.53125 93.269531c0 117.449219-95.550781 213-213 213s-213-95.550781-213-213 95.550781-213 213-213c20.878906 0 41.078125 3.019531 60.160156 8.648438-4.140625 9.621093-6.910156 19.972656-8.039062 30.800781-16.511719-4.96875-34.011719-7.640625-52.121094-7.640625-99.910156 0-181.191406 81.28125-181.191406 181.191406s81.28125 181.191406 181.191406 181.191406 181.191406-81.28125 181.191406-181.191406c0-19.75-3.179687-38.769531-9.050781-56.578125 10.78125-1.410156 21.058594-4.441406 30.578125-8.84375 6.671875 20.621094 10.28125 42.613281 10.28125 65.421875zm0 0"/><path d="m397.101562 81.070312h-10.910156v51.660157h30v-51.660157zm0 0"/></svg>