<svg height="512pt" viewBox="-61 0 512 512" width="512pt" xmlns="http://www.w3.org/2000/svg"><path d="m389.539062 161v-93.828125h-54.730468v-67.171875h-280.074219v67.171875h-54.734375v93.828125h22.269531v257.171875h-22.269531v93.828125h389.539062v-93.828125h-22.269531v-257.171875zm-304.804687-131h220.074219v37.171875h-220.074219zm-54.734375 67.171875h329.539062v33.828125h-329.539062zm118.226562 63.828125v255.992188h-33.082031v-255.992188zm30 255.992188v-255.992188h33.085938v255.992188zm63.085938 0v-255.992188h33.082031v255.992188zm-156.167969-255.992188v255.992188h-32.875v-255.992188zm274.394531 321h-329.539062v-33.828125h329.539062zm-22.269531-65.007812h-32.875v-255.992188h32.875zm0 0"/></svg>