<svg height="512pt" viewBox="0 0 512.00002 512" width="512pt" xmlns="http://www.w3.org/2000/svg"><path d="m429.617188 218.304688h27.292968v30h-27.292968zm0 0"/><path d="m468.195312 218.304688h43.804688v30h-43.804688zm0 0"/><path d="m420.453125 178.257812 25.992187-8.324218 9.152344 28.570312-25.996094 8.324219zm0 0"/><path d="m457.148438 166.507812 41.714843-13.363281 9.148438 28.570313-41.710938 13.359375zm0 0"/><path d="m420.445312 288.324219 9.152344-28.574219 25.992188 8.324219-9.148438 28.574219zm0 0"/><path d="m457.203125 300.101562 9.152344-28.570312 41.714843 13.359375-9.148437 28.570313zm0 0"/><path d="m116 435.945312v-4.765624h29.753906l23.417969-66.902344h70.539063l22.882812-66.898438h112.417969v-48.8125h39.949219v-30h-39.949219v-49.332031h-181.84375v-17.992187c27.078125-6.539063 47.257812-30.957032 47.257812-60.015626v-91.226562h-124.515625v91.226562c0 29.058594 20.179688 53.476563 47.257813 60.015626v17.992187h-107.234375v20.015625h-55.933594v88.628906h55.933594v19.5h30.070312l-46.839844 133.800782h46.835938v4.765624c0 41.9375 34.117188 76.054688 76.054688 76.054688h349.945312v-30h-349.945312c-25.394532 0-46.054688-20.660156-46.054688-46.054688zm94.425781-405.945312v24.332031h-64.515625v-24.332031zm-64.515625 61.226562v-6.894531h64.515625v6.894531c0 17.507813-14.242187 31.75-31.75 31.75h-1.015625c-17.507812 0-31.75-14.242187-31.75-31.75zm72.355469 243.050782h-38.59375l12.917969-36.898438h38.300781zm126.746094-66.898438h-31.300781v-68.144531h31.300781zm-315.011719-19.5v-28.628906h25.933594v28.628906zm55.933594 19.5v-68.144531h197.777344v68.144531zm31.851562 30h43.019532l-36.335938 103.800782h-43.015625zm0 0"/></svg>