<svg height="512pt" viewBox="-30 0 511 512" width="512pt" xmlns="http://www.w3.org/2000/svg"><path d="m326.789062 178.398438c11.132813-23.867188 16.742188-44.070313 16.742188-60.398438 0-65.058594-52.929688-118-118-118s-118 52.941406-118 118c0 16.328125 5.609375 36.53125 16.738281 60.398438h-123.769531v333.601562h450.058594v-333.601562zm-226.835937 90.710937 109.328125 152.171875h-118.25v-152.171875zm146.269531 152.171875-10.15625-14.136719 123.964844-77.144531v91.28125zm113.808594-126.613281-141.507812 88.058593-81.632813-113.617187h43.230469c18.371094 25.152344 33.160156 42.640625 33.96875 43.589844l11.441406 13.492187 11.4375-13.492187c.8125-.949219 15.601562-18.4375 33.972656-43.589844h89.089844zm-134.5-264.667969c48.527344 0 88 39.480469 88 88 0 16.109375-8.230469 37.671875-20.191406 60.398438-5.199219 9.902343-11.109375 20.011718-17.351563 30-6.578125 10.511718-13.527343 20.890624-20.417969 30.710937-7.621093 10.859375-15.160156 21.050781-22.050781 30-2.78125 3.621094-5.460937 7.039063-7.988281 10.21875-2.53125-3.179687-5.210938-6.597656-7.992188-10.21875-6.890624-8.949219-14.4375-19.140625-22.058593-30-6.890625-9.820313-13.839844-20.1875-20.421875-30.710937-6.238282-9.988282-12.148438-20.109376-17.359375-30-11.949219-22.726563-20.167969-44.277344-20.167969-60.398438 0-48.519531 39.46875-88 88-88zm195.027344 452h-390.058594v-273.601562h109.539062c5.652344 9.761718 12.03125 20 19.140626 30.710937h-98.148438v212.171875h329v-212.171875h-98.152344c7.109375-10.710937 13.492188-20.949219 19.140625-30.710937h109.539063zm0 0"/><path d="m225.53125 175.101562c32.878906 0 59.628906-26.75 59.628906-59.632812 0-32.878906-26.75-59.617188-59.628906-59.617188-32.882812 0-59.632812 26.738282-59.632812 59.617188 0 32.882812 26.75 59.632812 59.632812 59.632812zm0-89.25c16.339844 0 29.628906 13.289063 29.628906 29.617188 0 16.339844-13.289062 29.632812-29.628906 29.632812s-29.632812-13.292968-29.632812-29.632812c0-16.328125 13.292968-29.617188 29.632812-29.617188zm0 0"/></svg>