<svg height="512pt" viewBox="-62 0 512 512" width="512pt" xmlns="http://www.w3.org/2000/svg"><path d="m358.917969 366.207031v-18.527343c0-35.265626-28.6875-63.964844-63.960938-63.964844h-37.867187v-159.667969h-62.582032v-30.488281c14.128907-4.71875 25.328126-15.90625 30.035157-30.035156h31.386719v31.394531h102.988281v-94.917969h-102.988281v33.527344h-31.386719c-6.289063-18.839844-24.097657-32.46875-45.035157-32.46875-20.925781 0-38.734374 13.628906-45.023437 32.46875h-31.496094v-33.527344h-102.988281v94.917969h102.988281v-31.394531h31.496094c4.710937 14.128906 15.90625 25.316406 30.027344 30.035156v30.488281h-62.683594v37.472656h-5.710937c-41.964844 0-76.097657 34.136719-76.097657 76.101563 0 41.957031 34.132813 76.09375 76.097657 76.09375h5.710937v168.289062h-50.335937v29.996094h255.933593v-29.996094h-50.335937v-168.289062h37.867187c18.726563 0 33.964844 15.238281 33.964844 33.964844v18.527343h-28.246094v92.660157h86.527344v-92.660157zm-72.992188-336.210937h42.996094v34.925781h-42.996094zm-212.933593 34.925781h-42.996094v-34.925781h42.996094zm91.519531-7.46875c-1.5625-2.621094-2.460938-5.667969-2.460938-8.929687 0-6.359376 3.417969-11.9375 8.507813-14.996094 2.621094-1.570313 5.679687-2.472656 8.949218-2.472656 3.269532 0 6.332032.902343 8.949219 2.472656 5.101563 3.046875 8.519531 8.636718 8.519531 14.996094 0 3.269531-.898437 6.332031-2.46875 8.949218-1.492187 2.480469-3.570312 4.570313-6.050781 6.050782-2.617187 1.570312-5.679687 2.46875-8.949219 2.46875-3.269531 0-6.328124-.898438-8.949218-2.46875-2.476563-1.492188-4.566406-3.582032-6.046875-6.070313zm62.582031 424.550781h-95.269531v-30.714844h95.269531zm0-60.714844h-95.269531v-107.574218h95.269531zm-95.269531-137.574218v-129.671875h95.269531v129.671875zm-35.707031 0c-25.414063 0-46.101563-20.675782-46.101563-46.09375 0-25.414063 20.6875-46.105469 46.101563-46.105469h5.710937v92.199219zm261.089843 145.15625h-26.535156v-32.667969h26.535156zm0 0"/></svg>