<svg height="512pt" viewBox="-54 0 512 512" width="512pt" xmlns="http://www.w3.org/2000/svg"><path d="m361.945312 404.667969v-21.101563c0-26.1875-21.304687-47.496094-47.496093-47.496094h-65.570313v-153.019531c29.464844-16.917969 49.355469-48.703125 49.355469-85.050781 0-54.035156-43.960937-98-98-98s-98 43.964844-98 98c0 36.347656 19.890625 68.132812 49.355469 85.054688v153.019531h-61.574219c-26.1875 0-47.492187 21.304687-47.492187 47.492187v21.101563h-42.523438v107.332031h404.46875v-107.332031zm-161.710937-374.667969c37.496094 0 68 30.503906 68 68s-30.503906 68-68 68-68-30.503906-68-68 30.503906-68 68-68zm-18.644531 164.214844c6.039062 1.167968 12.269531 1.785156 18.644531 1.785156s12.605469-.617188 18.644531-1.785156v141.855468h-37.289062zm-109.066406 189.351562c0-9.644531 7.847656-17.496094 17.492187-17.496094h224.4375c9.644531 0 17.492187 7.851563 17.492187 17.496094v21.101563h-259.421874zm301.945312 98.433594h-344.46875v-47.332031h344.46875zm0 0"/></svg>