<svg height="512pt" viewBox="-27 0 512 512" width="512pt" xmlns="http://www.w3.org/2000/svg"><path d="m457.761719 295.101562c0-24.175781-19.667969-43.84375-43.84375-43.84375h-24.046875v-60.757812h-49.394532v-86.5h15.589844l14.527344-39.585938v-64.414062h-89.675781v64.414062l14.527343 39.585938h15.03125v86.5h-44.234374v12.832031h-63.128907l-80.578125 64.785157h-10.519531v-23.960938h-112.015625v267.84375h112.015625v-28.441406l54.621094 28.441406h216.664062v-.820312c20.152344-3.945313 35.414063-21.730469 35.414063-43.023438 0-7.75-2.03125-15.03125-5.574219-21.351562 11.652344-7.890626 19.328125-21.230469 19.328125-36.332032 0-7.933594-2.128906-15.375-5.828125-21.800781 11.292969-7.941406 18.695313-21.0625 18.695313-35.886719 0-8.023437-2.175782-15.546875-5.957032-22.023437 11.117188-7.964844 18.382813-20.976563 18.382813-35.660157zm-146.84375-265.101562h29.675781v29.085938l-5.472656 14.914062h-18.726563l-5.476562-14.914062zm48.953125 221.257812h-63.628906v-30.757812h63.628906zm-277.855469 230.742188h-52.015625v-207.84375h52.015625zm292.855469 0h-200.894532l-61.960937-32.261719v-151.621093h21.082031l80.578125-64.785157h52.566407v47.925781h147.675781c7.632812 0 13.84375 6.210938 13.84375 13.84375 0 7.632813-6.210938 13.839844-13.84375 13.839844h-87.414063v30h74.988282c7.636718 0 13.84375 6.210938 13.84375 13.84375 0 7.636719-6.207032 13.84375-13.84375 13.84375h-87.859376v30h74.992188c7.632812 0 13.84375 6.210938 13.84375 13.84375 0 7.632813-6.210938 13.84375-13.84375 13.84375h-88.746094v30h74.992188c7.632812 0 13.84375 6.210938 13.84375 13.84375 0 7.632813-6.210938 13.839844-13.84375 13.839844zm0 0"/></svg>