<svg height="512pt" viewBox="0 -46 512 512" width="512pt" xmlns="http://www.w3.org/2000/svg"><path d="m512 211.863281h-75.253906l-68.277344-51.347656h-224.9375l-68.277344 51.347656h-75.253906v157.0625h75.257812l68.273438 51.347657h224.9375l68.273438-51.347657h75.257812zm-338-21.34375h172v199.753907h-172zm202 13.199219 40.757812 30.648438v112.054687l-40.757812 30.648437zm-346 38.144531h35.242188v97.0625h-35.242188zm65.242188 104.558594v-112.054687l48.757812-36.667969v185.390625zm386.757812-7.496094h-35.242188v-97.0625h35.242188zm0 0"/><path d="m183.011719 101.554688.0625-.085938 23.539062 18.601562c10.761719-13.617187 24.371094-46.128906-1.148437-71.703124-5.332032-5.339844-6.878906-10.742188-5.023438-17.523438 1.734375-6.351562 5.753906-11.183594 5.792969-11.230469l-.082031.097657-22.613282-19.710938c-.800781.917969-7.933593 9.328125-11.613281 21.472656-5.367187 17.683594-.996093 34.761719 12.304688 48.089844 12.8125 12.839844.253906 30.066406-1.21875 31.992188zm0 0"/><path d="m244.167969 101.554688.0625-.085938 23.539062 18.601562c10.761719-13.617187 24.371094-46.128906-1.152343-71.703124-5.328126-5.339844-6.878907-10.742188-5.023438-17.523438 1.734375-6.351562 5.757812-11.183594 5.796875-11.230469l-.082031.097657-22.617188-19.710938c-.800781.917969-7.929687 9.328125-11.613281 21.46875-5.363281 17.6875-.992187 34.765625 12.304687 48.09375 12.816407 12.839844.257813 30.066406-1.214843 31.992188zm0 0"/><path d="m305.320312 101.554688.066407-.082032 23.535156 18.597656c10.761719-13.617187 24.371094-46.128906-1.148437-71.703124-5.328126-5.339844-6.878907-10.742188-5.023438-17.523438 1.734375-6.351562 5.757812-11.183594 5.796875-11.230469l-.082031.097657-22.617188-19.710938c-.800781.917969-7.933594 9.328125-11.613281 21.46875-5.367187 17.6875-.996094 34.765625 12.304687 48.09375 12.816407 12.839844.257813 30.070312-1.21875 31.992188zm0 0"/></svg>