<svg id="Capa_1" enable-background="new 0 0 512 512" height="512" viewBox="0 0 512 512" width="512" xmlns="http://www.w3.org/2000/svg"><g><path d="m394.275 0h-3.275-270-3.275c-31.279 0-56.725 25.447-56.725 56.725v260.275c0 107.523 87.477 195 195 195s195-87.477 195-195v-260.275c0-31.278-25.446-56.725-56.725-56.725zm-183.275 71v-41h30v41zm60-41h30v41h-30zm60 0h30v21.882c0 10.542-8.576 19.118-19.117 19.118h-10.883zm-150 0v41h-10.883c-10.541 0-19.117-8.576-19.117-19.118v-21.882zm240 287c0 90.981-74.019 165-165 165s-165-74.019-165-165v-156h330zm-330-186v-74.275c0-14.736 11.988-26.725 26.725-26.725h3.275v21.882c0 27.084 22.034 49.118 49.117 49.118h171.766c27.083 0 49.117-22.034 49.117-49.118v-21.882h3.275c14.737 0 26.725 11.989 26.725 26.725v74.275z"/><path d="m256 428c28.397 0 51.5-23.103 51.5-51.5v-105c0-28.397-23.103-51.5-51.5-51.5s-51.5 23.103-51.5 51.5v105c0 28.397 23.103 51.5 51.5 51.5zm0-30c-11.855 0-21.5-9.645-21.5-21.5v-58.22c6.548 3.022 13.828 4.72 21.5 4.72s14.952-1.699 21.5-4.72v58.22c0 11.855-9.645 21.5-21.5 21.5zm0-148c11.855 0 21.5 9.645 21.5 21.5s-9.645 21.5-21.5 21.5-21.5-9.645-21.5-21.5 9.645-21.5 21.5-21.5z"/></g></svg>