<svg id="Capa_1" enable-background="new 0 0 511.5 511.5" height="512" viewBox="0 0 511.5 511.5" width="512" xmlns="http://www.w3.org/2000/svg"><path d="m467.534 383.115c-36.322 0-68.225 19.27-86.034 48.12-5.604-9.078-12.603-17.205-20.697-24.083 25.735-18.247 47.48-41.832 63.527-69.108 20.065-34.103 30.67-73.153 30.67-112.929v-15h-91.75l49.486-130.16 22.433 8.529 10.661-28.042-157.968-60.057-10.661 28.042 25.237 9.595-65.428 172.093h-237.01v15c0 59.565 23.196 115.566 65.315 157.685 21.66 21.66 46.998 38.301 74.598 49.371-20.179 14.113-33.413 37.506-33.413 63.944v15h303.966c55.71 0 101.034-45.324 101.034-101.034v-26.966zm-137.054-334.432 54.214 20.612-15.465 40.677-54.214-20.612zm-26.126 68.719 54.214 20.612-27.413 72.102h-62.05zm-273.777 122.713h393.841c-.894 11.514-2.829 22.891-5.736 34h-382.367c-2.886-10.986-4.838-22.347-5.738-34zm16.353 64h361.195c-2.868 6.398-6.082 12.65-9.651 18.716-16.17 27.484-39.021 50.639-66.227 67.215-11.403-4.473-23.81-6.932-36.78-6.932h-43.967v35h-28.5c-78.288.001-145.827-46.859-176.07-113.999zm91.969 177c6.313-19.145 24.369-33 45.601-33h74.438c5.065 12.42 12.531 23.613 21.822 33zm213.635 0c-38.152 0-69.375-30.233-70.97-68h13.902c38.152 0 69.375 30.233 70.97 68zm57.932 0h-13.902c1.594-37.767 32.818-68 70.97-68h13.902c-1.594 37.768-32.818 68-70.97 68z"/></svg>