<svg id="Capa_1" enable-background="new 0 0 513 513" height="512" viewBox="0 0 513 513" width="512" xmlns="http://www.w3.org/2000/svg"><g><path d="m487.045 269.238-3.888-9.116h-25.601v-120.122h-147v120.122h-25.601l-3.888 9.116c-31.197 73.151-31.197 160.496 0 233.646l3.888 9.116h198.201l3.888-9.116c31.198-73.151 31.198-160.495.001-233.646zm-146.488-39.238h87v29.878h-87zm87-60v30h-87v-30zm35.563 312h-158.127c-11.288-29.744-17.225-62.7-17.225-95.939s5.937-66.195 17.225-95.939h158.127c11.288 29.744 17.225 62.7 17.225 95.939s-5.937 66.195-17.225 95.939z"/><path d="m394.866 336.146-11.31-12.98-11.31 12.98c-.327.376-8.105 9.328-15.966 20.52-15.888 22.622-17.725 33.854-17.725 40.334 0 24.813 20.187 45 45 45s45-20.187 45-45c0-6.48-1.837-17.712-17.725-40.334-7.858-11.192-15.636-20.144-15.964-20.52zm-11.309 75.854c-8.271 0-15-6.729-15-14.976.154-4.23 6.499-15.32 15.006-26.966 8.495 11.625 14.83 22.704 14.994 26.958-.008 8.264-6.734 14.984-15 14.984z"/><path d="m125.366 289.98-11.309-12.98-11.31 12.98c-.327.376-8.105 9.328-15.965 20.52-15.888 22.622-17.725 33.854-17.725 40.334 0 24.813 20.187 45 45 45s45-20.187 45-45c0-6.48-1.837-17.712-17.725-40.334-7.86-11.192-15.638-20.144-15.966-20.52zm-11.309 75.854c-8.271 0-15-6.729-15-14.976.155-4.23 6.5-15.32 15.006-26.966 8.495 11.625 14.83 22.704 14.994 26.958-.008 8.264-6.734 14.984-15 14.984z"/><path d="m240.77 0h-172.213v70h-17v91h-49v352h223v-352h-49v-91h-17v-40h68.787l22.607 22.606 21.213-21.213zm-208.213 251h163v172h-163zm163 232h-163v-30h163zm0-292v30h-163v-30zm-114-30v-61h65v61zm17-91v-40h31v40z"/></g></svg>