<svg id="Capa_1" enable-background="new 0 0 507.428 507.428" height="512" viewBox="0 0 507.428 507.428" width="512" xmlns="http://www.w3.org/2000/svg"><path d="m331.22 9.714h-155.012l-176.208 60.571 45.895 145.126 56.819-17.413v299.715h302v-299.714l56.819 17.413 45.895-145.126zm-77.506 82.415-43.199-52.415h86.399zm-188.181 85.887-28.105-88.873 136.326-46.863 60.522 73.433-54.562 66.202v109.798h-47v-134.284zm67.181 143.698h47v146h-47zm77 146v-146h29v67h30v-42.153l23.724 27.045 22.553-19.783-28.165-32.108h87.889v146h-165.001zm232.181-289.698-67.181-20.587v134.285h-165v-99.029l123.96-150.405 136.326 46.863z"/></svg>