<svg id="Capa_1" enable-background="new 0 0 512 512" height="512" viewBox="0 0 512 512" width="512" xmlns="http://www.w3.org/2000/svg"><g><path d="m235 324.334c0-24.274-4.747-37.081-8.935-48.38-3.791-10.227-7.065-19.06-7.065-37.954v-238h-219v238c0 24.273 4.747 37.08 8.936 48.379 3.791 10.227 7.064 19.059 7.064 37.952 0 18.894-3.274 27.727-7.064 37.954-4.189 11.299-8.936 24.107-8.936 48.381s4.747 37.081 8.935 48.38c3.791 10.227 7.065 19.06 7.065 37.954v15h219v-15c0-24.273-4.747-37.08-8.936-48.379-3.791-10.227-7.064-19.06-7.064-37.952 0-18.894 3.274-27.727 7.064-37.954 4.189-11.299 8.936-24.107 8.936-48.381zm-205-294.334h159v30h-159zm104.936 256.379c3.791 10.227 7.064 19.06 7.064 37.952 0 18.894-3.274 27.727-7.064 37.954-4.188 11.3-8.936 24.107-8.936 48.381s4.747 37.081 8.935 48.38c2.617 7.06 4.987 13.457 6.204 22.955h-32.826c-1.463-15.061-5.021-24.671-8.249-33.381-3.79-10.228-7.064-19.061-7.064-37.954 0-18.894 3.274-27.727 7.064-37.954 4.188-11.3 8.936-24.107 8.936-48.381 0-24.273-4.747-37.08-8.936-48.378-3.79-10.228-7.064-19.061-7.064-37.953v-148h33v148c0 24.273 4.747 37.08 8.936 48.379zm-97.872 162.24c-3.79-10.227-7.064-19.06-7.064-37.953 0-18.894 3.274-27.727 7.064-37.954 4.188-11.3 8.936-24.107 8.936-48.381 0-24.273-4.747-37.08-8.936-48.378-3.79-10.228-7.064-19.061-7.064-37.953v-148h33v148c0 24.273 4.747 37.08 8.936 48.379 3.791 10.227 7.064 19.059 7.064 37.952 0 18.894-3.274 27.727-7.064 37.954-4.189 11.299-8.936 24.107-8.936 48.381s4.747 37.081 8.935 48.38c2.617 7.06 4.987 13.457 6.204 22.955h-32.823c-1.462-15.065-5.022-24.671-8.252-33.382zm160.872 10.429c2.616 7.06 4.986 13.455 6.204 22.952h-32.826c-1.463-15.061-5.021-24.671-8.249-33.381-3.79-10.228-7.064-19.061-7.064-37.954 0-18.894 3.274-27.727 7.064-37.954 4.188-11.3 8.936-24.107 8.936-48.381 0-24.273-4.747-37.08-8.936-48.378-3.791-10.227-7.065-19.06-7.065-37.952v-148h33v148c0 24.274 4.747 37.081 8.936 48.381 3.79 10.228 7.064 19.061 7.064 37.954 0 18.894-3.274 27.727-7.064 37.954-4.188 11.3-8.936 24.107-8.936 48.381 0 24.272 4.747 37.079 8.936 48.378z"/><path d="m486.357 456.365v-456.365h-219v429.888c0 45.277 36.838 82.112 82.118 82.112h162.525v-30c-14.14 0-25.643-11.5-25.643-25.635zm-189-426.365h159v30h-159zm96 452h-33v-392h33zm-96-52.112v-339.888h33v388.352c-19.304-7.64-33-26.477-33-48.464zm126 52.112v-392h33v366.365c0 9.238 2.265 17.959 6.267 25.635z"/></g></svg>