<svg id="Capa_1" enable-background="new 0 0 512 512" height="512" viewBox="0 0 512 512" width="512" xmlns="http://www.w3.org/2000/svg"><g><path d="m256 396c-24.878 0-44.652-13.236-44.795-13.333l-17.076 24.666c1.1.762 27.36 18.667 61.871 18.667s60.771-17.905 61.872-18.667l-17.022-24.703c-.198.134-19.972 13.37-44.85 13.37z"/><path d="m243.538 290.483-17.001-24.717c-.135.091-13.672 9.084-30.537 9.084-16.864 0-30.402-8.994-30.462-9.033l-17.076 24.666c2.124 1.47 21.504 14.367 47.538 14.367s45.414-12.897 47.538-14.367z"/><path d="m316 274.85c-16.864 0-30.402-8.993-30.462-9.033l-17.076 24.666c2.124 1.47 21.504 14.367 47.538 14.367s45.414-12.897 47.538-14.367l-17.001-24.717c-.135.09-13.673 9.084-30.537 9.084z"/><path d="m475 219c0-58.497-22.78-113.493-64.144-154.856s-96.359-64.144-154.856-64.144-113.493 22.78-154.856 64.144-64.144 96.359-64.144 154.856c0 52.428 18.744 102.95 52.826 142.629 8.373 84.306 79.701 150.371 166.174 150.371 86.472 0 157.8-66.064 166.174-150.37 34.071-39.665 52.826-90.246 52.826-142.63zm-30 0c0 31.093-7.658 61.448-22 88.509v-17.509c0-92.084-74.916-167-167-167-4.632 0-9.219.199-13.757.57-14.26-35.627-46.806-60.818-84.919-65.703 28.741-17.665 62.538-27.867 98.676-27.867 104.215 0 189 84.785 189 189zm-329.088-126.737c8.847-3.483 18.191-5.263 27.832-5.263 29.266 0 55.368 16.636 68.052 41.95-70.7 19.427-122.796 84.264-122.796 161.05v17.511c-14.343-27.053-22-57.391-22-88.511 0-48.718 18.532-93.188 48.912-126.737zm277.088 252.737c0 75.542-61.458 137-137 137s-137-61.458-137-137v-55c0-75.542 61.458-137 137-137s137 61.458 137 137z"/></g></svg>