<svg id="Capa_1" enable-background="new 0 0 511.532 511.532" height="512" viewBox="0 0 511.532 511.532" width="512" xmlns="http://www.w3.org/2000/svg"><g><path d="m438.766 182.766c.15-37.684-11.782-74.05-32.881-105h-26.619v-30.211c-68.721-63.41-178.288-63.403-247 0v30.211h-26.619c-37.694 55.678-32.965 98.271-32.881 161.483l16.517 16.517-16.517 16.517c-.089 63.298-4.793 105.826 32.881 161.483h26.619v30.211c68.721 63.41 178.288 63.403 247 0v-30.211h26.619c37.694-55.678 32.965-98.271 32.881-161.483l-16.517-16.517 16.517-16.517zm-30 44.057-28.943 28.943 28.943 28.943c.082 43.409 3.206 79.71-19.614 119.057h-39.886v46.108c-53.067 42.246-133.934 42.245-187 0v-46.108h-39.886c-22.831-39.369-19.693-75.678-19.614-119.057l28.943-28.943-28.943-28.943c-.082-43.409-3.206-79.71 19.614-119.057h39.886v-46.108c53.067-42.246 133.934-42.245 187 0v46.108h39.886c22.831 39.369 19.692 75.678 19.614 119.057z"/><path d="m245.235 236.766-58.244 105h137.668l-58.8-105zm-7.297 75 17.684-31.88 17.853 31.88z"/><path d="m232.804 209.099c-4.274-6.136-12.799-18.535-16.997-24.721-17.368 11.057-39.186 10.935-56.337.055l-17.076 24.666c26.499 18.037 64.174 17.874 90.41 0z"/><path d="m352.141 184.378c-17.368 11.056-39.185 10.935-56.337.055l-17.076 24.666c26.499 18.037 64.174 17.874 90.41 0-4.275-6.136-12.8-18.535-16.997-24.721z"/><path d="m283.974 386.378c-17.368 11.056-39.185 10.935-56.336.055l-17.076 24.666c26.499 18.037 64.174 17.874 90.409 0-4.275-6.136-12.8-18.535-16.997-24.721z"/></g></svg>