<svg id="Capa_1" enable-background="new 0 0 512 512" height="512" viewBox="0 0 512 512" width="512" xmlns="http://www.w3.org/2000/svg"><g><path d="m510.386 234.141c-3.642-17.688-13.538-33.482-27.866-44.474-19.742-15.144-44.901-19.137-67.449-12.335v-114.332c0-34.738-28.262-63-63-63s-63 28.262-63 63v36h30v-36c0-18.196 14.804-33 33-33s33 14.804 33 33v131.717c-59.266 53.506-135.912 82.697-214.907 82.694-12.314 0-24.699-.71-37.069-2.147l-133.024-15.456v71.445l214 114.726v66.021h201v-71.066l87.282-154.928c8.821-15.757 11.675-34.177 8.033-51.865zm-125.315 247.859h-141v-30h141zm91.125-210.684-84.891 150.684h-158.467l-202.767-108.704v-19.801l99.562 11.567c100.829 11.713 201.7-20.776 276.737-89.144 16.18-14.741 40.525-15.77 57.891-2.449 17.675 13.56 22.797 38.444 11.935 57.847z"/><path d="m281.071 159h30v30h-30z"/><path d="m311.071 129h30v30h-30z"/></g></svg>