<svg id="Capa_1" enable-background="new 0 0 513 513" height="512" viewBox="0 0 513 513" width="512" xmlns="http://www.w3.org/2000/svg"><g><path d="m364.218 284.851c1.34-50.55 8.432-101.029 20.97-150.014l-36.799-134.837h-189.382l-31.195 134.895c21.983 91.252 26.739 185.188 10.813 277.815.001 0-10.441 62.037-10.441 62.037v38.253h256.5v-38.444c-13.162-61.804-22.888-126.466-20.466-189.705zm-77.276-2.903c-31.382-28.369-80.214-2.481-75.136 38.887l-34.817 18.02c3.477-63.186-1.594-126.455-15.203-188.855h188.962c-7.789 35.135-12.903 70.903-15.258 106.821zm-23.613 46.427c-7.346 3.802-16.414.918-20.217-6.426-6.155-11.708 5.315-25.3 17.866-21.19 12.627 3.898 14.134 21.615 2.351 27.616zm8.105-298.375v15c0 8.271-6.729 15-15 15s-15-6.729-15-15v-15zm-60 0v15c0 24.813 20.187 45 45 45s45-20.187 45-45v-15h24.045l24.563 90h-187.994l20.813-90zm143.25 453h-196.5v-5.747c4.549-27.918 13.394-75.576 15.982-103.157l51.21-26.504c31.514 29.413 81.437 2.987 75.566-39.111l33.143-17.154c-1.654 62.11 7.7 125.417 20.6 186.116v5.557z"/><path d="m210.434 184h92v30h-92z"/><path d="m210.434 420h92v30h-92z"/></g></svg>