<svg id="Capa_1" enable-background="new 0 0 512 512" height="512" viewBox="0 0 512 512" width="512" xmlns="http://www.w3.org/2000/svg"><path d="m355.037 297.056 121.544 104.126 19.518-22.783-120.515-103.244v-20.992c0-51.19-41.646-92.836-92.836-92.836h-103.84l-17.269-84.333c-9.136-44.613-48.82-76.994-94.36-76.994h-51.378l60.83 297.056h122.735v64.944h-30v63.013l-114 50.202v36.785h318v-36.785l-114-50.202v-63.013h-30v-64.944zm-155.57 94.944h30v30h-30zm-84.969 90 68.126-30h63.686l68.126 30zm-61.831-452h14.612c31.355 0 58.679 22.295 64.969 53.013l16.037 78.314h-68.725zm33.036 161.327h197.045c34.648 0 62.836 28.188 62.836 62.836v12.893h-244.373z"/></svg>