<svg id="Capa_1" enable-background="new 0 0 512 512" height="512" viewBox="0 0 512 512" width="512" xmlns="http://www.w3.org/2000/svg"><path d="m301 143v-30h35.5v-62.153c0-28.037-22.81-50.847-50.847-50.847h-59.307c-28.036 0-50.846 22.81-50.846 50.847v62.153h35.5v30h-163v369h416v-369zm-156.5 97.34v174.32l-66.5 51.684v-277.688zm193 174.32-81.5 63.342-81.5-63.342v-174.32l81.5-63.342 81.5 63.342zm-178 26.338 52.756 41.002h-105.512zm193 0 52.756 41.002h-105.512zm15-26.338v-174.32l66.5-51.684v277.688zm37.756-241.66-52.756 41.002-52.756-41.002zm-199.756-90v-32.153c0-11.495 9.352-20.847 20.847-20.847h59.307c11.495 0 20.847 9.352 20.847 20.847v32.153zm35.5 30h30v30h-30zm-28.744 60-52.756 41.002-52.756-41.002z"/></svg>