<svg id="Capa_1" enable-background="new 0 0 512 512" height="512" viewBox="0 0 512 512" width="512" xmlns="http://www.w3.org/2000/svg"><g><path d="m60 452h150v-392h-150zm30-362h90v332h-90z"/><path d="m120 281.041h30v30h-30z"/><path d="m120 201.021h30v30h-30z"/><path d="m120 121h30v30h-30z"/><path d="m120 361.061h30v30h-30z"/><path d="m454.424 242h-184.424v-184.424c0-31.748-25.828-57.576-57.576-57.576h-154.848c-31.748 0-57.576 25.828-57.576 57.576v396.849c0 31.747 25.828 57.575 57.576 57.575h396.849c31.747 0 57.575-25.828 57.575-57.576v-154.848c0-31.748-25.828-57.576-57.576-57.576zm-184.424 90h152v90h-152zm-212.424 150c-15.205 0-27.576-12.371-27.576-27.576v-396.848c0-15.205 12.371-27.576 27.576-27.576h154.849c15.204 0 27.575 12.371 27.575 27.576v396.849c0 15.204-12.371 27.575-27.576 27.575zm424.424-27.576c0 15.205-12.371 27.576-27.576 27.576h-191.472c4.904-8.81 7.385-19.349 7.048-30h182v-150h-182v-30h184.424c15.205 0 27.576 12.371 27.576 27.576z"/><path d="m300 362h30v30h-30z"/><path d="m361 362h30v30h-30z"/></g></svg>