<svg id="Capa_1" enable-background="new 0 0 512 512" height="512" viewBox="0 0 512 512" width="512" xmlns="http://www.w3.org/2000/svg"><g><path d="m137.025 304.666c-7.86-11.192-15.638-20.144-15.965-20.52l-11.31-12.98-11.31 12.98c-.327.376-8.105 9.328-15.965 20.52-15.888 22.622-17.725 33.854-17.725 40.334 0 24.813 20.187 45 45 45s45-20.187 45-45c0-6.48-1.837-17.712-17.725-40.334zm-27.275 55.334c-8.271 0-15-6.729-15-14.976.155-4.23 6.5-15.32 15.006-26.966 8.495 11.625 14.83 22.704 14.994 26.958-.008 8.264-6.734 14.984-15 14.984z"/><path d="m0 512h220v-512h-220zm30-273h160v183h-160zm0 243v-30h160v30zm160-273h-160v-30h160zm-160-60 80.133-36 79.867 36zm160-119v85.731l-65-29.464v-26.267h-30v26.386l-65 29.374v-85.76z"/><path d="m491.119 177.961c12.54-7.996 20.881-22.018 20.881-37.961 0-21.699-15.439-39.861-35.909-44.077 1.88-4.953 2.909-10.319 2.909-15.923 0-24.813-20.187-45-45-45h-7.12c-4.56-20.016-22.503-35-43.88-35s-39.32 14.984-43.88 35h-7.12c-24.813 0-45 20.187-45 45 0 5.604 1.029 10.97 2.909 15.923-20.47 4.216-35.909 22.378-35.909 44.077 0 15.943 8.341 29.965 20.881 37.961l37.119 170.651v102.125l-10.5 34v27.263h163v-27.264l-10.5-34v-102.124zm-192.119-52.961h33v-30c-8.271 0-15-6.729-15-15s6.729-15 15-15h36v-20c0-8.271 6.729-15 15-15s15 6.729 15 15v20h36c8.271 0 15 6.729 15 15s-6.729 15-15 15v30h33c8.271 0 15 6.729 15 15s-6.729 15-15 15h-168c-8.271 0-15-6.729-15-15s6.729-15 15-15zm159.887 60-31.975 147h-87.824l-31.975-147zm-125.144 297 8.257-26.736v-93.264h82v93.264l8.257 26.736z"/></g></svg>