<svg id="Capa_1" enable-background="new 0 0 512 512" height="512" viewBox="0 0 512 512" width="512" xmlns="http://www.w3.org/2000/svg"><g><path d="m256 252c52.935 0 96-43.065 96-96s-43.065-96-96-96-96 43.065-96 96 43.065 96 96 96zm0-162c36.393 0 66 29.607 66 66s-29.607 66-66 66-66-29.607-66-66 29.607-66 66-66z"/><path d="m445 92v49h-33.724c-7.574-79.007-74.318-141-155.276-141s-147.702 61.993-155.276 141h-33.724v-49h-30v64c0 58.497 22.78 113.493 64.144 154.856 37.807 37.808 87.007 60.077 139.856 63.629v107.515h-37v30h104v-30h-37v-107.515c52.85-3.552 102.049-25.821 139.856-63.629 41.364-41.363 64.144-96.359 64.144-154.856v-64zm-189-62c69.477 0 126 56.523 126 126s-56.523 126-126 126-126-56.523-126-126 56.523-126 126-126zm0 315c-99.166 0-180.734-76.771-188.405-174h33.129c7.573 79.007 74.317 141 155.276 141s147.702-61.993 155.276-141h33.129c-7.671 97.229-89.239 174-188.405 174z"/></g></svg>