<svg id="Capa_1" enable-background="new 0 0 512 512" height="512" viewBox="0 0 512 512" width="512" xmlns="http://www.w3.org/2000/svg"><path d="m373.176 255.868c43.519-22.571 73.324-68.052 73.324-120.368 0-74.715-60.785-135.5-135.5-135.5s-135.5 60.785-135.5 135.5c0 52.522 30.038 98.16 73.837 120.639-14.678 7.582-27.97 17.846-39.122 30.375-13.475-6.723-28.66-10.514-44.715-10.514-55.416 0-100.5 45.084-100.5 100.5s45.084 100.5 100.5 100.5c16.049 0 31.227-3.788 44.698-10.506 25.716 29.046 62.058 45.506 101.302 45.506 74.715 0 135.5-60.785 135.5-135.5 0-52.517-30.032-98.151-73.824-120.632zm-167.676-120.368c0-58.173 47.327-105.5 105.5-105.5s105.5 47.327 105.5 105.5-47.327 105.5-105.5 105.5-105.5-47.327-105.5-105.5zm-110.5 241c0-38.874 31.626-70.5 70.5-70.5s70.5 31.626 70.5 70.5-31.626 70.5-70.5 70.5-70.5-31.626-70.5-70.5zm216.5 105.5c-29.396 0-56.705-11.863-76.569-32.906 7.377-7.058 13.68-15.228 18.645-24.234 13.86 16.574 34.678 27.14 57.924 27.14 41.631 0 75.5-33.869 75.5-75.5s-33.869-75.5-75.5-75.5c-23.246 0-44.064 10.566-57.924 27.141-4.961-8.999-11.258-17.162-18.627-24.217 19.789-20.831 47.453-32.924 76.551-32.924 58.173 0 105.5 47.327 105.5 105.5s-47.327 105.5-105.5 105.5zm-45.5-105.5c0-25.089 20.411-45.5 45.5-45.5s45.5 20.411 45.5 45.5-20.411 45.5-45.5 45.5-45.5-20.411-45.5-45.5z"/></svg>