<svg id="Capa_1" enable-background="new 0 0 512 512" height="512" viewBox="0 0 512 512" width="512" xmlns="http://www.w3.org/2000/svg"><g><path d="m461.949 185.263 37.657-37.657-21.213-21.213-34.765 34.765c-17.327-20.059-37.722-36.977-60.499-50.174 37.139-16.587 62.877-55.123 62.371-95.984v-15h-379v15c-.508 40.857 25.235 79.401 62.37 95.984-22.776 13.196-43.172 30.115-60.498 50.174l-34.765-34.765-21.213 21.213 37.657 37.657c-25.898 38.945-39.559 84.163-39.559 131.237v195.5h491.016v-195.5c0-47.074-13.661-92.292-39.559-131.237zm-256.449 296.737v-39h101v39zm131 0v-69h-161v69h-56.5v-155c0-75.542 61.458-137 137-137s137 61.458 137 137v155zm135.008 0h-48.508v-155c0-92.084-74.916-167-167-167s-167 74.916-167 167v155h-48.508v-165.5c-1.127-89.248 60.328-171.578 144.97-198.17v-26.557l-14.206-.752c-34.766-1.373-66.693-26.919-73.248-61.021h315.984c-6.56 34.105-38.479 59.644-73.249 61.021 0 0-14.206.752-14.206.752v26.557c84.645 26.594 146.097 108.924 144.969 198.171.002-.001.002 165.499.002 165.499z"/><path d="m267.164 252.981-11.164-12.44c-15.38 17.401-53.562 57.858-54.376 88.084.001 29.982 24.394 54.375 54.376 54.375s54.375-24.393 54.375-54.375c1.396-22.546-33.342-64.866-43.211-75.644zm-11.164 100.019c-13.44 0-24.375-10.935-24.375-24.375 0-6.255 9.418-23.378 24.34-42.294 13 16.6 24.41 34.934 24.41 42.294 0 13.44-10.935 24.375-24.375 24.375z"/></g></svg>