<svg id="Capa_1" enable-background="new 0 0 510.604 510.604" height="512" viewBox="0 0 510.604 510.604" width="512" xmlns="http://www.w3.org/2000/svg"><g><path d="m510.604 132.39-132.389-132.39-49.781 49.78-42.549-42.548-21.213 21.213 42.549 42.549-28.567 28.567-42.549-42.549-21.213 21.213 42.549 42.549-28.567 28.567-42.549-42.549-21.213 21.213 42.549 42.549-28.567 28.567-42.549-42.549-21.213 21.213 42.549 42.549-49.781 49.78 34.375 34.375-129.316 129.316c-17.546 17.546-17.546 46.094 0 63.64 8.773 8.774 20.295 13.159 31.82 13.159 11.522 0 23.048-4.388 31.819-13.159l129.316-129.315 34.375 34.375 49.781-49.78 42.549 42.549 21.213-21.213-42.549-42.549 28.567-28.567 42.549 42.549 21.213-21.213-42.549-42.549 28.567-28.567 42.549 42.549 21.213-21.213-42.549-42.549 28.567-28.567 42.549 42.549 21.213-21.213-42.549-42.549zm-455.018 343.842c-5.848 5.848-15.364 5.848-21.213 0-5.849-5.849-5.849-15.365 0-21.214l129.315-129.315 21.214 21.214zm94.94-206.118 227.689-227.688 89.962 89.964-227.688 227.688z"/><path d="m369.022 111.582h30v30h-30z" transform="matrix(.707 -.707 .707 .707 22.967 308.611)"/><path d="m319.242 161.362h30v30h-30z" transform="matrix(.707 -.707 .707 .707 -26.812 287.992)"/><path d="m269.462 211.142h30v30h-30z" transform="matrix(.707 -.707 .707 .707 -76.591 267.372)"/><path d="m219.681 260.922h30v30h-30z" transform="matrix(.707 -.707 .707 .707 -126.369 246.752)"/></g></svg>