<svg id="Capa_1" enable-background="new 0 0 512 512" height="512" viewBox="0 0 512 512" width="512" xmlns="http://www.w3.org/2000/svg"><g><path d="m70.5 445.982c0 36.402 29.616 66.018 66.018 66.018h238.964c36.402 0 66.018-29.615 66.018-66.018v-102.982h-371zm341 0c0 19.86-16.157 36.018-36.018 36.018h-238.964c-19.86 0-36.018-16.157-36.018-36.018v-12.982h311zm-311-72.982h311v30h-311z"/><path d="m166 281c5.685 0 11.121-1.07 16.133-3.002 4.561 20.015 22.491 35.002 43.867 35.002s39.306-14.987 43.867-35.002c5.012 1.932 10.448 3.002 16.133 3.002s11.121-1.07 16.133-3.002c4.56 20.015 22.49 35.002 43.867 35.002 24.813 0 45-20.187 45-45v-110c0-41.355-33.645-75-75-75h-4v-83h-112v83h-4c-41.355 0-75 33.645-75 75v78c0 24.813 20.187 45 45 45zm30-168h34v-83h52v83h34c19.557 0 36.239 12.539 42.43 30h-204.86c6.191-17.461 22.874-30 42.43-30zm165 60v95c0 8.271-6.729 15-15 15s-15-6.729-15-15v-57h-30v25c0 8.271-6.729 15-15 15s-15-6.729-15-15h-30v32c0 8.271-6.729 15-15 15s-15-6.729-15-15v-32h-30c0 8.271-6.729 15-15 15s-15-6.729-15-15v-63z"/><path d="m482 29.845v-29.845h-30v29.845h-29.925v30h30v-29.845h29.925v29.845h30v-30z"/><path d="m452 60h30v30h-30z"/><path d="m89.925 59.845v-30h-30v-29.845h-30v29.845h-29.925v30h30v-29.845h29.925v29.845z"/><path d="m29.925 60h30v30h-30z"/></g></svg>