<svg id="Capa_1" enable-background="new 0 0 511 511" height="512" viewBox="0 0 511 511" width="512" xmlns="http://www.w3.org/2000/svg"><g><path d="m422.393 237.417c-1.633-21.12-7.261-41.977-16.912-61.279l-26.832 13.416c6.306 12.613 10.51 26.039 12.637 39.737-10.134-2.189-20.358-3.957-30.634-5.301-2.272-18.569-7.654-36.817-16.171-53.852l-26.832 13.416c5.995 11.99 10.097 24.714 12.316 37.709-9.346-.508-21.264-.418-30.718-.417-2.477-17.484-7.729-34.635-15.765-50.708l-26.832 13.416c5.931 11.862 10.012 24.442 12.247 37.292-97.237-6.642-187.732 49.589-218.446 143.167 0-.001-18.45 55.57-18.45 55.57v43.263h51.358l94.113 30.882c47.652 15.635 99.85 14.778 146.978-2.425 63.272-22.751 114.641-75.426 135.788-139.253 0 0 29.275-86.948 29.275-86.948-21.503-10.784-44.048-20.789-67.12-27.685zm-68.275 57.327c4.162-13.132 6.661-26.694 7.481-40.345 10.396 1.509 20.728 3.493 30.947 5.942-1.015 13.917-4.15 27.699-9.412 40.802-9.583-2.514-19.266-4.647-29.016-6.399zm-17.118 36.603c0 45.49-37.01 82.5-82.5 82.5-46.52.1-84.216-38.98-82.443-85.462 10.028-3.403 20.398-5.933 31.015-7.524-6.895 31.968 18.687 63.359 51.429 62.986 33.33.434 59.17-32.252 51.07-64.554 10.342.527 20.667 1.52 30.93 2.983.327 3.002.499 6.03.499 9.071zm-63.785-12.5c10.005 14.623-.932 35.167-18.716 35-17.79.154-28.712-20.347-18.707-35zm58.519-67.455c-.683 13.303-3.293 26.522-7.848 39.178-9.658-.933-19.348-1.489-29.038-1.66 3.447-12.448 5.42-25.23 5.918-38.063 9.83-.016 21.227-.073 30.968.545zm-82.902-.545h21.925c-.61 12.886-3.038 25.695-7.28 38h-33.535c-48.921-.086-97.577 17.6-134.872 49.273 31.79-53.39 89.682-87.273 153.762-87.273zm137.903 165.348c-50.413 52.603-130.882 72.297-199.91 49.028 0 .001-98.67-32.376-98.67-32.376h-26.155v-5.253c22.629-36.686 42.221-65.025 80.466-86.063 18.308 143.554 223.298 131.765 224.477-13.506 21.44 5.047 42.399 12.132 62.444 21.167-9.434 24.902-24.075 47.952-42.652 67.003zm52.403-95.495c-8.928-3.941-18.015-7.534-27.236-10.762 5.101-13.307 8.433-27.158 9.982-41.179 10.428 3.496 20.685 7.484 30.713 11.963z"/><path d="m482 6.139-26.832 13.416 14.146 28.292h-25.46l-20.854-41.708-26.832 13.416 14.146 28.292h-27.46l-20.854-41.708-26.832 13.416 14.146 28.292h-165.314v-30h-139c-24.813 0-45 20.187-45 45s20.187 45 45 45h139v-30h165.314l-14.146 28.292 26.832 13.416 20.854-41.708h27.46l-14.146 28.292 26.832 13.416 20.854-41.708h25.46l-14.146 28.292 26.832 13.416 29-56.708zm-328 71.708h-109c-8.271 0-15-6.729-15-15s6.729-15 15-15h109z"/></g></svg>