<svg id="Capa_1" enable-background="new 0 0 512 512" height="512" viewBox="0 0 512 512" width="512" xmlns="http://www.w3.org/2000/svg"><g><path d="m467 34.82h-306.683l-160.317-28.39v146.779l160.317-28.39h306.683c24.813 0 45-20.187 45-45s-20.187-44.999-45-44.999zm-437 7.389 114 20.187v34.846l-114 20.188zm144 22.611h38v30h-38zm293 30h-225v-30h225c8.271 0 15 6.729 15 15s-6.729 15-15 15z"/><path d="m431.542 185.57h-351.084l-3.571 9.919c-34.843 96.781-34.843 203.381 0 300.162l3.571 9.919h351.084l3.571-9.919c34.844-96.781 34.844-203.381 0-300.162zm-329.857 30h308.63c15.334 46.273 22.224 94.745 20.712 143h-350.055c-1.512-48.255 5.379-96.727 20.713-143zm-18.687 173h158.002v87h-139.315c-9.398-28.359-15.617-57.546-18.687-87zm188.002 87v-87h158.002c-3.07 29.455-9.289 58.641-18.687 87z"/></g></svg>