<svg id="Capa_1" enable-background="new 0 0 512 512" height="512" viewBox="0 0 512 512" width="512" xmlns="http://www.w3.org/2000/svg"><path d="m367.75 364c-9.643 0-18.652 2.751-26.298 7.499-7.842-33.549-22.861-65.165-44.214-92.514 2.414-5.512 3.762-11.593 3.762-17.985 0-7.329-1.772-14.248-4.894-20.369l40.292-76.203c8.637 2.187 17.104 4.731 25.34 7.65v37.922h30v-210h-30v16.45c-66.529-20.951-144.946-20.951-211.475 0v-16.45h-30v210h30v-37.923c8.236-2.919 16.703-5.464 25.34-7.65l40.292 76.203c-3.123 6.122-4.895 13.041-4.895 20.37 0 6.393 1.349 12.473 3.762 17.986-21.354 27.349-36.372 58.966-44.214 92.514-7.646-4.748-16.655-7.499-26.298-7.499-27.57 0-50 22.43-50 50v48c0 27.57 22.43 50 50 50s50-22.43 50-50v-36c0-45.177 14.602-89.004 41.37-124.899 6.124 3.123 13.047 4.898 20.38 4.898 7.334 0 14.257-1.775 20.38-4.9 26.767 35.895 41.37 79.722 41.37 124.9v36c0 27.57 22.43 50 50 50s50-22.43 50-50v-48c0-27.57-22.43-50-50-50zm-6.013-315.932v30.7c-66.529-20.95-144.946-20.95-211.475 0v-30.7c65.635-23.264 145.841-23.264 211.475 0zm-211.474 62.317c65.635-23.264 145.84-23.264 211.475 0v30.074c-66.529-20.951-144.946-20.951-211.475 0zm155.442 47.908-32.354 61.19c-5.342-2.241-11.204-3.483-17.351-3.483s-12.009 1.242-17.351 3.483l-32.354-61.19c32.675-4.872 66.735-4.872 99.41 0zm-141.455 303.707c0 11.028-8.972 20-20 20s-20-8.972-20-20v-48c0-11.028 8.972-20 20-20s20 8.972 20 20zm76.75-201c0-8.271 6.729-15 15-15s15 6.729 15 15-6.729 15-15 15-15-6.729-15-15zm146.75 201c0 11.028-8.972 20-20 20s-20-8.972-20-20v-48c0-11.028 8.972-20 20-20s20 8.972 20 20z"/></svg>