<svg id="Capa_1" enable-background="new 0 0 510.695 510.695" height="512" viewBox="0 0 510.695 510.695" width="512" xmlns="http://www.w3.org/2000/svg"><g><path d="m497.535 13.159c-17.545-17.545-46.094-17.545-63.64 0l-20.884 20.886c-16.985 17.016-36.902 30.488-58.928 40.105-32.114 14.503-54.814 44.487-60.261 79.082l-12.839 12.839-65.053 19.799-215.93 215.93 108.895 108.895 215.93-215.93 19.799-65.054 12.898-12.898c34.318-5.746 63.985-28.53 78.26-60.481 9.526-21.322 22.729-40.508 39.244-57.022l22.51-22.51c17.545-17.547 17.545-46.095-.001-63.641zm-245.366 193.04 32.527-9.9 29.699 29.699-9.9 32.527zm-209.742 195.601 181.458-181.458 66.468 66.468-181.458 181.458zm433.895-346.214-22.51 22.51c-19.113 19.114-34.395 41.318-45.421 65.998-11.367 25.764-36.882 42.606-64.836 44.26l-12.189 12.189-21.213-21.214 12.222-12.222c1.4-29.223 19.409-55.749 46.661-66.791 24.357-11 46.29-26.16 65.19-45.059l20.884-20.886c14.609-13.471 34.715 6.526 21.212 21.215z"/><path d="m78.934 328.952h175.621v30h-175.621z" transform="matrix(.707 -.707 .707 .707 -194.372 218.647)"/></g></svg>