<svg id="Capa_1" enable-background="new 0 0 511.828 511.828" height="512" viewBox="0 0 511.828 511.828" width="512" xmlns="http://www.w3.org/2000/svg"><path d="m461.89 366.567v-220.437c.067-134.998-170.049-197.769-257.442-95.149h-51.907c-56.576 0-102.603 46.027-102.603 102.604v212.982c-40.271 41.381-35.485 108.973 9.166 145.261l89.04-.017v-47.125c65.446-27.63 150.332-27.524 215.503-.016-.002 10.159-.007 37.385.038 47.156h89.041c44.658-36.287 49.425-103.9 9.164-145.259zm-205.976 47.041c-45.954 0-84.883 10.787-107.771 18.952v-175.579c0-19.936 16.219-36.154 36.154-36.154h57.197c5.705 73.428 52.972 137.029 122.152 163.847v47.873c-22.892-8.164-61.803-18.939-107.732-18.939zm184.893 68.219h-47.16v-118.635c-79.258-21.748-127.584-90.976-122.732-172.365h-86.616c-36.478 0-66.154 29.677-66.154 66.154v224.836l-47.124.009c-28.477-30.256-23.648-76.876 8.917-102.226v-226.016c0-40.034 32.569-72.604 72.603-72.604h66.219c22.444-31.496 57.824-51.46 96.827-51.154 64.13.001 116.303 52.174 116.303 116.304v233.47c32.575 25.35 37.386 71.99 8.917 102.227z"/></svg>