<svg id="Capa_1" enable-background="new 0 0 511.858 511.858" height="512" viewBox="0 0 511.858 511.858" width="512" xmlns="http://www.w3.org/2000/svg"><g><path d="m65.863 181.845c0 29.404 23.922 53.326 53.326 53.326 70.744-2.929 70.723-103.734 0-106.652-29.404 0-53.326 23.921-53.326 53.326zm76.652 0c0 12.862-10.464 23.326-23.326 23.326-30.945-1.281-30.936-45.376 0-46.652 12.862 0 23.326 10.463 23.326 23.326z"/><path d="m119.189 62.514c-110.441.401-160.654 137.712-78.359 209.255l-27.133 139.841v37.733h174.787v-61.601c-17.319-26.77-22.522-60.181-12.612-90.407 99.761-10.894 211.444-31.092 232.986-34.769v-161.444c-16.884-2.823-210.685-37.725-289.669-38.608zm39.295 333.259v23.57h-114.787v-4.851l24.234-124.9c23.605 11.702 48.863 12.968 76.137 10.577-7.117 32.244-2.191 66.495 14.416 95.604zm220.374-158.424c-45.316 7.746-202.19 33.828-259.668 33.828-49.257 0-89.332-40.074-89.332-89.332s40.074-89.331 89.332-89.331c57.479 0 214.352 26.082 259.668 33.827z"/><path d="m478.569 107.192c-9.299-2.038-19.837-4.348-39.712-4.348v30c35.537.193 35.335 8.096 73 8v-30c-16.624.001-24.719-1.774-33.288-3.652z"/><path d="m438.858 162.845v30c35.537.193 35.335 8.096 73 8v-30c-35.537-.193-35.336-8.097-73-8z"/><path d="m438.858 222.845v30c35.537.193 35.335 8.096 73 8v-30c-35.537-.193-35.336-8.097-73-8z"/><path d="m261.858 166.845h77v30h-77z"/></g></svg>