<svg id="Capa_1" enable-background="new 0 0 511.587 511.587" height="512" viewBox="0 0 511.587 511.587" width="512" xmlns="http://www.w3.org/2000/svg"><g><path d="m233.285 371.052h30v30h-30z"/><path d="m432.544 438.087c-23.842 0-46.257 9.284-63.115 26.144-11.192 11.192-26.074 17.356-41.902 17.356h-43.971c-11.987.058-21.202-10.419-20.271-22.251 42.771-7.937 70.937-55.616 55.753-97.495l162.15-269.444c14.084-23.405 6.501-53.903-16.902-67.986l-34.669-20.865-16.484 27.392-51.409-30.938-86.833 144.291 51.409 30.938-78.514 130.467-78.514-130.467 51.409-30.938-86.834-144.291-51.409 30.938-16.485-27.392-34.668 20.864c-23.403 14.084-30.986 44.582-16.902 67.987l162.789 270.506c-14.385 41.739 13.762 88.542 56.113 96.433-1.053 28.39 21.807 52.313 50.271 52.251h43.971c23.842 0 46.257-9.284 63.115-26.144 11.192-11.192 26.074-17.356 41.902-17.356h71.741v-30zm-60.584-396.913 25.703 15.469-55.896 92.881-25.703-15.469zm-248.349 0 55.896 92.881-25.703 15.469-55.897-92.881zm316.241 3.546 8.965 5.396c9.23 5.555 12.221 17.583 6.666 26.813l-154.261 256.334c-7.081-7.101-15.584-12.773-25.031-16.587zm-399.764 32.209c-5.601-8.887-2.445-21.585 6.666-26.814 0 0 8.965-5.395 8.965-5.395l163.853 272.276c-9.403 3.924-17.831 9.719-24.835 16.91zm163.4 309.123c0-24.7 20.096-44.796 44.797-44.796 59.43 2.461 59.411 87.141 0 89.593-24.701 0-44.797-20.096-44.797-44.797z"/></g></svg>