<svg id="Capa_1" enable-background="new 0 0 510.7 510.7" height="512" viewBox="0 0 510.7 510.7" width="512" xmlns="http://www.w3.org/2000/svg"><g><path d="m255.35 395.574c-24.878 0-44.651-13.236-44.795-13.333l-17.076 24.666c36.971 24.648 87.189 24.391 123.742 0l-17.022-24.703c-.198.133-19.971 13.37-44.849 13.37z"/><path d="m410.21 63.714c-81.532-84.95-228.191-84.954-309.72.002-80.464 77.358-85.363 214.236-11.32 297.498 25.344 199.389 307.092 199.241 332.36 0 74.043-83.307 69.144-220.124-11.32-297.5zm-294.93 28.1c35.656-14.711 79.562 2.499 95.86 36.7-64.69 17.78-113.8 73.58-121.68 141.75-.01.06-.02.11-.02.16-.55 4.77-.89 9.6-1.03 14.49v.02c-.112 3.141-.042 18.734-.06 22.17-37.687-67.481-24.994-160.759 26.93-215.29zm7.839 211.778c-5.363-12.452-6.41-28.556 0-41.036l20.518 20.518zm41.731.695 20.518 20.518c-12.899 6.329-28.137 6.329-41.036 0zm41.731-.695-20.518-20.518 20.518-20.518c6.329 12.899 6.329 28.137 0 41.036zm-41.731-41.731-20.518-20.518c12.893-6.334 28.143-6.334 41.036 0zm227.5 82.713c-7.723 182.295-267.334 181.455-274-.75 21.711 16.627 50.4 20.161 75.3 10.12 87.698-39.309 44.069-167.295-49.33-144.54 53.165-75.356 168.925-75.323 222.06 0-75.113-20.419-129.807 71.34-74.619 127.761 27.058 27.312 70.839 29.646 100.589 6.659zm-25.287-61.5 20.518-20.518c5.994 12.715 6.284 28.364 0 41.036zm-21.213-21.213-20.518-20.518c12.893-6.334 28.143-6.334 41.036 0zm-41.731.695 20.518 20.518-20.518 20.518c-6.329-12.899-6.329-28.137 0-41.036zm41.731 41.731 20.518 20.518c-12.899 6.329-28.137 6.329-41.036 0zm76.44-19.353c0-.01 0-.02 0-.02-.14-4.89-.48-9.72-1.03-14.49 0-.05-.01-.1-.02-.16-9.643-87.723-89.866-154.978-179.64-147.13-14.27-35.63-46.82-60.81-84.94-65.69 164.368-98.565 353.817 78.822 265.69 249.64-.019-3.535.052-18.92-.06-22.15z"/></g></svg>