<svg id="Capa_1" enable-background="new 0 0 512 512" height="512" viewBox="0 0 512 512" width="512" xmlns="http://www.w3.org/2000/svg"><g><path d="m151.519 211.513h205.481v30h-205.481z"/><path d="m151.519 270.487h205.481v30h-205.481z"/><path d="m512 256c0-36.406-27.939-66.396-63.5-69.687v-48.313h-385v48.313c-35.561 3.291-63.5 33.281-63.5 69.687s27.939 66.396 63.5 69.687v48.313h385v-48.313c35.561-3.291 63.5-33.281 63.5-69.687zm-482 0c0-19.843 14.525-36.357 33.5-39.473v78.945c-18.975-3.115-33.5-19.629-33.5-39.472zm388.5 88h-325v-176h325zm30-48.527v-78.945c18.975 3.115 33.5 19.63 33.5 39.473s-14.525 36.356-33.5 39.472z"/></g></svg>