<svg id="Capa_1" enable-background="new 0 0 512 512" height="512" viewBox="0 0 512 512" width="512" xmlns="http://www.w3.org/2000/svg"><g><path d="m0 30v452h512v-452zm482 422h-452v-392h452z"/><path d="m69.275 398.919 28.116 10.463 12.728-34.207c7.49 1.933 15.613 3.478 24.214 4.348v30.627h30v-30.627c8.732-.883 16.967-2.464 24.552-4.438l12.39 33.297 28.116-10.463-12.212-32.82c13.023-5.854 20.982-11.275 21.692-11.766l-17.042-24.689c-.316.216-32.134 21.656-72.497 21.656s-72.18-21.44-72.462-21.633l-17.076 24.666c.715.495 8.8 6.001 22.011 11.908z"/><path d="m281.942 398.919 28.116 10.463 12.728-34.207c7.49 1.933 15.613 3.478 24.214 4.348v30.627h30v-30.627c8.732-.883 16.967-2.464 24.552-4.438l12.39 33.297 28.116-10.463-12.212-32.82c13.023-5.854 20.982-11.275 21.692-11.766l-17.042-24.689c-.316.215-32.134 21.656-72.496 21.656s-72.18-21.44-72.462-21.633l-17.076 24.666c.715.495 8.8 6 22.011 11.908z"/><path d="m69.275 285.919 28.116 10.463 12.728-34.207c7.49 1.933 15.613 3.478 24.214 4.348v30.627h30v-30.627c8.732-.883 16.967-2.464 24.552-4.438l12.39 33.297 28.116-10.463-12.212-32.82c13.023-5.854 20.982-11.275 21.692-11.766l-17.042-24.689c-.316.216-32.134 21.656-72.497 21.656s-72.18-21.44-72.462-21.633l-17.076 24.666c.715.495 8.8 6.001 22.011 11.908z"/><path d="m281.942 285.919 28.116 10.463 12.728-34.207c7.49 1.933 15.613 3.478 24.214 4.348v30.627h30v-30.627c8.732-.883 16.967-2.464 24.552-4.438l12.39 33.297 28.116-10.463-12.212-32.82c13.023-5.854 20.982-11.275 21.692-11.766l-17.042-24.689c-.316.215-32.134 21.656-72.496 21.656s-72.18-21.44-72.462-21.633l-17.076 24.666c.715.495 8.8 6.001 22.011 11.908z"/><path d="m69.275 172.919 28.116 10.463 12.728-34.207c7.49 1.933 15.613 3.478 24.214 4.348v30.627h30v-30.627c8.732-.883 16.967-2.464 24.552-4.438l12.39 33.297 28.116-10.463-12.212-32.82c13.023-5.854 20.982-11.275 21.692-11.766l-17.042-24.689c-.316.216-32.134 21.656-72.497 21.656s-72.18-21.44-72.462-21.633l-17.076 24.666c.715.495 8.8 6.001 22.011 11.908z"/><path d="m281.942 172.919 28.116 10.463 12.728-34.207c7.49 1.933 15.613 3.478 24.214 4.348v30.627h30v-30.627c8.732-.883 16.967-2.464 24.552-4.438l12.39 33.297 28.116-10.463-12.212-32.82c13.023-5.854 20.982-11.275 21.692-11.766l-17.042-24.689c-.316.215-32.134 21.656-72.496 21.656s-72.18-21.44-72.462-21.633l-17.076 24.666c.715.495 8.8 6.001 22.011 11.908z"/></g></svg>