<svg id="Capa_1" enable-background="new 0 0 512 512" height="512" viewBox="0 0 512 512" width="512" xmlns="http://www.w3.org/2000/svg"><g><path d="m178 0c-27.57 0-50 22.43-50 50v23.636l35 40v284.728l-35 40v23.636c0 27.57 22.43 50 50 50s50-22.43 50-50v-23.636l-35-40v-284.728l35-40v-23.636c0-27.57-22.43-50-50-50zm20 462c0 11.028-8.972 20-20 20s-20-8.972-20-20v-12.364l20-22.856 20 22.856zm0-399.636-20 22.856-20-22.856v-12.364c0-11.028 8.972-20 20-20s20 8.972 20 20z"/><path d="m50 0c-27.57 0-50 22.43-50 50v23.636l35 40v284.728l-35 40v23.636c0 27.57 22.43 50 50 50s50-22.43 50-50v-23.636l-35-40v-284.728l35-40v-23.636c0-27.57-22.43-50-50-50zm20 462c0 11.028-8.972 20-20 20s-20-8.972-20-20v-12.364l20-22.856 20 22.856zm0-399.636-20 22.857-20-22.857v-12.364c0-11.028 8.972-20 20-20s20 8.972 20 20z"/><path d="m512 173.75c0-73.612-59.888-133.5-133.5-133.5s-133.5 59.888-133.5 133.5c0 30.137 9.996 58.886 28.379 82.299-17.771 22.677-28.379 51.223-28.379 82.201 0 73.612 59.888 133.5 133.5 133.5s133.5-59.888 133.5-133.5c0-30.978-10.608-59.524-28.379-82.201 18.383-23.413 28.379-52.162 28.379-82.299zm-133.5-103.5c57.07 0 103.5 46.43 103.5 103.5 0 22.049-6.901 43.139-19.654 60.698-22.934-18.561-52.112-29.698-83.846-29.698s-60.912 11.137-83.846 29.698c-12.753-17.559-19.654-38.649-19.654-60.698 0-57.07 46.43-103.5 103.5-103.5zm0 371.5c-57.07 0-103.5-46.43-103.5-103.5s46.43-103.5 103.5-103.5 103.5 46.43 103.5 103.5-46.43 103.5-103.5 103.5z"/></g></svg>