<svg id="Capa_1" enable-background="new 0 0 512 512" height="512" viewBox="0 0 512 512" width="512" xmlns="http://www.w3.org/2000/svg"><g><path d="m.44 30h45v30h-45v30h45v30h-45v30h45v103h-45v259h119.999v-259h-44.999v-103h44.999v-30h-44.999v-30h44.999v-30h-44.999v-30h44.999v-30h-119.999zm89.999 452h-59.999v-199h59.999z"/><path d="m285.885 0h-58.891c-16.687 0-32.226 7.48-42.634 20.523-10.407 13.043-14.253 29.854-10.55 46.125l21.733 95.497 19.37 310.836c1.365 21.88 19.605 39.019 41.527 39.019s40.162-17.139 41.525-39.019l19.37-310.836 21.733-95.497c3.703-16.271-.143-33.082-10.55-46.125-10.407-13.043-25.946-20.523-42.633-20.523zm-78.075 39.235c4.684-5.869 11.676-9.235 19.185-9.235h58.891c7.509 0 14.501 3.366 19.185 9.235s6.413 13.434 4.747 20.755l-19.348 85.01h-68.06l-19.347-85.01c-1.666-7.321.063-14.886 4.747-20.755zm18.594 135.765h60.072l-3.116 50h-53.84zm30.036 307c-6.115 0-11.203-4.781-11.584-10.884l-13.467-216.116h50.102l-13.467 216.116c-.381 6.103-5.469 10.884-11.584 10.884z"/><path d="m491.023 145.983 20.537-102.332-139.669-42.958v25.254l31.827 120.497-20.235 297.153c-1.2 17.637 5.031 35.161 17.1 48.078 12.067 12.917 29.125 20.325 46.803 20.325 17.677 0 34.736-7.408 46.804-20.325s18.301-30.44 17.101-48.078zm-58.158 14.017h29.043l7.082 104h-43.207zm43.943-95.651-13.176 65.651h-33.229l-22.978-86.99zm-4.54 406.846c-6.51 6.968-15.346 10.805-24.882 10.805s-18.373-3.838-24.882-10.806c-6.51-6.968-9.738-16.045-9.09-25.56l10.326-151.634h47.293l10.326 151.635c.648 9.514-2.581 18.592-9.091 25.56z"/></g></svg>