<svg id="Capa_1" enable-background="new 0 0 512 512" height="512" viewBox="0 0 512 512" width="512" xmlns="http://www.w3.org/2000/svg"><g><path d="m353.5 138.057v-60.057h-24v-78h-90v78h-24v60.057c-30.527 1.18-55 26.37-55 57.18v316.763h248v-316.763c0-30.811-24.473-56-55-57.18zm-108-30.057h78v30h-78zm24-78h30v48h-30zm109 452h-188v-286.763c0-15.019 12.218-27.237 27.236-27.237h133.527c15.019 0 27.236 12.218 27.236 27.237v286.763z"/><path d="m338.746 271.683-21.213-21.213-18.033 18.033v-25.503h-30v25.503l-18.033-18.033-21.213 21.213 18.033 18.032h-25.503v30h25.503l-18.033 18.034 21.213 21.212 18.033-18.033v25.503h30v-25.503l18.033 18.033 21.213-21.212-18.033-18.034h25.503v-30h-25.503z"/><path d="m103.5 60h30v30h-30z"/><path d="m133.5 30h30v30h-30z"/><path d="m103.5 0h30v30h-30z"/><path d="m252.938 414.418h63.125v30h-63.125z"/></g></svg>