<svg id="Capa_1" enable-background="new 0 0 510 510" height="512" viewBox="0 0 510 510" width="512" xmlns="http://www.w3.org/2000/svg"><g><path d="m510 134.5h-120v-60h-41.011c-12.662-40.65-50.367-69-93.989-69s-81.327 28.35-93.989 69h-41.011v60h-120v62c0 10.689 3.752 20.513 10 28.241v279.759h490v-279.759c6.248-7.728 10-17.552 10-28.241zm-60 30h30v32c0 8.271-6.729 15-15 15s-15-6.729-15-15zm-30 0v32c0 8.271-6.729 15-15 15s-15-6.729-15-15v-32zm-60 32c0 8.271-6.729 15-15 15s-15-6.729-15-15v-32h30zm-60 0c0 8.271-6.729 15-15 15s-15-6.729-15-15v-32h30zm-60 0c0 8.271-6.729 15-15 15s-15-6.729-15-15v-32h30zm-60 0c0 8.271-6.729 15-15 15s-15-6.729-15-15v-32h30zm-30-92h35.382l2.175-12.412c5.744-32.789 34.108-56.588 67.443-56.588s61.699 23.799 67.443 56.588l2.175 12.412h35.382v30h-210zm-60 60h30v32c0 8.271-6.729 15-15 15s-15-6.729-15-15zm-60 0h30v32c0 8.271-6.729 15-15 15s-15-6.729-15-15zm290 310v-159h90v159zm120 0v-189h-150v189h-250v-233.284c1.643.182 3.309.284 5 .284 11.517 0 22.032-4.353 30-11.495 7.968 7.141 18.483 11.495 30 11.495s22.032-4.353 30-11.495c7.968 7.141 18.483 11.495 30 11.495s22.032-4.353 30-11.495c7.968 7.141 18.483 11.495 30 11.495s22.032-4.353 30-11.495c7.968 7.141 18.483 11.495 30 11.495s22.032-4.353 30-11.495c7.968 7.141 18.483 11.495 30 11.495s22.032-4.353 30-11.495c7.968 7.141 18.483 11.495 30 11.495s22.032-4.353 30-11.495c7.968 7.141 18.483 11.495 30 11.495 1.691 0 3.357-.102 5-.284v233.284z"/><path d="m70 415.5h190v-130h-190zm30-100h130v70h-130z"/><path d="m350 345.5h30v30h-30z"/></g></svg>