<svg id="Capa_1" enable-background="new 0 0 511.929 511.929" height="512" viewBox="0 0 511.929 511.929" width="512" xmlns="http://www.w3.org/2000/svg"><g><path d="m496.775 149.397c-20.204-20.204-53.078-20.204-73.283-.003-13.812 13.813-15.989 26.872-17.578 36.408-1.363 8.176-2.185 13.111-9.2 20.126s-11.95 7.837-20.126 9.199c-9.536 1.59-22.595 3.767-36.409 17.58s-15.99 26.872-17.579 36.408c-1.363 8.176-2.185 13.111-9.2 20.126-7.017 7.017-11.953 7.84-20.13 9.203-9.536 1.59-22.596 3.767-36.41 17.581s-15.992 26.874-17.582 36.41c-1.363 8.174-2.185 13.109-9.195 20.122-7.017 7.017-11.953 7.84-20.13 9.203-9.536 1.59-22.596 3.767-36.41 17.581l21.213 21.213c14.987-15.643 32.055-2.436 56.532-26.777 24.501-24.754 10.997-41.267 26.784-56.54 15.127-15.71 31.957-2.375 56.54-26.784 24.447-24.656 11.037-41.344 26.779-56.534 15.246-15.772 31.814-2.297 56.535-26.779 24.393-24.558 11.088-41.447 26.778-56.534 21.289-19.603 50.485 9.527 30.856 30.863 0 0-287.888 287.888-287.888 287.888l21.213 21.213 287.888-287.888c20.207-20.204 20.207-53.08.002-73.285z"/><path d="m198.506 222.687c7.017-7.017 11.953-7.84 20.13-9.203 28.16-2.965 51.046-25.952 53.991-53.992 1.363-8.173 2.185-13.109 9.195-20.122 15.214-15.758 31.845-2.316 56.54-26.784l-21.212-21.213c-14.987 15.643-32.055 2.436-56.532 26.777-24.501 24.754-10.997 41.267-26.784 56.54-15.127 15.71-31.957 2.375-56.54 26.784-24.447 24.656-11.037 41.344-26.779 56.534-15.246 15.772-31.814 2.297-56.535 26.779-24.393 24.558-11.088 41.447-26.778 56.534-21.289 19.603-50.485-9.527-30.856-30.863 0 0 287.888-287.888 287.888-287.888l-21.215-21.212-287.888 287.888c-32.613 32.465-8.878 88.751 36.644 88.439 13.269 0 26.537-5.05 36.64-15.15 24.484-24.728 11.003-41.279 26.777-56.534 7.015-7.015 11.951-7.837 20.127-9.199 28.066-2.924 51.069-25.942 53.987-53.989 1.363-8.176 2.185-13.111 9.2-20.126z"/></g></svg>