<svg id="Capa_1" enable-background="new 0 0 512 512" height="512" viewBox="0 0 512 512" width="512" xmlns="http://www.w3.org/2000/svg"><g><path d="m383.88 310.902c43.083-20.726 80.828-52.151 109.544-91.306l16.109-21.965-81.283-113.187c-20.306-28.277-50.446-46.72-84.866-51.931-30.77-4.658-61.399 1.796-87.384 18.219-25.986-16.422-56.612-22.872-87.384-18.219-34.42 5.211-64.56 23.653-84.866 51.931l-81.284 113.188 16.109 21.965c34.976 47.689 82.53 83.309 137.52 103.005 32.186 11.529 65.913 17.337 99.791 17.336 18.22 0 36.485-1.7 54.571-5.074 4.23 3.691 9.149 6.606 14.543 8.519v137.58h30v-137.58c14.409-5.112 25.456-17.363 28.88-32.481zm-127.88-104.736c-10.292-12.951-25.117-22.132-42.061-25.128 11.614-10.307 26.427-15.949 42.061-15.949s30.446 5.642 42.061 15.949c-16.944 2.996-31.769 12.177-42.061 25.128zm-89.788 88.193c-49.335-17.672-92.022-49.659-123.445-92.505l-3.233-4.408 68.583-95.503c15.55-21.654 38.63-35.777 64.989-39.768 26.36-3.987 52.584 2.669 73.846 18.75l9.048 6.843 9.048-6.843c21.262-16.082 47.486-22.74 73.846-18.75 26.358 3.99 49.439 18.113 64.989 39.768l68.583 95.503-3.233 4.408c-22.615 30.835-51.437 56.321-84.233 74.67v-51.562c0-5.259-.915-10.305-2.58-15h37.58v-30h-54.158c-16.712 0-32.487-6.444-44.418-18.146-17.574-17.236-40.809-26.727-65.424-26.727s-47.85 9.491-65.424 26.728c-11.932 11.701-27.707 18.146-44.418 18.146h-54.158v30h109.874c21.574 0 39.126 17.552 39.126 39.126h30c0-16.907 10.781-31.341 25.828-36.796-1.182 4.021-1.828 8.271-1.828 12.67v76c0 2.046.15 4.056.416 6.03-43.458 6.496-87.763 2.209-129.204-12.634zm188.788 6.603c0 8.271-6.729 15-15 15s-15-6.729-15-15v-76c0-8.271 6.729-15 15-15s15 6.729 15 15z"/><path d="m482 342.379v-29.845h-30v29.845h-29.925v30h30v-29.845h29.925v29.845h30v-30z"/><path d="m452 372.534h30v30h-30z"/><path d="m59.925 312.534h-30v29.845h-29.925v30h30v-29.845h29.925v29.845h30v-30h-30z"/><path d="m29.925 372.534h30v30h-30z"/></g></svg>