<svg id="Capa_1" enable-background="new 0 0 512 512" height="512" viewBox="0 0 512 512" width="512" xmlns="http://www.w3.org/2000/svg"><path d="m482 58v30h-31v-17c0-24.813-20.187-45-45-45h-300c-24.813 0-45 20.187-45 45v17h-31v-30h-30v90h30v-30h31v264h60v59 15 30h30v-30h30v30h30v-30h30v30h30v-30h30v30h30v-30h30v30h30v-30h30v30h30v-30-15-323h31v30h30v-90zm-76-2c8.271 0 15 6.729 15 15v281h-270v-281c0-5.257-.906-10.307-2.57-15zm-315 15c0-8.271 6.729-15 15-15s15 6.729 15 15v17h-30zm0 281v-234h30v234zm60 30h270v44h-270z"/></svg>