<svg id="Capa_1" enable-background="new 0 0 512 512" height="512" viewBox="0 0 512 512" width="512" xmlns="http://www.w3.org/2000/svg"><g><path d="m167.5 45.5c0-25.089-20.411-45.5-45.5-45.5s-45.5 20.411-45.5 45.5v40.5h-38v90h38v128.003l30.5 32v27.997h30v-27.997l30.5-32v-128.003h38v-90h-38zm-61 0c0-8.547 6.953-15.5 15.5-15.5s15.5 6.953 15.5 15.5v40.5h-31zm31 246.497-15.5 16.262-15.5-16.262v-115.997h31zm38-145.997h-107v-30h107z"/><path d="m133.21 406.146-11.31-12.98-11.31 12.98c-.327.375-8.105 9.327-15.966 20.52-15.887 22.621-17.724 33.854-17.724 40.334 0 24.813 20.187 45 45 45s45-20.187 45-45c0-6.48-1.837-17.713-17.725-40.334-7.86-11.192-15.638-20.145-15.965-20.52zm-11.31 75.854c-8.271 0-15-6.729-15-14.976.154-4.231 6.499-15.32 15.006-26.967 8.495 11.625 14.83 22.704 14.994 26.958-.007 8.264-6.734 14.985-15 14.985z"/><path d="m443.5 212.658v-71.994h-184v71.994c-18.916 16.117-30 39.853-30 64.962v234.38h244v-234.38c0-25.109-11.084-48.845-30-64.962zm-160.398 19.63 6.398-4.479v-57.146h124v57.146l6.398 4.479c14.778 10.346 23.602 27.292 23.602 45.332v1.38h-184v-1.38c0-18.04 8.823-34.986 23.602-45.332zm160.398 76.712v113h-184v-113zm-184 173v-30h184v30z"/><path d="m336.5 338.999h30v53h-30z"/></g></svg>