<svg id="Capa_1" enable-background="new 0 0 512 512" height="512" viewBox="0 0 512 512" width="512" xmlns="http://www.w3.org/2000/svg"><g><path d="m256 409c-16.24 0-29.292-8.663-29.345-8.698l-17.076 24.666c2.074 1.436 21.002 14.032 46.421 14.032s44.347-12.596 46.421-14.032l-16.999-24.719c-.13.088-13.182 8.751-29.422 8.751z"/><path d="m482 29.845v-29.845h-30v29.845h-29.925v30h30v-29.845h29.925v29.845h30v-30z"/><path d="m452 60h30v30h-30z"/><path d="m30 30h29.925v29.845h30v-30h-30v-29.845h-30v29.845h-29.925v30h30z"/><path d="m29.925 60h30v30h-30z"/><path d="m439 188.495c0-71.961-58.545-130.506-130.507-130.506-38.13 0-73.774 16.334-98.596 45h-44.834c-50.764 0-92.063 41.3-92.063 92.063v186.635c-15.398 16.232-24.168 37.885-24.271 60.408-.113 24.844 10.325 48.72 28.646 65.515l4.795 4.39h347.658l4.803-4.396c18.313-16.788 28.752-40.664 28.639-65.508-.103-22.523-8.872-44.176-24.271-60.408v-193.193zm-275.967 200.535-.016-71.059c-.004-17.356 6.752-33.675 19.023-45.949 12.271-12.273 28.588-19.033 45.944-19.033h13.462c2.29 31.837 13.327 62.087 32.263 88.139 19.109 26.291 44.764 46.248 74.688 58.217-5.145 46.426-44.621 82.655-92.397 82.655-51.262 0-92.967-41.705-92.967-92.97zm254.835 92.97h-81.466c26.056-22.565 42.565-55.874 42.565-92.967v-10.902l-10.37-3.365c-58.376-18.942-97.597-72.902-97.597-134.274v-17.503h-43.015c-25.371 0-49.222 9.881-67.16 27.823-17.938 17.941-27.813 41.795-27.808 67.165l.016 71.056c0 37.093 16.509 70.402 42.565 92.967h-81.465c-10.036-10.839-15.472-24.783-15.403-39.768.075-16.646 6.932-31.947 19.305-43.083l4.966-4.469v-199.627c0-34.222 27.842-62.063 62.063-62.063h59.121l5.846-7.304c19.178-23.956 47.776-37.696 78.463-37.696 55.42 0 100.507 45.087 100.507 100.506v206.186l4.966 4.469c12.373 11.136 19.229 26.437 19.305 43.083.067 14.986-5.37 28.931-15.404 39.766z"/></g></svg>