<svg id="Capa_1" enable-background="new 0 0 509.055 509.055" height="512" viewBox="0 0 509.055 509.055" width="512" xmlns="http://www.w3.org/2000/svg"><g><path d="m301.995 28.98c-52.583-20.542-111.905-18.262-162.84 6.302l-139.155 68.204 44.958 71.312 213.686-81.939c39.355-15.093 82.529-15.396 122.013-.938l117.477 45.896 10.921-27.941zm-54.093 35.867-190.697 73.125-14.021-22.242 109.088-53.469c41.308-19.918 89.174-22.631 132.382-7.701-12.449 2.257-24.753 5.686-36.752 10.287z"/><path d="m398.039 386.47c19.646-12.429 31.408-22.851 32.611-23.933l-20.046-22.318c-.265.237-10.755 9.48-28.586 20.719l-113.56-180.975-67.155-25.595-10.685 28.033 57.768 22.017 100.667 160.428-160.428-100.667-22.017-57.767-28.033 10.684 25.595 67.155 164.432 103.18c-22.221 8.18-47.785 14.118-75.177 14.118-87.595 0-156.493-60.717-157.163-61.316l-20.062 22.305c1.242 1.118 13.756 12.205 34.592 25.177l-29.192 43.875 24.977 16.619 30.476-45.804c11.241 5.611 23.781 11.022 37.396 15.631l-18.703 50.516 28.134 10.416 19.579-52.882c11.171 2.417 22.857 4.152 34.967 4.956v54.344h30v-54.344c12.828-.851 25.179-2.747 36.947-5.392l19.741 53.318 28.134-10.416-18.942-51.161c9.062-3.14 17.631-6.631 25.65-10.287l27.231 17.087 69.8 69.8 21.213-21.213-69.802-69.802z"/></g></svg>