<svg id="Capa_1" enable-background="new 0 0 513.368 513.368" height="512" viewBox="0 0 513.368 513.368" width="512" xmlns="http://www.w3.org/2000/svg"><g><path d="m456.169 131.568 29.27-86.94c-85.098-44.007-147.843-45.877-240.68-44.258-90.23-.002-169.95 57.528-198.38 143.168l-18.45 55.57v43.26h51.36l94.11 30.88c47.651 15.64 99.846 14.774 146.98-2.42l.18-.07c.93-.34 1.86-.69 2.78-1.04l-32.41 51.31v192.34h150v-192.34l-55.24-87.46c32.432-26.462 57.13-62.341 70.48-102zm-135.24 208.8h30v143h-30zm60 143v-143h30v143zm17.79-173h-65.58l32.79-51.91zm-153.96-280c72.977-1.052 135.597-1.59 203.77 29.88l-13.46 39.97c-47.26-20.87-99.08-31.85-150.72-31.85h-58.48c-48.902-.083-97.534 17.593-134.84 49.22 31.8-53.36 89.67-87.22 153.73-87.22zm88.17 80.5c0 45.49-37.01 82.5-82.5 82.5-46.536.099-84.209-38.99-82.45-85.48 10.024-3.401 20.41-5.933 31.024-7.522-6.906 31.972 18.678 63.375 51.426 63.002 33.329.433 59.168-32.249 51.071-64.55 10.346.519 20.663 1.52 30.929 2.981.33 2.999.5 6.029.5 9.069zm-63.785-12.5c10.005 14.622-.932 35.168-18.715 35-17.79.155-28.712-20.348-18.707-35zm113.515 97.35c-20.303 20.809-45.424 37.041-72.71 46.98-40.78 14.85-85.95 15.58-127.19 2.05l-98.68-32.38h-26.15v-5.25c22.573-36.632 42.278-65.112 80.46-86.08 18.284 143.56 223.311 131.788 224.48-13.49 21.45 5.05 42.41 12.14 62.46 21.18-9.43 24.9-24.09 47.94-42.67 66.99z"/></g></svg>