<svg id="Capa_1" enable-background="new 0 0 511.867 511.867" height="512" viewBox="0 0 511.867 511.867" width="512" xmlns="http://www.w3.org/2000/svg"><path d="m451.933 238.867v-60h-41.847l64.634-103.965c14.248-22.92 7.214-53.191-15.683-67.48-22.937-14.312-53.238-7.297-67.55 15.638l-97.23 155.807h-234.324v60h-43v221.616c0 28.333 23.05 51.384 51.383 51.384h375.234c28.333 0 51.384-23.051 51.384-51.384v-221.616zm-34.995-199.925c2.69-4.312 6.899-7.318 11.852-8.464 4.949-1.148 10.054-.296 14.365 2.395 8.886 5.546 11.616 17.295 6.086 26.19l-74.481 119.804h-45.14zm-327.005 169.925h332v30h-332zm272.579 166.5c0 10.596-1.564 20.833-4.461 30.5h-32.029c.516-15.151 3.501-30.273 8.727-44.011l1.011-2.658-28.041-10.662-1.01 2.655c-6.604 17.36-10.194 35.732-10.706 54.676h-30.028c.445-29.538 6.878-58.147 19.174-85.081l2.123-4.651-27.291-12.457-2.123 4.65c-14.093 30.871-21.435 63.672-21.883 97.539h-28.985c.291-20.425 2.631-40.859 6.864-59.361l.753-3.294-29.245-6.689-.753 3.294c-4.796 20.963-7.365 43.164-7.649 66.051h-23.146c-2.897-9.667-4.461-19.904-4.461-30.5 0-58.725 47.811-106.5 106.579-106.5 58.769-.001 106.58 47.774 106.58 106.499zm-106.579 106.5c-36.296 0-68.406-18.228-87.661-46h175.321c-19.254 27.771-51.364 46-87.66 46zm-187.616 0c-11.791 0-21.383-9.593-21.383-21.384v-191.616h123.674c-31.224 25.037-51.253 63.472-51.253 106.5s20.03 81.463 51.253 106.5zm396.616-21.384c0 11.791-9.593 21.384-21.384 21.384h-102.29c31.223-25.037 51.253-63.472 51.253-106.5s-20.03-81.463-51.253-106.5h123.674z"/></svg>