<svg id="Capa_1" enable-background="new 0 0 512 512" height="512" viewBox="0 0 512 512" width="512" xmlns="http://www.w3.org/2000/svg"><g><path d="m410.812 297.149 54.959-181.269-7.79-6.354c-1.535-1.252-35.646-28.724-87.991-44.411.645-5.86 1.285-11.635 1.917-17.303l1.092-9.789-8.548-4.893c-65.883-37.705-151.02-37.705-216.902 0l-8.847 5.063 3.848 26.758c-52.652 15.659-86.991 43.318-88.531 44.574l-7.79 6.354 54.959 181.269h-101.188v210h512v-210h-101.188zm20.24-170.149-51.588 170.148h-33.504c7.649-77.297 14.489-143.866 20.72-201.642 30.051 9.788 52.981 23.734 64.372 31.494zm-90.079-72.433c-7.397 66.839-15.658 146.482-25.159 242.582h-44.814v-113h-30v113h-34.751l-34.907-242.74c52.545-26.233 117.133-26.179 169.631.158zm-260.032 72.41c11.541-7.889 34.977-22.145 65.93-31.973l29.069 202.145h-43.404zm401.059 350.172h-452v-150h452z"/><path d="m256 447.149c40.477 0 71-19.346 71-45s-30.523-45-71-45-71 19.346-71 45 30.523 45 71 45zm0-60c26.902 0 41 11.146 41 15s-14.098 15-41 15-41-11.146-41-15 14.098-15 41-15z"/></g></svg>