<svg id="Capa_1" enable-background="new 0 0 511.36 511.36" height="512" viewBox="0 0 511.36 511.36" width="512" xmlns="http://www.w3.org/2000/svg"><g><path d="m490.147 169.705-28.992 28.991-21.213-21.213 28.991-28.992-21.213-21.213-28.991 28.992-21.214-21.213 28.991-28.992-21.213-21.213-28.991 28.992-21.214-21.214h.001l28.991-28.991-21.213-21.213-28.992 28.992-21.213-21.214 28.991-28.991-21.212-21.213-63.04 63.04c-16.316 16.316-16.316 42.866 0 59.182l23.442 23.442-21.214 21.213-53.033-53.033-167.119 167.12c-52.636 52.637-52.636 138.282 0 190.919 26.318 26.318 60.889 39.477 95.459 39.477 34.571 0 69.142-13.159 95.46-39.477l167.119-167.12-53.033-53.033 21.214-21.214 23.442 23.442c7.903 7.903 18.413 12.257 29.591 12.257s21.687-4.353 29.591-12.257l63.04-63.039zm-429.457 132.471 91.459-91.459 6.054 6.055c4.049 4.049 6.279 9.433 6.279 15.159s-2.23 11.11-6.279 15.159l-128.204 128.204c.283-26.511 10.508-52.934 30.691-73.118zm148.493 148.494c-20.183 20.184-46.607 30.409-73.118 30.691l128.205-128.206c8.359-8.359 21.958-8.358 30.317 0l6.055 6.054zm145.906-145.907-33.234 33.234-6.055-6.055c-9.715-9.715-22.632-15.066-36.371-15.066-13.74 0-26.657 5.351-36.372 15.066l-143.373 143.374c-14.246-5.053-27.613-13.266-38.994-24.646-11.381-11.381-19.593-24.748-24.646-38.994l143.372-143.372c9.716-9.715 15.066-22.633 15.066-36.373s-5.351-26.657-15.066-36.372l-6.054-6.054 33.234-33.234zm-31.82-74.246-42.427-42.427 21.214-21.213 42.427 42.427zm103.838 2.228c-2.238 2.238-5.214 3.471-8.378 3.471-3.165 0-6.14-1.232-8.378-3.47l-131.737-131.737c-4.619-4.62-4.619-12.137 0-16.756l12.836-12.836 148.492 148.493z"/><path d="m151.092 310.269h70v30h-70z" transform="matrix(.707 -.707 .707 .707 -175.495 226.856)"/></g></svg>