<svg id="Capa_1" enable-background="new 0 0 511.997 511.997" height="512" viewBox="0 0 511.997 511.997" width="512" xmlns="http://www.w3.org/2000/svg"><g><path d="m411.302 490.784-44.997-44.997v-86.491l38.222-54.147v-185.04c-.001-66.228-53.881-120.109-120.11-120.109-50.173 0-93.26 30.925-111.201 74.712-7.385-4.874-16.224-7.712-25.715-7.712-25.809 0-46.806 20.997-46.806 46.806v192.53l50.962 54.147v106.517h193.435l44.997 44.997zm-74.997-53.784h-154.648v-88.413l-50.962-54.147v-180.634c0-9.267 7.539-16.806 16.807-16.806 9.267 0 16.806 7.539 16.806 16.806h.163c-.108 2.088-.163 96.194-.163 96.194h30v-89.891c0-49.686 40.422-90.109 90.109-90.109s90.109 40.423 90.109 90.109v175.518l-38.222 54.147v87.226z"/><path d="m305.695 100.274h30v30h-30z"/><path d="m229.695 146h30v30h-30z"/><path d="m243.695 324h30v30h-30z"/><path d="m305.695 225h30v30h-30z"/><path d="m197.695 252h30v30h-30z"/></g></svg>