<svg id="Capa_1" enable-background="new 0 0 512.12 512.12" height="512" viewBox="0 0 512.12 512.12" width="512" xmlns="http://www.w3.org/2000/svg"><g><path d="m487.06 172.12h-176.748c6.244-9.891 9.874-21.589 9.874-34.126 0-8.841-2.719-25.871-26.23-71.484-12.363-23.986-24.527-44.265-25.039-45.117l-12.857-21.393-12.857 21.393c-.512.852-12.676 21.13-25.039 45.117-23.511 45.613-26.23 62.643-26.23 71.484 0 12.537 3.63 24.235 9.874 34.126h-176.748v90h28.431v9.986c0 59.219 13.874 118.579 40.123 171.663l4.129 8.352h30.02l-12 60h280.594l-12-60h30.02l4.129-8.352c26.249-53.084 40.123-112.444 40.123-171.663v-9.985h28.431zm-265.126-34.126c0-3.119 1.646-16.49 22.827-57.604 3.886-7.543 7.794-14.777 11.3-21.106 3.482 6.287 7.363 13.47 11.229 20.971 21.245 41.217 22.896 54.615 22.896 57.739 0 18.817-15.309 34.126-34.126 34.126s-34.126-15.309-34.126-34.126zm-166.874 64.126h402v30h-402zm304.703 280h-207.406l6-30h195.406zm68.866-210.015c0 51.547-11.394 103.208-33.021 150.015h-279.096c-21.627-46.806-33.021-98.467-33.021-150.014v-9.986h345.138z"/><path d="m231.748 392.12h48.623c40.481 0 73.416-32.934 73.416-73.416v-26.584h-39.311c-23.807 0-44.993 11.398-58.416 29.014-13.423-17.617-34.609-29.014-58.416-29.014h-39.311v26.584c0 40.482 32.934 73.416 73.415 73.416zm82.728-70h9.178c-1.748 22.349-20.493 40-43.282 40h-9.179c1.748-22.349 20.493-40 43.283-40zm-116.832 0c22.79 0 41.535 17.651 43.283 40h-9.179c-22.79 0-41.534-17.651-43.282-40z"/></g></svg>