<svg id="Capa_1" enable-background="new 0 0 511.805 511.805" height="512" viewBox="0 0 511.805 511.805" width="512" xmlns="http://www.w3.org/2000/svg"><g><path d="m498.438 86.809-23.006-23.006c-30.364-30.364-70.735-47.086-113.676-47.086s-83.312 16.722-113.676 47.086l-7.812 7.812-37.014-71.615-203.243 203.244 71.615 37.013-7.812 7.812c-62.681 62.681-62.681 164.671 0 227.352l23.006 23.006c8.626 8.627 20.096 13.378 32.296 13.378s23.669-4.751 32.295-13.378c17.808-17.808 17.808-46.783 0-64.591-6.111-6.111-6.111-16.054 0-22.165 2.96-2.96 6.896-4.591 11.083-4.591 4.186 0 8.122 1.63 11.083 4.591 8.626 8.626 20.096 13.377 32.296 13.377s23.669-4.751 32.296-13.377c17.807-17.808 17.807-46.784 0-64.591-6.111-6.111-6.111-16.054 0-22.166 6.112-6.11 16.055-6.11 22.166 0 17.808 17.809 46.783 17.808 64.591 0 8.627-8.626 13.378-20.096 13.378-32.296s-4.751-23.669-13.378-32.295c-6.111-6.111-6.111-16.054 0-22.165 6.111-6.112 16.054-6.111 22.166 0 17.808 17.809 46.784 17.809 64.591 0 17.808-17.808 17.808-46.783 0-64.591-6.111-6.111-6.111-16.054 0-22.166 2.96-2.96 6.896-4.59 11.083-4.59s8.123 1.63 11.083 4.591c8.626 8.626 20.096 13.377 32.295 13.377 12.2 0 23.669-4.751 32.296-13.377 17.806-17.81 17.806-46.785-.002-64.593zm-21.213 43.379c-6.112 6.111-16.055 6.11-22.166 0-8.626-8.627-20.096-13.377-32.296-13.377s-23.669 4.751-32.295 13.378c-8.626 8.626-13.377 20.096-13.377 32.295s4.751 23.669 13.377 32.295c6.111 6.111 6.111 16.055 0 22.166-6.111 6.11-16.054 6.11-22.166 0-17.808-17.808-46.784-17.808-64.591 0-17.808 17.808-17.808 46.784 0 64.592 2.96 2.96 4.591 6.896 4.591 11.082 0 4.187-1.63 8.123-4.591 11.083-6.112 6.111-16.055 6.11-22.166 0-17.808-17.809-46.783-17.809-64.591 0-8.626 8.626-13.377 20.096-13.377 32.295 0 12.2 4.751 23.669 13.377 32.296 6.111 6.111 6.111 16.054 0 22.166-6.111 6.111-16.054 6.112-22.165 0-8.626-8.627-20.096-13.378-32.296-13.378s-23.67 4.751-32.296 13.378c-17.808 17.808-17.808 46.783 0 64.591 6.111 6.111 6.111 16.054 0 22.165-2.96 2.96-6.896 4.591-11.082 4.591-4.187 0-8.123-1.63-11.083-4.591l-23.006-23.006c-50.984-50.984-50.984-133.941 0-184.926l36.833-36.833-71.615-37.013 145.203-145.204 37.013 71.615 36.833-36.833c24.697-24.698 57.535-38.299 92.462-38.299s67.765 13.602 92.463 38.299l23.006 23.006c6.112 6.112 6.112 16.055.001 22.167z"/><path d="m131.776 151.951h67.48v30h-67.48z" transform="matrix(.707 -.707 .707 .707 -69.574 165.937)"/></g></svg>