<svg id="Capa_1" enable-background="new 0 0 511.966 511.966" height="512" viewBox="0 0 511.966 511.966" width="512" xmlns="http://www.w3.org/2000/svg"><g><path d="m31 509.273h450v-330h-450zm30-300h390v270h-390z"/><path d="m136 239.273c-24.813 0-45 20.187-45 45 2.472 59.699 87.537 59.681 90 0 0-24.813-20.187-45-45-45zm0 60c-8.271 0-15-6.729-15-15 .824-19.9 29.179-19.894 30 0 0 8.271-6.729 15-15 15z"/><path d="m136 359.273c-24.813 0-45 20.187-45 45 2.472 59.699 87.537 59.681 90 0 0-24.813-20.187-45-45-45zm0 60c-8.271 0-15-6.729-15-15 .824-19.9 29.179-19.894 30 0 0 8.271-6.729 15-15 15z"/><path d="m256 359.273c-24.813 0-45 20.187-45 45 2.472 59.699 87.537 59.681 90 0 0-24.813-20.187-45-45-45zm0 60c-8.271 0-15-6.729-15-15 .824-19.9 29.179-19.894 30 0 0 8.271-6.729 15-15 15z"/><path d="m376 359.273c-24.813 0-45 20.187-45 45 2.472 59.699 87.537 59.681 90 0 0-24.813-20.187-45-45-45zm0 60c-8.271 0-15-6.729-15-15 .824-19.9 29.179-19.894 30 0 0 8.271-6.729 15-15 15z"/><path d="m256 239.273c-24.813 0-45 20.187-45 45 2.472 59.699 87.537 59.681 90 0 0-24.813-20.187-45-45-45zm0 60c-8.271 0-15-6.729-15-15 .824-19.9 29.179-19.894 30 0 0 8.271-6.729 15-15 15z"/><path d="m376 239.273c-24.813 0-45 20.187-45 45 2.472 59.699 87.537 59.681 90 0 0-24.813-20.187-45-45-45zm0 60c-8.271 0-15-6.729-15-15 .824-19.9 29.179-19.894 30 0 0 8.271-6.729 15-15 15z"/><path d="m508.263 63.765c-23.423-46.857-86.69-63.921-129.969-60.691-4.879 7.124-10.109 15.129-13.729 22.699h-364.565v90h364.565c3.615 7.562 8.855 15.584 13.729 22.699 46.245 3.288 107.404-15.431 129.968-60.692.001.001 3.704-7.008 3.704-7.008zm-478.263 22.008v-30h324.399c-1.861 10.303-1.861 19.697 0 30zm364.72 22.836c-15.479-27.304-15.478-48.368-.001-75.671 17.601.953 60.964 6.538 82.751 37.835-21.794 31.307-65.177 36.885-82.75 37.836z"/></g></svg>