<svg id="Capa_1" enable-background="new 0 0 512 512" height="512" viewBox="0 0 512 512" width="512" xmlns="http://www.w3.org/2000/svg"><g><path d="m190.243 214v-30h25v-30h-25v-30h25v-30h-154v30h30v30h-30v30h30v30h-37.62l-45.866 298h263.971l-45.865-298zm-69-90h39v30h-39zm0 60h39v30h-39zm-78.515 298 36.631-238h120.768l36.631 238z"/><path d="m457.306 185v-60h-37.5v-105l-15-20-15 20v105h-37.5v60h-46.936l15.002 247.527c2.7 44.564 39.788 79.473 84.435 79.473 44.646 0 81.734-34.908 84.436-79.473l15-247.527zm-75-30h45v30h-45zm90.064 60-2.303 38h-130.521l-2.303-38zm-13.074 215.712c-1.743 28.76-25.678 51.288-54.49 51.288s-52.747-22.528-54.489-51.287l-8.953-147.713h126.884z"/></g></svg>