<svg fill="#000000" xmlns="http://www.w3.org/2000/svg"  viewBox="0 0 32 32" width="32px" height="32px"><path d="M 5 2 L 5 12 L 3 12 L 3 16 C 3 17.64497 4.3550302 19 6 19 L 11.845703 19 C 11.818881 19.118909 11 22.757739 11 25 C 11 27.749516 13.250484 30 16 30 C 18.749516 30 21 27.749516 21 25 C 21 22.757739 20.181118 19.118911 20.154297 19 L 26 19 C 27.64497 19 29 17.64497 29 16 L 29 12 L 27 12 L 27 2 L 25 2 L 25 12 L 23 12 L 23 2 L 21 2 L 21 12 L 19 12 L 19 2 L 17 2 L 17 12 L 15 12 L 15 2 L 13 2 L 13 12 L 11 12 L 11 2 L 9 2 L 9 12 L 7 12 L 7 2 L 5 2 z M 5 14 L 27 14 L 27 16 C 27 16.56503 26.56503 17 26 17 L 20.152344 17 C 18.953305 17 18.004335 18.096749 18.173828 19.283203 L 18.177734 19.318359 L 18.185547 19.353516 C 18.185566 19.353509 19 23.279 19 25 C 19 26.668484 17.668484 28 16 28 C 14.331516 28 13 26.668484 13 25 C 13 23.279 13.814453 19.353516 13.814453 19.353516 L 13.822266 19.318359 L 13.826172 19.283203 C 13.995684 18.096756 13.046695 17 11.847656 17 L 6 17 C 5.4349698 17 5 16.56503 5 16 L 5 14 z M 16 24 A 1 1 0 0 0 16 26 A 1 1 0 0 0 16 24 z"/></svg>