<svg fill="#000000" xmlns="http://www.w3.org/2000/svg"  viewBox="0 0 32 32" width="32px" height="32px"><path d="M 11 3 L 11 5 L 8 5 L 8 6 L 8 12.414062 L 11 15.414062 L 11 25 C 11 27.749516 13.250484 30 16 30 C 18.749516 30 21 27.749516 21 25 L 21 15.414062 L 24 12.414062 L 24 5 L 21 5 L 21 3 L 19 3 L 19 5 L 17 5 L 17 3 L 15 3 L 15 5 L 13 5 L 13 3 L 11 3 z M 10 7 L 11 7 L 11 9 L 13 9 L 13 7 L 15 7 L 15 9 L 17 9 L 17 7 L 19 7 L 19 9 L 21 9 L 21 7 L 22 7 L 22 11.585938 L 19 14.585938 L 19 25 C 19 26.668484 17.668484 28 16 28 C 14.331516 28 13 26.668484 13 25 L 13 14.585938 L 10 11.585938 L 10 7 z M 15 17 L 15 21 L 17 21 L 17 17 L 15 17 z"/></svg>