<svg fill="#000000" xmlns="http://www.w3.org/2000/svg"  viewBox="0 0 32 32" width="32px" height="32px"><path d="M 22 2 L 18.84375 3.9375 L 13.8125 14.21875 L 10.9375 15.46875 C 10.957031 15.316406 11 15.160156 11 15 C 11 12.800781 9.199219 11 7 11 C 4.800781 11 3 12.800781 3 15 C 3 17.199219 4.800781 19 7 19 C 7.503906 19 7.992188 18.890625 8.4375 18.71875 L 8.4375 18.75 L 12.46875 16.96875 L 10.25 21.5 L 10.28125 21.53125 C 10.101563 21.984375 10 22.484375 10 23 C 10 24.898438 11.339844 26.472656 13.125 26.875 C 13.195313 27.199219 13.300781 27.578125 13.5 27.96875 C 14 28.949219 15.191406 30 17 30 L 17 28 C 15.871094 28 15.546875 27.550781 15.28125 27.03125 C 15.242188 26.957031 15.214844 26.886719 15.1875 26.8125 C 16.816406 26.304688 18 24.785156 18 23 C 18 20.800781 16.199219 19 14 19 C 13.882813 19 13.769531 19.019531 13.65625 19.03125 L 15.28125 15.75 L 15.3125 15.71875 L 16.625 12.96875 Z M 28 8 L 18.0625 12.34375 L 16.71875 15.09375 L 25.875 11.0625 Z M 7 13 C 8.117188 13 9 13.882813 9 15 C 9 16.117188 8.117188 17 7 17 C 5.882813 17 5 16.117188 5 15 C 5 13.882813 5.882813 13 7 13 Z M 14 21 C 15.117188 21 16 21.882813 16 23 C 16 24.117188 15.117188 25 14 25 C 12.882813 25 12 24.117188 12 23 C 12 22.859375 12.003906 22.726563 12.03125 22.59375 C 12.214844 21.675781 13.023438 21 14 21 Z"/></svg>