<svg fill="#000000" xmlns="http://www.w3.org/2000/svg"  viewBox="0 0 32 32" width="32px" height="32px"><path d="M 16 3.007813 C 12.925781 3.007813 9.855469 4.175781 7.515625 6.515625 L 6.984375 7.042969 L 12 16.253906 L 12 27 C 12 28.09375 12.90625 29 14 29 L 18 29 C 19.09375 29 20 28.09375 20 27 L 20 16.253906 L 25.015625 7.042969 L 24.484375 6.515625 C 22.144531 4.175781 19.074219 3.003906 16 3.007813 Z M 16 4.992188 C 18.324219 4.996094 20.597656 5.910156 22.472656 7.53125 L 18.40625 15 L 13.59375 15 L 9.527344 7.53125 C 11.402344 5.910156 13.675781 4.992188 16 4.992188 Z M 14 17 L 18 17 L 18 27 L 14 27 L 14 25 L 17 25 L 17 23 L 14 23 Z"/></svg>