<svg fill="#000000" xmlns="http://www.w3.org/2000/svg"  viewBox="0 0 32 32" width="32px" height="32px"><path d="M 16 3 C 14.078125 3 12.5 4.578125 12.5 6.5 C 12.5 7.476563 12.910156 8.363281 13.5625 9 L 10 9 L 10 11 L 11 11 L 11 27 L 10 27 L 10 29 L 22 29 L 22 27 L 21 27 L 21 11 L 22 11 L 22 9 L 18.4375 9 C 19.089844 8.363281 19.5 7.476563 19.5 6.5 C 19.5 4.578125 17.921875 3 16 3 Z M 16 5 C 16.839844 5 17.5 5.660156 17.5 6.5 C 17.5 7.339844 16.839844 8 16 8 C 15.160156 8 14.5 7.339844 14.5 6.5 C 14.5 5.660156 15.160156 5 16 5 Z M 13 11 L 14.5625 11 L 13 12.5625 Z M 17.4375 11 L 19 11 L 19 11.5625 L 13 17.5625 L 13 15.4375 Z M 19 14.4375 L 19 16.5625 L 13 22.5625 L 13 20.4375 Z M 19 19.4375 L 19 21.5625 L 13.5625 27 L 13 27 L 13 25.4375 Z M 19 24.4375 L 19 27 L 16.4375 27 Z"/></svg>