<svg fill="#000000" xmlns="http://www.w3.org/2000/svg"  viewBox="0 0 32 32" width="32px" height="32px"><path d="M 13 3 C 13 3 11.796875 3 10.5625 3.625 C 9.328125 4.25 8 5.6875 8 8 L 8 22.375 C 7.539063 22.148438 7.046875 22 6.5 22 C 4.578125 22 3 23.578125 3 25.5 C 3 27.421875 4.578125 29 6.5 29 C 8.246094 29 9.71875 27.679688 9.96875 26 L 10 26 L 10 19 L 12 20.5 L 12 26 L 12.03125 26 C 12.28125 27.679688 13.753906 29 15.5 29 C 17.421875 29 19 27.421875 19 25.5 C 19 23.578125 17.421875 22 15.5 22 C 14.953125 22 14.460938 22.148438 14 22.375 L 14 3 Z M 18 3 L 18 5 L 22 5 L 22 6 L 18 6 L 18 8 L 22 8 L 22 9 L 18 9 L 18 11 L 22 11 L 22 12 L 18 12 L 18 14 L 22 14 L 22 15 L 18 15 L 18 17 L 22 17 L 22 18 L 18 18 L 18 20 L 22 20 L 22 29 L 28 29 L 28 3 Z M 24 5 L 26 5 L 26 27 L 24 27 Z M 12 5.25 L 12 18 L 10 16.5 L 10 8 C 10 6.363281 10.671875 5.792969 11.4375 5.40625 C 11.714844 5.265625 11.753906 5.3125 12 5.25 Z M 6.5 24 C 7.339844 24 8 24.660156 8 25.5 C 8 26.339844 7.339844 27 6.5 27 C 5.660156 27 5 26.339844 5 25.5 C 5 24.660156 5.660156 24 6.5 24 Z M 15.5 24 C 16.339844 24 17 24.660156 17 25.5 C 17 26.339844 16.339844 27 15.5 27 C 14.660156 27 14 26.339844 14 25.5 C 14 24.660156 14.660156 24 15.5 24 Z"/></svg>