<svg fill="#000000" xmlns="http://www.w3.org/2000/svg"  viewBox="0 0 25.707 25.707" width="32px" height="32px"><path d="M 19.292969 0 L 17.550781 1.7421875 A 2 2 0 0 0 16.671875 1.5371094 L 16.664062 1.53125 A 2 2 0 0 0 15.25 2.1171875 L 8.3320312 9.0390625 C 8.3320312 9.0390625 7 13.707031 4 14.707031 A 1.687 1.687 0 0 1 3.46875 14.798828 A 1.077 1.077 0 0 1 3 14.707031 C 3 14.707031 -0.81984375 17.253781 0.16015625 21.300781 A 5.827 5.827 0 0 0 4.4082031 25.548828 A 5.564 5.564 0 0 0 5.7285156 25.708984 C 8.9995156 25.708984 11 22.708984 11 22.708984 A 1.194 1.194 0 0 1 11 21.708984 C 12 18.708984 16.667969 17.376953 16.667969 17.376953 L 23.585938 10.457031 A 2 2 0 0 0 23.962891 8.1582031 L 25.707031 6.4140625 L 24.292969 5 L 22.625 6.6679688 L 21.541016 5.5800781 L 23.207031 3.9140625 L 21.792969 2.5 L 20.126953 4.1660156 L 19.041016 3.0800781 L 20.707031 1.4140625 L 19.292969 0 z M 16.664062 3.53125 L 16.667969 3.5351562 L 22.167969 9.0351562 L 20.957031 10.25 L 15.451172 4.7441406 L 16.664062 3.53125 z M 14.037109 6.1582031 L 19.542969 11.664062 L 15.599609 15.617188 C 14.118609 16.126188 10.213422 17.755219 9.1074219 21.074219 A 3.791 3.791 0 0 0 8.9082031 22.117188 A 4.563 4.563 0 0 1 5.7324219 23.707031 A 3.58 3.58 0 0 1 4.8808594 23.599609 A 3.852 3.852 0 0 1 2.1054688 20.824219 A 4.232 4.232 0 0 1 3.59375 16.800781 A 3.7 3.7 0 0 0 4.6328125 16.599609 C 7.9528125 15.493609 9.5808437 11.588422 10.089844 10.107422 L 14.037109 6.1582031 z M 14 9.7070312 A 2 2 0 0 0 14 13.707031 A 2 2 0 0 0 14 9.7070312 z M 10 14.707031 A 1 1 0 0 0 10 16.707031 A 1 1 0 0 0 10 14.707031 z"/></svg>