<svg fill="#000000" xmlns="http://www.w3.org/2000/svg"  viewBox="0 0 32 32" width="32px" height="32px"><path d="M 3 7 L 3 9 L 1 9 L 1 23 L 3 23 L 3 25 L 29 25 L 29 23 L 31 23 L 31 9 L 29 9 L 29 7 Z M 5 9 L 27 9 L 27 11 L 29 11 L 29 21 L 27 21 L 27 23 L 5 23 L 5 21 L 3 21 L 3 11 L 5 11 Z M 9 13 L 9 15 L 7 15 L 7 14 L 5 14 L 5 18 L 7 18 L 7 17 L 9 17 L 9 19 L 11 19 L 11 17 L 13.175781 17 C 13.597656 18.195313 14.730469 19 16 19 C 17.269531 19 18.402344 18.199219 18.828125 17 L 21 17 L 21 19 L 23 19 L 23 17 L 25 17 L 25 18 L 27 18 L 27 14 L 25 14 L 25 15 L 23 15 L 23 13 L 21 13 L 21 15 L 18.824219 15 C 18.402344 13.804688 17.269531 13 16 13 C 14.730469 13 13.597656 13.800781 13.171875 15 L 11 15 L 11 13 Z"/></svg>