<svg fill="#000000" xmlns="http://www.w3.org/2000/svg"  viewBox="0 0 32 32" width="32px" height="32px"><path d="M 25.710938 0.984375 C 24.403609 0.9982768 23.111394 1.4999348 22.164062 2.4472656 C 21.580644 3.0306851 21.485338 3.6315633 21.300781 4.3769531 C 21.116224 5.122343 20.972151 5.9788445 20.857422 6.8007812 C 20.680892 8.0654707 20.635162 8.7497424 20.595703 9.2304688 L 16.078125 10.359375 L 14.925781 14.970703 L 10.3125 16.125 L 9.1367188 20.828125 L 1.7890625 23.84375 L 2.5488281 25.693359 L 10.832031 22.294922 L 11.962891 17.773438 L 16.574219 16.621094 L 17.728516 12.007812 L 22.458984 10.826172 L 22.511719 10.103516 C 22.511719 10.103516 22.619599 8.6400482 22.837891 7.0761719 C 22.947037 6.2942337 23.08615 5.4876258 23.242188 4.8574219 C 23.398224 4.227218 23.701045 3.7384086 23.578125 3.8613281 C 24.653463 2.7859898 26.750378 2.6847161 27.929688 3.8632812 C 28.814957 4.7489325 29.131877 5.441014 29.134766 6.0292969 C 29.137666 6.6178784 28.832131 7.3119519 27.929688 8.2148438 L 6.2519531 29.890625 L 7.6660156 31.304688 L 29.34375 9.6289062 C 30.457306 8.5147981 31.141126 7.3149498 31.134766 6.0195312 C 31.128405 4.7241129 30.436452 3.5399672 29.34375 2.4472656 C 28.340404 1.4445498 27.018266 0.97047325 25.710938 0.984375 z"/></svg>