<svg fill="#000000" xmlns="http://www.w3.org/2000/svg"  viewBox="0 0 32 32" width="32px" height="32px"><path d="M 20.46875 3.03125 C 19.671875 3.03125 18.882813 3.335938 18.28125 3.9375 L 3.875 18.34375 C 2.671875 19.546875 2.671875 21.546875 3.875 22.75 L 5.21875 24.0625 L 5.3125 24.15625 L 11.78125 29.25 L 11.84375 29.3125 L 11.9375 29.375 L 12.5625 28.59375 L 13.25 27.875 L 13.15625 27.8125 L 8.0625 22.6875 L 8.625 22.125 L 13.84375 27.3125 L 15.25 25.875 L 10.0625 20.6875 L 10.625 20.125 L 15.84375 25.3125 L 17.25 23.875 L 12.0625 18.6875 L 12.625 18.125 L 17.84375 23.3125 L 19.25 21.875 L 14.0625 16.6875 L 14.625 16.125 L 19.84375 21.3125 L 21.25 19.875 L 16.0625 14.6875 L 16.625 14.125 L 21.84375 19.3125 L 23.25 17.875 L 18.0625 12.6875 L 18.625 12.125 L 23.84375 17.3125 L 25.25 15.875 L 20.0625 10.6875 L 20.625 10.125 L 25.84375 15.3125 L 27.25 13.875 L 22.0625 8.6875 L 22.625 8.125 L 27.84375 13.3125 L 28.5 12.65625 L 29.34375 11.96875 L 29.25 11.875 L 24.09375 5.375 L 24.0625 5.34375 L 24.03125 5.28125 L 22.71875 4 L 22.6875 3.9375 C 22.085938 3.335938 21.265625 3.03125 20.46875 3.03125 Z M 20.46875 5.03125 C 20.75 5.03125 21.03125 5.15625 21.25 5.375 L 21.875 6 L 5.9375 21.9375 L 5.3125 21.3125 C 4.875 20.875 4.875 20.1875 5.3125 19.75 L 19.6875 5.375 C 19.90625 5.15625 20.1875 5.03125 20.46875 5.03125 Z"/></svg>