<svg fill="#000000" xmlns="http://www.w3.org/2000/svg"  viewBox="0 0 32 32" width="32px" height="32px"><path d="M 18.628906 3.9433594 C 18.426881 3.9483535 18.223859 3.9650156 18.021484 3.9941406 C 15.893484 4.2981406 14.161313 5.9173906 13.695312 8.0253906 L 13.474609 9.0507812 C 12.693072 9.74924 11.825762 10.534729 11.339844 11.634766 C 10.485021 13.553965 8.5960563 16.230307 7.1015625 17.728516 L 6.4882812 18.34375 C 4.3948718 20.442117 4.52971 23.956104 6.8554688 25.876953 C 8.9201515 27.583925 11.948028 27.279543 13.800781 25.421875 L 14.291016 24.929688 C 15.785944 23.430114 18.457586 21.535536 20.371094 20.679688 L 20.367188 20.679688 C 21.104968 20.352867 21.713036 19.809068 22.181641 19.177734 C 22.315228 18.997755 22.434048 18.808152 22.542969 18.613281 L 23.976562 18.306641 C 26.083563 17.839641 27.701859 16.106844 28.005859 13.964844 C 28.238859 12.359844 27.688969 10.717266 26.542969 9.5722656 L 22.427734 5.4570312 C 21.424984 4.4542813 20.043084 3.9084004 18.628906 3.9433594 z M 18.828125 5.5175781 C 19.34075 5.5175781 19.853687 5.7125625 20.242188 6.1015625 C 21.020187 6.8795625 21.020187 8.1526875 20.242188 8.9296875 C 19.464187 9.7076875 18.192062 9.7076875 17.414062 8.9296875 C 16.636063 8.1516875 16.636063 6.8785625 17.414062 6.1015625 C 17.803062 5.7125625 18.3155 5.5175781 18.828125 5.5175781 z M 24.486328 11.173828 C 24.998953 11.173828 25.509937 11.368813 25.898438 11.757812 C 26.676437 12.535813 26.676437 13.808937 25.898438 14.585938 C 25.120437 15.363938 23.847312 15.363937 23.070312 14.585938 C 22.292313 13.807937 22.292312 12.534813 23.070312 11.757812 C 23.459312 11.368813 23.973703 11.173828 24.486328 11.173828 z M 18.121094 11.880859 C 18.633719 11.880859 19.146656 12.075844 19.535156 12.464844 C 20.313156 13.242844 20.313156 14.515969 19.535156 15.292969 C 18.757156 16.070969 17.485031 16.070969 16.707031 15.292969 C 15.929031 14.514969 15.929031 13.241844 16.707031 12.464844 C 17.096031 12.075844 17.608469 11.880859 18.121094 11.880859 z M 13.191406 12.416016 C 13.19447 12.440023 13.19592 12.464316 13.199219 12.488281 C 13.227264 12.876564 13.135436 13.2778 13.244141 13.650391 L 13.244141 13.654297 L 13.246094 13.65625 C 13.601523 14.842926 14.240727 15.951311 15.148438 16.861328 C 15.984163 17.699711 16.830861 18.37886 17.835938 18.775391 C 18.25814 18.941961 18.715818 19.017363 19.181641 19.068359 C 17.001493 20.113533 14.507885 21.879619 12.875 23.517578 L 12.384766 24.007812 L 12.384766 24.009766 C 11.221519 25.176098 9.3542236 25.348966 8.1289062 24.335938 C 6.68662 23.1447 6.6197065 21.043492 7.9042969 19.755859 L 8.5175781 19.140625 C 10.240745 17.413174 12.160516 14.708023 13.167969 12.445312 L 13.167969 12.443359 C 13.170648 12.437235 13.182969 12.425224 13.191406 12.416016 z M 12.292969 18.292969 L 9.2929688 21.292969 L 10.707031 22.707031 L 13.707031 19.707031 L 12.292969 18.292969 z"/></svg>