<svg fill="#000000" xmlns="http://www.w3.org/2000/svg"  viewBox="0 0 32 32" width="32px" height="32px"><path d="M 24.53125 3.125 C 22.261719 4.328125 19.429688 7.21875 16.6875 10.4375 C 13.964844 13.636719 11.453125 17.09375 10.15625 19.46875 C 10.148438 19.484375 10.132813 19.515625 10.125 19.53125 C 8.566406 22.039063 5.269531 23 3 23 L 3 25 C 4.421875 25 6.136719 24.703125 7.75 24 C 8.59375 24.464844 9.789063 24.90625 10.96875 24.90625 C 11.996094 24.90625 13.011719 24.566406 13.78125 23.625 C 14.378906 22.898438 14.636719 22.078125 14.53125 21.21875 C 14.394531 20.121094 13.871094 18.78125 13.46875 17.90625 C 14.753906 16.023438 16.445313 13.835938 18.21875 11.75 C 20.890625 8.613281 23.828125 5.742188 25.46875 4.875 Z M 26.59375 7.09375 C 21.011719 9.667969 16.984375 14.46875 14.5625 17.875 C 14.875 18.621094 15.195313 19.492188 15.375 20.25 C 17.605469 16.929688 21.539063 11.609375 27.40625 8.90625 Z M 12 21 C 12.550781 21 13 21.449219 13 22 C 13 22.550781 12.550781 23 12 23 C 11.449219 23 11 22.550781 11 22 C 11 21.796875 11.085938 21.625 11.1875 21.46875 C 11.253906 21.386719 11.308594 21.304688 11.375 21.21875 C 11.546875 21.082031 11.761719 21 12 21 Z M 12.4375 25.65625 C 11.96875 25.800781 11.503906 25.90625 10.96875 25.90625 C 10.765625 25.90625 10.539063 25.894531 10.34375 25.875 C 10.101563 27.015625 10 28.109375 10 29 L 12 29 C 12 28.058594 12.125 26.851563 12.4375 25.65625 Z"/></svg>