<svg fill="#000000" xmlns="http://www.w3.org/2000/svg"  viewBox="0 0 32 32" width="32px" height="32px"><path d="M 10 4 C 5.59375 4 2 7.59375 2 12 C 2 14.421875 3.070313 16.59375 4.78125 18.0625 L 3 27.15625 L 3 27.25 C 2.878906 28.707031 4.039063 30 5.5 30 L 12 30 L 12 28 L 10.21875 28 L 11.84375 19.875 C 15.640625 19.441406 19.890625 17.863281 23.25 16.96875 L 24 16.78125 L 24 8.25 L 23.25 8.03125 C 21.296875 7.5 19.03125 6.527344 16.75 5.65625 C 14.46875 4.785156 12.179688 4 10 4 Z M 10 6 C 11.683594 6 13.8125 6.652344 16.03125 7.5 C 18.003906 8.253906 20.046875 9.085938 22 9.6875 L 22 15.25 C 18.042969 16.351563 13.332031 18 10 18 C 6.675781 18 4 15.324219 4 12 C 4 8.675781 6.675781 6 10 6 Z M 10 8 C 7.800781 8 6 9.800781 6 12 C 6 14.199219 7.800781 16 10 16 C 12.199219 16 14 14.199219 14 12 C 14 9.800781 12.199219 8 10 8 Z M 26 9 L 26 11 L 31 11 L 31 9 Z M 10 10 C 11.117188 10 12 10.882813 12 12 C 12 13.117188 11.117188 14 10 14 C 8.882813 14 8 13.117188 8 12 C 8 10.882813 8.882813 10 10 10 Z M 26 12 L 26 14 L 31 14 L 31 12 Z M 26 15 L 26 17 L 31 17 L 31 15 Z M 6.59375 19.21875 C 7.570313 19.683594 8.640625 19.96875 9.78125 20 L 8.1875 28 L 5.5 28 C 5.175781 28 4.972656 27.761719 5 27.4375 Z"/></svg>