<svg fill="#000000" xmlns="http://www.w3.org/2000/svg"  viewBox="0 0 32 32" width="32px" height="32px"><path d="M 15 4 C 10.042969 4 6 8.042969 6 13 L 6 20 L 4 20 L 4 21 C 4 25.40625 7.59375 29 12 29 L 20 29 C 24.40625 29 28 25.40625 28 21 L 28 20 L 19.28125 20 L 19.0625 20.6875 C 18.890625 21.191406 17.6875 22 15.96875 22 C 14.25 22 13.125 21.234375 12.9375 20.6875 L 12.71875 20 L 8 20 L 8 13 C 8 9.789063 10.1875 7.207031 13.125 6.375 C 13.273438 6.960938 13.648438 7.386719 13.96875 7.59375 C 14.359375 7.84375 14.71875 7.96875 14.71875 7.96875 L 14.84375 8 L 17.09375 8 L 17.21875 7.96875 C 17.21875 7.96875 17.617188 7.90625 18.03125 7.65625 C 18.445313 7.40625 19 6.816406 19 6 C 19 5.183594 18.445313 4.59375 18.03125 4.34375 C 17.617188 4.09375 17.21875 4.03125 17.21875 4.03125 L 17.09375 4 Z M 16 10 C 15.449219 10 15 10.449219 15 11 C 15 11.550781 15.449219 12 16 12 C 16.550781 12 17 11.550781 17 11 C 17 10.449219 16.550781 10 16 10 Z M 14 13 C 13.449219 13 13 13.449219 13 14 C 13 14.550781 13.449219 15 14 15 C 14.550781 15 15 14.550781 15 14 C 15 13.449219 14.550781 13 14 13 Z M 18 13 C 17.449219 13 17 13.449219 17 14 C 17 14.550781 17.449219 15 18 15 C 18.550781 15 19 14.550781 19 14 C 19 13.449219 18.550781 13 18 13 Z M 12 16 C 11.449219 16 11 16.449219 11 17 C 11 17.550781 11.449219 18 12 18 C 12.550781 18 13 17.550781 13 17 C 13 16.449219 12.550781 16 12 16 Z M 16 16 C 15.449219 16 15 16.449219 15 17 C 15 17.550781 15.449219 18 16 18 C 16.550781 18 17 17.550781 17 17 C 17 16.449219 16.550781 16 16 16 Z M 20 16 C 19.449219 16 19 16.449219 19 17 C 19 17.550781 19.449219 18 20 18 C 20.550781 18 21 17.550781 21 17 C 21 16.449219 20.550781 16 20 16 Z M 6.1875 22 L 11.46875 22 C 12.320313 23.300781 14.019531 24 15.96875 24 C 17.921875 24 19.660156 23.320313 20.53125 22 L 25.8125 22 C 25.324219 24.828125 22.972656 27 20 27 L 12 27 C 9.027344 27 6.675781 24.828125 6.1875 22 Z"/></svg>