<svg fill="#000000" xmlns="http://www.w3.org/2000/svg"  viewBox="0 0 32 32" width="32px" height="32px"><path d="M 18.84375 2.28125 L 17.40625 3.71875 L 22.625 8.9375 L 22.0625 9.5 L 16.84375 4.28125 L 15.40625 5.71875 L 20.625 10.9375 L 20.0625 11.5 L 14.84375 6.28125 L 13.40625 7.71875 L 18.625 12.9375 L 18.0625 13.5 L 12.84375 8.28125 L 11.40625 9.71875 L 16.625 14.9375 L 16.0625 15.5 L 10.84375 10.28125 L 9.40625 11.71875 L 14.5625 16.875 L 7.34375 24.125 L 7.21875 24.21875 C 6.25 25.1875 6.25 26.8125 7.21875 27.78125 C 7.6875 28.25 8.339844 28.5 9 28.5 C 9.660156 28.5 10.3125 28.246094 10.78125 27.78125 L 10.78125 27.75 L 17.3125 21.09375 C 18.179688 21.347656 19.132813 21.316406 20.15625 20.90625 C 21.5625 20.34375 23.140625 19.296875 24.71875 17.71875 C 26.335938 16.101563 27.339844 14.300781 27.8125 12.6875 C 28.28125 11.085938 28.34375 9.539063 27.3125 8.53125 L 25.15625 6.375 L 24.46875 7.09375 L 24.0625 7.5 Z M 25.1875 9.1875 L 25.90625 9.9375 L 25.90625 9.96875 L 25.9375 9.96875 C 26.007813 10.035156 26.269531 10.878906 25.90625 12.125 C 25.542969 13.371094 24.667969 14.894531 23.28125 16.28125 C 21.851563 17.710938 20.5 18.640625 19.4375 19.0625 C 18.375 19.484375 17.773438 19.347656 17.65625 19.25 L 16.9375 18.625 L 16.28125 19.3125 L 9.34375 26.34375 C 9.242188 26.445313 9.140625 26.5 9 26.5 C 8.859375 26.5 8.757813 26.445313 8.65625 26.34375 C 8.453125 26.140625 8.453125 25.859375 8.65625 25.65625 L 16.65625 17.65625 C 16.554688 17.757813 16.558594 17.71875 16.75 17.59375 L 16.8125 17.5625 Z"/></svg>