<svg fill="#000000" xmlns="http://www.w3.org/2000/svg"  viewBox="0 0 32 32" width="32px" height="32px"><path d="M 17.75 3 C 17.097656 3.023438 16.449219 3.128906 15.78125 3.28125 C 13.113281 3.898438 10.320313 5.492188 7.90625 7.90625 C 5.492188 10.320313 3.898438 13.113281 3.28125 15.78125 C 2.664063 18.449219 3.042969 21.074219 4.78125 22.8125 C 6.144531 24.175781 8.046875 24.691406 10.09375 24.5625 C 10.078125 24.707031 10.078125 24.859375 10.0625 25 C 9.898438 26.613281 9.9375 28.03125 9.9375 28.03125 L 9.96875 28.96875 L 10.90625 29 C 10.90625 29 12.292969 29.039063 13.90625 28.875 C 15.519531 28.710938 17.371094 28.503906 18.5625 27.3125 C 19.582031 26.292969 20.035156 24.933594 19.96875 23.59375 L 20.40625 23.1875 L 23.1875 20.40625 L 23.53125 20.03125 C 24.890625 20.117188 26.277344 19.660156 27.3125 18.625 C 28.503906 17.433594 28.710938 15.613281 28.875 14 C 29.039063 12.386719 29 10.96875 29 10.96875 L 28.96875 10.03125 L 28.03125 10 C 28.03125 10 26.613281 9.960938 25 10.125 C 24.859375 10.140625 24.707031 10.171875 24.5625 10.1875 C 24.714844 8.105469 24.195313 6.164063 22.8125 4.78125 C 21.941406 3.910156 20.863281 3.390625 19.65625 3.15625 C 19.050781 3.039063 18.402344 2.976563 17.75 3 Z M 17.8125 5 C 19.320313 4.9375 20.558594 5.339844 21.40625 6.1875 C 22.386719 7.167969 22.75 8.695313 22.5 10.53125 C 21.707031 10.753906 20.964844 11.097656 20.375 11.6875 C 19.171875 12.890625 18.722656 14.570313 19.03125 16.125 L 16.09375 19.0625 C 15.761719 18.992188 15.433594 18.9375 15.09375 18.9375 C 13.832031 18.9375 12.550781 19.417969 11.59375 20.375 C 11.003906 20.964844 10.652344 21.707031 10.4375 22.5 C 8.640625 22.734375 7.15625 22.375 6.1875 21.40625 C 5.058594 20.277344 4.707031 18.441406 5.21875 16.21875 C 5.730469 13.996094 7.136719 11.488281 9.3125 9.3125 C 11.488281 7.136719 13.996094 5.730469 16.21875 5.21875 C 16.773438 5.089844 17.308594 5.019531 17.8125 5 Z M 26.25 12.03125 C 26.507813 12.019531 26.714844 12.03125 26.96875 12.03125 C 26.964844 12.535156 26.96875 12.847656 26.875 13.78125 C 26.726563 15.246094 26.246094 16.878906 25.90625 17.21875 C 24.875 18.25 23.296875 18.351563 22.15625 17.53125 C 22.816406 17.226563 23.519531 16.882813 23.71875 16.6875 C 24.101563 16.304688 24.101563 15.664063 23.71875 15.28125 C 23.335938 14.898438 22.695313 14.898438 22.3125 15.28125 C 22.117188 15.476563 21.773438 16.183594 21.46875 16.84375 C 20.648438 15.699219 20.75 14.125 21.78125 13.09375 C 22.121094 12.753906 23.753906 12.273438 25.21875 12.125 C 25.6875 12.078125 25.992188 12.042969 26.25 12.03125 Z M 19.6875 18.3125 L 21.0625 19.6875 L 19.6875 21.0625 L 18.3125 19.6875 Z M 15.09375 20.90625 C 15.714844 20.90625 16.320313 21.128906 16.84375 21.53125 C 16.183594 21.835938 15.476563 22.179688 15.28125 22.375 C 14.898438 22.757813 14.898438 23.398438 15.28125 23.78125 C 15.664063 24.164063 16.304688 24.164063 16.6875 23.78125 C 16.878906 23.589844 17.203125 22.894531 17.5 22.25 C 18.265625 23.386719 18.164063 24.898438 17.15625 25.90625 C 16.816406 26.246094 15.183594 26.726563 13.71875 26.875 C 12.785156 26.96875 12.472656 26.964844 11.96875 26.96875 C 11.972656 26.464844 11.9375 26.152344 12.03125 25.21875 C 12.066406 24.882813 12.121094 24.554688 12.1875 24.21875 C 12.199219 24.214844 12.207031 24.222656 12.21875 24.21875 L 12.1875 24.125 C 12.410156 23.03125 12.777344 22.035156 13.03125 21.78125 C 13.605469 21.207031 14.347656 20.90625 15.09375 20.90625 Z"/></svg>