<svg fill="#000000" xmlns="http://www.w3.org/2000/svg"  viewBox="0 0 32 32" width="32px" height="32px"><path d="M 5 3 C 3.3 3 2 4.3 2 6 C 2 7.7 3.3 9 5 9 C 5.7 9 6.2992188 8.8003906 6.6992188 8.4003906 L 8.4003906 10 L 6.6992188 11.5 C 6.1992188 11.2 5.6 11 5 11 C 3.3 11 2 12.3 2 14 C 2 15.7 3.3 17 5 17 C 6.7 17 8 15.7 8 14 C 8 13.7 8.0003906 13.500781 7.9003906 13.300781 L 17 5 L 14 5 L 10 8.5996094 L 8 6.6992188 L 8 6 C 8 4.3 6.7 3 5 3 z M 5 5 C 5.6 5 6 5.4 6 6 C 6 6.6 5.6 7 5 7 C 4.4 7 4 6.6 4 6 C 4 5.4 4.4 5 5 5 z M 19.082031 5.7226562 L 17.570312 7.1132812 L 18.630859 9 L 19.216797 9 C 22.862797 9 26.749031 13.227 26.957031 25 L 21.492188 25 C 21.609869 24.85032 21.730785 24.702589 21.839844 24.546875 C 23.197481 22.608436 23.966797 20.206716 23.966797 18 L 21.966797 18 C 21.966797 19.722284 21.307284 21.82108 20.201172 23.400391 C 19.09506 24.979701 17.631496 26 15.966797 26 C 14.303706 26 12.837088 24.974858 11.730469 23.392578 C 10.62385 21.810298 9.9667969 19.711045 9.9667969 18 C 9.9667969 17.556131 10.059795 17.333221 10.193359 17.15625 C 10.326924 16.979279 10.543302 16.821042 10.896484 16.681641 C 11.602849 16.402839 12.790582 16.289412 14.048828 16.183594 C 15.307074 16.077775 16.642022 15.982025 17.822266 15.4375 C 19.002509 14.892975 19.966797 13.660378 19.966797 12 L 17.966797 12 C 17.966797 13.044122 17.679132 13.300556 16.984375 13.621094 C 16.289618 13.941631 15.124568 14.086975 13.882812 14.191406 C 12.641058 14.295838 11.330745 14.361005 10.162109 14.822266 C 9.5777919 15.052896 9.0109665 15.405495 8.5976562 15.953125 C 8.1843461 16.500755 7.9667969 17.216619 7.9667969 18 C 7.9667969 20.197955 8.7346658 22.598592 10.091797 24.539062 C 10.202679 24.697605 10.325495 24.847665 10.445312 25 L 4.9746094 25 C 5.0116094 22.709 5.1828906 20.709078 5.4628906 18.955078 C 5.3078906 18.969078 5.159 19 5 19 C 4.462 19 3.9566094 18.897094 3.4746094 18.746094 C 3.1486094 20.839094 2.9667969 23.237 2.9667969 26 L 2.9667969 27 L 12.611328 27 C 13.599314 27.621293 14.727392 28 15.966797 28 C 17.206947 28 18.335699 27.620976 19.324219 27 L 28.966797 27 L 28.966797 26 C 28.966797 9.702 22.587406 7.2992969 19.816406 7.0292969 L 19.082031 5.7226562 z M 5 13 C 5.6 13 6 13.4 6 14 C 6 14.6 5.6 15 5 15 C 4.4 15 4 14.6 4 14 C 4 13.4 4.4 13 5 13 z M 12.966797 18 C 12.414797 18 11.966797 18.448 11.966797 19 C 11.966797 19.552 12.414797 20 12.966797 20 C 13.518797 20 13.966797 19.552 13.966797 19 C 13.966797 18.448 13.518797 18 12.966797 18 z M 18.966797 18 C 18.414797 18 17.966797 18.448 17.966797 19 C 17.966797 19.552 18.414797 20 18.966797 20 C 19.518797 20 19.966797 19.552 19.966797 19 C 19.966797 18.448 19.518797 18 18.966797 18 z"/></svg>