<svg fill="#000000" xmlns="http://www.w3.org/2000/svg"  viewBox="0 0 32 32" width="32px" height="32px"><path d="M 11.029297 3.5859375 L 2.9707031 11.646484 L 4.3847656 13.060547 L 6.7871094 10.65625 L 8.9589844 12.828125 L 10.373047 11.414062 L 8.2011719 9.2421875 L 8.9082031 8.5351562 L 11.080078 10.707031 L 12.494141 9.2929688 L 10.322266 7.1210938 L 11.029297 6.4140625 L 13.201172 8.5859375 L 14.615234 7.171875 L 11.029297 3.5859375 z M 19 4 C 17.412 4 16.005766 4.1683281 14.759766 4.4863281 L 16.447266 6.1777344 C 17.050266 6.0877344 17.695719 6.0297656 18.386719 6.0097656 L 19.105469 7.4472656 C 19.439208 8.1138433 19.546965 8.5705483 19.552734 8.7734375 C 19.558534 8.9763267 19.562901 8.9009876 19.519531 8.9375 C 19.432781 9.010525 18.619008 9.2127936 17.578125 9.265625 C 16.537242 9.318456 15.309457 9.3201829 14.167969 9.7617188 C 13.026478 10.203255 12.013063 11.369605 12 12.992188 L 14 13.007812 C 14.0079 12.021895 14.250285 11.873886 14.888672 11.626953 C 15.527059 11.38002 16.603118 11.318215 17.677734 11.263672 C 18.752351 11.209132 19.865519 11.260972 20.806641 10.46875 C 21.277202 10.072653 21.571793 9.3870288 21.552734 8.7167969 C 21.548669 8.5738261 21.530852 8.4301839 21.507812 8.2851562 C 23.525266 9.1338437 24 11.743846 24 14 L 24 15.849609 L 24.5 16.138672 C 24.813 16.318672 25 16.641 25 17 C 25 17.52 24.604078 17.943328 24.080078 17.986328 L 23.404297 18.042969 L 23.205078 18.689453 C 22.322078 21.561453 21.288828 23.812078 20.798828 24.330078 C 19.779828 25.408078 18.431 26 17 26 C 15.569 26 14.219172 25.407078 13.201172 24.330078 C 12.711172 23.812078 11.677922 21.560453 10.794922 18.689453 L 10.595703 18.042969 L 9.9199219 17.986328 C 9.3949219 17.943328 9 17.52 9 17 C 9 16.66 9.1777031 16.354969 9.4707031 16.167969 L 8.0039062 14.701172 L 8.0039062 14.771484 C 7.3739062 15.334484 7 16.145 7 17 C 7 18.303 7.8605937 19.437891 9.0585938 19.837891 C 9.7805937 22.070891 10.852047 24.757078 11.748047 25.705078 C 13.147047 27.185078 15.012 28 17 28 C 18.988 28 20.852953 27.184125 22.251953 25.703125 C 23.147953 24.756125 24.219406 22.070891 24.941406 19.837891 C 26.138406 19.438891 27 18.303 27 17 C 27 16.143 26.628 15.332531 26 14.769531 L 26 14 C 26 7.531 22.632766 6.23125 20.634766 6.03125 L 19.617188 4 L 19 4 z M 14 16 C 13.448 16 13 16.448 13 17 C 13 17.552 13.448 18 14 18 C 14.552 18 15 17.552 15 17 C 15 16.448 14.552 16 14 16 z M 20 16 C 19.448 16 19 16.448 19 17 C 19 17.552 19.448 18 20 18 C 20.552 18 21 17.552 21 17 C 21 16.448 20.552 16 20 16 z"/></svg>