<svg fill="#000000" xmlns="http://www.w3.org/2000/svg"  viewBox="0 0 32 32" width="32px" height="32px"><path d="M 8 2 C 8 4.1730833 8.5634083 5.9498644 9.1289062 7.1855469 C 9.3919131 7.760249 9.6524623 8.2055252 9.8632812 8.5371094 L 9.8457031 8.5371094 C 9.8457031 10.127326 9.9200711 11.421379 10.03125 12.46875 C 10.146318 13.544503 10.426229 14.585737 10.845703 15.566406 C 10.846698 17.141927 10.920823 18.428446 11.03125 19.46875 C 11.268504 21.686794 12.195032 23.764384 13.636719 25.447266 L 14.111328 26 L 13 26 L 13 28 L 15 28 L 15 30 L 17 30 L 17 28 L 19 28 L 19 26 L 17.902344 26 C 18.943455 24.501029 19.616179 22.765053 19.8125 20.929688 C 19.90942 20.01972 19.974769 18.61235 19.994141 17.361328 L 19.988281 17.361328 C 20.925138 15.926028 21.628815 14.34831 21.8125 12.623047 C 21.920356 11.616388 21.990431 10.368008 21.996094 8.8632812 C 23.021405 7.0302407 24 4.617477 24 2.0019531 L 22 2.0019531 C 22 6.4150797 18.175781 10.873047 18.175781 10.873047 L 18.216797 10.832031 C 18.101238 10.947591 18.138587 10.915451 18.09375 10.966797 C 18.04891 11.018147 17.989988 11.086237 17.916016 11.171875 C 17.768071 11.343151 17.563285 11.580596 17.322266 11.861328 C 17.034439 12.196579 16.644695 12.652111 16.283203 13.074219 C 15.938722 12.670936 15.491231 12.147561 14.716797 11.242188 C 15.143065 10.718201 15.795142 9.8820898 16.595703 8.609375 C 16.805042 8.2765731 16.977589 7.8589475 17.183594 7.4960938 L 17.275391 7.4394531 C 17.275391 7.4394531 17.244991 7.3822574 17.244141 7.3808594 C 18.162573 5.7412845 19 3.9060131 19 2 L 17 2 C 17 2.9600427 16.606796 4.1040812 16.09375 5.2480469 C 15.520788 4.0633252 15 2.588007 15 2 L 13 2 C 13 3.4038333 13.683505 4.8818191 14.3125 6.1699219 C 14.646408 6.8537237 14.740928 6.9766878 14.980469 7.3984375 C 14.952359 7.4439385 14.932517 7.5000633 14.904297 7.5449219 C 14.34246 8.4381173 13.801834 9.1712307 13.392578 9.6972656 C 13.154655 9.4195955 12.875956 9.0922106 12.677734 8.8613281 C 12.436715 8.5805961 12.231929 8.343151 12.083984 8.171875 C 12.010012 8.086237 11.951086 8.0181451 11.90625 7.9667969 C 11.88724 7.9450219 11.860706 7.9195513 11.853516 7.9101562 C 11.852686 7.9091062 11.850909 7.9060069 11.849609 7.9042969 C 11.848617 7.9030369 11.84495 7.8979044 11.84375 7.8964844 C 11.83349 7.8832554 11.815989 7.8614201 11.792969 7.8300781 C 11.746947 7.7673919 11.677718 7.6677888 11.591797 7.5351562 C 11.419954 7.2698911 11.183767 6.8702994 10.947266 6.3535156 C 10.474264 5.3199481 10 3.8269167 10 2 L 8 2 z M 11.929688 11.0625 C 12.254727 11.441969 12.548876 11.784883 12.898438 12.193359 C 13.937989 13.40812 14.644102 14.233968 14.966797 14.611328 C 14.290365 15.402438 13.760786 16.023891 13.529297 16.294922 C 12.710688 15.085863 12.175177 13.709898 12.019531 12.257812 L 12.019531 12.255859 C 11.98239 11.905779 11.956693 11.481543 11.929688 11.0625 z M 19.857422 11.976562 C 19.84497 12.112787 19.837855 12.282875 19.824219 12.410156 C 19.632405 14.211773 18.878592 15.911801 17.689453 17.298828 L 15.990234 19.287109 L 14.794922 17.890625 C 14.962251 17.694942 15.942068 16.548279 17.101562 15.193359 C 17.728824 14.460379 18.359164 13.723942 18.839844 13.164062 C 19.080183 12.884123 19.282308 12.648829 19.427734 12.480469 C 19.500444 12.396289 19.559125 12.327614 19.599609 12.28125 C 19.640089 12.23489 19.732044 12.144913 19.630859 12.246094 L 19.650391 12.226562 L 19.669922 12.205078 C 19.669922 12.205078 19.818466 12.020647 19.857422 11.976562 z M 12.990234 18.859375 L 14.675781 20.824219 L 13.742188 21.916016 C 13.365888 21.075673 13.118378 20.179997 13.019531 19.257812 L 13.019531 19.255859 C 13.007193 19.139554 13.001592 18.98312 12.990234 18.859375 z M 17.851562 20.1875 C 17.839423 20.337315 17.837239 20.596454 17.824219 20.71875 C 17.651019 22.334602 17.005745 23.854729 16.021484 25.154297 L 15.15625 24.144531 C 15.039283 24.007996 14.946353 23.85528 14.837891 23.712891 L 17.851562 20.1875 z"/></svg>