<svg fill="#000000" xmlns="http://www.w3.org/2000/svg"  viewBox="0 0 32 32" width="32px" height="32px"><path d="M 18.125 4 C 15.371535 4 11.958684 4.7767703 9.1191406 6.5234375 C 6.2795972 8.2701047 4 11.118619 4 15 C 4 16.381101 4.26577 18.039679 5.1210938 19.556641 C 5.5062864 20.2398 6.0296063 20.883419 6.6816406 21.443359 C 6.1822541 21.614627 5.6937919 21.872614 5.2734375 22.292969 C 4.4038739 23.162532 4.2093638 24.324876 4.0898438 25.273438 C 3.9703237 26.221999 4.0039062 27.017578 4.0039062 27.017578 L 4.0390625 27.941406 L 4.9628906 27.976562 C 4.9628906 27.976562 5.7584815 28.010025 6.7070312 27.890625 C 7.6555811 27.771227 8.8177332 27.576798 9.6875 26.707031 C 10.153042 26.24149 10.416409 25.693434 10.585938 25.138672 C 11.925131 26.782216 13.781688 28 16 28 C 18.480301 28 20.515409 26.485314 21.873047 24.546875 C 21.968293 24.410882 22.053186 24.267279 22.142578 24.126953 C 22.269699 24.988414 22.508074 25.953386 23.261719 26.707031 C 24.131486 27.576798 25.293638 27.771227 26.242188 27.890625 C 27.190736 28.010023 27.986328 27.976562 27.986328 27.976562 L 28.908203 27.941406 L 28.945312 27.017578 C 28.945312 27.017578 28.976942 26.221999 28.857422 25.273438 C 28.737902 24.324876 28.545345 23.162532 27.675781 22.292969 C 27.047177 21.664364 26.267252 21.395186 25.525391 21.248047 C 26.074207 20.750202 26.522647 20.190704 26.865234 19.597656 C 27.735333 18.091444 28 16.42415 28 15 C 28 11.673389 26.310607 9.3320436 24.417969 7.9433594 C 22.787753 6.7472222 21.169303 6.2621944 19.904297 6.125 L 18.708984 4 L 18.125 4 z M 17.583984 6.0761719 L 18.666016 8 L 19.25 8 C 19.829184 8 21.719763 8.4453249 23.234375 9.5566406 C 24.748987 10.667956 26 12.326611 26 15 C 26 16.16685 25.765964 17.499666 25.132812 18.595703 C 24.798801 19.173905 24.362976 19.695336 23.769531 20.125 C 23.916864 19.410974 24 18.695886 24 18 L 22 18 C 22 19.722284 21.340487 21.82108 20.234375 23.400391 C 19.128263 24.979701 17.664699 26 16 26 C 14.336909 26 12.872244 24.974858 11.765625 23.392578 C 10.659006 21.810298 10 19.711045 10 18 C 10 17.556131 10.09495 17.333221 10.228516 17.15625 C 10.36208 16.979279 10.576504 16.821042 10.929688 16.681641 C 11.636052 16.402839 12.825739 16.289412 14.083984 16.183594 C 15.34223 16.077775 16.675226 15.982025 17.855469 15.4375 C 19.035712 14.892975 20 13.660378 20 12 L 18 12 C 18 13.044122 17.714288 13.300556 17.019531 13.621094 C 16.324774 13.941631 15.15777 14.086975 13.916016 14.191406 C 12.674261 14.295838 11.363949 14.361005 10.195312 14.822266 C 9.6109951 15.052896 9.0441696 15.405495 8.6308594 15.953125 C 8.2175491 16.500755 8 17.216619 8 18 C 8 18.705164 8.0858326 19.431251 8.2382812 20.15625 C 7.6416708 19.711835 7.2001312 19.17164 6.8632812 18.574219 C 6.2326051 17.455681 6 16.113899 6 15 C 6 11.881381 7.7240119 9.7298953 10.167969 8.2265625 C 12.4444 6.8262784 15.289306 6.1687978 17.583984 6.0761719 z M 13 18 C 12.448 18 12 18.448 12 19 C 12 19.552 12.448 20 13 20 C 13.552 20 14 19.552 14 19 C 14 18.448 13.552 18 13 18 z M 19 18 C 18.448 18 18 18.448 18 19 C 18 19.552 18.448 20 19 20 C 19.552 20 20 19.552 20 19 C 20 18.448 19.552 18 19 18 z M 8.8984375 23.082031 C 8.8880965 23.269811 8.9057973 23.267915 8.8789062 23.488281 C 8.7858192 24.251056 8.4956707 25.070736 8.2734375 25.292969 C 8.0512043 25.515202 7.2244816 25.809648 6.4570312 25.90625 C 6.2375856 25.93387 6.2402538 25.916474 6.0527344 25.927734 C 6.0640444 25.740334 6.0465947 25.742649 6.0742188 25.523438 C 6.1709487 24.755748 6.4660636 23.928468 6.6875 23.707031 C 6.9089364 23.485595 7.7291727 23.194776 8.4921875 23.101562 C 8.7123178 23.074672 8.710776 23.092461 8.8984375 23.082031 z M 24.050781 23.082031 C 24.238443 23.092421 24.236901 23.074632 24.457031 23.101562 C 25.220046 23.194772 26.040282 23.485595 26.261719 23.707031 C 26.483155 23.928468 26.776317 24.755748 26.873047 25.523438 C 26.900667 25.742634 26.883221 25.740344 26.894531 25.927734 C 26.707703 25.916464 26.710576 25.93373 26.492188 25.90625 C 25.724736 25.80965 24.898014 25.515202 24.675781 25.292969 C 24.453548 25.070736 24.163399 24.251056 24.070312 23.488281 C 24.043422 23.267915 24.061111 23.269811 24.050781 23.082031 z"/></svg>