<svg fill="#000000" xmlns="http://www.w3.org/2000/svg"  viewBox="0 0 32 32" width="32px" height="32px"><path d="M 9.4472656 5 L 14.818359 13.542969 L 11.257812 19.205078 C 10.864725 19.085303 10.450352 19 10 19 C 8.7500003 19 7.6852256 19.504756 7.0019531 20.273438 C 6.3186806 21.042119 6 22.027778 6 23 C 6 23.972222 6.3186806 24.957882 7.0019531 25.726562 C 7.6852256 26.495244 8.7500003 27 10 27 C 11.25 27 12.314774 26.495244 12.998047 25.726562 C 13.681319 24.957881 14 23.972222 14 23 C 14 22.027778 13.681319 21.042118 12.998047 20.273438 C 12.988684 20.262904 12.976303 20.254574 12.966797 20.244141 L 22.552734 5 L 20.189453 5 L 16 11.664062 L 11.810547 5 L 9.4472656 5 z M 18.052734 14.929688 L 16.871094 16.806641 L 19.033203 20.244141 C 19.023697 20.254574 19.011316 20.262904 19.001953 20.273438 C 18.318681 21.042119 18 22.027778 18 23 C 18 23.972222 18.318681 24.957882 19.001953 25.726562 C 19.685226 26.495244 20.75 27 22 27 C 22.08556 27 22.150616 26.957775 22.234375 26.953125 C 22.291325 27.318667 22.228075 27.442504 22.480469 27.947266 C 22.974726 28.935775 24.166667 30 26 30 L 26 28 C 24.833333 28 24.525274 27.56422 24.269531 27.052734 C 24.10487 26.723411 24.120629 26.576606 24.095703 26.375 C 24.420283 26.180866 24.758613 25.995926 24.998047 25.726562 C 25.681319 24.957881 26 23.972222 26 23 C 26 22.027778 25.681319 21.042118 24.998047 20.273438 C 24.314774 19.504756 23.25 19 22 19 C 21.549648 19 21.135275 19.085303 20.742188 19.205078 L 18.052734 14.929688 z M 10 21 C 10.749999 21 11.185226 21.245244 11.501953 21.601562 C 11.81868 21.957881 12 22.472222 12 23 C 12 23.527778 11.81868 24.042118 11.501953 24.398438 C 11.185226 24.754756 10.749999 25 10 25 C 9.2500005 25 8.8147739 24.754756 8.4980469 24.398438 C 8.1813198 24.042119 8 23.527778 8 23 C 8 22.472222 8.1813198 21.957882 8.4980469 21.601562 C 8.8147739 21.245244 9.2500005 21 10 21 z M 22 21 C 22.749999 21 23.185226 21.245244 23.501953 21.601562 C 23.81868 21.957881 24 22.472222 24 23 C 24 23.527778 23.81868 24.042118 23.501953 24.398438 C 23.185226 24.754756 22.749999 25 22 25 C 21.250001 25 20.814774 24.754756 20.498047 24.398438 C 20.18132 24.042119 20 23.527778 20 23 C 20 22.472222 20.18132 21.957882 20.498047 21.601562 C 20.814774 21.245244 21.250001 21 22 21 z"/></svg>