<svg fill="#000000" xmlns="http://www.w3.org/2000/svg"  viewBox="0 0 32 32" width="32px" height="32px"><path d="M 16.1875 2.9375 C 13.492188 3.097656 12.984375 4.792969 12.65625 5.90625 C 12.367188 6.878906 12.265625 7.113281 11.4375 7.1875 L 11.625 9.1875 C 13.84375 8.992188 14.292969 7.476563 14.59375 6.46875 C 14.890625 5.476563 15.023438 5.019531 16.375 4.9375 C 16.378906 4.9375 16.679688 4.902344 17.0625 5.03125 L 17.6875 3.125 C 16.886719 2.859375 16.238281 2.929688 16.1875 2.9375 Z M 12 3.59375 C 11.546875 3.652344 10.917969 3.949219 10.625 4.09375 C 8.265625 5.402344 8.535156 7.136719 8.71875 8.28125 C 8.878906 9.28125 8.871094 9.578125 8.15625 10 L 9.1875 11.71875 C 11.101563 10.585938 10.855469 9.007813 10.6875 7.96875 C 10.523438 6.945313 10.464844 6.484375 11.5625 5.875 C 11.828125 5.742188 12.152344 5.582031 12.25 5.5625 Z M 20.0625 3.90625 C 18.640625 3.902344 17.855469 4.785156 17.28125 5.4375 C 16.613281 6.199219 16.40625 6.40625 15.625 6.125 L 14.9375 8 C 15.40625 8.167969 15.816406 8.25 16.1875 8.25 C 17.476563 8.25 18.242188 7.394531 18.78125 6.78125 C 19.464844 6.003906 19.761719 5.636719 20.9375 6.09375 C 21.160156 6.191406 21.496094 6.4375 21.5625 6.5625 L 23.34375 5.625 C 22.910156 4.820313 21.945313 4.347656 21.71875 4.25 C 21.089844 4.003906 20.535156 3.90625 20.0625 3.90625 Z M 7.40625 6.40625 C 6.691406 6.703125 6.148438 7.40625 6.03125 7.5625 C 4.460938 9.757813 5.4375 11.199219 6.09375 12.15625 C 6.667969 12.992188 6.808594 13.25 6.34375 13.9375 L 8 15.03125 C 9.242188 13.183594 8.34375 11.898438 7.75 11.03125 C 7.160156 10.175781 6.914063 9.785156 7.65625 8.75 C 7.773438 8.59375 8.035156 8.3125 8.1875 8.25 Z M 23.8125 6.6875 C 23.046875 6.65625 22.378906 6.9375 21.84375 7.15625 C 20.902344 7.539063 20.632813 7.601563 20.0625 7 L 18.625 8.375 C 20.164063 9.988281 21.621094 9.394531 22.59375 9 C 23.554688 8.609375 23.988281 8.429688 24.84375 9.375 C 24.925781 9.472656 25.019531 9.617188 25.03125 9.65625 L 27.03125 9.65625 C 27.03125 8.863281 26.46875 8.199219 26.34375 8.0625 C 25.441406 7.058594 24.578125 6.71875 23.8125 6.6875 Z M 23.59375 9.6875 L 21.6875 10.28125 C 22.367188 12.402344 23.949219 12.523438 25 12.59375 C 26.011719 12.660156 26.488281 12.679688 26.84375 13.84375 C 26.859375 14.015625 26.839844 14.246094 26.8125 14.3125 L 28.59375 15.1875 C 28.914063 14.546875 28.84375 13.761719 28.8125 13.53125 L 28.78125 13.375 C 28.027344 10.78125 26.28125 10.667969 25.125 10.59375 C 24.113281 10.527344 23.847656 10.480469 23.59375 9.6875 Z M 3.75 11.375 C 3.554688 11.816406 3.359375 12.632813 3.3125 12.84375 C 2.875 15.507813 4.425781 16.339844 5.4375 16.90625 C 6.320313 17.402344 6.550781 17.582031 6.4375 18.40625 L 8.40625 18.6875 C 8.707031 16.480469 7.324219 15.703125 6.40625 15.1875 C 5.5 14.679688 5.082031 14.441406 5.28125 13.21875 C 5.347656 12.921875 5.507813 12.378906 5.59375 12.1875 Z M 23.59375 13.3125 C 23.292969 15.519531 24.675781 16.296875 25.59375 16.8125 C 26.496094 17.320313 26.914063 17.546875 26.71875 18.75 C 26.664063 18.972656 26.554688 19.265625 26.53125 19.3125 L 28.0625 20.59375 C 28.371094 20.222656 28.554688 19.582031 28.65625 19.15625 C 29.097656 16.492188 27.574219 15.628906 26.5625 15.0625 C 25.679688 14.566406 25.449219 14.417969 25.5625 13.59375 Z M 24 16.875 C 22.773438 18.734375 23.679688 20.046875 24.28125 20.90625 C 24.875 21.757813 25.160156 22.125 24.4375 23.15625 C 24.332031 23.296875 24.113281 23.507813 24.09375 23.53125 L 24.90625 25.375 C 25.367188 25.175781 25.789063 24.664063 26.03125 24.34375 C 27.582031 22.132813 26.601563 20.699219 25.9375 19.75 C 25.355469 18.917969 25.199219 18.660156 25.65625 17.96875 Z M 3.09375 17.15625 C 3.042969 17.996094 3.210938 18.765625 3.25 18.90625 C 4.066406 21.480469 5.839844 21.546875 7 21.59375 C 8.011719 21.636719 8.289063 21.683594 8.5625 22.46875 L 10.4375 21.8125 C 9.707031 19.710938 8.113281 19.636719 7.0625 19.59375 C 6.027344 19.550781 5.5625 19.554688 5.1875 18.375 C 5.1875 18.371094 5.0625 17.816406 5.09375 17.28125 Z M 22.90625 20.15625 C 21.011719 21.328125 21.28125 22.902344 21.46875 23.9375 C 21.648438 24.9375 21.738281 25.398438 20.6875 26.03125 C 20.476563 26.105469 20.117188 26.167969 19.9375 26.15625 L 19.8125 28.15625 C 19.875 28.160156 19.9375 28.15625 20 28.15625 C 20.679688 28.15625 21.359375 27.902344 21.5 27.84375 L 21.625 27.78125 C 23.960938 26.425781 23.640625 24.703125 23.4375 23.5625 C 23.257813 22.566406 23.230469 22.28125 23.9375 21.84375 Z M 6.90625 22.21875 L 4.9375 22.53125 C 4.988281 22.878906 5.230469 23.355469 5.65625 23.96875 L 5.71875 24.0625 C 6.667969 25.085938 7.558594 25.40625 8.34375 25.40625 C 9.078125 25.40625 9.734375 25.125 10.25 24.90625 C 11.183594 24.511719 11.445313 24.4375 12.03125 25.03125 L 13.46875 23.625 C 11.910156 22.035156 10.4375 22.652344 9.46875 23.0625 C 8.53125 23.457031 8.101563 23.644531 7.25 22.75 C 7.105469 22.535156 6.925781 22.25 6.90625 22.21875 Z M 20.46875 22.6875 C 18.257813 22.949219 17.863281 24.484375 17.59375 25.5 C 17.328125 26.503906 17.203125 26.949219 15.9375 27.0625 C 15.632813 27.085938 15.167969 27.074219 15.03125 27.03125 L 14.28125 28.875 C 14.671875 29.03125 15.222656 29.0625 15.625 29.0625 C 15.820313 29.0625 16 29.070313 16.09375 29.0625 C 18.78125 28.824219 19.234375 27.121094 19.53125 26 C 19.792969 25.019531 19.894531 24.785156 20.71875 24.6875 Z M 15.65625 23.75 C 14.445313 23.804688 13.707031 24.625 13.1875 25.21875 C 12.515625 25.980469 12.203125 26.332031 11.0625 25.90625 C 10.875 25.785156 10.679688 25.613281 10.625 25.53125 L 8.96875 26.625 C 9.328125 27.160156 9.996094 27.578125 10.125 27.65625 L 10.25 27.75 C 10.882813 27.996094 11.429688 28.09375 11.90625 28.09375 C 13.320313 28.09375 14.113281 27.179688 14.6875 26.53125 C 15.359375 25.769531 15.5625 25.59375 16.34375 25.875 L 17.03125 23.96875 C 16.507813 23.78125 16.058594 23.730469 15.65625 23.75 Z"/></svg>