<svg fill="#000000" xmlns="http://www.w3.org/2000/svg"  viewBox="0 0 32 32" width="32px" height="32px"><path d="M 18 4 C 10.701 4 7 7.3648594 7 14.005859 L 7.0039062 14.771484 C 6.3739063 15.334484 6 16.145 6 17 C 6 18.303 6.8605937 19.438891 8.0585938 19.837891 C 8.1565938 20.139891 8.2641406 20.440188 8.3691406 20.742188 C 7.5421406 21.383187 7 22.375 7 23.5 C 7 25.317 8.3920156 26.815375 10.166016 26.984375 C 10.574016 28.156375 11.69 29 13 29 C 13.531 29 14.048 28.855797 14.5 28.591797 C 15.404 29.120797 16.596 29.120797 17.5 28.591797 C 17.952 28.855797 18.469 29 19 29 C 19.35 29 19.683094 28.935219 19.996094 28.824219 L 17.248047 26.076172 L 16.746094 26.652344 C 16.633094 26.782344 16.386 27 16 27 C 15.614 27 15.366906 26.782344 15.253906 26.652344 L 14.5 25.789062 L 13.746094 26.652344 C 13.633094 26.781344 13.386 27 13 27 C 12.448 27 12 26.551 12 26 L 12 25 L 10.5 25 C 9.673 25 9 24.327 9 23.5 C 9 22.459 10.108578 21.660344 11.142578 22.152344 L 11.894531 22.511719 L 12.382812 21.835938 C 13.055813 20.905938 14.460078 20.738484 15.330078 21.521484 L 16 22.123047 L 16.669922 21.521484 C 17.539922 20.737484 18.944188 20.904937 19.617188 21.835938 L 19.744141 22.011719 L 21.173828 20.583984 C 21.048828 20.445984 20.903422 20.282891 20.732422 20.087891 C 19.487422 18.917891 17.483 18.676922 16 19.544922 C 14.518 18.675922 12.512578 18.917891 11.267578 20.087891 C 11.015578 20.029891 10.759 20 10.5 20 C 10.412 20 10.328187 20.019391 10.242188 20.025391 C 10.087188 19.578391 9.9309219 19.131453 9.7949219 18.689453 L 9.5957031 18.042969 L 8.9199219 17.986328 C 8.3969219 17.943328 8 17.52 8 17 C 8 16.645 8.1888125 16.321672 8.5078125 16.138672 L 9.0097656 15.847656 L 9 14 C 9 8.727 11.668719 6.1767656 17.386719 6.0097656 L 18.105469 7.4472656 C 18.439208 8.1138433 18.546965 8.5705483 18.552734 8.7734375 C 18.558534 8.9763267 18.562901 8.9009876 18.519531 8.9375 C 18.432781 9.010525 17.619008 9.2127936 16.578125 9.265625 C 15.537242 9.318456 14.309457 9.3201829 13.167969 9.7617188 C 12.026478 10.203255 11.013063 11.369605 11 12.992188 L 13 13.007812 C 13.0079 12.021895 13.250285 11.873886 13.888672 11.626953 C 14.527059 11.38002 15.603118 11.318215 16.677734 11.263672 C 17.752351 11.209132 18.865519 11.260972 19.806641 10.46875 C 20.277202 10.072653 20.571793 9.3870288 20.552734 8.7167969 C 20.548669 8.5738261 20.530852 8.4301839 20.507812 8.2851562 C 22.525266 9.1338437 23 11.743846 23 14 L 23 15.849609 L 23.498047 16.138672 C 23.811047 16.318672 24 16.642 24 17 C 24 17.52 23.604078 17.943328 23.080078 17.986328 L 22.404297 18.042969 L 22.205078 18.689453 C 22.072078 19.122453 21.916625 19.562 21.765625 20 L 24 20 C 25.197 19.601 26 18.303 26 17 C 26 16.143 25.628 15.332531 25 14.769531 L 25 14 C 25 7.531 21.633766 6.23125 19.634766 6.03125 L 18.617188 4 L 18 4 z M 13 16 C 12.448 16 12 16.448 12 17 C 12 17.552 12.448 18 13 18 C 13.552 18 14 17.552 14 17 C 14 16.448 13.552 16 13 16 z M 19 16 C 18.448 16 18 16.448 18 17 C 18 17.552 18.448 18 19 18 C 19.552 18 20 17.552 20 17 C 20 16.448 19.552 16 19 16 z M 23.535156 21.050781 L 19.292969 25.292969 L 20.707031 26.707031 L 22.121094 25.292969 L 26.183594 29.355469 L 27.597656 27.941406 L 23.535156 23.878906 L 24.949219 22.464844 L 23.535156 21.050781 z"/></svg>