<svg fill="#000000" xmlns="http://www.w3.org/2000/svg"  viewBox="0 0 32 32" width="32px" height="32px"><path d="M 9 1.585938 L 7.992188 2.59375 C 6.671875 3.914063 6.671875 6.085938 7.992188 7.40625 L 16 15.414063 L 18 13.414063 L 19.378906 14.792969 L 8.585938 25.585938 C 7.8125 26.359375 7.8125 27.640625 8.585938 28.414063 L 9.585938 29.414063 C 10.359375 30.1875 11.640625 30.183594 12.414063 29.414063 L 23.207031 18.621094 L 25.292969 20.707031 L 26.707031 19.292969 L 24.621094 17.207031 L 25.902344 15.925781 L 22.074219 12.097656 L 20.792969 13.378906 Z M 9.164063 4.578125 L 16.585938 12 L 16 12.585938 L 9.40625 5.992188 C 9.007813 5.59375 9 5.066406 9.164063 4.578125 Z M 22.074219 14.925781 L 23.074219 15.925781 L 11 28 L 10 27 Z"/></svg>