<svg fill="#000000" xmlns="http://www.w3.org/2000/svg"  viewBox="0 0 32 32" width="32px" height="32px"><path d="M 18.125 4 C 14.871094 4 10.941406 4.292969 7.9375 7.46875 C 4.933594 10.644531 3 16.417969 3 27 L 3 28 L 11 28 L 11 17 C 11 16.078125 11.214844 15.917969 11.8125 15.65625 C 12.410156 15.394531 13.460938 15.292969 14.59375 15.1875 C 15.726563 15.082031 16.964844 14.96875 18.0625 14.40625 C 18.324219 14.273438 18.589844 14.109375 18.8125 13.90625 C 19.207031 14.382813 19.679688 14.652344 20 14.84375 C 20.375 15.066406 20.539063 15.179688 20.6875 15.40625 C 20.835938 15.632813 21 16.0625 21 17 L 21 28 L 29 28 L 29 27 C 29 17.472656 27.46875 12.292969 25.40625 9.375 C 23.59375 6.808594 21.429688 6.246094 19.9375 6.125 L 19 4.5 L 18.71875 4 Z M 17.5625 6.0625 L 18.375 7.5 L 18.65625 8 L 19.25 8 C 20.371094 8 22.074219 8.125 23.75 10.5 C 25.359375 12.777344 26.847656 17.417969 26.96875 26 L 23 26 L 23 17 C 23 15.824219 22.789063 14.953125 22.375 14.3125 C 21.960938 13.671875 21.375 13.351563 21 13.125 C 20.625 12.898438 20.457031 12.78125 20.3125 12.5625 C 20.167969 12.34375 20 11.925781 20 11 L 18 11 C 18 12.074219 17.714844 12.324219 17.125 12.625 C 16.535156 12.925781 15.523438 13.082031 14.40625 13.1875 C 13.289063 13.292969 12.089844 13.367188 11 13.84375 C 9.910156 14.320313 9 15.46875 9 17 L 9 26 L 5.0625 26 C 5.195313 16.398438 7.007813 11.34375 9.375 8.84375 C 11.683594 6.40625 14.613281 6.097656 17.5625 6.0625 Z"/></svg>