<svg fill="#000000" xmlns="http://www.w3.org/2000/svg"  viewBox="0 0 32 32" width="32px" height="32px"><path d="M 11 2.5859375 L 2.9394531 10.646484 L 4.3535156 12.060547 L 6.7578125 9.65625 L 8.9296875 11.828125 L 10.34375 10.414062 L 8.171875 8.2421875 L 8.8789062 7.5351562 L 11.048828 9.7070312 L 12.464844 8.2929688 L 10.292969 6.1210938 L 11 5.4140625 L 13.171875 7.5859375 L 14.585938 6.171875 L 11 2.5859375 z M 18.125 4 C 17.224 4 16.306625 4.0394844 15.390625 4.1464844 L 17.259766 6.015625 C 17.354766 6.012625 17.449922 6.0078594 17.544922 6.0058594 L 18.664062 8 L 19.25 8 C 22.896 8 26.782234 12.227 26.990234 24 L 21.525391 24 C 21.643072 23.85032 21.763988 23.702589 21.873047 23.546875 C 23.230685 21.608436 24 19.206716 24 17 L 22 17 C 22 18.722284 21.340487 20.82108 20.234375 22.400391 C 19.128263 23.979701 17.664699 25 16 25 C 14.336909 25 12.872244 23.974858 11.765625 22.392578 C 10.659006 20.810298 10 18.711045 10 17 C 10 16.556131 10.09495 16.333221 10.228516 16.15625 C 10.36208 15.979279 10.576504 15.821042 10.929688 15.681641 C 11.636052 15.402839 12.825739 15.289412 14.083984 15.183594 C 15.34223 15.077775 16.675226 14.982025 17.855469 14.4375 C 19.035712 13.892975 20 12.660378 20 11 L 18 11 C 18 12.044122 17.714288 12.300556 17.019531 12.621094 C 16.324774 12.941631 15.15777 13.086975 13.916016 13.191406 C 12.674261 13.295838 11.363949 13.361005 10.195312 13.822266 C 9.6109951 14.052896 9.0441696 14.405495 8.6308594 14.953125 C 8.2175491 15.500755 8 16.216619 8 17 C 8 19.197955 8.7698223 21.598592 10.126953 23.539062 C 10.237835 23.697605 10.360675 23.847665 10.480469 24 L 5.0078125 24 C 5.0778125 19.754 5.6003125 16.501 6.4453125 14 L 4.3378906 14 C 3.4928906 16.821 3 20.416 3 25 L 3 26 L 12.646484 26 C 13.633981 26.62129 14.760598 27 16 27 C 17.24015 27 18.368903 26.620976 19.357422 26 L 29 26 L 29 25 C 29 8.702 22.621562 6.2992969 19.851562 6.0292969 L 18.710938 4 L 18.125 4 z M 13 17 C 12.448 17 12 17.448 12 18 C 12 18.552 12.448 19 13 19 C 13.552 19 14 18.552 14 18 C 14 17.448 13.552 17 13 17 z M 19 17 C 18.448 17 18 17.448 18 18 C 18 18.552 18.448 19 19 19 C 19.552 19 20 18.552 20 18 C 20 17.448 19.552 17 19 17 z"/></svg>