<svg id="Capa_1" enable-background="new 0 0 512 512" height="512" viewBox="0 0 512 512" width="512" xmlns="http://www.w3.org/2000/svg"><g><path d="m372.28 127.516v-47.949c0-43.874-35.694-79.567-79.567-79.567h-73.426c-43.874 0-79.567 35.693-79.567 79.567v47.949c-36.721 20.35-60 59.361-60 101.764v282.72h352.56v-282.72c0-42.404-23.28-81.415-60-101.764zm-30 135.204c0 12.499-2.693 24.374-7.495 35.108-14.437-28.918-44.327-48.828-78.785-48.828s-64.348 19.91-78.784 48.828c-4.802-10.734-7.495-22.609-7.495-35.108v-123.72c0-27.331 22.236-49.567 49.567-49.567h73.426c27.331 0 49.567 22.236 49.567 49.567v123.72zm-29.113 64.546c-15.234 13.508-35.253 21.734-57.167 21.734s-41.933-8.226-57.167-21.734c4.645-27.361 28.504-48.266 57.167-48.266s52.522 20.905 57.167 48.266zm-93.88-297.266h73.426c26.388 0 48.021 20.73 49.482 46.76-13.595-10.831-30.79-17.327-49.482-17.327h-73.426c-18.693 0-35.887 6.496-49.482 17.327 1.461-26.03 23.094-46.76 49.482-46.76zm182.993 452h-292.56v-252.72c0-25.431 11.286-49.216 30-65.38v98.82c0 64.117 52.163 116.28 116.28 116.28s116.28-52.163 116.28-116.28v-98.82c18.714 16.164 30 39.949 30 65.38z"/><path d="m214.72 417h82.56v30h-82.56z"/><path d="m482 29.845v-29.845h-30v29.845h-29.925v30h30v-29.845h29.925v29.845h30v-30z"/><path d="m452 60h30v30h-30z"/><path d="m89.925 59.845v-30h-30v-29.845h-30v29.845h-29.925v30h30v-29.845h29.925v29.845z"/><path d="m29.925 60h30v30h-30z"/></g></svg>