<svg id="Capa_1" enable-background="new 0 0 512.443 512.443" height="512" viewBox="0 0 512.443 512.443" width="512" xmlns="http://www.w3.org/2000/svg"><g><path d="m162.45 303.146c-24.846.036-45.167 19.746-46.189 44.353l-27.086-14.145v-57.221c0-6.428-1.144-12.842-3.708-18.737-17.824-40.992-83.546-32.805-85.246 18.292v122.804l71.273 74v39.951h137.32v-162.209c.001-25.504-20.86-47.125-46.364-47.088zm16.365 179.297h-77.32v-22.049l-71.273-74v-110.706c.417-15.423 19.278-19.167 26.606-8.402 1.611 2.366 2.347 5.22 2.347 8.082v76.163l87.046 45.457v-47.114c0-9.116 7.459-16.879 16.574-16.726 8.859.148 16.02 7.401 16.02 16.295z"/><path d="m467.601 231.068c-9.012-.011-17.497 2.73-24.599 7.451-12.507 8.316-19.735 22.596-19.735 37.615v57.219l-27.086 14.145c-1.022-24.607-21.343-44.317-46.189-44.353-25.504-.037-46.365 21.584-46.365 47.088v162.209h137.32v-39.951l71.273-74v-122.803c.001-24.604-20.015-44.62-44.619-44.62zm14.62 155.326-71.273 74v22.049h-77.32v-132.569c0-9.116 7.459-16.879 16.574-16.726 8.859.148 16.02 7.401 16.02 16.295v47.546l87.046-45.457v-76.162c0-2.863.737-5.718 2.348-8.085 7.33-10.766 26.188-7.02 26.605 8.403z"/><path d="m330.739 262.044c19.942-21.001 30.482-49.533 30.482-82.511 0-81.375-90.938-166.513-94.809-170.097l-10.191-9.436-10.191 9.437c-3.872 3.584-94.809 88.722-94.809 170.097 0 32.978 10.541 61.51 30.482 82.511 15.836 16.677 36.585 27.176 59.518 30.362v56.036h30v-56.036c22.933-3.187 43.682-13.685 59.518-30.363zm-149.518-82.51c0-53.788 52.396-114.292 75.009-137.896 22.624 23.58 74.991 83.99 74.991 137.896 0 43.59-24.018 75.565-60 82.491v-49.177l33.134-15.877-12.964-27.055-20.17 9.665v-37.138h-30v37.138l-20.17-9.665-12.964 27.055 33.134 15.877v49.177c-35.982-6.927-60-38.901-60-82.491z"/></g></svg>