<svg fill="#000000" xmlns="http://www.w3.org/2000/svg"  viewBox="0 0 24 24" width="24px" height="24px"><path d="M 3.0175781 2.0273438 L 3.0175781 9.0273438 L 3.0175781 12.027344 C 3.0175781 13.672314 4.3726083 15.027344 6.0175781 15.027344 L 8.6582031 15.027344 L 8.6582031 15.029297 C 8.3721933 15.993939 8.0175781 17.08443 8.0175781 18.027344 C 8.0175781 20.224678 9.8202443 22.027344 12.017578 22.027344 C 14.214912 22.027344 16.017578 20.224678 16.017578 18.027344 C 16.017578 17.084094 15.662488 15.993583 15.378906 15.03125 L 15.378906 15.029297 L 15.378906 15.027344 L 18.017578 15.027344 C 19.662548 15.027344 21.017578 13.672314 21.017578 12.027344 L 21.017578 9.0273438 L 21.017578 2.0273438 L 19.017578 2.0273438 L 19.017578 9.0273438 L 17.017578 9.0273438 L 17.017578 2.0273438 L 15.017578 2.0273438 L 15.017578 9.0273438 L 13.017578 9.0273438 L 13.017578 2.0273438 L 11.017578 2.0273438 L 11.017578 9.0273438 L 9.0175781 9.0273438 L 9.0175781 2.0273438 L 7.0175781 2.0273438 L 7.0175781 9.0273438 L 5.0175781 9.0273438 L 5.0175781 2.0273438 L 3.0175781 2.0273438 z M 5.0175781 11.027344 L 19.017578 11.027344 L 19.017578 12.027344 C 19.017578 12.592374 18.582608 13.027344 18.017578 13.027344 L 15.378906 13.027344 C 14.068815 13.027344 13.091427 14.342188 13.460938 15.595703 L 13.460938 15.597656 C 13.731172 16.51524 14.017578 17.836739 14.017578 18.027344 C 14.017578 19.14401 13.134244 20.027344 12.017578 20.027344 C 10.900912 20.027344 10.017578 19.14401 10.017578 18.027344 C 10.017578 17.838258 10.302229 16.515014 10.574219 15.597656 C 10.945648 14.342617 9.968957 13.027344 8.6582031 13.027344 L 6.0175781 13.027344 C 5.452548 13.027344 5.0175781 12.592374 5.0175781 12.027344 L 5.0175781 11.027344 z"/></svg>