<svg fill="#000000" xmlns="http://www.w3.org/2000/svg"  viewBox="0 0 24 24" width="24px" height="24px"><path d="M 13.460938 0.033203125 L 11.539062 0.58203125 L 13.369141 7 L 15.447266 7 L 13.460938 0.033203125 z M 18.539062 0.033203125 L 16.552734 7 L 18.630859 7 L 20.460938 0.58203125 L 18.539062 0.033203125 z M 11 9 L 11 10.5625 C 11.054614 10.632646 11.101996 10.707966 11.152344 10.78125 C 11.271289 10.948037 11.390116 11.114783 11.488281 11.296875 C 12.023281 11.387875 12.529 11.568547 13 11.810547 L 13 11 L 14.509766 11 L 14.960938 12.582031 L 14.757812 13.291016 C 15.102813 13.747016 15.385312 14.257219 15.570312 14.824219 C 15.697154 15.215221 15.771183 15.608344 15.802734 16 L 15.794922 16 C 15.850922 16.687 15.765594 17.363 15.558594 18 L 16.505859 18 L 17.082031 20.023438 L 19.005859 19.474609 L 18.585938 18 L 22 18 L 22 22 L 14.244141 22 C 14.076141 22.718 13.764781 23.403 13.300781 24 L 22 24 C 23.105 24 24 23.105 24 22 L 24 14 C 24 12.895 23.105 12 22 12 L 20.998047 12 L 21 11.001953 C 21.000001 11.001299 20.999999 11.000654 21 11 L 21 9 L 19 9 L 13.939453 9 L 13 9 L 11 9 z M 6.9140625 10.535156 C 5.312643 10.535156 3.9801291 11.734541 3.7441406 13.275391 C 3.4774878 13.231388 3.2112483 13.209199 2.9492188 13.232422 C 1.6998752 13.343148 0.56693549 14.183642 0.15820312 15.443359 C -0.33687477 16.966476 0.39214045 18.603563 1.7832031 19.304688 C 1.0684246 20.689591 1.4420074 22.442972 2.7382812 23.384766 C 4.0346603 24.325686 5.8180153 24.138336 6.9140625 23.03125 C 8.0101904 24.137514 9.7918707 24.325425 11.087891 23.384766 A 1.0001 1.0001 0 0 0 11.089844 23.384766 C 12.385152 22.442367 12.75778 20.689341 12.042969 19.304688 C 13.434769 18.604016 14.163234 16.967054 13.667969 15.443359 C 13.259236 14.183642 12.126297 13.343149 10.876953 13.232422 C 10.615536 13.209252 10.350016 13.231654 10.083984 13.275391 C 9.8479959 11.734541 8.515482 10.535156 6.9140625 10.535156 z M 17.490234 11 L 19 11 L 19 14 L 22 14 L 22 16 L 18.013672 16 L 17.039062 12.582031 L 17.490234 11 z M 6.9140625 12.535156 C 7.5986543 12.535156 8.1328125 13.070371 8.1328125 13.755859 C 8.1328125 13.760659 8.0647885 14.080583 7.8886719 14.4375 C 7.7642101 14.689733 7.5763369 14.97633 7.3984375 15.255859 C 7.3294327 15.341233 7.2550803 15.427242 7.1894531 15.511719 C 7.0791746 15.653671 7.0132298 15.757589 6.9140625 15.892578 C 6.8145886 15.757286 6.7472662 15.654017 6.6367188 15.511719 C 6.5726312 15.429224 6.5007809 15.345082 6.4335938 15.261719 C 6.2541842 14.980166 6.0648326 14.691593 5.9394531 14.4375 C 5.7633362 14.080583 5.6953125 13.760701 5.6953125 13.755859 C 5.6953125 13.070371 6.2294707 12.535156 6.9140625 12.535156 z M 3.1113281 15.220703 C 3.2695131 15.208207 3.4346314 15.226307 3.5976562 15.279297 C 3.6022863 15.280797 3.8849087 15.442873 4.1699219 15.720703 C 4.372217 15.9179 4.5872492 16.186505 4.7988281 16.443359 C 4.8584279 16.534798 4.9168237 16.63069 4.9765625 16.71875 C 5.0777517 16.867912 5.1559539 16.963279 5.2539062 17.099609 C 5.0943304 17.15246 4.9744898 17.182851 4.8046875 17.244141 C 4.7049495 17.280141 4.6016076 17.324496 4.5 17.363281 C 4.1778516 17.446261 3.8456279 17.535624 3.5664062 17.576172 C 3.1726534 17.633352 2.8477915 17.598976 2.84375 17.597656 C 2.1914877 17.385643 1.8485866 16.712646 2.0605469 16.060547 C 2.2188145 15.572764 2.6367733 15.258191 3.1113281 15.220703 z M 10.714844 15.220703 C 11.188849 15.258191 11.607357 15.572764 11.765625 16.060547 C 11.977585 16.712646 11.634684 17.385643 10.982422 17.597656 C 10.978422 17.598956 10.653519 17.633352 10.259766 17.576172 C 9.9810989 17.535705 9.6496264 17.446041 9.328125 17.363281 C 9.2264129 17.324402 9.123401 17.280222 9.0234375 17.244141 C 8.8534186 17.182773 8.7340765 17.150563 8.5742188 17.097656 C 8.6718636 16.96173 8.7507123 16.867412 8.8515625 16.71875 C 8.913376 16.627631 8.9735114 16.528318 9.0351562 16.433594 C 9.2441397 16.180403 9.4565934 15.915328 9.65625 15.720703 C 9.9412631 15.442873 10.22584 15.280801 10.230469 15.279297 C 10.393493 15.226307 10.556842 15.208207 10.714844 15.220703 z M 5.8886719 19.048828 C 5.889634 19.217253 5.8828616 19.340726 5.8886719 19.521484 C 5.8919354 19.623012 5.9011451 19.730002 5.90625 19.833984 C 5.886146 20.171397 5.8687144 20.520265 5.8203125 20.802734 C 5.7530775 21.195111 5.6200371 21.494121 5.6171875 21.498047 C 5.2150392 22.051559 4.4688235 22.170227 3.9140625 21.767578 C 3.3609056 21.365689 3.2426421 20.617609 3.6445312 20.064453 A 1.0001 1.0001 0 0 0 3.6445312 20.0625 C 3.6471712 20.0589 3.8900029 19.841468 4.2421875 19.65625 C 4.4903478 19.52574 4.809759 19.403057 5.1171875 19.28125 C 5.2243275 19.252426 5.3356318 19.227333 5.4394531 19.197266 C 5.6132025 19.146946 5.7281327 19.100058 5.8886719 19.048828 z M 7.9394531 19.050781 C 8.0993415 19.101817 8.2136394 19.14714 8.3867188 19.197266 C 8.4924616 19.22789 8.6056676 19.253878 8.7148438 19.283203 C 9.0207775 19.404545 9.3389137 19.526337 9.5859375 19.65625 C 9.9381221 19.841468 10.180958 20.058868 10.183594 20.0625 A 1.0001 1.0001 0 0 0 10.183594 20.064453 C 10.585671 20.617868 10.46633 21.364356 9.9121094 21.767578 C 9.3575224 22.168765 8.6126786 22.050999 8.2109375 21.498047 C 8.2080875 21.494147 8.0730944 21.195111 8.0058594 20.802734 C 7.9578445 20.522525 7.9400653 20.176425 7.9199219 19.841797 C 7.9253327 19.73515 7.9361076 19.625565 7.9394531 19.521484 C 7.9452394 19.341473 7.9385742 19.218577 7.9394531 19.050781 z"/></svg>