<svg fill="#000000" xmlns="http://www.w3.org/2000/svg"  viewBox="0 0 24 24" width="24px" height="24px"><path d="M 12 1 C 10.35499 1 9 2.3549904 9 4 C 9 4.7686023 9.3041302 5.4666507 9.7871094 6 L 7 6 L 7 8 L 8 8 L 8 20 L 7 20 L 7 22 L 17 22 L 17 20 L 16 20 L 16 8 L 17 8 L 17 6 L 14.212891 6 C 14.69587 5.4666507 15 4.7686023 15 4 C 15 2.3549904 13.64501 1 12 1 z M 12 3 C 12.564129 3 13 3.4358706 13 4 C 13 4.5641294 12.564129 5 12 5 C 11.435871 5 11 4.5641294 11 4 C 11 3.4358706 11.435871 3 12 3 z M 10 8 L 13.585938 8 L 10 11.585938 L 10 8 z M 14 10.414062 L 14 13.585938 L 10 17.585938 L 10 14.414062 L 14 10.414062 z M 14 16.414062 L 14 20 L 10.414062 20 L 14 16.414062 z"/></svg>