<svg fill="#000000" xmlns="http://www.w3.org/2000/svg"  viewBox="0 0 20.693 20.721" width="24px" height="24px"><path d="M 14.306641 0 L 12.761719 1.4824219 L 12 0.72070312 C 12 0.72070312 6.707 5.5997031 6 7.7207031 C 5 10.720703 4 10.720703 4 10.720703 C 4 10.720703 0 11.720703 0 15.720703 A 5 5 0 0 0 5 20.720703 C 9 20.720703 10 16.720703 10 16.720703 C 10 16.720703 10 15.720703 13 14.720703 C 15.121 14.013703 20 8.7207031 20 8.7207031 L 19.177734 7.8984375 L 20.693359 6.4414062 L 19.306641 5 L 17.763672 6.484375 L 16.71875 5.4394531 L 18.234375 3.9824219 L 16.845703 2.5410156 L 15.304688 4.0253906 L 14.177734 2.8984375 L 15.693359 1.4433594 L 14.306641 0 z M 11.96875 3.5195312 L 17.199219 8.7519531 C 15.262219 10.706953 13.152234 12.561219 12.365234 12.824219 C 9.1652344 13.891219 8.2062969 15.253219 8.0292969 16.324219 A 3.245 3.245 0 0 1 5 18.720703 A 3 3 0 0 1 2 15.720703 A 3.247 3.247 0 0 1 4.390625 12.689453 C 5.462625 12.515453 6.8284844 11.558516 7.8964844 8.3535156 C 8.1594844 7.5655156 10.01375 5.4545312 11.96875 3.5195312 z M 12.5 6.7207031 A 1.5 1.5 0 0 0 12.5 9.7207031 A 1.5 1.5 0 0 0 12.5 6.7207031 z M 9 10.720703 A 1 1 0 0 0 9 12.720703 A 1 1 0 0 0 9 10.720703 z"/></svg>