<svg fill="#000000" xmlns="http://www.w3.org/2000/svg"  viewBox="0 0 24 24" width="24px" height="24px"><path d="M 11.650391 0 C 10.603369 0 9.7342998 0.55899048 9.0957031 1.2617188 C 8.4593177 1.9620136 8.0050983 2.8497311 8.0019531 3.8417969 C 7.9858485 5.0027571 8.6893936 5.7176202 9.2050781 6.3730469 C 9.4636074 6.7016334 9.7054291 6.9997246 9.8554688 7.2207031 C 9.9064922 7.2958508 9.9218325 7.3410755 9.9433594 7.390625 C 9.9327528 7.4101935 9.9361201 7.4142528 9.9199219 7.4375 C 9.8113831 7.5932714 9.6198717 7.8149236 9.4101562 8.0546875 C 9.200441 8.2944514 8.9712535 8.5512949 8.765625 8.8457031 C 8.5599965 9.1401114 8.3234381 9.4715645 8.3242188 10.039062 C 8.3250045 10.605666 8.5619677 10.932593 8.7675781 11.224609 C 8.9731885 11.516626 9.2027642 11.770525 9.4121094 12.007812 C 9.6214545 12.2451 9.8112951 12.464987 9.9199219 12.619141 C 9.9343881 12.63967 9.9313981 12.64243 9.9414062 12.660156 C 9.9309684 12.679166 9.933439 12.682779 9.9179688 12.705078 C 9.8091441 12.861942 9.6175738 13.08557 9.4082031 13.326172 C 9.1988324 13.566773 8.9707335 13.824429 8.765625 14.119141 C 8.5605165 14.413852 8.3257679 14.743926 8.3242188 15.308594 C 8.3227287 15.855867 8.5409558 16.188722 8.7382812 16.488281 C 8.9356067 16.78784 9.1596948 17.051457 9.3671875 17.298828 C 9.5746802 17.546199 9.7659564 17.777378 9.8867188 17.949219 C 9.9463905 18.034129 9.9792985 18.108566 9.9960938 18.144531 C 10.000317 18.380561 9.707326 19.51309 9.3027344 20.416016 C 8.8881527 21.341235 8.4550781 22.105469 8.4550781 22.105469 L 10.193359 23.09375 C 10.193359 23.09375 10.669488 22.257703 11.128906 21.232422 C 11.588325 20.207141 12.118111 19.101981 11.994141 17.898438 L 11.994141 17.896484 C 11.940901 17.383055 11.724362 17.084738 11.523438 16.798828 C 11.322511 16.512919 11.100695 16.254801 10.898438 16.013672 C 10.696179 15.772543 10.515018 15.547863 10.410156 15.388672 C 10.388934 15.356455 10.38919 15.347409 10.376953 15.322266 C 10.389108 15.298562 10.387549 15.291396 10.408203 15.261719 C 10.517845 15.10418 10.708339 14.881524 10.917969 14.640625 C 11.127598 14.399726 11.355622 14.14109 11.560547 13.845703 C 11.765472 13.550317 12.001553 13.218514 12 12.652344 C 11.9984 12.086122 11.760341 11.760597 11.554688 11.46875 C 11.349032 11.176903 11.121389 10.92276 10.912109 10.685547 C 10.70283 10.448334 10.512718 10.228202 10.404297 10.074219 C 10.390679 10.054878 10.394403 10.052051 10.384766 10.035156 C 10.394976 10.016896 10.391396 10.013455 10.40625 9.9921875 C 10.515413 9.8359558 10.706106 9.613033 10.916016 9.3730469 C 11.125925 9.1330608 11.355054 8.8749942 11.560547 8.5800781 C 11.766039 8.285162 12.003129 7.9533753 12 7.3847656 C 11.996209 6.7699216 11.73832 6.4342714 11.509766 6.0976562 C 11.281211 5.7610411 11.020689 5.4460072 10.777344 5.1367188 C 10.290652 4.5181418 10.000008 3.8667373 10 3.8671875 L 10 3.859375 L 10 3.8515625 C 10 3.5398103 10.214565 3.0031937 10.574219 2.6074219 C 10.933872 2.2116501 11.390413 2 11.650391 2 L 12.351562 2 C 13.27412 2 14 2.7258795 14 3.6484375 L 14 24 L 16 24 L 16 3.6484375 C 16 1.6449955 14.355005 0 12.351562 0 L 11.650391 0 z"/></svg>