<svg fill="#000000" xmlns="http://www.w3.org/2000/svg"  viewBox="0 0 24 24" width="24px" height="24px"><path d="M 14.033203 1.9863281 C 11.469534 1.9873281 9.2989436 3.9298908 9.015625 6.4785156 L 8.9667969 6.921875 L 6.2382812 10.708984 A 1.0001 1.0001 0 0 0 6.2128906 10.746094 C 6.3161435 10.588292 6.1525396 10.805074 6.0175781 10.933594 C 5.8826167 11.062117 5.75297 11.176718 5.6367188 11.292969 L 4.2226562 12.707031 C 3.2798706 13.649817 3.0151781 14.950569 3.2421875 16.085938 C 3.4691969 17.221305 4.104753 18.245379 4.9296875 19.070312 C 5.802182 19.942808 6.854438 20.571025 7.9902344 20.775391 C 9.1260307 20.979756 10.384428 20.685881 11.292969 19.777344 L 12.707031 18.363281 C 12.824162 18.246151 12.938212 18.117157 13.066406 17.982422 C 13.1946 17.847686 13.411872 17.685066 13.251953 17.789062 A 1.0001 1.0001 0 0 0 13.291016 17.761719 L 17.078125 15.035156 L 17.523438 14.986328 C 20.072401 14.702972 22.015625 12.532089 22.015625 9.9667969 C 22.015625 8.6283648 21.484431 7.3418525 20.537109 6.3945312 L 17.605469 3.4648438 C 16.658918 2.5182928 15.373944 1.9843532 14.035156 1.9863281 L 14.033203 1.9863281 z M 14.035156 3.9863281 A 1.0001 1.0001 0 0 0 14.037109 3.9863281 C 14.353716 3.9857393 14.660489 4.0480171 14.957031 4.1425781 A 1.5 1.5 0 0 0 14.828125 4.1367188 A 1.5 1.5 0 0 0 14.828125 7.1367188 A 1.5 1.5 0 0 0 16.042969 4.7578125 C 16.09111 4.8002405 16.145743 4.8332428 16.191406 4.8789062 L 19.123047 7.8085938 C 19.170355 7.8559021 19.204226 7.9129035 19.248047 7.9628906 A 1.5 1.5 0 0 0 18.363281 7.671875 A 1.5 1.5 0 0 0 18.363281 10.671875 A 1.5 1.5 0 0 0 19.855469 9.0332031 C 19.95225 9.3335927 20.015625 9.6451562 20.015625 9.9667969 C 20.015625 11.529505 18.85577 12.825403 17.302734 12.998047 L 16.59375 13.078125 L 16.279297 13.113281 L 15.435547 13.205078 C 14.641435 13.291065 13.851422 13.15285 13.150391 12.816406 C 13.149596 12.816024 13.149232 12.814836 13.148438 12.814453 C 13.008912 12.747387 12.872032 12.6723 12.740234 12.589844 C 12.739465 12.589361 12.73905 12.588374 12.738281 12.587891 C 12.606996 12.505639 12.479698 12.415446 12.357422 12.318359 C 12.356329 12.317489 12.354608 12.317278 12.353516 12.316406 C 12.245292 12.230295 12.143136 12.136481 12.042969 12.039062 C 12.029705 12.026144 12.015066 12.015066 12.001953 12.001953 L 12 12 C 11.887147 11.887147 11.781851 11.767874 11.683594 11.644531 C 11.487382 11.397795 11.320444 11.131991 11.185547 10.851562 C 11.05065 10.571134 10.946872 10.276081 10.876953 9.9726562 C 10.807179 9.6698584 10.770951 9.3580262 10.769531 9.0429688 C 10.76953 9.0423219 10.769532 9.0416625 10.769531 9.0410156 C 10.768896 8.8838013 10.777857 8.7266369 10.794922 8.5683594 L 10.794922 8.5664062 L 11.003906 6.6992188 C 11.176514 5.1465018 12.473691 3.9863281 14.035156 3.9863281 z M 13.767578 8.7324219 A 1.5 1.5 0 0 0 13.767578 11.732422 A 1.5 1.5 0 0 0 13.767578 8.7324219 z M 8.9238281 10.402344 C 9.1795135 11.530314 9.7497269 12.577456 10.585938 13.414062 C 10.586283 13.414408 10.585592 13.41567 10.585938 13.416016 C 11.42286 14.252939 12.471734 14.820488 13.599609 15.076172 L 12.162109 16.111328 C 11.83919 16.321325 11.768243 16.444751 11.617188 16.603516 C 11.466131 16.76228 11.309838 16.932349 11.292969 16.949219 L 9.8789062 18.363281 C 9.429447 18.812741 8.9669537 18.918775 8.34375 18.806641 C 7.7205463 18.694506 6.9772555 18.289756 6.34375 17.65625 C 5.7546845 17.067184 5.3296156 16.325991 5.203125 15.693359 C 5.0766344 15.060727 5.1655043 14.592308 5.6367188 14.121094 L 7.0507812 12.707031 C 7.06853 12.689282 7.2379458 12.531836 7.3964844 12.380859 C 7.555023 12.229883 7.6774659 12.159645 7.8867188 11.839844 L 8.9238281 10.402344 z M 8.4648438 14.535156 C 8.2089687 14.535156 7.9528125 14.633125 7.7578125 14.828125 C 7.3668125 15.218125 7.3668125 15.851187 7.7578125 16.242188 C 8.1478125 16.633188 8.780875 16.633188 9.171875 16.242188 C 9.562875 15.852188 9.562875 15.219125 9.171875 14.828125 C 8.976375 14.633125 8.7207188 14.535156 8.4648438 14.535156 z"/></svg>