<svg fill="#000000" xmlns="http://www.w3.org/2000/svg"  viewBox="0 0 24 24" width="24px" height="24px"><path d="M 14.636719 6.4375 L 12.638672 6.5449219 C 12.770814 9.0037414 10.924683 11.068307 8.4824219 11.253906 C 8.9278993 10.271373 9.2096125 9.2077074 9.0605469 8.0644531 L 7.078125 8.3242188 C 7.3028532 10.047765 6.3929652 11.611126 4.9394531 12.361328 C 4.9020934 11.748749 4.7930015 11.149076 4.5332031 10.625 L 2.7421875 11.513672 C 2.9075293 11.847206 3 12.21841 3 12.621094 C 3 13.26936 2.7554869 13.849504 2.3554688 14.292969 C 1.6040624 14.874206 0.83040555 15.539968 0.025390625 16.324219 L 1.421875 17.755859 C 3.8737916 15.367185 5.9194811 14.155612 7.6523438 13.626953 C 9.3852064 13.098295 10.829522 13.218443 12.240234 13.626953 C 14.61684 14.315163 16.84381 15.940011 19.466797 16.458984 L 19.455078 16.515625 C 19.661012 16.561545 19.83367 16.517422 20.033203 16.544922 C 20.345391 16.584482 20.635232 16.6875 20.960938 16.6875 L 20.960938 16.591797 C 21.990437 16.587497 22.955917 16.425023 23.771484 15.958984 L 22.779297 14.222656 C 22.117997 14.600542 21.416401 14.70066 20.529297 14.607422 C 20.184992 14.573345 19.833588 14.491273 19.478516 14.390625 C 21.229059 13.596028 22.634239 12.138655 23.330078 10.304688 L 21.460938 9.59375 C 20.655677 11.716109 18.553757 13.155996 16.173828 13.035156 C 16.0918 12.997357 16.00887 12.95978 15.925781 12.921875 C 17.857424 11.917274 19.249474 9.9722863 19.425781 7.6503906 L 17.431641 7.5 C 17.242579 9.989863 15.092646 11.8336 12.603516 11.644531 L 12.601562 11.662109 C 12.557185 11.650064 12.509555 11.644372 12.464844 11.632812 C 13.88775 10.361265 14.746584 8.4818148 14.636719 6.4375 z"/></svg>