<svg fill="#000000" xmlns="http://www.w3.org/2000/svg"  viewBox="0 0 24 24" width="24px" height="24px"><path d="M 6 3 C 3.2504839 3 1 5.2504839 1 8 C 1 9.2024436 1.4833988 10.272722 2.1953125 11.136719 L 3.0039062 18.279297 C 3.1428797 19.810993 4.4451306 21 5.984375 21 C 7.7281049 21 9.1227204 19.474925 8.9648438 17.738281 L 8.9628906 17.722656 L 8.7539062 16 L 10 16 L 10 14 L 8.5136719 14 L 8.3554688 12.697266 C 8.3332837 12.439469 8.5002904 12.232029 8.7597656 12.203125 L 8.8046875 12.197266 L 14.335938 11.064453 L 14.339844 11.064453 C 14.792822 10.978613 15.260836 11.01064 15.697266 11.15625 C 15.697266 11.15625 15.699219 11.15625 15.699219 11.15625 L 19 12.476562 L 19 3.4707031 L 15.820312 4.8613281 C 15.316044 5.0272612 14.778048 5.0445152 14.263672 4.9042969 C 13.256371 4.6291752 11.625029 4.1586169 10.048828 3.7558594 C 8.4726278 3.3531019 7.0450212 3 6 3 z M 6 5 C 6.4669788 5 8.0176848 5.3011169 9.5527344 5.6933594 C 10.817571 6.0165558 11.995914 6.3532851 13 6.6328125 L 13 9.296875 L 8.4492188 10.228516 L 8.5390625 10.214844 C 7.2196548 10.361816 6.2392631 11.560164 6.3613281 12.882812 L 6.3632812 12.896484 L 6.9707031 17.921875 C 7.0220556 18.515045 6.5810369 19 5.984375 19 C 5.4616194 19 5.0431204 18.617913 4.9960938 18.099609 L 4.9941406 18.087891 L 4.1210938 10.361328 L 3.875 10.115234 C 3.3336493 9.5716284 3 8.8309425 3 8 C 3 6.3315161 4.3315161 5 6 5 z M 21 5 L 21 7 L 23 7 L 23 5 L 21 5 z M 17 6.5292969 L 17 9.5234375 L 16.361328 9.2675781 L 16.333984 9.2578125 C 15.901713 9.1132425 15.452339 9.0402125 15 9.0253906 L 15 6.9941406 C 15.496513 6.991874 15.992375 6.9172886 16.46875 6.7578125 L 16.511719 6.7421875 L 16.552734 6.7246094 L 17 6.5292969 z M 6 7 A 1 1 0 0 0 5 8 A 1 1 0 0 0 6 9 A 1 1 0 0 0 7 8 A 1 1 0 0 0 6 7 z M 21 9 L 21 11 L 23 11 L 23 9 L 21 9 z"/></svg>