<svg fill="#000000" xmlns="http://www.w3.org/2000/svg"  viewBox="0 0 24 24" width="24px" height="24px"><path d="M 13.970703 1.0742188 A 1.0001 1.0001 0 0 0 13.849609 1.0859375 C 11.123692 1.4991655 9.6500708 3.2789871 9.1757812 3.96875 A 1.0001 1.0001 0 0 0 9 4.5351562 L 9 7.28125 C 8.4072606 7.630903 8 8.2711814 8 9 L 8 15 A 1.0001 1.0001 0 0 0 7 16 L 7 21 C 7 22.093063 7.9069372 23 9 23 L 15 23 C 16.093063 23 17 22.093063 17 21 L 17 16 A 1.0001 1.0001 0 0 0 16 15 L 16 9 C 16 8.2711814 15.592739 7.630903 15 7.28125 L 15 2.0742188 A 1.0001 1.0001 0 0 0 13.970703 1.0742188 z M 13 3.5488281 L 13 7 L 11 7 L 11 4.9199219 C 11.280702 4.5463313 11.984864 4.0063794 13 3.5488281 z M 10 9 L 14 9 L 14 15 L 10 15 L 10 9 z M 9 17 L 15 17 L 15 21 L 9 21 L 9 17 z"/></svg>