<svg fill="#000000" xmlns="http://www.w3.org/2000/svg"  viewBox="0 0 24 24" width="24px" height="24px"><path d="M 9 2 A 1.0001 1.0001 0 0 0 8 3 L 8 7 L 4 7 A 1.0001 1.0001 0 0 0 3 8 L 3 20 A 1.0001 1.0001 0 0 0 4 21 L 20 21 A 1.0001 1.0001 0 0 0 21 20 L 21 8 A 1.0001 1.0001 0 0 0 20 7 L 16 7 L 16 3 A 1.0001 1.0001 0 0 0 15 2 L 9 2 z M 10 4 L 14 4 L 14 7 L 10 7 L 10 4 z M 5 9 L 19 9 L 19 13 L 16 13 L 16 12 A 1.0001 1.0001 0 0 0 15 11 L 9 11 A 1.0001 1.0001 0 0 0 8 12 L 8 13 L 5 13 L 5 9 z M 10 13 L 14 13 L 14 15 L 10 15 L 10 13 z M 5 15 L 8 15 L 8 16 A 1.0001 1.0001 0 0 0 9 17 L 15 17 A 1.0001 1.0001 0 0 0 16 16 L 16 15 L 19 15 L 19 19 L 5 19 L 5 15 z"/></svg>