<svg fill="#000000" xmlns="http://www.w3.org/2000/svg"  viewBox="0 0 24 24" width="24px" height="24px"><path d="M 16.033203 0.74609375 C 14.983759 0.74609375 14.042829 1.4067709 13.683594 2.3925781 L 13.171875 3.7988281 L 13.169922 3.8027344 L 12.701172 3.6308594 A 1.0001 1.0001 0 0 0 11.419922 4.2285156 L 10.125 7.7871094 C 9.36453 8.0962578 8.727263 8.7006937 8.4277344 9.5253906 L 5.0078125 18.921875 A 1.0001 1.0001 0 0 0 5.6054688 20.203125 L 13.121094 22.939453 A 1.0001 1.0001 0 0 0 14.404297 22.341797 L 17.824219 12.945312 C 18.124121 12.121771 18.025617 11.249189 17.642578 10.523438 L 18.9375 6.9648438 A 1.0001 1.0001 0 0 0 18.339844 5.6835938 L 17.869141 5.5117188 L 17.871094 5.5078125 L 18.382812 4.1035156 C 18.851515 2.816658 18.175715 1.3672059 16.888672 0.8984375 L 16.886719 0.8984375 C 16.615439 0.80036765 16.326298 0.74609375 16.033203 0.74609375 z M 16.033203 2.7460938 C 16.089493 2.7460938 16.145151 2.7578699 16.205078 2.7792969 C 16.205078 2.7792969 16.207031 2.7792969 16.207031 2.7792969 C 16.471997 2.8774829 16.600848 3.1518072 16.503906 3.4179688 L 16.503906 3.4199219 L 15.992188 4.8242188 L 15.052734 4.4824219 L 15.5625 3.0761719 C 15.63326 2.8819791 15.826647 2.7460937 16.033203 2.7460938 z M 5.6289062 5.3066406 L 1.5605469 16.484375 L 3.4394531 17.169922 L 7.5078125 5.9902344 L 5.6289062 5.3066406 z M 12.957031 5.8535156 L 16.714844 7.2207031 L 16.03125 9.0996094 L 12.273438 7.7324219 L 12.957031 5.8535156 z M 11.191406 9.5488281 C 11.321355 9.5432055 11.455345 9.5630601 11.587891 9.6113281 L 12.527344 9.953125 L 11.501953 12.771484 L 9.6230469 12.087891 L 10.306641 10.208984 C 10.450841 9.811954 10.80156 9.5656961 11.191406 9.5488281 z M 14.408203 10.638672 L 15.347656 10.980469 C 15.87703 11.172737 16.138385 11.731536 15.945312 12.261719 A 1.0001 1.0001 0 0 0 15.943359 12.261719 L 15.259766 14.140625 L 13.380859 13.457031 L 14.408203 10.638672 z M 20.710938 11.306641 L 16.640625 22.484375 L 18.521484 23.169922 L 22.589844 11.990234 L 20.710938 11.306641 z M 8.9375 13.96875 L 10.818359 14.652344 L 10.148438 16.490234 A 1.0001 1.0001 0 1 0 12.027344 17.173828 L 12.697266 15.335938 L 14.576172 16.019531 L 12.865234 20.71875 L 7.2285156 18.666016 L 8.9375 13.96875 z"/></svg>