<svg fill="#000000" xmlns="http://www.w3.org/2000/svg"  viewBox="0 0 24 24" width="24px" height="24px"><path d="M 0.38867188 5.828125 L 0.20703125 6.8203125 C 0.07883637 7.5194593 0 8.2467992 0 9 C 0 15.615466 5.3845336 21 12 21 C 18.615466 21 24 15.615466 24 9 C 24 8.2467992 23.921164 7.5194593 23.792969 6.8203125 L 23.613281 5.8359375 L 22.628906 6.015625 C 15.426034 7.3425994 8.3500232 7.3528491 1.3789062 6.0175781 L 0.38867188 5.828125 z M 21.917969 8.1328125 C 21.944999 8.4218589 22 8.7071377 22 9 C 22 9.3927531 21.971496 9.7774313 21.927734 10.158203 C 15.333304 11.266217 8.7199725 11.258184 2.0703125 10.15625 C 2.0267187 9.7761933 2 9.3919889 2 9 C 2 8.7084451 2.0552336 8.4244909 2.0820312 8.1367188 C 8.6046645 9.2590772 15.22266 9.249573 21.917969 8.1328125 z M 2.5507812 12.257812 C 8.8677292 13.223122 15.170598 13.231391 21.447266 12.261719 C 21.230652 12.891529 20.954632 13.491255 20.623047 14.056641 C 14.898434 15.340354 9.1612664 15.282594 3.3769531 14.054688 C 3.0450194 13.48849 2.7674164 12.888585 2.5507812 12.257812 z M 5.3359375 16.449219 C 9.7735847 17.154174 14.213361 17.186224 18.640625 16.470703 C 16.875347 18.040362 14.555431 19 12 19 C 9.4331083 19 7.1040603 18.031475 5.3359375 16.449219 z"/></svg>