<svg fill="#000000" xmlns="http://www.w3.org/2000/svg"  viewBox="0 0 24 24" width="24px" height="24px"><path d="M 12 2 C 9.6 2 7.6 3.8992187 7.5 6.1992188 C 7.2 6.0992188 6.9 6.0996094 6.5 6.0996094 C 4 6.0996094 2 8.0996094 2 10.599609 C 2 12.499609 3.2003906 14.200781 4.9003906 14.800781 C 4.4003906 15.500781 3.9003906 16.4 3.9003906 17.5 C 4.0003906 19.9 6.1 22 8.5 22 C 9.9 22 11.2 21.300781 12 20.300781 C 12.8 21.300781 14.1 22 15.5 22 C 18 22 20 20 20 17.5 C 20 16.5 19.599609 15.500781 19.099609 14.800781 C 20.799609 14.200781 22 12.499609 22 10.599609 C 22 8.0996094 20 6.0996094 17.5 6.0996094 C 17.2 6.0996094 16.8 6.0992188 16.5 6.1992188 C 16.4 3.8992188 14.4 2 12 2 z M 12 4 C 13.4 4 14.5 5.1 14.5 6.5 C 14.5 6.9 14.399219 7.1996094 14.199219 7.5996094 L 13 9.5625 L 13 7 L 11 7 L 11 9.5625 L 9.8007812 7.5996094 C 9.6007812 7.1996094 9.5 6.9 9.5 6.5 C 9.5 5.1 10.6 4 12 4 z M 6.5 8.0996094 C 7 8.0996094 7.4007813 8.3 7.8007812 8.5 L 9.3808594 10.869141 L 7.4003906 10.099609 L 6.5996094 11.900391 L 8.6582031 12.712891 C 7.6078079 12.904351 6.5553322 13.099609 6.5 13.099609 C 5.2 13.099609 4 11.999609 4 10.599609 C 4 9.1996094 5.2 8.0996094 6.5 8.0996094 z M 17.599609 8.0996094 C 18.999609 8.0996094 20.099609 9.1996094 20.099609 10.599609 C 20.099609 11.999609 18.8 13.099609 17.5 13.099609 C 17.443676 13.099609 16.395445 12.899059 15.359375 12.705078 L 17.400391 11.900391 L 16.599609 10.099609 L 14.755859 10.816406 L 16.300781 8.5 C 16.600781 8.3 16.999609 8.0996094 17.599609 8.0996094 z M 14.5625 14.712891 L 16.400391 15.199219 C 16.900391 15.399219 18 16.3 18 17.5 C 18 18.8 16.9 20 15.5 20 C 14.2 20 13.2 18.9 13 18 L 13 16.017578 L 14.199219 17.599609 L 15.800781 16.400391 L 14.5625 14.712891 z M 9.4257812 14.728516 L 8.1992188 16.400391 L 9.8007812 17.599609 L 11 16.017578 L 11 18 C 10.8 18.9 9.8 20 8.5 20 C 7 20 6 18.7 6 17.5 C 6 16.2 7.2992188 15.399219 7.6992188 15.199219 L 9.4257812 14.728516 z"/></svg>