<svg fill="#000000" xmlns="http://www.w3.org/2000/svg"  viewBox="0 0 24 24" width="24px" height="24px"><path d="M 6.2109375 2.9980469 A 1.0001 1.0001 0 0 0 5.5429688 3.2910156 L 4.1289062 4.7050781 C 2.9658333 5.8681512 2.9658332 7.7841926 4.1289062 8.9472656 L 9.6679688 14.486328 L 2.7636719 16.158203 A 1.0001 1.0001 0 0 0 2.046875 17.433594 L 3.2597656 21.246094 A 1.0001 1.0001 0 0 0 4.4492188 21.914062 L 19.707031 18.197266 L 21.310547 19.724609 L 22.689453 18.275391 L 21.808594 17.4375 A 1.0001 1.0001 0 0 0 21.957031 16.572266 L 20.84375 12.759766 A 1.0001 1.0001 0 0 0 19.871094 12.041016 A 1.0001 1.0001 0 0 0 19.648438 12.068359 L 16.878906 12.740234 L 6.9394531 3.2734375 A 1.0001 1.0001 0 0 0 6.2109375 2.9980469 z M 6.2675781 5.3945312 L 14.564453 13.298828 L 11.945312 13.933594 L 5.5429688 7.5332031 C 5.1440418 7.1342762 5.1440417 6.5180676 5.5429688 6.1191406 L 6.2675781 5.3945312 z M 19.191406 14.236328 L 19.746094 16.128906 L 4.8828125 19.75 L 4.2773438 17.851562 L 19.191406 14.236328 z"/></svg>